# Blockout ambulance patient compartment. Double-sided panels so the interior renders with backface culling.
o ambulance_interior_blockout
v -1.15 0.00 -2.80
v  1.15 0.00 -2.80
v  1.15 0.00  2.55
v -1.15 0.00  2.55
v -1.15 1.95 -2.80
v  1.15 1.95 -2.80
v  1.15 1.95  2.55
v -1.15 1.95  2.55
v -1.15 0.00 -2.80
v -1.15 0.00  2.55
v -1.15 1.95  2.55
v -1.15 1.95 -2.80
v  1.15 0.00 -2.80
v  1.15 1.95 -2.80
v  1.15 1.95  2.55
v  1.15 0.00  2.55
v -1.15 0.00 -2.80
v -1.15 1.95 -2.80
v  1.15 1.95 -2.80
v  1.15 0.00 -2.80
v -0.95 0.00  2.55
v  0.95 0.00  2.55
v  0.95 1.55  2.55
v -0.95 1.55  2.55
f 1 2 3
f 1 3 4
f 1 3 2
f 1 4 3
f 5 7 6
f 5 8 7
f 5 6 7
f 5 7 8
f 9 10 11
f 9 11 12
f 9 11 10
f 9 12 11
f 13 14 15
f 13 15 16
f 13 15 14
f 13 16 15
f 17 18 19
f 17 19 20
f 17 19 18
f 17 20 19
f 21 22 23
f 21 23 24
f 21 23 22
f 21 24 23
