o stretcher_blockout
v -0.42 0.00 -1.05
v  0.42 0.00 -1.05
v  0.42 0.12 -1.05
v -0.42 0.12 -1.05
v -0.42 0.00  1.05
v  0.42 0.00  1.05
v  0.42 0.12  1.05
v -0.42 0.12  1.05
v -0.34 -0.34 -0.86
v -0.28 -0.34 -0.86
v -0.28 0.00 -0.86
v -0.34 0.00 -0.86
v 0.28 -0.34 -0.86
v 0.34 -0.34 -0.86
v 0.34 0.00 -0.86
v 0.28 0.00 -0.86
v -0.34 -0.34 0.86
v -0.28 -0.34 0.86
v -0.28 0.00 0.86
v -0.34 0.00 0.86
v 0.28 -0.34 0.86
v 0.34 -0.34 0.86
v 0.34 0.00 0.86
v 0.28 0.00 0.86
f 1 2 3
f 1 3 4
f 5 7 6
f 5 8 7
f 1 5 6
f 1 6 2
f 4 3 7
f 4 7 8
f 1 4 8
f 1 8 5
f 2 6 7
f 2 7 3
f 9 10 11
f 9 11 12
f 13 14 15
f 13 15 16
f 17 18 19
f 17 19 20
f 21 22 23
f 21 23 24
