mtllib character.mtl
o character

vt 0.0 0.0
vt 1.0 0.0
vt 1.0 1.0
vt 0.0 1.0

vn 0.0 1.0 0.0
vn 0.0 -1.0 0.0
vn 0.0 0.0 1.0
vn 0.0 0.0 -1.0
vn 1.0 0.0 0.0
vn -1.0 0.0 0.0

# Head box
v -0.14 1.41 -0.13
v 0.14 1.41 -0.13
v 0.14 1.69 -0.13
v -0.14 1.69 -0.13
v -0.14 1.41 0.13
v 0.14 1.41 0.13
v 0.14 1.69 0.13
v -0.14 1.69 0.13
usemtl character_skin
f 4/1/1 8/2/1 7/3/1 3/4/1
f 1/1/2 2/2/2 6/3/2 5/4/2
f 5/1/3 6/2/3 7/3/3 8/4/3
f 2/1/4 1/2/4 4/3/4 3/4/4
f 6/1/5 2/2/5 3/3/5 7/4/5
f 1/1/6 5/2/6 8/3/6 4/4/6

# Torso box
v -0.25 0.79 -0.14
v 0.25 0.79 -0.14
v 0.25 1.41 -0.14
v -0.25 1.41 -0.14
v -0.25 0.79 0.14
v 0.25 0.79 0.14
v 0.25 1.41 0.14
v -0.25 1.41 0.14
usemtl character_torso
f 12/1/1 16/2/1 15/3/1 11/4/1
f 9/1/2 10/2/2 14/3/2 13/4/2
f 13/1/3 14/2/3 15/3/3 16/4/3
f 10/1/4 9/2/4 12/3/4 11/4/4
f 14/1/5 10/2/5 11/3/5 15/4/5
f 9/1/6 13/2/6 16/3/6 12/4/6

# Left leg box
v -0.23 0.00 -0.11
v -0.03 0.00 -0.11
v -0.03 0.80 -0.11
v -0.23 0.80 -0.11
v -0.23 0.00 0.11
v -0.03 0.00 0.11
v -0.03 0.80 0.11
v -0.23 0.80 0.11
usemtl character_legs
f 20/1/1 24/2/1 23/3/1 19/4/1
f 17/1/2 18/2/2 22/3/2 21/4/2
f 21/1/3 22/2/3 23/3/3 24/4/3
f 18/1/4 17/2/4 20/3/4 19/4/4
f 22/1/5 18/2/5 19/3/5 23/4/5
f 17/1/6 21/2/6 24/3/6 20/4/6

# Right leg box
v 0.03 0.00 -0.11
v 0.23 0.00 -0.11
v 0.23 0.80 -0.11
v 0.03 0.80 -0.11
v 0.03 0.00 0.11
v 0.23 0.00 0.11
v 0.23 0.80 0.11
v 0.03 0.80 0.11
usemtl character_legs
f 28/1/1 32/2/1 31/3/1 27/4/1
f 25/1/2 26/2/2 30/3/2 29/4/2
f 29/1/3 30/2/3 31/3/3 32/4/3
f 26/1/4 25/2/4 28/3/4 27/4/4
f 30/1/5 26/2/5 27/3/5 31/4/5
f 25/1/6 29/2/6 32/3/6 28/4/6

# Left arm box
v -0.43 0.78 -0.07
v -0.29 0.78 -0.07
v -0.29 1.32 -0.07
v -0.43 1.32 -0.07
v -0.43 0.78 0.07
v -0.29 0.78 0.07
v -0.29 1.32 0.07
v -0.43 1.32 0.07
usemtl character_skin
f 36/1/1 40/2/1 39/3/1 35/4/1
f 33/1/2 34/2/2 38/3/2 37/4/2
f 37/1/3 38/2/3 39/3/3 40/4/3
f 34/1/4 33/2/4 36/3/4 35/4/4
f 38/1/5 34/2/5 35/3/5 39/4/5
f 33/1/6 37/2/6 40/3/6 36/4/6

# Right arm box
v 0.29 0.78 -0.07
v 0.43 0.78 -0.07
v 0.43 1.32 -0.07
v 0.29 1.32 -0.07
v 0.29 0.78 0.07
v 0.43 0.78 0.07
v 0.43 1.32 0.07
v 0.29 1.32 0.07
usemtl character_skin
f 44/1/1 48/2/1 47/3/1 43/4/1
f 41/1/2 42/2/2 46/3/2 45/4/2
f 45/1/3 46/2/3 47/3/3 48/4/3
f 42/1/4 41/2/4 44/3/4 43/4/4
f 46/1/5 42/2/5 43/3/5 47/4/5
f 41/1/6 45/2/6 48/3/6 44/4/6
