mtllib reference_room.mtl
o reference_room
v -2.0 0.0 -2.0
v 2.0 0.0 -2.0
v 2.0 0.0 2.0
v -2.0 0.0 2.0
v -2.0 2.4 -2.0
v 2.0 2.4 -2.0
v 2.0 2.4 2.0
v -2.0 2.4 2.0
vt 0.0 0.0
vt 1.0 0.0
vt 1.0 1.0
vt 0.0 1.0
vn 0.0 1.0 0.0
vn 0.0 -1.0 0.0
vn 0.0 0.0 1.0
vn 0.0 0.0 -1.0
vn 1.0 0.0 0.0
vn -1.0 0.0 0.0
usemtl reference_floor
f 1/1/1 4/2/1 3/3/1 2/4/1
usemtl reference_ceiling
f 5/1/2 6/2/2 7/3/2 8/4/2
usemtl reference_wall
f 1/1/3 2/2/3 6/3/3 5/4/3
f 4/1/4 8/2/4 7/3/4 3/4/4
f 1/1/5 5/2/5 8/3/5 4/4/5
f 2/1/6 3/2/6 7/3/6 6/4/6
