# Generated by tools/generate_hospital_ward_assets.py
mtllib hospital_ward_materials.mtl
o bedside_table
v -0.255000 0.000000 -0.250000
v 0.255000 0.000000 -0.250000
v 0.255000 0.840000 -0.250000
v -0.255000 0.840000 -0.250000
v -0.255000 0.000000 0.250000
v 0.255000 0.000000 0.250000
v 0.255000 0.840000 0.250000
v -0.255000 0.840000 0.250000
v -0.310000 0.000000 -0.195000
v 0.310000 0.000000 -0.195000
v 0.310000 0.840000 -0.195000
v -0.310000 0.840000 -0.195000
v -0.310000 0.000000 0.195000
v 0.310000 0.000000 0.195000
v 0.310000 0.840000 0.195000
v -0.310000 0.840000 0.195000
v -0.200000 0.000000 -0.195000
v -0.200000 0.840000 -0.195000
v -0.212868 0.000000 -0.159647
v -0.212868 0.840000 -0.159647
v -0.245449 0.000000 -0.140836
v -0.245449 0.840000 -0.140836
v -0.282500 0.000000 -0.147369
v -0.282500 0.840000 -0.147369
v -0.306683 0.000000 -0.176189
v -0.306683 0.840000 -0.176189
v -0.306683 0.000000 -0.213811
v -0.306683 0.840000 -0.213811
v -0.282500 0.000000 -0.242631
v -0.282500 0.840000 -0.242631
v -0.245449 0.000000 -0.249164
v -0.245449 0.840000 -0.249164
v -0.212868 0.000000 -0.230353
v -0.212868 0.840000 -0.230353
v -0.200000 0.000000 0.195000
v -0.200000 0.840000 0.195000
v -0.212868 0.000000 0.230353
v -0.212868 0.840000 0.230353
v -0.245449 0.000000 0.249164
v -0.245449 0.840000 0.249164
v -0.282500 0.000000 0.242631
v -0.282500 0.840000 0.242631
v -0.306683 0.000000 0.213811
v -0.306683 0.840000 0.213811
v -0.306683 0.000000 0.176189
v -0.306683 0.840000 0.176189
v -0.282500 0.000000 0.147369
v -0.282500 0.840000 0.147369
v -0.245449 0.000000 0.140836
v -0.245449 0.840000 0.140836
v -0.212868 0.000000 0.159647
v -0.212868 0.840000 0.159647
v 0.310000 0.000000 -0.195000
v 0.310000 0.840000 -0.195000
v 0.297132 0.000000 -0.159647
v 0.297132 0.840000 -0.159647
v 0.264551 0.000000 -0.140836
v 0.264551 0.840000 -0.140836
v 0.227500 0.000000 -0.147369
v 0.227500 0.840000 -0.147369
v 0.203317 0.000000 -0.176189
v 0.203317 0.840000 -0.176189
v 0.203317 0.000000 -0.213811
v 0.203317 0.840000 -0.213811
v 0.227500 0.000000 -0.242631
v 0.227500 0.840000 -0.242631
v 0.264551 0.000000 -0.249164
v 0.264551 0.840000 -0.249164
v 0.297132 0.000000 -0.230353
v 0.297132 0.840000 -0.230353
v 0.310000 0.000000 0.195000
v 0.310000 0.840000 0.195000
v 0.297132 0.000000 0.230353
v 0.297132 0.840000 0.230353
v 0.264551 0.000000 0.249164
v 0.264551 0.840000 0.249164
v 0.227500 0.000000 0.242631
v 0.227500 0.840000 0.242631
v 0.203317 0.000000 0.213811
v 0.203317 0.840000 0.213811
v 0.203317 0.000000 0.176189
v 0.203317 0.840000 0.176189
v 0.227500 0.000000 0.147369
v 0.227500 0.840000 0.147369
v 0.264551 0.000000 0.140836
v 0.264551 0.840000 0.140836
v 0.297132 0.000000 0.159647
v 0.297132 0.840000 0.159647
v -0.275000 0.822500 -0.280000
v 0.275000 0.822500 -0.280000
v 0.275000 0.857500 -0.280000
v -0.275000 0.857500 -0.280000
v -0.275000 0.822500 0.240000
v 0.275000 0.822500 0.240000
v 0.275000 0.857500 0.240000
v -0.275000 0.857500 0.240000
v -0.320000 0.822500 -0.235000
v 0.320000 0.822500 -0.235000
v 0.320000 0.857500 -0.235000
v -0.320000 0.857500 -0.235000
v -0.320000 0.822500 0.195000
v 0.320000 0.822500 0.195000
v 0.320000 0.857500 0.195000
v -0.320000 0.857500 0.195000
v -0.230000 0.822500 -0.235000
v -0.230000 0.857500 -0.235000
v -0.240528 0.822500 -0.206075
v -0.240528 0.857500 -0.206075
v -0.267186 0.822500 -0.190684
v -0.267186 0.857500 -0.190684
v -0.297500 0.822500 -0.196029
v -0.297500 0.857500 -0.196029
v -0.317286 0.822500 -0.219609
v -0.317286 0.857500 -0.219609
v -0.317286 0.822500 -0.250391
v -0.317286 0.857500 -0.250391
v -0.297500 0.822500 -0.273971
v -0.297500 0.857500 -0.273971
v -0.267186 0.822500 -0.279316
v -0.267186 0.857500 -0.279316
v -0.240528 0.822500 -0.263925
v -0.240528 0.857500 -0.263925
v -0.230000 0.822500 0.195000
v -0.230000 0.857500 0.195000
v -0.240528 0.822500 0.223925
v -0.240528 0.857500 0.223925
v -0.267186 0.822500 0.239316
v -0.267186 0.857500 0.239316
v -0.297500 0.822500 0.233971
v -0.297500 0.857500 0.233971
v -0.317286 0.822500 0.210391
v -0.317286 0.857500 0.210391
v -0.317286 0.822500 0.179609
v -0.317286 0.857500 0.179609
v -0.297500 0.822500 0.156029
v -0.297500 0.857500 0.156029
v -0.267186 0.822500 0.150684
v -0.267186 0.857500 0.150684
v -0.240528 0.822500 0.166075
v -0.240528 0.857500 0.166075
v 0.320000 0.822500 -0.235000
v 0.320000 0.857500 -0.235000
v 0.309472 0.822500 -0.206075
v 0.309472 0.857500 -0.206075
v 0.282814 0.822500 -0.190684
v 0.282814 0.857500 -0.190684
v 0.252500 0.822500 -0.196029
v 0.252500 0.857500 -0.196029
v 0.232714 0.822500 -0.219609
v 0.232714 0.857500 -0.219609
v 0.232714 0.822500 -0.250391
v 0.232714 0.857500 -0.250391
v 0.252500 0.822500 -0.273971
v 0.252500 0.857500 -0.273971
v 0.282814 0.822500 -0.279316
v 0.282814 0.857500 -0.279316
v 0.309472 0.822500 -0.263925
v 0.309472 0.857500 -0.263925
v 0.320000 0.822500 0.195000
v 0.320000 0.857500 0.195000
v 0.309472 0.822500 0.223925
v 0.309472 0.857500 0.223925
v 0.282814 0.822500 0.239316
v 0.282814 0.857500 0.239316
v 0.252500 0.822500 0.233971
v 0.252500 0.857500 0.233971
v 0.232714 0.822500 0.210391
v 0.232714 0.857500 0.210391
v 0.232714 0.822500 0.179609
v 0.232714 0.857500 0.179609
v 0.252500 0.822500 0.156029
v 0.252500 0.857500 0.156029
v 0.282814 0.822500 0.150684
v 0.282814 0.857500 0.150684
v 0.309472 0.822500 0.166075
v 0.309472 0.857500 0.166075
v -0.260000 0.610000 -0.290000
v 0.260000 0.610000 -0.290000
v 0.260000 0.790000 -0.290000
v -0.260000 0.790000 -0.290000
v -0.260000 0.610000 -0.250000
v 0.260000 0.610000 -0.250000
v 0.260000 0.790000 -0.250000
v -0.260000 0.790000 -0.250000
v -0.220000 0.709000 -0.301000
v 0.220000 0.709000 -0.301000
v 0.220000 0.731000 -0.301000
v -0.220000 0.731000 -0.301000
v -0.220000 0.709000 -0.283000
v 0.220000 0.709000 -0.283000
v 0.220000 0.731000 -0.283000
v -0.220000 0.731000 -0.283000
v -0.260000 0.310000 -0.290000
v 0.260000 0.310000 -0.290000
v 0.260000 0.530000 -0.290000
v -0.260000 0.530000 -0.290000
v -0.260000 0.310000 -0.250000
v 0.260000 0.310000 -0.250000
v 0.260000 0.530000 -0.250000
v -0.260000 0.530000 -0.250000
v -0.260000 0.010000 -0.290000
v 0.260000 0.010000 -0.290000
v 0.260000 0.230000 -0.290000
v -0.260000 0.230000 -0.290000
v -0.260000 0.010000 -0.250000
v 0.260000 0.010000 -0.250000
v 0.260000 0.230000 -0.250000
v -0.260000 0.230000 -0.250000
v -0.150000 0.422500 -0.327500
v 0.150000 0.422500 -0.327500
v 0.150000 0.457500 -0.327500
v -0.150000 0.457500 -0.327500
v -0.150000 0.422500 -0.292500
v 0.150000 0.422500 -0.292500
v 0.150000 0.457500 -0.292500
v -0.150000 0.457500 -0.292500
v -0.150000 0.122500 -0.327500
v 0.150000 0.122500 -0.327500
v 0.150000 0.157500 -0.327500
v -0.150000 0.157500 -0.327500
v -0.150000 0.122500 -0.292500
v 0.150000 0.122500 -0.292500
v 0.150000 0.157500 -0.292500
v -0.150000 0.157500 -0.292500
v -0.280000 0.920000 -0.270000
v 0.280000 0.920000 -0.270000
v 0.280000 0.980000 -0.270000
v -0.280000 0.980000 -0.270000
v -0.280000 0.920000 0.270000
v 0.280000 0.920000 0.270000
v 0.280000 0.980000 0.270000
v -0.280000 0.980000 0.270000
v -0.330000 0.920000 -0.220000
v 0.330000 0.920000 -0.220000
v 0.330000 0.980000 -0.220000
v -0.330000 0.980000 -0.220000
v -0.330000 0.920000 0.220000
v 0.330000 0.920000 0.220000
v 0.330000 0.980000 0.220000
v -0.330000 0.980000 0.220000
v -0.230000 0.920000 -0.220000
v -0.230000 0.980000 -0.220000
v -0.241698 0.920000 -0.187861
v -0.241698 0.980000 -0.187861
v -0.271318 0.920000 -0.170760
v -0.271318 0.980000 -0.170760
v -0.305000 0.920000 -0.176699
v -0.305000 0.980000 -0.176699
v -0.326985 0.920000 -0.202899
v -0.326985 0.980000 -0.202899
v -0.326985 0.920000 -0.237101
v -0.326985 0.980000 -0.237101
v -0.305000 0.920000 -0.263301
v -0.305000 0.980000 -0.263301
v -0.271318 0.920000 -0.269240
v -0.271318 0.980000 -0.269240
v -0.241698 0.920000 -0.252139
v -0.241698 0.980000 -0.252139
v -0.230000 0.920000 0.220000
v -0.230000 0.980000 0.220000
v -0.241698 0.920000 0.252139
v -0.241698 0.980000 0.252139
v -0.271318 0.920000 0.269240
v -0.271318 0.980000 0.269240
v -0.305000 0.920000 0.263301
v -0.305000 0.980000 0.263301
v -0.326985 0.920000 0.237101
v -0.326985 0.980000 0.237101
v -0.326985 0.920000 0.202899
v -0.326985 0.980000 0.202899
v -0.305000 0.920000 0.176699
v -0.305000 0.980000 0.176699
v -0.271318 0.920000 0.170760
v -0.271318 0.980000 0.170760
v -0.241698 0.920000 0.187861
v -0.241698 0.980000 0.187861
v 0.330000 0.920000 -0.220000
v 0.330000 0.980000 -0.220000
v 0.318302 0.920000 -0.187861
v 0.318302 0.980000 -0.187861
v 0.288682 0.920000 -0.170760
v 0.288682 0.980000 -0.170760
v 0.255000 0.920000 -0.176699
v 0.255000 0.980000 -0.176699
v 0.233015 0.920000 -0.202899
v 0.233015 0.980000 -0.202899
v 0.233015 0.920000 -0.237101
v 0.233015 0.980000 -0.237101
v 0.255000 0.920000 -0.263301
v 0.255000 0.980000 -0.263301
v 0.288682 0.920000 -0.269240
v 0.288682 0.980000 -0.269240
v 0.318302 0.920000 -0.252139
v 0.318302 0.980000 -0.252139
v 0.330000 0.920000 0.220000
v 0.330000 0.980000 0.220000
v 0.318302 0.920000 0.252139
v 0.318302 0.980000 0.252139
v 0.288682 0.920000 0.269240
v 0.288682 0.980000 0.269240
v 0.255000 0.920000 0.263301
v 0.255000 0.980000 0.263301
v 0.233015 0.920000 0.237101
v 0.233015 0.980000 0.237101
v 0.233015 0.920000 0.202899
v 0.233015 0.980000 0.202899
v 0.255000 0.920000 0.176699
v 0.255000 0.980000 0.176699
v 0.288682 0.920000 0.170760
v 0.288682 0.980000 0.170760
v 0.318302 0.920000 0.187861
v 0.318302 0.980000 0.187861
v -0.206000 0.017500 -0.190000
v -0.206000 0.062500 -0.190000
v -0.212493 0.017500 -0.170015
v -0.212493 0.062500 -0.170015
v -0.229493 0.017500 -0.157664
v -0.229493 0.062500 -0.157664
v -0.250507 0.017500 -0.157664
v -0.250507 0.062500 -0.157664
v -0.267507 0.017500 -0.170015
v -0.267507 0.062500 -0.170015
v -0.274000 0.017500 -0.190000
v -0.274000 0.062500 -0.190000
v -0.267507 0.017500 -0.209985
v -0.267507 0.062500 -0.209985
v -0.250507 0.017500 -0.222336
v -0.250507 0.062500 -0.222336
v -0.229493 0.017500 -0.222336
v -0.229493 0.062500 -0.222336
v -0.212493 0.017500 -0.209985
v -0.212493 0.062500 -0.209985
v -0.206000 0.017500 0.190000
v -0.206000 0.062500 0.190000
v -0.212493 0.017500 0.209985
v -0.212493 0.062500 0.209985
v -0.229493 0.017500 0.222336
v -0.229493 0.062500 0.222336
v -0.250507 0.017500 0.222336
v -0.250507 0.062500 0.222336
v -0.267507 0.017500 0.209985
v -0.267507 0.062500 0.209985
v -0.274000 0.017500 0.190000
v -0.274000 0.062500 0.190000
v -0.267507 0.017500 0.170015
v -0.267507 0.062500 0.170015
v -0.250507 0.017500 0.157664
v -0.250507 0.062500 0.157664
v -0.229493 0.017500 0.157664
v -0.229493 0.062500 0.157664
v -0.212493 0.017500 0.170015
v -0.212493 0.062500 0.170015
v 0.274000 0.017500 -0.190000
v 0.274000 0.062500 -0.190000
v 0.267507 0.017500 -0.170015
v 0.267507 0.062500 -0.170015
v 0.250507 0.017500 -0.157664
v 0.250507 0.062500 -0.157664
v 0.229493 0.017500 -0.157664
v 0.229493 0.062500 -0.157664
v 0.212493 0.017500 -0.170015
v 0.212493 0.062500 -0.170015
v 0.206000 0.017500 -0.190000
v 0.206000 0.062500 -0.190000
v 0.212493 0.017500 -0.209985
v 0.212493 0.062500 -0.209985
v 0.229493 0.017500 -0.222336
v 0.229493 0.062500 -0.222336
v 0.250507 0.017500 -0.222336
v 0.250507 0.062500 -0.222336
v 0.267507 0.017500 -0.209985
v 0.267507 0.062500 -0.209985
v 0.274000 0.017500 0.190000
v 0.274000 0.062500 0.190000
v 0.267507 0.017500 0.209985
v 0.267507 0.062500 0.209985
v 0.250507 0.017500 0.222336
v 0.250507 0.062500 0.222336
v 0.229493 0.017500 0.222336
v 0.229493 0.062500 0.222336
v 0.212493 0.017500 0.209985
v 0.212493 0.062500 0.209985
v 0.206000 0.017500 0.190000
v 0.206000 0.062500 0.190000
v 0.212493 0.017500 0.170015
v 0.212493 0.062500 0.170015
v 0.229493 0.017500 0.157664
v 0.229493 0.062500 0.157664
v 0.250507 0.017500 0.157664
v 0.250507 0.062500 0.157664
v 0.267507 0.017500 0.170015
v 0.267507 0.062500 0.170015
v 0.140000 0.960000 -0.110000
v 0.220000 0.960000 -0.110000
v 0.220000 1.080000 -0.110000
v 0.140000 1.080000 -0.110000
v 0.140000 0.960000 0.030000
v 0.220000 0.960000 0.030000
v 0.220000 1.080000 0.030000
v 0.140000 1.080000 0.030000
v 0.110000 0.960000 -0.080000
v 0.250000 0.960000 -0.080000
v 0.250000 1.080000 -0.080000
v 0.110000 1.080000 -0.080000
v 0.110000 0.960000 0.000000
v 0.250000 0.960000 0.000000
v 0.250000 1.080000 0.000000
v 0.110000 1.080000 0.000000
v 0.170000 0.960000 -0.080000
v 0.170000 1.080000 -0.080000
v 0.161213 0.960000 -0.058787
v 0.161213 1.080000 -0.058787
v 0.140000 0.960000 -0.050000
v 0.140000 1.080000 -0.050000
v 0.118787 0.960000 -0.058787
v 0.118787 1.080000 -0.058787
v 0.110000 0.960000 -0.080000
v 0.110000 1.080000 -0.080000
v 0.118787 0.960000 -0.101213
v 0.118787 1.080000 -0.101213
v 0.140000 0.960000 -0.110000
v 0.140000 1.080000 -0.110000
v 0.161213 0.960000 -0.101213
v 0.161213 1.080000 -0.101213
v 0.170000 0.960000 0.000000
v 0.170000 1.080000 0.000000
v 0.161213 0.960000 0.021213
v 0.161213 1.080000 0.021213
v 0.140000 0.960000 0.030000
v 0.140000 1.080000 0.030000
v 0.118787 0.960000 0.021213
v 0.118787 1.080000 0.021213
v 0.110000 0.960000 0.000000
v 0.110000 1.080000 0.000000
v 0.118787 0.960000 -0.021213
v 0.118787 1.080000 -0.021213
v 0.140000 0.960000 -0.030000
v 0.140000 1.080000 -0.030000
v 0.161213 0.960000 -0.021213
v 0.161213 1.080000 -0.021213
v 0.250000 0.960000 -0.080000
v 0.250000 1.080000 -0.080000
v 0.241213 0.960000 -0.058787
v 0.241213 1.080000 -0.058787
v 0.220000 0.960000 -0.050000
v 0.220000 1.080000 -0.050000
v 0.198787 0.960000 -0.058787
v 0.198787 1.080000 -0.058787
v 0.190000 0.960000 -0.080000
v 0.190000 1.080000 -0.080000
v 0.198787 0.960000 -0.101213
v 0.198787 1.080000 -0.101213
v 0.220000 0.960000 -0.110000
v 0.220000 1.080000 -0.110000
v 0.241213 0.960000 -0.101213
v 0.241213 1.080000 -0.101213
v 0.250000 0.960000 0.000000
v 0.250000 1.080000 0.000000
v 0.241213 0.960000 0.021213
v 0.241213 1.080000 0.021213
v 0.220000 0.960000 0.030000
v 0.220000 1.080000 0.030000
v 0.198787 0.960000 0.021213
v 0.198787 1.080000 0.021213
v 0.190000 0.960000 0.000000
v 0.190000 1.080000 0.000000
v 0.198787 0.960000 -0.021213
v 0.198787 1.080000 -0.021213
v 0.220000 0.960000 -0.030000
v 0.220000 1.080000 -0.030000
v 0.241213 0.960000 -0.021213
v 0.241213 1.080000 -0.021213
v -0.230000 1.005000 -0.240000
v 0.010000 1.005000 -0.240000
v 0.010000 1.025000 -0.240000
v -0.230000 1.025000 -0.240000
v -0.230000 1.005000 -0.080000
v 0.010000 1.005000 -0.080000
v 0.010000 1.025000 -0.080000
v -0.230000 1.025000 -0.080000
v -0.200000 1.025000 -0.169000
v -0.020000 1.025000 -0.169000
v -0.020000 1.039000 -0.169000
v -0.200000 1.039000 -0.169000
v -0.200000 1.025000 -0.151000
v -0.020000 1.025000 -0.151000
v -0.020000 1.039000 -0.151000
v -0.200000 1.039000 -0.151000
v -0.125000 0.970000 0.080000
v -0.125000 1.090000 0.080000
v -0.132369 0.970000 0.107500
v -0.132369 1.090000 0.107500
v -0.152500 0.970000 0.127631
v -0.152500 1.090000 0.127631
v -0.180000 0.970000 0.135000
v -0.180000 1.090000 0.135000
v -0.207500 0.970000 0.127631
v -0.207500 1.090000 0.127631
v -0.227631 0.970000 0.107500
v -0.227631 1.090000 0.107500
v -0.235000 0.970000 0.080000
v -0.235000 1.090000 0.080000
v -0.227631 0.970000 0.052500
v -0.227631 1.090000 0.052500
v -0.207500 0.970000 0.032369
v -0.207500 1.090000 0.032369
v -0.180000 0.970000 0.025000
v -0.180000 1.090000 0.025000
v -0.152500 0.970000 0.032369
v -0.152500 1.090000 0.032369
v -0.132369 0.970000 0.052500
v -0.132369 1.090000 0.052500
v -0.146000 1.086000 0.080000
v -0.146000 1.104000 0.080000
v -0.150555 1.086000 0.097000
v -0.150555 1.104000 0.097000
v -0.163000 1.086000 0.109445
v -0.163000 1.104000 0.109445
v -0.180000 1.086000 0.114000
v -0.180000 1.104000 0.114000
v -0.197000 1.086000 0.109445
v -0.197000 1.104000 0.109445
v -0.209445 1.086000 0.097000
v -0.209445 1.104000 0.097000
v -0.214000 1.086000 0.080000
v -0.214000 1.104000 0.080000
v -0.209445 1.086000 0.063000
v -0.209445 1.104000 0.063000
v -0.197000 1.086000 0.050555
v -0.197000 1.104000 0.050555
v -0.180000 1.086000 0.046000
v -0.180000 1.104000 0.046000
v -0.163000 1.086000 0.050555
v -0.163000 1.104000 0.050555
v -0.150555 1.086000 0.063000
v -0.150555 1.104000 0.063000
v 0.090000 1.036000 0.100000
v 0.310000 1.036000 0.100000
v 0.310000 1.054000 0.100000
v 0.090000 1.054000 0.100000
v 0.090000 1.036000 0.220000
v 0.310000 1.036000 0.220000
v 0.310000 1.054000 0.220000
v 0.090000 1.054000 0.220000
v 0.140000 1.053000 0.150000
v 0.260000 1.053000 0.150000
v 0.260000 1.067000 0.150000
v 0.140000 1.067000 0.150000
v 0.140000 1.053000 0.170000
v 0.260000 1.053000 0.170000
v 0.260000 1.067000 0.170000
v 0.140000 1.067000 0.170000
v -0.300000 1.043000 0.020000
v -0.180000 1.043000 0.020000
v -0.180000 1.061000 0.020000
v -0.300000 1.061000 0.020000
v -0.300000 1.043000 0.220000
v -0.180000 1.043000 0.220000
v -0.180000 1.061000 0.220000
v -0.300000 1.061000 0.220000
vt 0.000000 0.000000
vt 1.000000 0.000000
vt 1.000000 1.000000
vt 0.000000 1.000000
vt 0.000000 0.000000
vt 1.000000 0.000000
vt 1.000000 1.000000
vt 0.000000 1.000000
vt 0.000000 0.000000
vt 1.000000 0.000000
vt 1.000000 1.000000
vt 0.000000 1.000000
vt 0.000000 0.000000
vt 1.000000 0.000000
vt 1.000000 1.000000
vt 0.000000 1.000000
vt 0.000000 0.000000
vt 1.000000 0.000000
vt 1.000000 1.000000
vt 0.000000 1.000000
vt 0.000000 0.000000
vt 1.000000 0.000000
vt 1.000000 1.000000
vt 0.000000 1.000000
vt 0.000000 0.000000
vt 1.000000 0.000000
vt 1.000000 1.000000
vt 0.000000 1.000000
vt 0.000000 0.000000
vt 1.000000 0.000000
vt 1.000000 1.000000
vt 0.000000 1.000000
vt 0.000000 0.000000
vt 1.000000 0.000000
vt 1.000000 1.000000
vt 0.000000 1.000000
vt 0.000000 0.000000
vt 1.000000 0.000000
vt 1.000000 1.000000
vt 0.000000 1.000000
vt 0.000000 0.000000
vt 1.000000 0.000000
vt 1.000000 1.000000
vt 0.000000 1.000000
vt 0.000000 0.000000
vt 1.000000 0.000000
vt 1.000000 1.000000
vt 0.000000 1.000000
vt 0.000000 0.000000
vt 1.000000 0.000000
vt 1.000000 1.000000
vt 0.000000 1.000000
vt 0.000000 0.000000
vt 1.000000 0.000000
vt 1.000000 1.000000
vt 0.000000 1.000000
vt 0.000000 0.000000
vt 1.000000 0.000000
vt 1.000000 1.000000
vt 0.000000 1.000000
vt 0.000000 0.000000
vt 1.000000 0.000000
vt 1.000000 1.000000
vt 0.000000 1.000000
vt 0.000000 0.000000
vt 1.000000 0.000000
vt 1.000000 1.000000
vt 0.000000 1.000000
vt 0.000000 0.000000
vt 1.000000 0.000000
vt 1.000000 1.000000
vt 0.000000 1.000000
vt 0.000000 0.000000
vt 1.000000 0.000000
vt 1.000000 1.000000
vt 0.000000 1.000000
vt 0.000000 0.000000
vt 1.000000 0.000000
vt 1.000000 1.000000
vt 0.000000 1.000000
vt 0.000000 0.000000
vt 1.000000 0.000000
vt 1.000000 1.000000
vt 0.000000 1.000000
vt 1.000000 0.500000
vt 0.883022 0.821394
vt 0.586824 0.992404
vt 0.250000 0.933013
vt 0.030154 0.671010
vt 0.030154 0.328990
vt 0.250000 0.066987
vt 0.586824 0.007596
vt 0.883022 0.178606
vt 1.000000 0.500000
vt 0.883022 0.821394
vt 0.586824 0.992404
vt 0.250000 0.933013
vt 0.030154 0.671010
vt 0.030154 0.328990
vt 0.250000 0.066987
vt 0.586824 0.007596
vt 0.883022 0.178606
vt 0.000000 0.000000
vt 1.000000 0.000000
vt 1.000000 1.000000
vt 0.000000 1.000000
vt 0.000000 0.000000
vt 1.000000 0.000000
vt 1.000000 1.000000
vt 0.000000 1.000000
vt 0.000000 0.000000
vt 1.000000 0.000000
vt 1.000000 1.000000
vt 0.000000 1.000000
vt 0.000000 0.000000
vt 1.000000 0.000000
vt 1.000000 1.000000
vt 0.000000 1.000000
vt 0.000000 0.000000
vt 1.000000 0.000000
vt 1.000000 1.000000
vt 0.000000 1.000000
vt 0.000000 0.000000
vt 1.000000 0.000000
vt 1.000000 1.000000
vt 0.000000 1.000000
vt 0.000000 0.000000
vt 1.000000 0.000000
vt 1.000000 1.000000
vt 0.000000 1.000000
vt 0.000000 0.000000
vt 1.000000 0.000000
vt 1.000000 1.000000
vt 0.000000 1.000000
vt 0.000000 0.000000
vt 1.000000 0.000000
vt 1.000000 1.000000
vt 0.000000 1.000000
vt 1.000000 0.500000
vt 0.883022 0.821394
vt 0.586824 0.992404
vt 0.250000 0.933013
vt 0.030154 0.671010
vt 0.030154 0.328990
vt 0.250000 0.066987
vt 0.586824 0.007596
vt 0.883022 0.178606
vt 1.000000 0.500000
vt 0.883022 0.821394
vt 0.586824 0.992404
vt 0.250000 0.933013
vt 0.030154 0.671010
vt 0.030154 0.328990
vt 0.250000 0.066987
vt 0.586824 0.007596
vt 0.883022 0.178606
vt 0.000000 0.000000
vt 1.000000 0.000000
vt 1.000000 1.000000
vt 0.000000 1.000000
vt 0.000000 0.000000
vt 1.000000 0.000000
vt 1.000000 1.000000
vt 0.000000 1.000000
vt 0.000000 0.000000
vt 1.000000 0.000000
vt 1.000000 1.000000
vt 0.000000 1.000000
vt 0.000000 0.000000
vt 1.000000 0.000000
vt 1.000000 1.000000
vt 0.000000 1.000000
vt 0.000000 0.000000
vt 1.000000 0.000000
vt 1.000000 1.000000
vt 0.000000 1.000000
vt 0.000000 0.000000
vt 1.000000 0.000000
vt 1.000000 1.000000
vt 0.000000 1.000000
vt 0.000000 0.000000
vt 1.000000 0.000000
vt 1.000000 1.000000
vt 0.000000 1.000000
vt 0.000000 0.000000
vt 1.000000 0.000000
vt 1.000000 1.000000
vt 0.000000 1.000000
vt 0.000000 0.000000
vt 1.000000 0.000000
vt 1.000000 1.000000
vt 0.000000 1.000000
vt 1.000000 0.500000
vt 0.883022 0.821394
vt 0.586824 0.992404
vt 0.250000 0.933013
vt 0.030154 0.671010
vt 0.030154 0.328990
vt 0.250000 0.066987
vt 0.586824 0.007596
vt 0.883022 0.178606
vt 1.000000 0.500000
vt 0.883022 0.821394
vt 0.586824 0.992404
vt 0.250000 0.933013
vt 0.030154 0.671010
vt 0.030154 0.328990
vt 0.250000 0.066987
vt 0.586824 0.007596
vt 0.883022 0.178606
vt 0.000000 0.000000
vt 1.000000 0.000000
vt 1.000000 1.000000
vt 0.000000 1.000000
vt 0.000000 0.000000
vt 1.000000 0.000000
vt 1.000000 1.000000
vt 0.000000 1.000000
vt 0.000000 0.000000
vt 1.000000 0.000000
vt 1.000000 1.000000
vt 0.000000 1.000000
vt 0.000000 0.000000
vt 1.000000 0.000000
vt 1.000000 1.000000
vt 0.000000 1.000000
vt 0.000000 0.000000
vt 1.000000 0.000000
vt 1.000000 1.000000
vt 0.000000 1.000000
vt 0.000000 0.000000
vt 1.000000 0.000000
vt 1.000000 1.000000
vt 0.000000 1.000000
vt 0.000000 0.000000
vt 1.000000 0.000000
vt 1.000000 1.000000
vt 0.000000 1.000000
vt 0.000000 0.000000
vt 1.000000 0.000000
vt 1.000000 1.000000
vt 0.000000 1.000000
vt 0.000000 0.000000
vt 1.000000 0.000000
vt 1.000000 1.000000
vt 0.000000 1.000000
vt 1.000000 0.500000
vt 0.883022 0.821394
vt 0.586824 0.992404
vt 0.250000 0.933013
vt 0.030154 0.671010
vt 0.030154 0.328990
vt 0.250000 0.066987
vt 0.586824 0.007596
vt 0.883022 0.178606
vt 1.000000 0.500000
vt 0.883022 0.821394
vt 0.586824 0.992404
vt 0.250000 0.933013
vt 0.030154 0.671010
vt 0.030154 0.328990
vt 0.250000 0.066987
vt 0.586824 0.007596
vt 0.883022 0.178606
vt 0.000000 0.000000
vt 1.000000 0.000000
vt 1.000000 1.000000
vt 0.000000 1.000000
vt 0.000000 0.000000
vt 1.000000 0.000000
vt 1.000000 1.000000
vt 0.000000 1.000000
vt 0.000000 0.000000
vt 1.000000 0.000000
vt 1.000000 1.000000
vt 0.000000 1.000000
vt 0.000000 0.000000
vt 1.000000 0.000000
vt 1.000000 1.000000
vt 0.000000 1.000000
vt 0.000000 0.000000
vt 1.000000 0.000000
vt 1.000000 1.000000
vt 0.000000 1.000000
vt 0.000000 0.000000
vt 1.000000 0.000000
vt 1.000000 1.000000
vt 0.000000 1.000000
vt 0.000000 0.000000
vt 1.000000 0.000000
vt 1.000000 1.000000
vt 0.000000 1.000000
vt 0.000000 0.000000
vt 1.000000 0.000000
vt 1.000000 1.000000
vt 0.000000 1.000000
vt 0.000000 0.000000
vt 1.000000 0.000000
vt 1.000000 1.000000
vt 0.000000 1.000000
vt 0.000000 0.000000
vt 1.000000 0.000000
vt 1.000000 1.000000
vt 0.000000 1.000000
vt 0.000000 0.000000
vt 1.000000 0.000000
vt 1.000000 1.000000
vt 0.000000 1.000000
vt 0.000000 0.000000
vt 1.000000 0.000000
vt 1.000000 1.000000
vt 0.000000 1.000000
vt 0.000000 0.000000
vt 1.000000 0.000000
vt 1.000000 1.000000
vt 0.000000 1.000000
vt 0.000000 0.000000
vt 1.000000 0.000000
vt 1.000000 1.000000
vt 0.000000 1.000000
vt 0.000000 0.000000
vt 1.000000 0.000000
vt 1.000000 1.000000
vt 0.000000 1.000000
vt 0.000000 0.000000
vt 1.000000 0.000000
vt 1.000000 1.000000
vt 0.000000 1.000000
vt 0.000000 0.000000
vt 1.000000 0.000000
vt 1.000000 1.000000
vt 0.000000 1.000000
vt 0.000000 0.000000
vt 1.000000 0.000000
vt 1.000000 1.000000
vt 0.000000 1.000000
vt 0.000000 0.000000
vt 1.000000 0.000000
vt 1.000000 1.000000
vt 0.000000 1.000000
vt 0.000000 0.000000
vt 1.000000 0.000000
vt 1.000000 1.000000
vt 0.000000 1.000000
vt 0.000000 0.000000
vt 1.000000 0.000000
vt 1.000000 1.000000
vt 0.000000 1.000000
vt 1.000000 0.500000
vt 0.883022 0.821394
vt 0.586824 0.992404
vt 0.250000 0.933013
vt 0.030154 0.671010
vt 0.030154 0.328990
vt 0.250000 0.066987
vt 0.586824 0.007596
vt 0.883022 0.178606
vt 1.000000 0.500000
vt 0.883022 0.821394
vt 0.586824 0.992404
vt 0.250000 0.933013
vt 0.030154 0.671010
vt 0.030154 0.328990
vt 0.250000 0.066987
vt 0.586824 0.007596
vt 0.883022 0.178606
vt 0.000000 0.000000
vt 1.000000 0.000000
vt 1.000000 1.000000
vt 0.000000 1.000000
vt 0.000000 0.000000
vt 1.000000 0.000000
vt 1.000000 1.000000
vt 0.000000 1.000000
vt 0.000000 0.000000
vt 1.000000 0.000000
vt 1.000000 1.000000
vt 0.000000 1.000000
vt 0.000000 0.000000
vt 1.000000 0.000000
vt 1.000000 1.000000
vt 0.000000 1.000000
vt 0.000000 0.000000
vt 1.000000 0.000000
vt 1.000000 1.000000
vt 0.000000 1.000000
vt 0.000000 0.000000
vt 1.000000 0.000000
vt 1.000000 1.000000
vt 0.000000 1.000000
vt 0.000000 0.000000
vt 1.000000 0.000000
vt 1.000000 1.000000
vt 0.000000 1.000000
vt 0.000000 0.000000
vt 1.000000 0.000000
vt 1.000000 1.000000
vt 0.000000 1.000000
vt 0.000000 0.000000
vt 1.000000 0.000000
vt 1.000000 1.000000
vt 0.000000 1.000000
vt 1.000000 0.500000
vt 0.883022 0.821394
vt 0.586824 0.992404
vt 0.250000 0.933013
vt 0.030154 0.671010
vt 0.030154 0.328990
vt 0.250000 0.066987
vt 0.586824 0.007596
vt 0.883022 0.178606
vt 1.000000 0.500000
vt 0.883022 0.821394
vt 0.586824 0.992404
vt 0.250000 0.933013
vt 0.030154 0.671010
vt 0.030154 0.328990
vt 0.250000 0.066987
vt 0.586824 0.007596
vt 0.883022 0.178606
vt 0.000000 0.000000
vt 1.000000 0.000000
vt 1.000000 1.000000
vt 0.000000 1.000000
vt 0.000000 0.000000
vt 1.000000 0.000000
vt 1.000000 1.000000
vt 0.000000 1.000000
vt 0.000000 0.000000
vt 1.000000 0.000000
vt 1.000000 1.000000
vt 0.000000 1.000000
vt 0.000000 0.000000
vt 1.000000 0.000000
vt 1.000000 1.000000
vt 0.000000 1.000000
vt 0.000000 0.000000
vt 1.000000 0.000000
vt 1.000000 1.000000
vt 0.000000 1.000000
vt 0.000000 0.000000
vt 1.000000 0.000000
vt 1.000000 1.000000
vt 0.000000 1.000000
vt 0.000000 0.000000
vt 1.000000 0.000000
vt 1.000000 1.000000
vt 0.000000 1.000000
vt 0.000000 0.000000
vt 1.000000 0.000000
vt 1.000000 1.000000
vt 0.000000 1.000000
vt 0.000000 0.000000
vt 1.000000 0.000000
vt 1.000000 1.000000
vt 0.000000 1.000000
vt 1.000000 0.500000
vt 0.883022 0.821394
vt 0.586824 0.992404
vt 0.250000 0.933013
vt 0.030154 0.671010
vt 0.030154 0.328990
vt 0.250000 0.066987
vt 0.586824 0.007596
vt 0.883022 0.178606
vt 1.000000 0.500000
vt 0.883022 0.821394
vt 0.586824 0.992404
vt 0.250000 0.933013
vt 0.030154 0.671010
vt 0.030154 0.328990
vt 0.250000 0.066987
vt 0.586824 0.007596
vt 0.883022 0.178606
vt 0.000000 0.000000
vt 1.000000 0.000000
vt 1.000000 1.000000
vt 0.000000 1.000000
vt 0.000000 0.000000
vt 1.000000 0.000000
vt 1.000000 1.000000
vt 0.000000 1.000000
vt 0.000000 0.000000
vt 1.000000 0.000000
vt 1.000000 1.000000
vt 0.000000 1.000000
vt 0.000000 0.000000
vt 1.000000 0.000000
vt 1.000000 1.000000
vt 0.000000 1.000000
vt 0.000000 0.000000
vt 1.000000 0.000000
vt 1.000000 1.000000
vt 0.000000 1.000000
vt 0.000000 0.000000
vt 1.000000 0.000000
vt 1.000000 1.000000
vt 0.000000 1.000000
vt 0.000000 0.000000
vt 1.000000 0.000000
vt 1.000000 1.000000
vt 0.000000 1.000000
vt 0.000000 0.000000
vt 1.000000 0.000000
vt 1.000000 1.000000
vt 0.000000 1.000000
vt 0.000000 0.000000
vt 1.000000 0.000000
vt 1.000000 1.000000
vt 0.000000 1.000000
vt 1.000000 0.500000
vt 0.883022 0.821394
vt 0.586824 0.992404
vt 0.250000 0.933013
vt 0.030154 0.671010
vt 0.030154 0.328990
vt 0.250000 0.066987
vt 0.586824 0.007596
vt 0.883022 0.178606
vt 1.000000 0.500000
vt 0.883022 0.821394
vt 0.586824 0.992404
vt 0.250000 0.933013
vt 0.030154 0.671010
vt 0.030154 0.328990
vt 0.250000 0.066987
vt 0.586824 0.007596
vt 0.883022 0.178606
vt 0.000000 0.000000
vt 1.000000 0.000000
vt 1.000000 1.000000
vt 0.000000 1.000000
vt 0.000000 0.000000
vt 1.000000 0.000000
vt 1.000000 1.000000
vt 0.000000 1.000000
vt 0.000000 0.000000
vt 1.000000 0.000000
vt 1.000000 1.000000
vt 0.000000 1.000000
vt 0.000000 0.000000
vt 1.000000 0.000000
vt 1.000000 1.000000
vt 0.000000 1.000000
vt 0.000000 0.000000
vt 1.000000 0.000000
vt 1.000000 1.000000
vt 0.000000 1.000000
vt 0.000000 0.000000
vt 1.000000 0.000000
vt 1.000000 1.000000
vt 0.000000 1.000000
vt 0.000000 0.000000
vt 1.000000 0.000000
vt 1.000000 1.000000
vt 0.000000 1.000000
vt 0.000000 0.000000
vt 1.000000 0.000000
vt 1.000000 1.000000
vt 0.000000 1.000000
vt 0.000000 0.000000
vt 1.000000 0.000000
vt 1.000000 1.000000
vt 0.000000 1.000000
vt 0.000000 0.000000
vt 1.000000 0.000000
vt 1.000000 1.000000
vt 0.000000 1.000000
vt 0.000000 0.000000
vt 1.000000 0.000000
vt 1.000000 1.000000
vt 0.000000 1.000000
vt 0.000000 0.000000
vt 1.000000 0.000000
vt 1.000000 1.000000
vt 0.000000 1.000000
vt 0.000000 0.000000
vt 1.000000 0.000000
vt 1.000000 1.000000
vt 0.000000 1.000000
vt 0.000000 0.000000
vt 1.000000 0.000000
vt 1.000000 1.000000
vt 0.000000 1.000000
vt 0.000000 0.000000
vt 1.000000 0.000000
vt 1.000000 1.000000
vt 0.000000 1.000000
vt 0.000000 0.000000
vt 1.000000 0.000000
vt 1.000000 1.000000
vt 0.000000 1.000000
vt 0.000000 0.000000
vt 1.000000 0.000000
vt 1.000000 1.000000
vt 0.000000 1.000000
vt 0.000000 0.000000
vt 1.000000 0.000000
vt 1.000000 1.000000
vt 0.000000 1.000000
vt 0.000000 0.000000
vt 1.000000 0.000000
vt 1.000000 1.000000
vt 0.000000 1.000000
vt 0.000000 0.000000
vt 1.000000 0.000000
vt 1.000000 1.000000
vt 0.000000 1.000000
vt 0.000000 0.000000
vt 1.000000 0.000000
vt 1.000000 1.000000
vt 0.000000 1.000000
vt 0.000000 0.000000
vt 1.000000 0.000000
vt 1.000000 1.000000
vt 0.000000 1.000000
vt 0.000000 0.000000
vt 1.000000 0.000000
vt 1.000000 1.000000
vt 0.000000 1.000000
vt 0.000000 0.000000
vt 1.000000 0.000000
vt 1.000000 1.000000
vt 0.000000 1.000000
vt 0.000000 0.000000
vt 1.000000 0.000000
vt 1.000000 1.000000
vt 0.000000 1.000000
vt 0.000000 0.000000
vt 1.000000 0.000000
vt 1.000000 1.000000
vt 0.000000 1.000000
vt 0.000000 0.000000
vt 1.000000 0.000000
vt 1.000000 1.000000
vt 0.000000 1.000000
vt 0.000000 0.000000
vt 1.000000 0.000000
vt 1.000000 1.000000
vt 0.000000 1.000000
vt 0.000000 0.000000
vt 1.000000 0.000000
vt 1.000000 1.000000
vt 0.000000 1.000000
vt 0.000000 0.000000
vt 1.000000 0.000000
vt 1.000000 1.000000
vt 0.000000 1.000000
vt 0.000000 0.000000
vt 1.000000 0.000000
vt 1.000000 1.000000
vt 0.000000 1.000000
vt 0.000000 0.000000
vt 1.000000 0.000000
vt 1.000000 1.000000
vt 0.000000 1.000000
vt 0.000000 0.000000
vt 1.000000 0.000000
vt 1.000000 1.000000
vt 0.000000 1.000000
vt 0.000000 0.000000
vt 1.000000 0.000000
vt 1.000000 1.000000
vt 0.000000 1.000000
vt 0.000000 0.000000
vt 1.000000 0.000000
vt 1.000000 1.000000
vt 0.000000 1.000000
vt 0.000000 0.000000
vt 1.000000 0.000000
vt 1.000000 1.000000
vt 0.000000 1.000000
vt 0.000000 0.000000
vt 1.000000 0.000000
vt 1.000000 1.000000
vt 0.000000 1.000000
vt 0.000000 0.000000
vt 1.000000 0.000000
vt 1.000000 1.000000
vt 0.000000 1.000000
vt 0.000000 0.000000
vt 1.000000 0.000000
vt 1.000000 1.000000
vt 0.000000 1.000000
vt 0.000000 0.000000
vt 1.000000 0.000000
vt 1.000000 1.000000
vt 0.000000 1.000000
vt 0.000000 0.000000
vt 1.000000 0.000000
vt 1.000000 1.000000
vt 0.000000 1.000000
vt 0.000000 0.000000
vt 1.000000 0.000000
vt 1.000000 1.000000
vt 0.000000 1.000000
vt 0.000000 0.000000
vt 1.000000 0.000000
vt 1.000000 1.000000
vt 0.000000 1.000000
vt 0.000000 0.000000
vt 1.000000 0.000000
vt 1.000000 1.000000
vt 0.000000 1.000000
vt 0.000000 0.000000
vt 1.000000 0.000000
vt 1.000000 1.000000
vt 0.000000 1.000000
vt 0.000000 0.000000
vt 1.000000 0.000000
vt 1.000000 1.000000
vt 0.000000 1.000000
vt 0.000000 0.000000
vt 1.000000 0.000000
vt 1.000000 1.000000
vt 0.000000 1.000000
vt 0.000000 0.000000
vt 1.000000 0.000000
vt 1.000000 1.000000
vt 0.000000 1.000000
vt 0.000000 0.000000
vt 1.000000 0.000000
vt 1.000000 1.000000
vt 0.000000 1.000000
vt 0.000000 0.000000
vt 1.000000 0.000000
vt 1.000000 1.000000
vt 0.000000 1.000000
vt 0.000000 0.000000
vt 1.000000 0.000000
vt 1.000000 1.000000
vt 0.000000 1.000000
vt 0.000000 0.000000
vt 1.000000 0.000000
vt 1.000000 1.000000
vt 0.000000 1.000000
vt 0.000000 0.000000
vt 1.000000 0.000000
vt 1.000000 1.000000
vt 0.000000 1.000000
vt 0.000000 0.000000
vt 1.000000 0.000000
vt 1.000000 1.000000
vt 0.000000 1.000000
vt 0.000000 0.000000
vt 1.000000 0.000000
vt 1.000000 1.000000
vt 0.000000 1.000000
vt 0.000000 0.000000
vt 1.000000 0.000000
vt 1.000000 1.000000
vt 0.000000 1.000000
vt 0.000000 0.000000
vt 1.000000 0.000000
vt 1.000000 1.000000
vt 0.000000 1.000000
vt 1.000000 0.500000
vt 0.883022 0.821394
vt 0.586824 0.992404
vt 0.250000 0.933013
vt 0.030154 0.671010
vt 0.030154 0.328990
vt 0.250000 0.066987
vt 0.586824 0.007596
vt 0.883022 0.178606
vt 1.000000 0.500000
vt 0.883022 0.821394
vt 0.586824 0.992404
vt 0.250000 0.933013
vt 0.030154 0.671010
vt 0.030154 0.328990
vt 0.250000 0.066987
vt 0.586824 0.007596
vt 0.883022 0.178606
vt 0.000000 0.000000
vt 1.000000 0.000000
vt 1.000000 1.000000
vt 0.000000 1.000000
vt 0.000000 0.000000
vt 1.000000 0.000000
vt 1.000000 1.000000
vt 0.000000 1.000000
vt 0.000000 0.000000
vt 1.000000 0.000000
vt 1.000000 1.000000
vt 0.000000 1.000000
vt 0.000000 0.000000
vt 1.000000 0.000000
vt 1.000000 1.000000
vt 0.000000 1.000000
vt 0.000000 0.000000
vt 1.000000 0.000000
vt 1.000000 1.000000
vt 0.000000 1.000000
vt 0.000000 0.000000
vt 1.000000 0.000000
vt 1.000000 1.000000
vt 0.000000 1.000000
vt 0.000000 0.000000
vt 1.000000 0.000000
vt 1.000000 1.000000
vt 0.000000 1.000000
vt 0.000000 0.000000
vt 1.000000 0.000000
vt 1.000000 1.000000
vt 0.000000 1.000000
vt 0.000000 0.000000
vt 1.000000 0.000000
vt 1.000000 1.000000
vt 0.000000 1.000000
vt 1.000000 0.500000
vt 0.883022 0.821394
vt 0.586824 0.992404
vt 0.250000 0.933013
vt 0.030154 0.671010
vt 0.030154 0.328990
vt 0.250000 0.066987
vt 0.586824 0.007596
vt 0.883022 0.178606
vt 1.000000 0.500000
vt 0.883022 0.821394
vt 0.586824 0.992404
vt 0.250000 0.933013
vt 0.030154 0.671010
vt 0.030154 0.328990
vt 0.250000 0.066987
vt 0.586824 0.007596
vt 0.883022 0.178606
vt 0.000000 0.000000
vt 1.000000 0.000000
vt 1.000000 1.000000
vt 0.000000 1.000000
vt 0.000000 0.000000
vt 1.000000 0.000000
vt 1.000000 1.000000
vt 0.000000 1.000000
vt 0.000000 0.000000
vt 1.000000 0.000000
vt 1.000000 1.000000
vt 0.000000 1.000000
vt 0.000000 0.000000
vt 1.000000 0.000000
vt 1.000000 1.000000
vt 0.000000 1.000000
vt 0.000000 0.000000
vt 1.000000 0.000000
vt 1.000000 1.000000
vt 0.000000 1.000000
vt 0.000000 0.000000
vt 1.000000 0.000000
vt 1.000000 1.000000
vt 0.000000 1.000000
vt 0.000000 0.000000
vt 1.000000 0.000000
vt 1.000000 1.000000
vt 0.000000 1.000000
vt 0.000000 0.000000
vt 1.000000 0.000000
vt 1.000000 1.000000
vt 0.000000 1.000000
vt 0.000000 0.000000
vt 1.000000 0.000000
vt 1.000000 1.000000
vt 0.000000 1.000000
vt 1.000000 0.500000
vt 0.883022 0.821394
vt 0.586824 0.992404
vt 0.250000 0.933013
vt 0.030154 0.671010
vt 0.030154 0.328990
vt 0.250000 0.066987
vt 0.586824 0.007596
vt 0.883022 0.178606
vt 1.000000 0.500000
vt 0.883022 0.821394
vt 0.586824 0.992404
vt 0.250000 0.933013
vt 0.030154 0.671010
vt 0.030154 0.328990
vt 0.250000 0.066987
vt 0.586824 0.007596
vt 0.883022 0.178606
vt 0.000000 0.000000
vt 1.000000 0.000000
vt 1.000000 1.000000
vt 0.000000 1.000000
vt 0.000000 0.000000
vt 1.000000 0.000000
vt 1.000000 1.000000
vt 0.000000 1.000000
vt 0.000000 0.000000
vt 1.000000 0.000000
vt 1.000000 1.000000
vt 0.000000 1.000000
vt 0.000000 0.000000
vt 1.000000 0.000000
vt 1.000000 1.000000
vt 0.000000 1.000000
vt 0.000000 0.000000
vt 1.000000 0.000000
vt 1.000000 1.000000
vt 0.000000 1.000000
vt 0.000000 0.000000
vt 1.000000 0.000000
vt 1.000000 1.000000
vt 0.000000 1.000000
vt 0.000000 0.000000
vt 1.000000 0.000000
vt 1.000000 1.000000
vt 0.000000 1.000000
vt 0.000000 0.000000
vt 1.000000 0.000000
vt 1.000000 1.000000
vt 0.000000 1.000000
vt 0.000000 0.000000
vt 1.000000 0.000000
vt 1.000000 1.000000
vt 0.000000 1.000000
vt 1.000000 0.500000
vt 0.883022 0.821394
vt 0.586824 0.992404
vt 0.250000 0.933013
vt 0.030154 0.671010
vt 0.030154 0.328990
vt 0.250000 0.066987
vt 0.586824 0.007596
vt 0.883022 0.178606
vt 1.000000 0.500000
vt 0.883022 0.821394
vt 0.586824 0.992404
vt 0.250000 0.933013
vt 0.030154 0.671010
vt 0.030154 0.328990
vt 0.250000 0.066987
vt 0.586824 0.007596
vt 0.883022 0.178606
vt 0.000000 0.000000
vt 1.000000 0.000000
vt 1.000000 1.000000
vt 0.000000 1.000000
vt 0.000000 0.000000
vt 1.000000 0.000000
vt 1.000000 1.000000
vt 0.000000 1.000000
vt 0.000000 0.000000
vt 1.000000 0.000000
vt 1.000000 1.000000
vt 0.000000 1.000000
vt 0.000000 0.000000
vt 1.000000 0.000000
vt 1.000000 1.000000
vt 0.000000 1.000000
vt 0.000000 0.000000
vt 1.000000 0.000000
vt 1.000000 1.000000
vt 0.000000 1.000000
vt 0.000000 0.000000
vt 1.000000 0.000000
vt 1.000000 1.000000
vt 0.000000 1.000000
vt 0.000000 0.000000
vt 1.000000 0.000000
vt 1.000000 1.000000
vt 0.000000 1.000000
vt 0.000000 0.000000
vt 1.000000 0.000000
vt 1.000000 1.000000
vt 0.000000 1.000000
vt 0.000000 0.000000
vt 1.000000 0.000000
vt 1.000000 1.000000
vt 0.000000 1.000000
vt 0.000000 0.000000
vt 1.000000 0.000000
vt 1.000000 1.000000
vt 0.000000 1.000000
vt 1.000000 0.500000
vt 0.904508 0.793893
vt 0.654508 0.975528
vt 0.345492 0.975528
vt 0.095492 0.793893
vt 0.000000 0.500000
vt 0.095492 0.206107
vt 0.345492 0.024472
vt 0.654508 0.024472
vt 0.904508 0.206107
vt 1.000000 0.500000
vt 0.904508 0.793893
vt 0.654508 0.975528
vt 0.345492 0.975528
vt 0.095492 0.793893
vt 0.000000 0.500000
vt 0.095492 0.206107
vt 0.345492 0.024472
vt 0.654508 0.024472
vt 0.904508 0.206107
vt 0.000000 0.000000
vt 1.000000 0.000000
vt 1.000000 1.000000
vt 0.000000 1.000000
vt 0.000000 0.000000
vt 1.000000 0.000000
vt 1.000000 1.000000
vt 0.000000 1.000000
vt 0.000000 0.000000
vt 1.000000 0.000000
vt 1.000000 1.000000
vt 0.000000 1.000000
vt 0.000000 0.000000
vt 1.000000 0.000000
vt 1.000000 1.000000
vt 0.000000 1.000000
vt 0.000000 0.000000
vt 1.000000 0.000000
vt 1.000000 1.000000
vt 0.000000 1.000000
vt 0.000000 0.000000
vt 1.000000 0.000000
vt 1.000000 1.000000
vt 0.000000 1.000000
vt 0.000000 0.000000
vt 1.000000 0.000000
vt 1.000000 1.000000
vt 0.000000 1.000000
vt 0.000000 0.000000
vt 1.000000 0.000000
vt 1.000000 1.000000
vt 0.000000 1.000000
vt 0.000000 0.000000
vt 1.000000 0.000000
vt 1.000000 1.000000
vt 0.000000 1.000000
vt 0.000000 0.000000
vt 1.000000 0.000000
vt 1.000000 1.000000
vt 0.000000 1.000000
vt 1.000000 0.500000
vt 0.904508 0.793893
vt 0.654508 0.975528
vt 0.345492 0.975528
vt 0.095492 0.793893
vt 0.000000 0.500000
vt 0.095492 0.206107
vt 0.345492 0.024472
vt 0.654508 0.024472
vt 0.904508 0.206107
vt 1.000000 0.500000
vt 0.904508 0.793893
vt 0.654508 0.975528
vt 0.345492 0.975528
vt 0.095492 0.793893
vt 0.000000 0.500000
vt 0.095492 0.206107
vt 0.345492 0.024472
vt 0.654508 0.024472
vt 0.904508 0.206107
vt 0.000000 0.000000
vt 1.000000 0.000000
vt 1.000000 1.000000
vt 0.000000 1.000000
vt 0.000000 0.000000
vt 1.000000 0.000000
vt 1.000000 1.000000
vt 0.000000 1.000000
vt 0.000000 0.000000
vt 1.000000 0.000000
vt 1.000000 1.000000
vt 0.000000 1.000000
vt 0.000000 0.000000
vt 1.000000 0.000000
vt 1.000000 1.000000
vt 0.000000 1.000000
vt 0.000000 0.000000
vt 1.000000 0.000000
vt 1.000000 1.000000
vt 0.000000 1.000000
vt 0.000000 0.000000
vt 1.000000 0.000000
vt 1.000000 1.000000
vt 0.000000 1.000000
vt 0.000000 0.000000
vt 1.000000 0.000000
vt 1.000000 1.000000
vt 0.000000 1.000000
vt 0.000000 0.000000
vt 1.000000 0.000000
vt 1.000000 1.000000
vt 0.000000 1.000000
vt 0.000000 0.000000
vt 1.000000 0.000000
vt 1.000000 1.000000
vt 0.000000 1.000000
vt 0.000000 0.000000
vt 1.000000 0.000000
vt 1.000000 1.000000
vt 0.000000 1.000000
vt 1.000000 0.500000
vt 0.904508 0.793893
vt 0.654508 0.975528
vt 0.345492 0.975528
vt 0.095492 0.793893
vt 0.000000 0.500000
vt 0.095492 0.206107
vt 0.345492 0.024472
vt 0.654508 0.024472
vt 0.904508 0.206107
vt 1.000000 0.500000
vt 0.904508 0.793893
vt 0.654508 0.975528
vt 0.345492 0.975528
vt 0.095492 0.793893
vt 0.000000 0.500000
vt 0.095492 0.206107
vt 0.345492 0.024472
vt 0.654508 0.024472
vt 0.904508 0.206107
vt 0.000000 0.000000
vt 1.000000 0.000000
vt 1.000000 1.000000
vt 0.000000 1.000000
vt 0.000000 0.000000
vt 1.000000 0.000000
vt 1.000000 1.000000
vt 0.000000 1.000000
vt 0.000000 0.000000
vt 1.000000 0.000000
vt 1.000000 1.000000
vt 0.000000 1.000000
vt 0.000000 0.000000
vt 1.000000 0.000000
vt 1.000000 1.000000
vt 0.000000 1.000000
vt 0.000000 0.000000
vt 1.000000 0.000000
vt 1.000000 1.000000
vt 0.000000 1.000000
vt 0.000000 0.000000
vt 1.000000 0.000000
vt 1.000000 1.000000
vt 0.000000 1.000000
vt 0.000000 0.000000
vt 1.000000 0.000000
vt 1.000000 1.000000
vt 0.000000 1.000000
vt 0.000000 0.000000
vt 1.000000 0.000000
vt 1.000000 1.000000
vt 0.000000 1.000000
vt 0.000000 0.000000
vt 1.000000 0.000000
vt 1.000000 1.000000
vt 0.000000 1.000000
vt 0.000000 0.000000
vt 1.000000 0.000000
vt 1.000000 1.000000
vt 0.000000 1.000000
vt 1.000000 0.500000
vt 0.904508 0.793893
vt 0.654508 0.975528
vt 0.345492 0.975528
vt 0.095492 0.793893
vt 0.000000 0.500000
vt 0.095492 0.206107
vt 0.345492 0.024472
vt 0.654508 0.024472
vt 0.904508 0.206107
vt 1.000000 0.500000
vt 0.904508 0.793893
vt 0.654508 0.975528
vt 0.345492 0.975528
vt 0.095492 0.793893
vt 0.000000 0.500000
vt 0.095492 0.206107
vt 0.345492 0.024472
vt 0.654508 0.024472
vt 0.904508 0.206107
vt 0.000000 0.000000
vt 1.000000 0.000000
vt 1.000000 1.000000
vt 0.000000 1.000000
vt 0.000000 0.000000
vt 1.000000 0.000000
vt 1.000000 1.000000
vt 0.000000 1.000000
vt 0.000000 0.000000
vt 1.000000 0.000000
vt 1.000000 1.000000
vt 0.000000 1.000000
vt 0.000000 0.000000
vt 1.000000 0.000000
vt 1.000000 1.000000
vt 0.000000 1.000000
vt 0.000000 0.000000
vt 1.000000 0.000000
vt 1.000000 1.000000
vt 0.000000 1.000000
vt 0.000000 0.000000
vt 1.000000 0.000000
vt 1.000000 1.000000
vt 0.000000 1.000000
vt 0.000000 0.000000
vt 1.000000 0.000000
vt 1.000000 1.000000
vt 0.000000 1.000000
vt 0.000000 0.000000
vt 1.000000 0.000000
vt 1.000000 1.000000
vt 0.000000 1.000000
vt 0.000000 0.000000
vt 1.000000 0.000000
vt 1.000000 1.000000
vt 0.000000 1.000000
vt 0.000000 0.000000
vt 1.000000 0.000000
vt 1.000000 1.000000
vt 0.000000 1.000000
vt 0.000000 0.000000
vt 1.000000 0.000000
vt 1.000000 1.000000
vt 0.000000 1.000000
vt 0.000000 0.000000
vt 1.000000 0.000000
vt 1.000000 1.000000
vt 0.000000 1.000000
vt 0.000000 0.000000
vt 1.000000 0.000000
vt 1.000000 1.000000
vt 0.000000 1.000000
vt 0.000000 0.000000
vt 1.000000 0.000000
vt 1.000000 1.000000
vt 0.000000 1.000000
vt 0.000000 0.000000
vt 1.000000 0.000000
vt 1.000000 1.000000
vt 0.000000 1.000000
vt 0.000000 0.000000
vt 1.000000 0.000000
vt 1.000000 1.000000
vt 0.000000 1.000000
vt 0.000000 0.000000
vt 1.000000 0.000000
vt 1.000000 1.000000
vt 0.000000 1.000000
vt 0.000000 0.000000
vt 1.000000 0.000000
vt 1.000000 1.000000
vt 0.000000 1.000000
vt 0.000000 0.000000
vt 1.000000 0.000000
vt 1.000000 1.000000
vt 0.000000 1.000000
vt 0.000000 0.000000
vt 1.000000 0.000000
vt 1.000000 1.000000
vt 0.000000 1.000000
vt 1.000000 0.500000
vt 0.853553 0.853553
vt 0.500000 1.000000
vt 0.146447 0.853553
vt 0.000000 0.500000
vt 0.146447 0.146447
vt 0.500000 0.000000
vt 0.853553 0.146447
vt 1.000000 0.500000
vt 0.853553 0.853553
vt 0.500000 1.000000
vt 0.146447 0.853553
vt 0.000000 0.500000
vt 0.146447 0.146447
vt 0.500000 0.000000
vt 0.853553 0.146447
vt 0.000000 0.000000
vt 1.000000 0.000000
vt 1.000000 1.000000
vt 0.000000 1.000000
vt 0.000000 0.000000
vt 1.000000 0.000000
vt 1.000000 1.000000
vt 0.000000 1.000000
vt 0.000000 0.000000
vt 1.000000 0.000000
vt 1.000000 1.000000
vt 0.000000 1.000000
vt 0.000000 0.000000
vt 1.000000 0.000000
vt 1.000000 1.000000
vt 0.000000 1.000000
vt 0.000000 0.000000
vt 1.000000 0.000000
vt 1.000000 1.000000
vt 0.000000 1.000000
vt 0.000000 0.000000
vt 1.000000 0.000000
vt 1.000000 1.000000
vt 0.000000 1.000000
vt 0.000000 0.000000
vt 1.000000 0.000000
vt 1.000000 1.000000
vt 0.000000 1.000000
vt 0.000000 0.000000
vt 1.000000 0.000000
vt 1.000000 1.000000
vt 0.000000 1.000000
vt 1.000000 0.500000
vt 0.853553 0.853553
vt 0.500000 1.000000
vt 0.146447 0.853553
vt 0.000000 0.500000
vt 0.146447 0.146447
vt 0.500000 0.000000
vt 0.853553 0.146447
vt 1.000000 0.500000
vt 0.853553 0.853553
vt 0.500000 1.000000
vt 0.146447 0.853553
vt 0.000000 0.500000
vt 0.146447 0.146447
vt 0.500000 0.000000
vt 0.853553 0.146447
vt 0.000000 0.000000
vt 1.000000 0.000000
vt 1.000000 1.000000
vt 0.000000 1.000000
vt 0.000000 0.000000
vt 1.000000 0.000000
vt 1.000000 1.000000
vt 0.000000 1.000000
vt 0.000000 0.000000
vt 1.000000 0.000000
vt 1.000000 1.000000
vt 0.000000 1.000000
vt 0.000000 0.000000
vt 1.000000 0.000000
vt 1.000000 1.000000
vt 0.000000 1.000000
vt 0.000000 0.000000
vt 1.000000 0.000000
vt 1.000000 1.000000
vt 0.000000 1.000000
vt 0.000000 0.000000
vt 1.000000 0.000000
vt 1.000000 1.000000
vt 0.000000 1.000000
vt 0.000000 0.000000
vt 1.000000 0.000000
vt 1.000000 1.000000
vt 0.000000 1.000000
vt 0.000000 0.000000
vt 1.000000 0.000000
vt 1.000000 1.000000
vt 0.000000 1.000000
vt 1.000000 0.500000
vt 0.853553 0.853553
vt 0.500000 1.000000
vt 0.146447 0.853553
vt 0.000000 0.500000
vt 0.146447 0.146447
vt 0.500000 0.000000
vt 0.853553 0.146447
vt 1.000000 0.500000
vt 0.853553 0.853553
vt 0.500000 1.000000
vt 0.146447 0.853553
vt 0.000000 0.500000
vt 0.146447 0.146447
vt 0.500000 0.000000
vt 0.853553 0.146447
vt 0.000000 0.000000
vt 1.000000 0.000000
vt 1.000000 1.000000
vt 0.000000 1.000000
vt 0.000000 0.000000
vt 1.000000 0.000000
vt 1.000000 1.000000
vt 0.000000 1.000000
vt 0.000000 0.000000
vt 1.000000 0.000000
vt 1.000000 1.000000
vt 0.000000 1.000000
vt 0.000000 0.000000
vt 1.000000 0.000000
vt 1.000000 1.000000
vt 0.000000 1.000000
vt 0.000000 0.000000
vt 1.000000 0.000000
vt 1.000000 1.000000
vt 0.000000 1.000000
vt 0.000000 0.000000
vt 1.000000 0.000000
vt 1.000000 1.000000
vt 0.000000 1.000000
vt 0.000000 0.000000
vt 1.000000 0.000000
vt 1.000000 1.000000
vt 0.000000 1.000000
vt 0.000000 0.000000
vt 1.000000 0.000000
vt 1.000000 1.000000
vt 0.000000 1.000000
vt 1.000000 0.500000
vt 0.853553 0.853553
vt 0.500000 1.000000
vt 0.146447 0.853553
vt 0.000000 0.500000
vt 0.146447 0.146447
vt 0.500000 0.000000
vt 0.853553 0.146447
vt 1.000000 0.500000
vt 0.853553 0.853553
vt 0.500000 1.000000
vt 0.146447 0.853553
vt 0.000000 0.500000
vt 0.146447 0.146447
vt 0.500000 0.000000
vt 0.853553 0.146447
vt 0.000000 0.000000
vt 1.000000 0.000000
vt 1.000000 1.000000
vt 0.000000 1.000000
vt 0.000000 0.000000
vt 1.000000 0.000000
vt 1.000000 1.000000
vt 0.000000 1.000000
vt 0.000000 0.000000
vt 1.000000 0.000000
vt 1.000000 1.000000
vt 0.000000 1.000000
vt 0.000000 0.000000
vt 1.000000 0.000000
vt 1.000000 1.000000
vt 0.000000 1.000000
vt 0.000000 0.000000
vt 1.000000 0.000000
vt 1.000000 1.000000
vt 0.000000 1.000000
vt 0.000000 0.000000
vt 1.000000 0.000000
vt 1.000000 1.000000
vt 0.000000 1.000000
vt 0.000000 0.000000
vt 1.000000 0.000000
vt 1.000000 1.000000
vt 0.000000 1.000000
vt 0.000000 0.000000
vt 1.000000 0.000000
vt 1.000000 1.000000
vt 0.000000 1.000000
vt 0.000000 0.000000
vt 1.000000 0.000000
vt 1.000000 1.000000
vt 0.000000 1.000000
vt 0.000000 0.000000
vt 1.000000 0.000000
vt 1.000000 1.000000
vt 0.000000 1.000000
vt 0.000000 0.000000
vt 1.000000 0.000000
vt 1.000000 1.000000
vt 0.000000 1.000000
vt 0.000000 0.000000
vt 1.000000 0.000000
vt 1.000000 1.000000
vt 0.000000 1.000000
vt 0.000000 0.000000
vt 1.000000 0.000000
vt 1.000000 1.000000
vt 0.000000 1.000000
vt 0.000000 0.000000
vt 1.000000 0.000000
vt 1.000000 1.000000
vt 0.000000 1.000000
vt 0.000000 0.000000
vt 1.000000 0.000000
vt 1.000000 1.000000
vt 0.000000 1.000000
vt 0.000000 0.000000
vt 1.000000 0.000000
vt 1.000000 1.000000
vt 0.000000 1.000000
vt 0.000000 0.000000
vt 1.000000 0.000000
vt 1.000000 1.000000
vt 0.000000 1.000000
vt 0.000000 0.000000
vt 1.000000 0.000000
vt 1.000000 1.000000
vt 0.000000 1.000000
vt 0.000000 0.000000
vt 1.000000 0.000000
vt 1.000000 1.000000
vt 0.000000 1.000000
vt 0.000000 0.000000
vt 1.000000 0.000000
vt 1.000000 1.000000
vt 0.000000 1.000000
vt 0.000000 0.000000
vt 1.000000 0.000000
vt 1.000000 1.000000
vt 0.000000 1.000000
vt 0.000000 0.000000
vt 1.000000 0.000000
vt 1.000000 1.000000
vt 0.000000 1.000000
vt 0.000000 0.000000
vt 1.000000 0.000000
vt 1.000000 1.000000
vt 0.000000 1.000000
vt 0.000000 0.000000
vt 1.000000 0.000000
vt 1.000000 1.000000
vt 0.000000 1.000000
vt 1.000000 0.500000
vt 0.933013 0.750000
vt 0.750000 0.933013
vt 0.500000 1.000000
vt 0.250000 0.933013
vt 0.066987 0.750000
vt 0.000000 0.500000
vt 0.066987 0.250000
vt 0.250000 0.066987
vt 0.500000 0.000000
vt 0.750000 0.066987
vt 0.933013 0.250000
vt 1.000000 0.500000
vt 0.933013 0.750000
vt 0.750000 0.933013
vt 0.500000 1.000000
vt 0.250000 0.933013
vt 0.066987 0.750000
vt 0.000000 0.500000
vt 0.066987 0.250000
vt 0.250000 0.066987
vt 0.500000 0.000000
vt 0.750000 0.066987
vt 0.933013 0.250000
vt 0.000000 0.000000
vt 1.000000 0.000000
vt 1.000000 1.000000
vt 0.000000 1.000000
vt 0.000000 0.000000
vt 1.000000 0.000000
vt 1.000000 1.000000
vt 0.000000 1.000000
vt 0.000000 0.000000
vt 1.000000 0.000000
vt 1.000000 1.000000
vt 0.000000 1.000000
vt 0.000000 0.000000
vt 1.000000 0.000000
vt 1.000000 1.000000
vt 0.000000 1.000000
vt 0.000000 0.000000
vt 1.000000 0.000000
vt 1.000000 1.000000
vt 0.000000 1.000000
vt 0.000000 0.000000
vt 1.000000 0.000000
vt 1.000000 1.000000
vt 0.000000 1.000000
vt 0.000000 0.000000
vt 1.000000 0.000000
vt 1.000000 1.000000
vt 0.000000 1.000000
vt 0.000000 0.000000
vt 1.000000 0.000000
vt 1.000000 1.000000
vt 0.000000 1.000000
vt 0.000000 0.000000
vt 1.000000 0.000000
vt 1.000000 1.000000
vt 0.000000 1.000000
vt 0.000000 0.000000
vt 1.000000 0.000000
vt 1.000000 1.000000
vt 0.000000 1.000000
vt 0.000000 0.000000
vt 1.000000 0.000000
vt 1.000000 1.000000
vt 0.000000 1.000000
vt 0.000000 0.000000
vt 1.000000 0.000000
vt 1.000000 1.000000
vt 0.000000 1.000000
vt 1.000000 0.500000
vt 0.933013 0.750000
vt 0.750000 0.933013
vt 0.500000 1.000000
vt 0.250000 0.933013
vt 0.066987 0.750000
vt 0.000000 0.500000
vt 0.066987 0.250000
vt 0.250000 0.066987
vt 0.500000 0.000000
vt 0.750000 0.066987
vt 0.933013 0.250000
vt 1.000000 0.500000
vt 0.933013 0.750000
vt 0.750000 0.933013
vt 0.500000 1.000000
vt 0.250000 0.933013
vt 0.066987 0.750000
vt 0.000000 0.500000
vt 0.066987 0.250000
vt 0.250000 0.066987
vt 0.500000 0.000000
vt 0.750000 0.066987
vt 0.933013 0.250000
vt 0.000000 0.000000
vt 1.000000 0.000000
vt 1.000000 1.000000
vt 0.000000 1.000000
vt 0.000000 0.000000
vt 1.000000 0.000000
vt 1.000000 1.000000
vt 0.000000 1.000000
vt 0.000000 0.000000
vt 1.000000 0.000000
vt 1.000000 1.000000
vt 0.000000 1.000000
vt 0.000000 0.000000
vt 1.000000 0.000000
vt 1.000000 1.000000
vt 0.000000 1.000000
vt 0.000000 0.000000
vt 1.000000 0.000000
vt 1.000000 1.000000
vt 0.000000 1.000000
vt 0.000000 0.000000
vt 1.000000 0.000000
vt 1.000000 1.000000
vt 0.000000 1.000000
vt 0.000000 0.000000
vt 1.000000 0.000000
vt 1.000000 1.000000
vt 0.000000 1.000000
vt 0.000000 0.000000
vt 1.000000 0.000000
vt 1.000000 1.000000
vt 0.000000 1.000000
vt 0.000000 0.000000
vt 1.000000 0.000000
vt 1.000000 1.000000
vt 0.000000 1.000000
vt 0.000000 0.000000
vt 1.000000 0.000000
vt 1.000000 1.000000
vt 0.000000 1.000000
vt 0.000000 0.000000
vt 1.000000 0.000000
vt 1.000000 1.000000
vt 0.000000 1.000000
vt 0.000000 0.000000
vt 1.000000 0.000000
vt 1.000000 1.000000
vt 0.000000 1.000000
vt 0.000000 0.000000
vt 1.000000 0.000000
vt 1.000000 1.000000
vt 0.000000 1.000000
vt 0.000000 0.000000
vt 1.000000 0.000000
vt 1.000000 1.000000
vt 0.000000 1.000000
vt 0.000000 0.000000
vt 1.000000 0.000000
vt 1.000000 1.000000
vt 0.000000 1.000000
vt 0.000000 0.000000
vt 1.000000 0.000000
vt 1.000000 1.000000
vt 0.000000 1.000000
vt 0.000000 0.000000
vt 1.000000 0.000000
vt 1.000000 1.000000
vt 0.000000 1.000000
vt 0.000000 0.000000
vt 1.000000 0.000000
vt 1.000000 1.000000
vt 0.000000 1.000000
vn 0.000000 0.000000 1.000000
vn 0.000000 0.000000 -1.000000
vn 1.000000 0.000000 0.000000
vn -1.000000 0.000000 0.000000
vn 0.000000 -1.000000 0.000000
vn -0.000000 1.000000 0.000000
vn 0.000000 0.000000 1.000000
vn 0.000000 0.000000 -1.000000
vn 1.000000 0.000000 0.000000
vn -1.000000 0.000000 0.000000
vn 0.000000 -1.000000 0.000000
vn -0.000000 1.000000 0.000000
vn -0.939693 0.000000 -0.342020
vn -0.500000 0.000000 -0.866025
vn 0.173648 0.000000 -0.984808
vn 0.766044 0.000000 -0.642788
vn 1.000000 0.000000 0.000000
vn 0.766044 0.000000 0.642788
vn 0.173648 0.000000 0.984808
vn -0.500000 0.000000 0.866025
vn -0.939693 0.000000 0.342020
vn 0.000000 1.000000 0.000000
vn 0.000000 -1.000000 0.000000
vn -0.939693 0.000000 -0.342020
vn -0.500000 0.000000 -0.866025
vn 0.173648 0.000000 -0.984808
vn 0.766044 0.000000 -0.642788
vn 1.000000 0.000000 0.000000
vn 0.766044 0.000000 0.642788
vn 0.173648 0.000000 0.984808
vn -0.500000 0.000000 0.866025
vn -0.939693 0.000000 0.342020
vn 0.000000 1.000000 0.000000
vn 0.000000 -1.000000 0.000000
vn -0.939693 0.000000 -0.342020
vn -0.500000 0.000000 -0.866025
vn 0.173648 0.000000 -0.984808
vn 0.766044 0.000000 -0.642788
vn 1.000000 0.000000 0.000000
vn 0.766044 0.000000 0.642788
vn 0.173648 0.000000 0.984808
vn -0.500000 0.000000 0.866025
vn -0.939693 0.000000 0.342020
vn 0.000000 1.000000 0.000000
vn 0.000000 -1.000000 0.000000
vn -0.939693 0.000000 -0.342020
vn -0.500000 0.000000 -0.866025
vn 0.173648 0.000000 -0.984808
vn 0.766044 0.000000 -0.642788
vn 1.000000 0.000000 0.000000
vn 0.766044 0.000000 0.642788
vn 0.173648 0.000000 0.984808
vn -0.500000 0.000000 0.866025
vn -0.939693 0.000000 0.342020
vn 0.000000 1.000000 0.000000
vn 0.000000 -1.000000 0.000000
vn 0.000000 0.000000 1.000000
vn 0.000000 0.000000 -1.000000
vn 1.000000 0.000000 0.000000
vn -1.000000 0.000000 0.000000
vn 0.000000 -1.000000 0.000000
vn -0.000000 1.000000 0.000000
vn 0.000000 0.000000 1.000000
vn 0.000000 0.000000 -1.000000
vn 1.000000 0.000000 0.000000
vn -1.000000 0.000000 0.000000
vn 0.000000 -1.000000 0.000000
vn -0.000000 1.000000 0.000000
vn -0.939693 0.000000 -0.342020
vn -0.500000 0.000000 -0.866025
vn 0.173648 0.000000 -0.984808
vn 0.766044 0.000000 -0.642788
vn 1.000000 0.000000 0.000000
vn 0.766044 0.000000 0.642788
vn 0.173648 0.000000 0.984808
vn -0.500000 0.000000 0.866025
vn -0.939693 0.000000 0.342020
vn 0.000000 1.000000 0.000000
vn 0.000000 -1.000000 0.000000
vn -0.939693 0.000000 -0.342020
vn -0.500000 0.000000 -0.866025
vn 0.173648 0.000000 -0.984808
vn 0.766044 0.000000 -0.642788
vn 1.000000 0.000000 0.000000
vn 0.766044 0.000000 0.642788
vn 0.173648 0.000000 0.984808
vn -0.500000 0.000000 0.866025
vn -0.939693 0.000000 0.342020
vn 0.000000 1.000000 0.000000
vn 0.000000 -1.000000 0.000000
vn -0.939693 0.000000 -0.342020
vn -0.500000 0.000000 -0.866025
vn 0.173648 0.000000 -0.984808
vn 0.766044 0.000000 -0.642788
vn 1.000000 0.000000 0.000000
vn 0.766044 0.000000 0.642788
vn 0.173648 0.000000 0.984808
vn -0.500000 0.000000 0.866025
vn -0.939693 0.000000 0.342020
vn 0.000000 1.000000 0.000000
vn 0.000000 -1.000000 0.000000
vn -0.939693 0.000000 -0.342020
vn -0.500000 0.000000 -0.866025
vn 0.173648 0.000000 -0.984808
vn 0.766044 0.000000 -0.642788
vn 1.000000 0.000000 0.000000
vn 0.766044 0.000000 0.642788
vn 0.173648 0.000000 0.984808
vn -0.500000 0.000000 0.866025
vn -0.939693 0.000000 0.342020
vn 0.000000 1.000000 0.000000
vn 0.000000 -1.000000 0.000000
vn 0.000000 0.000000 1.000000
vn 0.000000 0.000000 -1.000000
vn 1.000000 0.000000 0.000000
vn -1.000000 0.000000 0.000000
vn 0.000000 -1.000000 0.000000
vn -0.000000 1.000000 0.000000
vn 0.000000 0.000000 1.000000
vn 0.000000 0.000000 -1.000000
vn 1.000000 0.000000 0.000000
vn -1.000000 0.000000 0.000000
vn 0.000000 -1.000000 0.000000
vn -0.000000 1.000000 0.000000
vn 0.000000 0.000000 1.000000
vn 0.000000 0.000000 -1.000000
vn 1.000000 0.000000 0.000000
vn -1.000000 0.000000 0.000000
vn 0.000000 -1.000000 0.000000
vn -0.000000 1.000000 0.000000
vn 0.000000 0.000000 1.000000
vn 0.000000 0.000000 -1.000000
vn 1.000000 0.000000 0.000000
vn -1.000000 0.000000 0.000000
vn 0.000000 -1.000000 0.000000
vn -0.000000 1.000000 0.000000
vn 0.000000 0.000000 1.000000
vn 0.000000 0.000000 -1.000000
vn 1.000000 0.000000 0.000000
vn -1.000000 0.000000 0.000000
vn 0.000000 -1.000000 0.000000
vn -0.000000 1.000000 0.000000
vn 0.000000 0.000000 1.000000
vn 0.000000 0.000000 -1.000000
vn 1.000000 0.000000 0.000000
vn -1.000000 0.000000 0.000000
vn 0.000000 -1.000000 0.000000
vn -0.000000 1.000000 0.000000
vn 0.000000 0.000000 1.000000
vn 0.000000 0.000000 -1.000000
vn 1.000000 0.000000 0.000000
vn -1.000000 0.000000 0.000000
vn 0.000000 -1.000000 0.000000
vn -0.000000 1.000000 0.000000
vn 0.000000 0.000000 1.000000
vn 0.000000 0.000000 -1.000000
vn 1.000000 0.000000 0.000000
vn -1.000000 0.000000 0.000000
vn 0.000000 -1.000000 0.000000
vn -0.000000 1.000000 0.000000
vn -0.939693 0.000000 -0.342020
vn -0.500000 0.000000 -0.866025
vn 0.173648 0.000000 -0.984808
vn 0.766044 0.000000 -0.642788
vn 1.000000 0.000000 0.000000
vn 0.766044 0.000000 0.642788
vn 0.173648 0.000000 0.984808
vn -0.500000 0.000000 0.866025
vn -0.939693 0.000000 0.342020
vn 0.000000 1.000000 0.000000
vn 0.000000 -1.000000 0.000000
vn -0.939693 0.000000 -0.342020
vn -0.500000 0.000000 -0.866025
vn 0.173648 0.000000 -0.984808
vn 0.766044 0.000000 -0.642788
vn 1.000000 0.000000 0.000000
vn 0.766044 0.000000 0.642788
vn 0.173648 0.000000 0.984808
vn -0.500000 0.000000 0.866025
vn -0.939693 0.000000 0.342020
vn 0.000000 1.000000 0.000000
vn 0.000000 -1.000000 0.000000
vn -0.939693 0.000000 -0.342020
vn -0.500000 0.000000 -0.866025
vn 0.173648 0.000000 -0.984808
vn 0.766044 0.000000 -0.642788
vn 1.000000 0.000000 0.000000
vn 0.766044 0.000000 0.642788
vn 0.173648 0.000000 0.984808
vn -0.500000 0.000000 0.866025
vn -0.939693 0.000000 0.342020
vn 0.000000 1.000000 0.000000
vn 0.000000 -1.000000 0.000000
vn -0.939693 0.000000 -0.342020
vn -0.500000 0.000000 -0.866025
vn 0.173648 0.000000 -0.984808
vn 0.766044 0.000000 -0.642788
vn 1.000000 0.000000 0.000000
vn 0.766044 0.000000 0.642788
vn 0.173648 0.000000 0.984808
vn -0.500000 0.000000 0.866025
vn -0.939693 0.000000 0.342020
vn 0.000000 1.000000 0.000000
vn 0.000000 -1.000000 0.000000
vn -0.951057 0.000000 -0.309017
vn -0.587785 0.000000 -0.809017
vn 0.000000 0.000000 -1.000000
vn 0.587785 0.000000 -0.809017
vn 0.951057 0.000000 -0.309017
vn 0.951057 0.000000 0.309017
vn 0.587785 0.000000 0.809017
vn 0.000000 0.000000 1.000000
vn -0.587785 0.000000 0.809017
vn -0.951057 0.000000 0.309017
vn 0.000000 1.000000 0.000000
vn 0.000000 -1.000000 0.000000
vn -0.951057 0.000000 -0.309017
vn -0.587785 0.000000 -0.809017
vn 0.000000 0.000000 -1.000000
vn 0.587785 0.000000 -0.809017
vn 0.951057 0.000000 -0.309017
vn 0.951057 0.000000 0.309017
vn 0.587785 0.000000 0.809017
vn 0.000000 0.000000 1.000000
vn -0.587785 0.000000 0.809017
vn -0.951057 0.000000 0.309017
vn 0.000000 1.000000 0.000000
vn 0.000000 -1.000000 0.000000
vn -0.951057 0.000000 -0.309017
vn -0.587785 0.000000 -0.809017
vn 0.000000 0.000000 -1.000000
vn 0.587785 0.000000 -0.809017
vn 0.951057 0.000000 -0.309017
vn 0.951057 0.000000 0.309017
vn 0.587785 0.000000 0.809017
vn 0.000000 0.000000 1.000000
vn -0.587785 0.000000 0.809017
vn -0.951057 0.000000 0.309017
vn 0.000000 1.000000 0.000000
vn 0.000000 -1.000000 0.000000
vn -0.951057 0.000000 -0.309017
vn -0.587785 0.000000 -0.809017
vn 0.000000 0.000000 -1.000000
vn 0.587785 0.000000 -0.809017
vn 0.951057 0.000000 -0.309017
vn 0.951057 0.000000 0.309017
vn 0.587785 0.000000 0.809017
vn 0.000000 0.000000 1.000000
vn -0.587785 0.000000 0.809017
vn -0.951057 0.000000 0.309017
vn 0.000000 1.000000 0.000000
vn 0.000000 -1.000000 0.000000
vn 0.000000 0.000000 1.000000
vn 0.000000 0.000000 -1.000000
vn 1.000000 0.000000 0.000000
vn -1.000000 0.000000 0.000000
vn 0.000000 -1.000000 0.000000
vn -0.000000 1.000000 0.000000
vn 0.000000 0.000000 1.000000
vn 0.000000 0.000000 -1.000000
vn 1.000000 0.000000 0.000000
vn -1.000000 0.000000 0.000000
vn 0.000000 -1.000000 0.000000
vn -0.000000 1.000000 0.000000
vn -0.923880 0.000000 -0.382683
vn -0.382683 0.000000 -0.923880
vn 0.382683 0.000000 -0.923880
vn 0.923880 0.000000 -0.382683
vn 0.923880 0.000000 0.382683
vn 0.382683 0.000000 0.923880
vn -0.382683 0.000000 0.923880
vn -0.923880 0.000000 0.382683
vn 0.000000 1.000000 0.000000
vn 0.000000 -1.000000 0.000000
vn -0.923880 0.000000 -0.382683
vn -0.382683 0.000000 -0.923880
vn 0.382683 0.000000 -0.923880
vn 0.923880 0.000000 -0.382683
vn 0.923880 0.000000 0.382683
vn 0.382683 0.000000 0.923880
vn -0.382683 0.000000 0.923880
vn -0.923880 0.000000 0.382683
vn 0.000000 1.000000 0.000000
vn 0.000000 -1.000000 0.000000
vn -0.923880 0.000000 -0.382683
vn -0.382683 0.000000 -0.923880
vn 0.382683 0.000000 -0.923880
vn 0.923880 0.000000 -0.382683
vn 0.923880 0.000000 0.382683
vn 0.382683 0.000000 0.923880
vn -0.382683 0.000000 0.923880
vn -0.923880 0.000000 0.382683
vn 0.000000 1.000000 0.000000
vn 0.000000 -1.000000 0.000000
vn -0.923880 0.000000 -0.382683
vn -0.382683 0.000000 -0.923880
vn 0.382683 0.000000 -0.923880
vn 0.923880 0.000000 -0.382683
vn 0.923880 0.000000 0.382683
vn 0.382683 0.000000 0.923880
vn -0.382683 0.000000 0.923880
vn -0.923880 0.000000 0.382683
vn 0.000000 1.000000 0.000000
vn 0.000000 -1.000000 0.000000
vn 0.000000 0.000000 1.000000
vn 0.000000 0.000000 -1.000000
vn 1.000000 0.000000 0.000000
vn -1.000000 0.000000 0.000000
vn 0.000000 -1.000000 0.000000
vn -0.000000 1.000000 0.000000
vn 0.000000 0.000000 1.000000
vn 0.000000 0.000000 -1.000000
vn 1.000000 0.000000 0.000000
vn -1.000000 0.000000 0.000000
vn 0.000000 -1.000000 0.000000
vn -0.000000 1.000000 0.000000
vn -0.965926 0.000000 -0.258819
vn -0.707107 0.000000 -0.707107
vn -0.258819 0.000000 -0.965926
vn 0.258819 0.000000 -0.965926
vn 0.707107 0.000000 -0.707107
vn 0.965926 0.000000 -0.258819
vn 0.965926 0.000000 0.258819
vn 0.707107 0.000000 0.707107
vn 0.258819 0.000000 0.965926
vn -0.258819 0.000000 0.965926
vn -0.707107 0.000000 0.707107
vn -0.965926 0.000000 0.258819
vn 0.000000 1.000000 0.000000
vn 0.000000 -1.000000 0.000000
vn -0.965926 0.000000 -0.258819
vn -0.707107 0.000000 -0.707107
vn -0.258819 0.000000 -0.965926
vn 0.258819 0.000000 -0.965926
vn 0.707107 0.000000 -0.707107
vn 0.965926 0.000000 -0.258819
vn 0.965926 0.000000 0.258819
vn 0.707107 0.000000 0.707107
vn 0.258819 0.000000 0.965926
vn -0.258819 0.000000 0.965926
vn -0.707107 0.000000 0.707107
vn -0.965926 0.000000 0.258819
vn 0.000000 1.000000 0.000000
vn 0.000000 -1.000000 0.000000
vn 0.000000 0.000000 1.000000
vn 0.000000 0.000000 -1.000000
vn 1.000000 0.000000 0.000000
vn -1.000000 0.000000 0.000000
vn 0.000000 -1.000000 0.000000
vn -0.000000 1.000000 0.000000
vn 0.000000 0.000000 1.000000
vn 0.000000 0.000000 -1.000000
vn 1.000000 0.000000 0.000000
vn -1.000000 0.000000 0.000000
vn 0.000000 -1.000000 0.000000
vn -0.000000 1.000000 0.000000
vn 0.000000 0.000000 1.000000
vn 0.000000 0.000000 -1.000000
vn 1.000000 0.000000 0.000000
vn -1.000000 0.000000 0.000000
vn 0.000000 -1.000000 0.000000
vn -0.000000 1.000000 0.000000
usemtl cabinet
f 1/1/1 2/2/1 3/3/1 4/4/1
f 6/5/2 5/6/2 8/7/2 7/8/2
f 5/9/3 1/10/3 4/11/3 8/12/3
f 2/13/4 6/14/4 7/15/4 3/16/4
f 4/17/5 3/18/5 7/19/5 8/20/5
f 5/21/6 6/22/6 2/23/6 1/24/6
f 9/25/7 10/26/7 11/27/7 12/28/7
f 14/29/8 13/30/8 16/31/8 15/32/8
f 13/33/9 9/34/9 12/35/9 16/36/9
f 10/37/10 14/38/10 15/39/10 11/40/10
f 12/41/11 11/42/11 15/43/11 16/44/11
f 13/45/12 14/46/12 10/47/12 9/48/12
f 17/49/13 19/50/13 20/51/13 18/52/13
f 19/53/14 21/54/14 22/55/14 20/56/14
f 21/57/15 23/58/15 24/59/15 22/60/15
f 23/61/16 25/62/16 26/63/16 24/64/16
f 25/65/17 27/66/17 28/67/17 26/68/17
f 27/69/18 29/70/18 30/71/18 28/72/18
f 29/73/19 31/74/19 32/75/19 30/76/19
f 31/77/20 33/78/20 34/79/20 32/80/20
f 33/81/21 17/82/21 18/83/21 34/84/21
f 33/85/22 31/86/22 29/87/22 27/88/22 25/89/22 23/90/22 21/91/22 19/92/22 17/93/22
f 18/94/23 20/95/23 22/96/23 24/97/23 26/98/23 28/99/23 30/100/23 32/101/23 34/102/23
f 35/103/24 37/104/24 38/105/24 36/106/24
f 37/107/25 39/108/25 40/109/25 38/110/25
f 39/111/26 41/112/26 42/113/26 40/114/26
f 41/115/27 43/116/27 44/117/27 42/118/27
f 43/119/28 45/120/28 46/121/28 44/122/28
f 45/123/29 47/124/29 48/125/29 46/126/29
f 47/127/30 49/128/30 50/129/30 48/130/30
f 49/131/31 51/132/31 52/133/31 50/134/31
f 51/135/32 35/136/32 36/137/32 52/138/32
f 51/139/33 49/140/33 47/141/33 45/142/33 43/143/33 41/144/33 39/145/33 37/146/33 35/147/33
f 36/148/34 38/149/34 40/150/34 42/151/34 44/152/34 46/153/34 48/154/34 50/155/34 52/156/34
f 53/157/35 55/158/35 56/159/35 54/160/35
f 55/161/36 57/162/36 58/163/36 56/164/36
f 57/165/37 59/166/37 60/167/37 58/168/37
f 59/169/38 61/170/38 62/171/38 60/172/38
f 61/173/39 63/174/39 64/175/39 62/176/39
f 63/177/40 65/178/40 66/179/40 64/180/40
f 65/181/41 67/182/41 68/183/41 66/184/41
f 67/185/42 69/186/42 70/187/42 68/188/42
f 69/189/43 53/190/43 54/191/43 70/192/43
f 69/193/44 67/194/44 65/195/44 63/196/44 61/197/44 59/198/44 57/199/44 55/200/44 53/201/44
f 54/202/45 56/203/45 58/204/45 60/205/45 62/206/45 64/207/45 66/208/45 68/209/45 70/210/45
f 71/211/46 73/212/46 74/213/46 72/214/46
f 73/215/47 75/216/47 76/217/47 74/218/47
f 75/219/48 77/220/48 78/221/48 76/222/48
f 77/223/49 79/224/49 80/225/49 78/226/49
f 79/227/50 81/228/50 82/229/50 80/230/50
f 81/231/51 83/232/51 84/233/51 82/234/51
f 83/235/52 85/236/52 86/237/52 84/238/52
f 85/239/53 87/240/53 88/241/53 86/242/53
f 87/243/54 71/244/54 72/245/54 88/246/54
f 87/247/55 85/248/55 83/249/55 81/250/55 79/251/55 77/252/55 75/253/55 73/254/55 71/255/55
f 72/256/56 74/257/56 76/258/56 78/259/56 80/260/56 82/261/56 84/262/56 86/263/56 88/264/56
usemtl metal
f 89/265/57 90/266/57 91/267/57 92/268/57
f 94/269/58 93/270/58 96/271/58 95/272/58
f 93/273/59 89/274/59 92/275/59 96/276/59
f 90/277/60 94/278/60 95/279/60 91/280/60
f 92/281/61 91/282/61 95/283/61 96/284/61
f 93/285/62 94/286/62 90/287/62 89/288/62
f 97/289/63 98/290/63 99/291/63 100/292/63
f 102/293/64 101/294/64 104/295/64 103/296/64
f 101/297/65 97/298/65 100/299/65 104/300/65
f 98/301/66 102/302/66 103/303/66 99/304/66
f 100/305/67 99/306/67 103/307/67 104/308/67
f 101/309/68 102/310/68 98/311/68 97/312/68
f 105/313/69 107/314/69 108/315/69 106/316/69
f 107/317/70 109/318/70 110/319/70 108/320/70
f 109/321/71 111/322/71 112/323/71 110/324/71
f 111/325/72 113/326/72 114/327/72 112/328/72
f 113/329/73 115/330/73 116/331/73 114/332/73
f 115/333/74 117/334/74 118/335/74 116/336/74
f 117/337/75 119/338/75 120/339/75 118/340/75
f 119/341/76 121/342/76 122/343/76 120/344/76
f 121/345/77 105/346/77 106/347/77 122/348/77
f 121/349/78 119/350/78 117/351/78 115/352/78 113/353/78 111/354/78 109/355/78 107/356/78 105/357/78
f 106/358/79 108/359/79 110/360/79 112/361/79 114/362/79 116/363/79 118/364/79 120/365/79 122/366/79
f 123/367/80 125/368/80 126/369/80 124/370/80
f 125/371/81 127/372/81 128/373/81 126/374/81
f 127/375/82 129/376/82 130/377/82 128/378/82
f 129/379/83 131/380/83 132/381/83 130/382/83
f 131/383/84 133/384/84 134/385/84 132/386/84
f 133/387/85 135/388/85 136/389/85 134/390/85
f 135/391/86 137/392/86 138/393/86 136/394/86
f 137/395/87 139/396/87 140/397/87 138/398/87
f 139/399/88 123/400/88 124/401/88 140/402/88
f 139/403/89 137/404/89 135/405/89 133/406/89 131/407/89 129/408/89 127/409/89 125/410/89 123/411/89
f 124/412/90 126/413/90 128/414/90 130/415/90 132/416/90 134/417/90 136/418/90 138/419/90 140/420/90
f 141/421/91 143/422/91 144/423/91 142/424/91
f 143/425/92 145/426/92 146/427/92 144/428/92
f 145/429/93 147/430/93 148/431/93 146/432/93
f 147/433/94 149/434/94 150/435/94 148/436/94
f 149/437/95 151/438/95 152/439/95 150/440/95
f 151/441/96 153/442/96 154/443/96 152/444/96
f 153/445/97 155/446/97 156/447/97 154/448/97
f 155/449/98 157/450/98 158/451/98 156/452/98
f 157/453/99 141/454/99 142/455/99 158/456/99
f 157/457/100 155/458/100 153/459/100 151/460/100 149/461/100 147/462/100 145/463/100 143/464/100 141/465/100
f 142/466/101 144/467/101 146/468/101 148/469/101 150/470/101 152/471/101 154/472/101 156/473/101 158/474/101
f 159/475/102 161/476/102 162/477/102 160/478/102
f 161/479/103 163/480/103 164/481/103 162/482/103
f 163/483/104 165/484/104 166/485/104 164/486/104
f 165/487/105 167/488/105 168/489/105 166/490/105
f 167/491/106 169/492/106 170/493/106 168/494/106
f 169/495/107 171/496/107 172/497/107 170/498/107
f 171/499/108 173/500/108 174/501/108 172/502/108
f 173/503/109 175/504/109 176/505/109 174/506/109
f 175/507/110 159/508/110 160/509/110 176/510/110
f 175/511/111 173/512/111 171/513/111 169/514/111 167/515/111 165/516/111 163/517/111 161/518/111 159/519/111
f 160/520/112 162/521/112 164/522/112 166/523/112 168/524/112 170/525/112 172/526/112 174/527/112 176/528/112
usemtl paper
f 177/529/113 178/530/113 179/531/113 180/532/113
f 182/533/114 181/534/114 184/535/114 183/536/114
f 181/537/115 177/538/115 180/539/115 184/540/115
f 178/541/116 182/542/116 183/543/116 179/544/116
f 180/545/117 179/546/117 183/547/117 184/548/117
f 181/549/118 182/550/118 178/551/118 177/552/118
usemtl wall_stain
f 185/553/119 186/554/119 187/555/119 188/556/119
f 190/557/120 189/558/120 192/559/120 191/560/120
f 189/561/121 185/562/121 188/563/121 192/564/121
f 186/565/122 190/566/122 191/567/122 187/568/122
f 188/569/123 187/570/123 191/571/123 192/572/123
f 189/573/124 190/574/124 186/575/124 185/576/124
usemtl cabinet
f 193/577/125 194/578/125 195/579/125 196/580/125
f 198/581/126 197/582/126 200/583/126 199/584/126
f 197/585/127 193/586/127 196/587/127 200/588/127
f 194/589/128 198/590/128 199/591/128 195/592/128
f 196/593/129 195/594/129 199/595/129 200/596/129
f 197/597/130 198/598/130 194/599/130 193/600/130
f 201/601/131 202/602/131 203/603/131 204/604/131
f 206/605/132 205/606/132 208/607/132 207/608/132
f 205/609/133 201/610/133 204/611/133 208/612/133
f 202/613/134 206/614/134 207/615/134 203/616/134
f 204/617/135 203/618/135 207/619/135 208/620/135
f 205/621/136 206/622/136 202/623/136 201/624/136
usemtl metal
f 209/625/137 210/626/137 211/627/137 212/628/137
f 214/629/138 213/630/138 216/631/138 215/632/138
f 213/633/139 209/634/139 212/635/139 216/636/139
f 210/637/140 214/638/140 215/639/140 211/640/140
f 212/641/141 211/642/141 215/643/141 216/644/141
f 213/645/142 214/646/142 210/647/142 209/648/142
f 217/649/143 218/650/143 219/651/143 220/652/143
f 222/653/144 221/654/144 224/655/144 223/656/144
f 221/657/145 217/658/145 220/659/145 224/660/145
f 218/661/146 222/662/146 223/663/146 219/664/146
f 220/665/147 219/666/147 223/667/147 224/668/147
f 221/669/148 222/670/148 218/671/148 217/672/148
f 225/673/149 226/674/149 227/675/149 228/676/149
f 230/677/150 229/678/150 232/679/150 231/680/150
f 229/681/151 225/682/151 228/683/151 232/684/151
f 226/685/152 230/686/152 231/687/152 227/688/152
f 228/689/153 227/690/153 231/691/153 232/692/153
f 229/693/154 230/694/154 226/695/154 225/696/154
f 233/697/155 234/698/155 235/699/155 236/700/155
f 238/701/156 237/702/156 240/703/156 239/704/156
f 237/705/157 233/706/157 236/707/157 240/708/157
f 234/709/158 238/710/158 239/711/158 235/712/158
f 236/713/159 235/714/159 239/715/159 240/716/159
f 237/717/160 238/718/160 234/719/160 233/720/160
f 241/721/161 243/722/161 244/723/161 242/724/161
f 243/725/162 245/726/162 246/727/162 244/728/162
f 245/729/163 247/730/163 248/731/163 246/732/163
f 247/733/164 249/734/164 250/735/164 248/736/164
f 249/737/165 251/738/165 252/739/165 250/740/165
f 251/741/166 253/742/166 254/743/166 252/744/166
f 253/745/167 255/746/167 256/747/167 254/748/167
f 255/749/168 257/750/168 258/751/168 256/752/168
f 257/753/169 241/754/169 242/755/169 258/756/169
f 257/757/170 255/758/170 253/759/170 251/760/170 249/761/170 247/762/170 245/763/170 243/764/170 241/765/170
f 242/766/171 244/767/171 246/768/171 248/769/171 250/770/171 252/771/171 254/772/171 256/773/171 258/774/171
f 259/775/172 261/776/172 262/777/172 260/778/172
f 261/779/173 263/780/173 264/781/173 262/782/173
f 263/783/174 265/784/174 266/785/174 264/786/174
f 265/787/175 267/788/175 268/789/175 266/790/175
f 267/791/176 269/792/176 270/793/176 268/794/176
f 269/795/177 271/796/177 272/797/177 270/798/177
f 271/799/178 273/800/178 274/801/178 272/802/178
f 273/803/179 275/804/179 276/805/179 274/806/179
f 275/807/180 259/808/180 260/809/180 276/810/180
f 275/811/181 273/812/181 271/813/181 269/814/181 267/815/181 265/816/181 263/817/181 261/818/181 259/819/181
f 260/820/182 262/821/182 264/822/182 266/823/182 268/824/182 270/825/182 272/826/182 274/827/182 276/828/182
f 277/829/183 279/830/183 280/831/183 278/832/183
f 279/833/184 281/834/184 282/835/184 280/836/184
f 281/837/185 283/838/185 284/839/185 282/840/185
f 283/841/186 285/842/186 286/843/186 284/844/186
f 285/845/187 287/846/187 288/847/187 286/848/187
f 287/849/188 289/850/188 290/851/188 288/852/188
f 289/853/189 291/854/189 292/855/189 290/856/189
f 291/857/190 293/858/190 294/859/190 292/860/190
f 293/861/191 277/862/191 278/863/191 294/864/191
f 293/865/192 291/866/192 289/867/192 287/868/192 285/869/192 283/870/192 281/871/192 279/872/192 277/873/192
f 278/874/193 280/875/193 282/876/193 284/877/193 286/878/193 288/879/193 290/880/193 292/881/193 294/882/193
f 295/883/194 297/884/194 298/885/194 296/886/194
f 297/887/195 299/888/195 300/889/195 298/890/195
f 299/891/196 301/892/196 302/893/196 300/894/196
f 301/895/197 303/896/197 304/897/197 302/898/197
f 303/899/198 305/900/198 306/901/198 304/902/198
f 305/903/199 307/904/199 308/905/199 306/906/199
f 307/907/200 309/908/200 310/909/200 308/910/200
f 309/911/201 311/912/201 312/913/201 310/914/201
f 311/915/202 295/916/202 296/917/202 312/918/202
f 311/919/203 309/920/203 307/921/203 305/922/203 303/923/203 301/924/203 299/925/203 297/926/203 295/927/203
f 296/928/204 298/929/204 300/930/204 302/931/204 304/932/204 306/933/204 308/934/204 310/935/204 312/936/204
usemtl rubber_dark
f 313/937/205 315/938/205 316/939/205 314/940/205
f 315/941/206 317/942/206 318/943/206 316/944/206
f 317/945/207 319/946/207 320/947/207 318/948/207
f 319/949/208 321/950/208 322/951/208 320/952/208
f 321/953/209 323/954/209 324/955/209 322/956/209
f 323/957/210 325/958/210 326/959/210 324/960/210
f 325/961/211 327/962/211 328/963/211 326/964/211
f 327/965/212 329/966/212 330/967/212 328/968/212
f 329/969/213 331/970/213 332/971/213 330/972/213
f 331/973/214 313/974/214 314/975/214 332/976/214
f 331/977/215 329/978/215 327/979/215 325/980/215 323/981/215 321/982/215 319/983/215 317/984/215 315/985/215 313/986/215
f 314/987/216 316/988/216 318/989/216 320/990/216 322/991/216 324/992/216 326/993/216 328/994/216 330/995/216 332/996/216
f 333/997/217 335/998/217 336/999/217 334/1000/217
f 335/1001/218 337/1002/218 338/1003/218 336/1004/218
f 337/1005/219 339/1006/219 340/1007/219 338/1008/219
f 339/1009/220 341/1010/220 342/1011/220 340/1012/220
f 341/1013/221 343/1014/221 344/1015/221 342/1016/221
f 343/1017/222 345/1018/222 346/1019/222 344/1020/222
f 345/1021/223 347/1022/223 348/1023/223 346/1024/223
f 347/1025/224 349/1026/224 350/1027/224 348/1028/224
f 349/1029/225 351/1030/225 352/1031/225 350/1032/225
f 351/1033/226 333/1034/226 334/1035/226 352/1036/226
f 351/1037/227 349/1038/227 347/1039/227 345/1040/227 343/1041/227 341/1042/227 339/1043/227 337/1044/227 335/1045/227 333/1046/227
f 334/1047/228 336/1048/228 338/1049/228 340/1050/228 342/1051/228 344/1052/228 346/1053/228 348/1054/228 350/1055/228 352/1056/228
f 353/1057/229 355/1058/229 356/1059/229 354/1060/229
f 355/1061/230 357/1062/230 358/1063/230 356/1064/230
f 357/1065/231 359/1066/231 360/1067/231 358/1068/231
f 359/1069/232 361/1070/232 362/1071/232 360/1072/232
f 361/1073/233 363/1074/233 364/1075/233 362/1076/233
f 363/1077/234 365/1078/234 366/1079/234 364/1080/234
f 365/1081/235 367/1082/235 368/1083/235 366/1084/235
f 367/1085/236 369/1086/236 370/1087/236 368/1088/236
f 369/1089/237 371/1090/237 372/1091/237 370/1092/237
f 371/1093/238 353/1094/238 354/1095/238 372/1096/238
f 371/1097/239 369/1098/239 367/1099/239 365/1100/239 363/1101/239 361/1102/239 359/1103/239 357/1104/239 355/1105/239 353/1106/239
f 354/1107/240 356/1108/240 358/1109/240 360/1110/240 362/1111/240 364/1112/240 366/1113/240 368/1114/240 370/1115/240 372/1116/240
f 373/1117/241 375/1118/241 376/1119/241 374/1120/241
f 375/1121/242 377/1122/242 378/1123/242 376/1124/242
f 377/1125/243 379/1126/243 380/1127/243 378/1128/243
f 379/1129/244 381/1130/244 382/1131/244 380/1132/244
f 381/1133/245 383/1134/245 384/1135/245 382/1136/245
f 383/1137/246 385/1138/246 386/1139/246 384/1140/246
f 385/1141/247 387/1142/247 388/1143/247 386/1144/247
f 387/1145/248 389/1146/248 390/1147/248 388/1148/248
f 389/1149/249 391/1150/249 392/1151/249 390/1152/249
f 391/1153/250 373/1154/250 374/1155/250 392/1156/250
f 391/1157/251 389/1158/251 387/1159/251 385/1160/251 383/1161/251 381/1162/251 379/1163/251 377/1164/251 375/1165/251 373/1166/251
f 374/1167/252 376/1168/252 378/1169/252 380/1170/252 382/1171/252 384/1172/252 386/1173/252 388/1174/252 390/1175/252 392/1176/252
usemtl bed_sheet
f 393/1177/253 394/1178/253 395/1179/253 396/1180/253
f 398/1181/254 397/1182/254 400/1183/254 399/1184/254
f 397/1185/255 393/1186/255 396/1187/255 400/1188/255
f 394/1189/256 398/1190/256 399/1191/256 395/1192/256
f 396/1193/257 395/1194/257 399/1195/257 400/1196/257
f 397/1197/258 398/1198/258 394/1199/258 393/1200/258
f 401/1201/259 402/1202/259 403/1203/259 404/1204/259
f 406/1205/260 405/1206/260 408/1207/260 407/1208/260
f 405/1209/261 401/1210/261 404/1211/261 408/1212/261
f 402/1213/262 406/1214/262 407/1215/262 403/1216/262
f 404/1217/263 403/1218/263 407/1219/263 408/1220/263
f 405/1221/264 406/1222/264 402/1223/264 401/1224/264
f 409/1225/265 411/1226/265 412/1227/265 410/1228/265
f 411/1229/266 413/1230/266 414/1231/266 412/1232/266
f 413/1233/267 415/1234/267 416/1235/267 414/1236/267
f 415/1237/268 417/1238/268 418/1239/268 416/1240/268
f 417/1241/269 419/1242/269 420/1243/269 418/1244/269
f 419/1245/270 421/1246/270 422/1247/270 420/1248/270
f 421/1249/271 423/1250/271 424/1251/271 422/1252/271
f 423/1253/272 409/1254/272 410/1255/272 424/1256/272
f 423/1257/273 421/1258/273 419/1259/273 417/1260/273 415/1261/273 413/1262/273 411/1263/273 409/1264/273
f 410/1265/274 412/1266/274 414/1267/274 416/1268/274 418/1269/274 420/1270/274 422/1271/274 424/1272/274
f 425/1273/275 427/1274/275 428/1275/275 426/1276/275
f 427/1277/276 429/1278/276 430/1279/276 428/1280/276
f 429/1281/277 431/1282/277 432/1283/277 430/1284/277
f 431/1285/278 433/1286/278 434/1287/278 432/1288/278
f 433/1289/279 435/1290/279 436/1291/279 434/1292/279
f 435/1293/280 437/1294/280 438/1295/280 436/1296/280
f 437/1297/281 439/1298/281 440/1299/281 438/1300/281
f 439/1301/282 425/1302/282 426/1303/282 440/1304/282
f 439/1305/283 437/1306/283 435/1307/283 433/1308/283 431/1309/283 429/1310/283 427/1311/283 425/1312/283
f 426/1313/284 428/1314/284 430/1315/284 432/1316/284 434/1317/284 436/1318/284 438/1319/284 440/1320/284
f 441/1321/285 443/1322/285 444/1323/285 442/1324/285
f 443/1325/286 445/1326/286 446/1327/286 444/1328/286
f 445/1329/287 447/1330/287 448/1331/287 446/1332/287
f 447/1333/288 449/1334/288 450/1335/288 448/1336/288
f 449/1337/289 451/1338/289 452/1339/289 450/1340/289
f 451/1341/290 453/1342/290 454/1343/290 452/1344/290
f 453/1345/291 455/1346/291 456/1347/291 454/1348/291
f 455/1349/292 441/1350/292 442/1351/292 456/1352/292
f 455/1353/293 453/1354/293 451/1355/293 449/1356/293 447/1357/293 445/1358/293 443/1359/293 441/1360/293
f 442/1361/294 444/1362/294 446/1363/294 448/1364/294 450/1365/294 452/1366/294 454/1367/294 456/1368/294
f 457/1369/295 459/1370/295 460/1371/295 458/1372/295
f 459/1373/296 461/1374/296 462/1375/296 460/1376/296
f 461/1377/297 463/1378/297 464/1379/297 462/1380/297
f 463/1381/298 465/1382/298 466/1383/298 464/1384/298
f 465/1385/299 467/1386/299 468/1387/299 466/1388/299
f 467/1389/300 469/1390/300 470/1391/300 468/1392/300
f 469/1393/301 471/1394/301 472/1395/301 470/1396/301
f 471/1397/302 457/1398/302 458/1399/302 472/1400/302
f 471/1401/303 469/1402/303 467/1403/303 465/1404/303 463/1405/303 461/1406/303 459/1407/303 457/1408/303
f 458/1409/304 460/1410/304 462/1411/304 464/1412/304 466/1413/304 468/1414/304 470/1415/304 472/1416/304
usemtl paper
f 473/1417/305 474/1418/305 475/1419/305 476/1420/305
f 478/1421/306 477/1422/306 480/1423/306 479/1424/306
f 477/1425/307 473/1426/307 476/1427/307 480/1428/307
f 474/1429/308 478/1430/308 479/1431/308 475/1432/308
f 476/1433/309 475/1434/309 479/1435/309 480/1436/309
f 477/1437/310 478/1438/310 474/1439/310 473/1440/310
usemtl medical_green
f 481/1441/311 482/1442/311 483/1443/311 484/1444/311
f 486/1445/312 485/1446/312 488/1447/312 487/1448/312
f 485/1449/313 481/1450/313 484/1451/313 488/1452/313
f 482/1453/314 486/1454/314 487/1455/314 483/1456/314
f 484/1457/315 483/1458/315 487/1459/315 488/1460/315
f 485/1461/316 486/1462/316 482/1463/316 481/1464/316
usemtl fluid_blue
f 489/1465/317 491/1466/317 492/1467/317 490/1468/317
f 491/1469/318 493/1470/318 494/1471/318 492/1472/318
f 493/1473/319 495/1474/319 496/1475/319 494/1476/319
f 495/1477/320 497/1478/320 498/1479/320 496/1480/320
f 497/1481/321 499/1482/321 500/1483/321 498/1484/321
f 499/1485/322 501/1486/322 502/1487/322 500/1488/322
f 501/1489/323 503/1490/323 504/1491/323 502/1492/323
f 503/1493/324 505/1494/324 506/1495/324 504/1496/324
f 505/1497/325 507/1498/325 508/1499/325 506/1500/325
f 507/1501/326 509/1502/326 510/1503/326 508/1504/326
f 509/1505/327 511/1506/327 512/1507/327 510/1508/327
f 511/1509/328 489/1510/328 490/1511/328 512/1512/328
f 511/1513/329 509/1514/329 507/1515/329 505/1516/329 503/1517/329 501/1518/329 499/1519/329 497/1520/329 495/1521/329 493/1522/329 491/1523/329 489/1524/329
f 490/1525/330 492/1526/330 494/1527/330 496/1528/330 498/1529/330 500/1530/330 502/1531/330 504/1532/330 506/1533/330 508/1534/330 510/1535/330 512/1536/330
usemtl metal
f 513/1537/331 515/1538/331 516/1539/331 514/1540/331
f 515/1541/332 517/1542/332 518/1543/332 516/1544/332
f 517/1545/333 519/1546/333 520/1547/333 518/1548/333
f 519/1549/334 521/1550/334 522/1551/334 520/1552/334
f 521/1553/335 523/1554/335 524/1555/335 522/1556/335
f 523/1557/336 525/1558/336 526/1559/336 524/1560/336
f 525/1561/337 527/1562/337 528/1563/337 526/1564/337
f 527/1565/338 529/1566/338 530/1567/338 528/1568/338
f 529/1569/339 531/1570/339 532/1571/339 530/1572/339
f 531/1573/340 533/1574/340 534/1575/340 532/1576/340
f 533/1577/341 535/1578/341 536/1579/341 534/1580/341
f 535/1581/342 513/1582/342 514/1583/342 536/1584/342
f 535/1585/343 533/1586/343 531/1587/343 529/1588/343 527/1589/343 525/1590/343 523/1591/343 521/1592/343 519/1593/343 517/1594/343 515/1595/343 513/1596/343
f 514/1597/344 516/1598/344 518/1599/344 520/1600/344 522/1601/344 524/1602/344 526/1603/344 528/1604/344 530/1605/344 532/1606/344 534/1607/344 536/1608/344
usemtl tape
f 537/1609/345 538/1610/345 539/1611/345 540/1612/345
f 542/1613/346 541/1614/346 544/1615/346 543/1616/346
f 541/1617/347 537/1618/347 540/1619/347 544/1620/347
f 538/1621/348 542/1622/348 543/1623/348 539/1624/348
f 540/1625/349 539/1626/349 543/1627/349 544/1628/349
f 541/1629/350 542/1630/350 538/1631/350 537/1632/350
usemtl warning_red
f 545/1633/351 546/1634/351 547/1635/351 548/1636/351
f 550/1637/352 549/1638/352 552/1639/352 551/1640/352
f 549/1641/353 545/1642/353 548/1643/353 552/1644/353
f 546/1645/354 550/1646/354 551/1647/354 547/1648/354
f 548/1649/355 547/1650/355 551/1651/355 552/1652/355
f 549/1653/356 550/1654/356 546/1655/356 545/1656/356
usemtl sterile_blue
f 553/1657/357 554/1658/357 555/1659/357 556/1660/357
f 558/1661/358 557/1662/358 560/1663/358 559/1664/358
f 557/1665/359 553/1666/359 556/1667/359 560/1668/359
f 554/1669/360 558/1670/360 559/1671/360 555/1672/360
f 556/1673/361 555/1674/361 559/1675/361 560/1676/361
f 557/1677/362 558/1678/362 554/1679/362 553/1680/362
