# Generated by tools/generate_hospital_ward_assets.py
mtllib hospital_ward_materials.mtl
o hospital_ward_shell
v -2.200000 -0.080000 -2.700000
v 2.200000 -0.080000 -2.700000
v 2.200000 0.000000 -2.700000
v -2.200000 0.000000 -2.700000
v -2.200000 -0.080000 2.700000
v 2.200000 -0.080000 2.700000
v 2.200000 0.000000 2.700000
v -2.200000 0.000000 2.700000
v -2.200000 2.510000 -2.700000
v 2.200000 2.510000 -2.700000
v 2.200000 2.590000 -2.700000
v -2.200000 2.590000 -2.700000
v -2.200000 2.510000 2.700000
v 2.200000 2.510000 2.700000
v 2.200000 2.590000 2.700000
v -2.200000 2.590000 2.700000
v -2.240000 -0.040000 -2.700000
v -2.160000 -0.040000 -2.700000
v -2.160000 2.540000 -2.700000
v -2.240000 2.540000 -2.700000
v -2.240000 -0.040000 2.700000
v -2.160000 -0.040000 2.700000
v -2.160000 2.540000 2.700000
v -2.240000 2.540000 2.700000
v 2.160000 -0.040000 -2.700000
v 2.240000 -0.040000 -2.700000
v 2.240000 2.540000 -2.700000
v 2.160000 2.540000 -2.700000
v 2.160000 -0.040000 2.700000
v 2.240000 -0.040000 2.700000
v 2.240000 2.540000 2.700000
v 2.160000 2.540000 2.700000
v -2.200000 -0.040000 -2.740000
v 2.200000 -0.040000 -2.740000
v 2.200000 2.540000 -2.740000
v -2.200000 2.540000 -2.740000
v -2.200000 -0.040000 -2.660000
v 2.200000 -0.040000 -2.660000
v 2.200000 2.540000 -2.660000
v -2.200000 2.540000 -2.660000
v -2.200000 -0.040000 2.660000
v 2.200000 -0.040000 2.660000
v 2.200000 2.540000 2.660000
v -2.200000 2.540000 2.660000
v -2.200000 -0.040000 2.740000
v 2.200000 -0.040000 2.740000
v 2.200000 2.540000 2.740000
v -2.200000 2.540000 2.740000
v -2.090000 0.040000 -2.670000
v 2.090000 0.040000 -2.670000
v 2.090000 0.180000 -2.670000
v -2.090000 0.180000 -2.670000
v -2.090000 0.040000 -2.610000
v 2.090000 0.040000 -2.610000
v 2.090000 0.180000 -2.610000
v -2.090000 0.180000 -2.610000
v -2.090000 0.040000 2.610000
v 2.090000 0.040000 2.610000
v 2.090000 0.180000 2.610000
v -2.090000 0.180000 2.610000
v -2.090000 0.040000 2.670000
v 2.090000 0.040000 2.670000
v 2.090000 0.180000 2.670000
v -2.090000 0.180000 2.670000
v -2.170000 0.040000 -2.560000
v -2.110000 0.040000 -2.560000
v -2.110000 0.180000 -2.560000
v -2.170000 0.180000 -2.560000
v -2.170000 0.040000 2.560000
v -2.110000 0.040000 2.560000
v -2.110000 0.180000 2.560000
v -2.170000 0.180000 2.560000
v 2.110000 0.040000 -2.560000
v 2.170000 0.040000 -2.560000
v 2.170000 0.180000 -2.560000
v 2.110000 0.180000 -2.560000
v 2.110000 0.040000 2.560000
v 2.170000 0.040000 2.560000
v 2.170000 0.180000 2.560000
v 2.110000 0.180000 2.560000
v -2.030000 0.860000 -2.593000
v 2.030000 0.860000 -2.593000
v -2.030000 0.835313 -2.601021
v 2.030000 0.835313 -2.601021
v -2.030000 0.820056 -2.622021
v 2.030000 0.820056 -2.622021
v -2.030000 0.820056 -2.647979
v 2.030000 0.820056 -2.647979
v -2.030000 0.835313 -2.668979
v 2.030000 0.835313 -2.668979
v -2.030000 0.860000 -2.677000
v 2.030000 0.860000 -2.677000
v -2.030000 0.884687 -2.668979
v 2.030000 0.884687 -2.668979
v -2.030000 0.899944 -2.647979
v 2.030000 0.899944 -2.647979
v -2.030000 0.899944 -2.622021
v 2.030000 0.899944 -2.622021
v -2.030000 0.884687 -2.601021
v 2.030000 0.884687 -2.601021
v -2.177000 0.860000 -2.500000
v -2.177000 0.860000 2.500000
v -2.168979 0.835313 -2.500000
v -2.168979 0.835313 2.500000
v -2.147979 0.820056 -2.500000
v -2.147979 0.820056 2.500000
v -2.122021 0.820056 -2.500000
v -2.122021 0.820056 2.500000
v -2.101021 0.835313 -2.500000
v -2.101021 0.835313 2.500000
v -2.093000 0.860000 -2.500000
v -2.093000 0.860000 2.500000
v -2.101021 0.884687 -2.500000
v -2.101021 0.884687 2.500000
v -2.122021 0.899944 -2.500000
v -2.122021 0.899944 2.500000
v -2.147979 0.899944 -2.500000
v -2.147979 0.899944 2.500000
v -2.168979 0.884687 -2.500000
v -2.168979 0.884687 2.500000
v 2.093000 0.860000 -2.480000
v 2.093000 0.860000 1.640000
v 2.101021 0.835313 -2.480000
v 2.101021 0.835313 1.640000
v 2.122021 0.820056 -2.480000
v 2.122021 0.820056 1.640000
v 2.147979 0.820056 -2.480000
v 2.147979 0.820056 1.640000
v 2.168979 0.835313 -2.480000
v 2.168979 0.835313 1.640000
v 2.177000 0.860000 -2.480000
v 2.177000 0.860000 1.640000
v 2.168979 0.884687 -2.480000
v 2.168979 0.884687 1.640000
v 2.147979 0.899944 -2.480000
v 2.147979 0.899944 1.640000
v 2.122021 0.899944 -2.480000
v 2.122021 0.899944 1.640000
v 2.101021 0.884687 -2.480000
v 2.101021 0.884687 1.640000
v -2.122000 0.100000 -2.620000
v -2.122000 2.460000 -2.620000
v -2.130201 0.100000 -2.639799
v -2.130201 2.460000 -2.639799
v -2.150000 0.100000 -2.648000
v -2.150000 2.460000 -2.648000
v -2.169799 0.100000 -2.639799
v -2.169799 2.460000 -2.639799
v -2.178000 0.100000 -2.620000
v -2.178000 2.460000 -2.620000
v -2.169799 0.100000 -2.600201
v -2.169799 2.460000 -2.600201
v -2.150000 0.100000 -2.592000
v -2.150000 2.460000 -2.592000
v -2.130201 0.100000 -2.600201
v -2.130201 2.460000 -2.600201
v 2.178000 0.100000 -2.620000
v 2.178000 2.460000 -2.620000
v 2.169799 0.100000 -2.639799
v 2.169799 2.460000 -2.639799
v 2.150000 0.100000 -2.648000
v 2.150000 2.460000 -2.648000
v 2.130201 0.100000 -2.639799
v 2.130201 2.460000 -2.639799
v 2.122000 0.100000 -2.620000
v 2.122000 2.460000 -2.620000
v 2.130201 0.100000 -2.600201
v 2.130201 2.460000 -2.600201
v 2.150000 0.100000 -2.592000
v 2.150000 2.460000 -2.592000
v 2.169799 0.100000 -2.600201
v 2.169799 2.460000 -2.600201
v -2.122000 0.100000 2.620000
v -2.122000 2.460000 2.620000
v -2.130201 0.100000 2.600201
v -2.130201 2.460000 2.600201
v -2.150000 0.100000 2.592000
v -2.150000 2.460000 2.592000
v -2.169799 0.100000 2.600201
v -2.169799 2.460000 2.600201
v -2.178000 0.100000 2.620000
v -2.178000 2.460000 2.620000
v -2.169799 0.100000 2.639799
v -2.169799 2.460000 2.639799
v -2.150000 0.100000 2.648000
v -2.150000 2.460000 2.648000
v -2.130201 0.100000 2.639799
v -2.130201 2.460000 2.639799
v 2.178000 0.100000 2.620000
v 2.178000 2.460000 2.620000
v 2.169799 0.100000 2.600201
v 2.169799 2.460000 2.600201
v 2.150000 0.100000 2.592000
v 2.150000 2.460000 2.592000
v 2.130201 0.100000 2.600201
v 2.130201 2.460000 2.600201
v 2.122000 0.100000 2.620000
v 2.122000 2.460000 2.620000
v 2.130201 0.100000 2.639799
v 2.130201 2.460000 2.639799
v 2.150000 0.100000 2.648000
v 2.150000 2.460000 2.648000
v 2.169799 0.100000 2.639799
v 2.169799 2.460000 2.639799
v -2.040000 0.235000 -2.655500
v 2.040000 0.235000 -2.655500
v 2.040000 0.325000 -2.655500
v -2.040000 0.325000 -2.655500
v -2.040000 0.235000 -2.620500
v 2.040000 0.235000 -2.620500
v 2.040000 0.325000 -2.620500
v -2.040000 0.325000 -2.620500
v -2.155500 0.270000 0.080000
v -2.120500 0.270000 0.080000
v -2.120500 0.370000 0.080000
v -2.155500 0.370000 0.080000
v -2.155500 0.270000 1.280000
v -2.120500 0.270000 1.280000
v -2.120500 0.370000 1.280000
v -2.155500 0.370000 1.280000
v -0.130000 0.003000 -0.375000
v 0.970000 0.003000 -0.375000
v 0.970000 0.021000 -0.375000
v -0.130000 0.021000 -0.375000
v -0.130000 0.003000 -0.225000
v 0.970000 0.003000 -0.225000
v 0.970000 0.021000 -0.225000
v -0.130000 0.021000 -0.225000
v -1.290000 0.005000 1.280000
v -0.550000 0.005000 1.280000
v -0.550000 0.021000 1.280000
v -1.290000 0.021000 1.280000
v -1.290000 0.005000 1.400000
v -0.550000 0.005000 1.400000
v -0.550000 0.021000 1.400000
v -1.290000 0.021000 1.400000
v 1.340000 0.005500 -1.480000
v 1.740000 0.005500 -1.480000
v 1.740000 0.022500 -1.480000
v 1.340000 0.022500 -1.480000
v 1.340000 0.005500 -0.880000
v 1.740000 0.005500 -0.880000
v 1.740000 0.022500 -0.880000
v 1.340000 0.022500 -0.880000
v -1.825000 0.010000 -1.875000
v 1.825000 0.010000 -1.875000
v 1.825000 0.026000 -1.875000
v -1.825000 0.026000 -1.875000
v -1.825000 0.010000 -1.845000
v 1.825000 0.010000 -1.845000
v 1.825000 0.026000 -1.845000
v -1.825000 0.026000 -1.845000
v -1.825000 0.010000 -0.935000
v 1.825000 0.010000 -0.935000
v 1.825000 0.026000 -0.935000
v -1.825000 0.026000 -0.935000
v -1.825000 0.010000 -0.905000
v 1.825000 0.010000 -0.905000
v 1.825000 0.026000 -0.905000
v -1.825000 0.026000 -0.905000
v -1.825000 0.010000 0.165000
v 1.825000 0.010000 0.165000
v 1.825000 0.026000 0.165000
v -1.825000 0.026000 0.165000
v -1.825000 0.010000 0.195000
v 1.825000 0.010000 0.195000
v 1.825000 0.026000 0.195000
v -1.825000 0.026000 0.195000
v -1.825000 0.010000 1.245000
v 1.825000 0.010000 1.245000
v 1.825000 0.026000 1.245000
v -1.825000 0.026000 1.245000
v -1.825000 0.010000 1.275000
v 1.825000 0.010000 1.275000
v 1.825000 0.026000 1.275000
v -1.825000 0.026000 1.275000
v -2.247500 1.060000 -1.410000
v -2.212500 1.060000 -1.410000
v -2.212500 1.980000 -1.410000
v -2.247500 1.980000 -1.410000
v -2.247500 1.060000 -0.090000
v -2.212500 1.060000 -0.090000
v -2.212500 1.980000 -0.090000
v -2.247500 1.980000 -0.090000
v -2.255000 0.980000 -1.490000
v -2.245000 0.980000 -1.490000
v -2.245000 2.060000 -1.490000
v -2.255000 2.060000 -1.490000
v -2.255000 0.980000 -0.010000
v -2.245000 0.980000 -0.010000
v -2.245000 2.060000 -0.010000
v -2.255000 2.060000 -0.010000
v -2.290000 0.980000 -1.455000
v -2.210000 0.980000 -1.455000
v -2.210000 2.060000 -1.455000
v -2.290000 2.060000 -1.455000
v -2.290000 0.980000 -0.045000
v -2.210000 0.980000 -0.045000
v -2.210000 2.060000 -0.045000
v -2.290000 2.060000 -0.045000
v -2.220000 0.980000 -1.455000
v -2.220000 2.060000 -1.455000
v -2.230251 0.980000 -1.430251
v -2.230251 2.060000 -1.430251
v -2.255000 0.980000 -1.420000
v -2.255000 2.060000 -1.420000
v -2.279749 0.980000 -1.430251
v -2.279749 2.060000 -1.430251
v -2.290000 0.980000 -1.455000
v -2.290000 2.060000 -1.455000
v -2.279749 0.980000 -1.479749
v -2.279749 2.060000 -1.479749
v -2.255000 0.980000 -1.490000
v -2.255000 2.060000 -1.490000
v -2.230251 0.980000 -1.479749
v -2.230251 2.060000 -1.479749
v -2.220000 0.980000 -0.045000
v -2.220000 2.060000 -0.045000
v -2.230251 0.980000 -0.020251
v -2.230251 2.060000 -0.020251
v -2.255000 0.980000 -0.010000
v -2.255000 2.060000 -0.010000
v -2.279749 0.980000 -0.020251
v -2.279749 2.060000 -0.020251
v -2.290000 0.980000 -0.045000
v -2.290000 2.060000 -0.045000
v -2.279749 0.980000 -0.069749
v -2.279749 2.060000 -0.069749
v -2.255000 0.980000 -0.080000
v -2.255000 2.060000 -0.080000
v -2.230251 0.980000 -0.069749
v -2.230251 2.060000 -0.069749
v -2.210000 0.980000 -1.455000
v -2.210000 2.060000 -1.455000
v -2.220251 0.980000 -1.430251
v -2.220251 2.060000 -1.430251
v -2.245000 0.980000 -1.420000
v -2.245000 2.060000 -1.420000
v -2.269749 0.980000 -1.430251
v -2.269749 2.060000 -1.430251
v -2.280000 0.980000 -1.455000
v -2.280000 2.060000 -1.455000
v -2.269749 0.980000 -1.479749
v -2.269749 2.060000 -1.479749
v -2.245000 0.980000 -1.490000
v -2.245000 2.060000 -1.490000
v -2.220251 0.980000 -1.479749
v -2.220251 2.060000 -1.479749
v -2.210000 0.980000 -0.045000
v -2.210000 2.060000 -0.045000
v -2.220251 0.980000 -0.020251
v -2.220251 2.060000 -0.020251
v -2.245000 0.980000 -0.010000
v -2.245000 2.060000 -0.010000
v -2.269749 0.980000 -0.020251
v -2.269749 2.060000 -0.020251
v -2.280000 0.980000 -0.045000
v -2.280000 2.060000 -0.045000
v -2.269749 0.980000 -0.069749
v -2.269749 2.060000 -0.069749
v -2.245000 0.980000 -0.080000
v -2.245000 2.060000 -0.080000
v -2.220251 0.980000 -0.069749
v -2.220251 2.060000 -0.069749
v -2.295000 1.100000 -1.350000
v -2.265000 1.100000 -1.350000
v -2.265000 1.940000 -1.350000
v -2.295000 1.940000 -1.350000
v -2.295000 1.100000 -0.150000
v -2.265000 1.100000 -0.150000
v -2.265000 1.940000 -0.150000
v -2.295000 1.940000 -0.150000
v -2.250000 0.880000 -1.510000
v -2.090000 0.880000 -1.510000
v -2.090000 0.960000 -1.510000
v -2.250000 0.960000 -1.510000
v -2.250000 0.880000 0.010000
v -2.090000 0.880000 0.010000
v -2.090000 0.960000 0.010000
v -2.250000 0.960000 0.010000
v -2.210000 1.495000 -1.380000
v -2.130000 1.495000 -1.380000
v -2.130000 1.545000 -1.380000
v -2.210000 1.545000 -1.380000
v -2.210000 1.495000 -0.120000
v -2.130000 1.495000 -0.120000
v -2.130000 1.545000 -0.120000
v -2.210000 1.545000 -0.120000
v -2.210000 1.080000 -0.767500
v -2.130000 1.080000 -0.767500
v -2.130000 1.960000 -0.767500
v -2.210000 1.960000 -0.767500
v -2.210000 1.080000 -0.732500
v -2.130000 1.080000 -0.732500
v -2.130000 1.960000 -0.732500
v -2.210000 1.960000 -0.732500
v -0.655000 2.430000 -0.260000
v 0.655000 2.430000 -0.260000
v 0.655000 2.490000 -0.260000
v -0.655000 2.490000 -0.260000
v -0.655000 2.430000 -0.040000
v 0.655000 2.430000 -0.040000
v 0.655000 2.490000 -0.040000
v -0.655000 2.490000 -0.040000
v -0.700000 2.430000 -0.215000
v 0.700000 2.430000 -0.215000
v 0.700000 2.490000 -0.215000
v -0.700000 2.490000 -0.215000
v -0.700000 2.430000 -0.085000
v 0.700000 2.430000 -0.085000
v 0.700000 2.490000 -0.085000
v -0.700000 2.490000 -0.085000
v -0.610000 2.430000 -0.215000
v -0.610000 2.490000 -0.215000
v -0.623180 2.430000 -0.183180
v -0.623180 2.490000 -0.183180
v -0.655000 2.430000 -0.170000
v -0.655000 2.490000 -0.170000
v -0.686820 2.430000 -0.183180
v -0.686820 2.490000 -0.183180
v -0.700000 2.430000 -0.215000
v -0.700000 2.490000 -0.215000
v -0.686820 2.430000 -0.246820
v -0.686820 2.490000 -0.246820
v -0.655000 2.430000 -0.260000
v -0.655000 2.490000 -0.260000
v -0.623180 2.430000 -0.246820
v -0.623180 2.490000 -0.246820
v -0.610000 2.430000 -0.085000
v -0.610000 2.490000 -0.085000
v -0.623180 2.430000 -0.053180
v -0.623180 2.490000 -0.053180
v -0.655000 2.430000 -0.040000
v -0.655000 2.490000 -0.040000
v -0.686820 2.430000 -0.053180
v -0.686820 2.490000 -0.053180
v -0.700000 2.430000 -0.085000
v -0.700000 2.490000 -0.085000
v -0.686820 2.430000 -0.116820
v -0.686820 2.490000 -0.116820
v -0.655000 2.430000 -0.130000
v -0.655000 2.490000 -0.130000
v -0.623180 2.430000 -0.116820
v -0.623180 2.490000 -0.116820
v 0.700000 2.430000 -0.215000
v 0.700000 2.490000 -0.215000
v 0.686820 2.430000 -0.183180
v 0.686820 2.490000 -0.183180
v 0.655000 2.430000 -0.170000
v 0.655000 2.490000 -0.170000
v 0.623180 2.430000 -0.183180
v 0.623180 2.490000 -0.183180
v 0.610000 2.430000 -0.215000
v 0.610000 2.490000 -0.215000
v 0.623180 2.430000 -0.246820
v 0.623180 2.490000 -0.246820
v 0.655000 2.430000 -0.260000
v 0.655000 2.490000 -0.260000
v 0.686820 2.430000 -0.246820
v 0.686820 2.490000 -0.246820
v 0.700000 2.430000 -0.085000
v 0.700000 2.490000 -0.085000
v 0.686820 2.430000 -0.053180
v 0.686820 2.490000 -0.053180
v 0.655000 2.430000 -0.040000
v 0.655000 2.490000 -0.040000
v 0.623180 2.430000 -0.053180
v 0.623180 2.490000 -0.053180
v 0.610000 2.430000 -0.085000
v 0.610000 2.490000 -0.085000
v 0.623180 2.430000 -0.116820
v 0.623180 2.490000 -0.116820
v 0.655000 2.430000 -0.130000
v 0.655000 2.490000 -0.130000
v 0.686820 2.430000 -0.116820
v 0.686820 2.490000 -0.116820
v -1.960000 1.090000 -2.660000
v -1.440000 1.090000 -2.660000
v -1.440000 1.510000 -2.660000
v -1.960000 1.510000 -2.660000
v -1.960000 1.090000 -2.600000
v -1.440000 1.090000 -2.600000
v -1.440000 1.510000 -2.600000
v -1.960000 1.510000 -2.600000
v -1.890000 1.167000 -2.670000
v -1.510000 1.167000 -2.670000
v -1.510000 1.193000 -2.670000
v -1.890000 1.193000 -2.670000
v -1.890000 1.167000 -2.650000
v -1.510000 1.167000 -2.650000
v -1.510000 1.193000 -2.650000
v -1.890000 1.193000 -2.650000
v -2.090000 0.870000 -2.655000
v -1.750000 0.870000 -2.655000
v -1.750000 1.090000 -2.655000
v -2.090000 1.090000 -2.655000
v -2.090000 0.870000 -2.625000
v -1.750000 0.870000 -2.625000
v -1.750000 1.090000 -2.625000
v -2.090000 1.090000 -2.625000
v -2.017500 0.942500 -2.673000
v -1.982500 0.942500 -2.673000
v -1.982500 1.017500 -2.673000
v -2.017500 1.017500 -2.673000
v -2.017500 0.942500 -2.659000
v -1.982500 0.942500 -2.659000
v -1.982500 1.017500 -2.659000
v -2.017500 1.017500 -2.659000
v -1.857500 0.942500 -2.673000
v -1.822500 0.942500 -2.673000
v -1.822500 1.017500 -2.673000
v -1.857500 1.017500 -2.673000
v -1.857500 0.942500 -2.659000
v -1.822500 0.942500 -2.659000
v -1.822500 1.017500 -2.659000
v -1.857500 1.017500 -2.659000
v 2.120500 1.550000 -1.650000
v 2.155500 1.550000 -1.650000
v 2.155500 1.890000 -1.650000
v 2.120500 1.890000 -1.650000
v 2.120500 1.550000 -1.190000
v 2.155500 1.550000 -1.190000
v 2.155500 1.890000 -1.190000
v 2.120500 1.890000 -1.190000
v 2.153000 1.806000 -1.600000
v 2.171000 1.806000 -1.600000
v 2.171000 1.834000 -1.600000
v 2.153000 1.834000 -1.600000
v 2.153000 1.806000 -1.240000
v 2.171000 1.806000 -1.240000
v 2.171000 1.834000 -1.240000
v 2.153000 1.834000 -1.240000
v 2.155000 1.688000 -1.570000
v 2.173000 1.688000 -1.570000
v 2.173000 1.712000 -1.570000
v 2.155000 1.712000 -1.570000
v 2.155000 1.688000 -1.270000
v 2.173000 1.688000 -1.270000
v 2.173000 1.712000 -1.270000
v 2.155000 1.712000 -1.270000
vt 0.000000 0.000000
vt 1.000000 0.000000
vt 1.000000 1.000000
vt 0.000000 1.000000
vt 0.000000 0.000000
vt 1.000000 0.000000
vt 1.000000 1.000000
vt 0.000000 1.000000
vt 0.000000 0.000000
vt 1.000000 0.000000
vt 1.000000 1.000000
vt 0.000000 1.000000
vt 0.000000 0.000000
vt 1.000000 0.000000
vt 1.000000 1.000000
vt 0.000000 1.000000
vt 0.000000 0.000000
vt 1.000000 0.000000
vt 1.000000 1.000000
vt 0.000000 1.000000
vt 0.000000 0.000000
vt 1.000000 0.000000
vt 1.000000 1.000000
vt 0.000000 1.000000
vt 0.000000 0.000000
vt 1.000000 0.000000
vt 1.000000 1.000000
vt 0.000000 1.000000
vt 0.000000 0.000000
vt 1.000000 0.000000
vt 1.000000 1.000000
vt 0.000000 1.000000
vt 0.000000 0.000000
vt 1.000000 0.000000
vt 1.000000 1.000000
vt 0.000000 1.000000
vt 0.000000 0.000000
vt 1.000000 0.000000
vt 1.000000 1.000000
vt 0.000000 1.000000
vt 0.000000 0.000000
vt 1.000000 0.000000
vt 1.000000 1.000000
vt 0.000000 1.000000
vt 0.000000 0.000000
vt 1.000000 0.000000
vt 1.000000 1.000000
vt 0.000000 1.000000
vt 0.000000 0.000000
vt 1.000000 0.000000
vt 1.000000 1.000000
vt 0.000000 1.000000
vt 0.000000 0.000000
vt 1.000000 0.000000
vt 1.000000 1.000000
vt 0.000000 1.000000
vt 0.000000 0.000000
vt 1.000000 0.000000
vt 1.000000 1.000000
vt 0.000000 1.000000
vt 0.000000 0.000000
vt 1.000000 0.000000
vt 1.000000 1.000000
vt 0.000000 1.000000
vt 0.000000 0.000000
vt 1.000000 0.000000
vt 1.000000 1.000000
vt 0.000000 1.000000
vt 0.000000 0.000000
vt 1.000000 0.000000
vt 1.000000 1.000000
vt 0.000000 1.000000
vt 0.000000 0.000000
vt 1.000000 0.000000
vt 1.000000 1.000000
vt 0.000000 1.000000
vt 0.000000 0.000000
vt 1.000000 0.000000
vt 1.000000 1.000000
vt 0.000000 1.000000
vt 0.000000 0.000000
vt 1.000000 0.000000
vt 1.000000 1.000000
vt 0.000000 1.000000
vt 0.000000 0.000000
vt 1.000000 0.000000
vt 1.000000 1.000000
vt 0.000000 1.000000
vt 0.000000 0.000000
vt 1.000000 0.000000
vt 1.000000 1.000000
vt 0.000000 1.000000
vt 0.000000 0.000000
vt 1.000000 0.000000
vt 1.000000 1.000000
vt 0.000000 1.000000
vt 0.000000 0.000000
vt 1.000000 0.000000
vt 1.000000 1.000000
vt 0.000000 1.000000
vt 0.000000 0.000000
vt 1.000000 0.000000
vt 1.000000 1.000000
vt 0.000000 1.000000
vt 0.000000 0.000000
vt 1.000000 0.000000
vt 1.000000 1.000000
vt 0.000000 1.000000
vt 0.000000 0.000000
vt 1.000000 0.000000
vt 1.000000 1.000000
vt 0.000000 1.000000
vt 0.000000 0.000000
vt 1.000000 0.000000
vt 1.000000 1.000000
vt 0.000000 1.000000
vt 0.000000 0.000000
vt 1.000000 0.000000
vt 1.000000 1.000000
vt 0.000000 1.000000
vt 0.000000 0.000000
vt 1.000000 0.000000
vt 1.000000 1.000000
vt 0.000000 1.000000
vt 0.000000 0.000000
vt 1.000000 0.000000
vt 1.000000 1.000000
vt 0.000000 1.000000
vt 0.000000 0.000000
vt 1.000000 0.000000
vt 1.000000 1.000000
vt 0.000000 1.000000
vt 0.000000 0.000000
vt 1.000000 0.000000
vt 1.000000 1.000000
vt 0.000000 1.000000
vt 0.000000 0.000000
vt 1.000000 0.000000
vt 1.000000 1.000000
vt 0.000000 1.000000
vt 0.000000 0.000000
vt 1.000000 0.000000
vt 1.000000 1.000000
vt 0.000000 1.000000
vt 0.000000 0.000000
vt 1.000000 0.000000
vt 1.000000 1.000000
vt 0.000000 1.000000
vt 0.000000 0.000000
vt 1.000000 0.000000
vt 1.000000 1.000000
vt 0.000000 1.000000
vt 0.000000 0.000000
vt 1.000000 0.000000
vt 1.000000 1.000000
vt 0.000000 1.000000
vt 0.000000 0.000000
vt 1.000000 0.000000
vt 1.000000 1.000000
vt 0.000000 1.000000
vt 0.000000 0.000000
vt 1.000000 0.000000
vt 1.000000 1.000000
vt 0.000000 1.000000
vt 0.000000 0.000000
vt 1.000000 0.000000
vt 1.000000 1.000000
vt 0.000000 1.000000
vt 0.000000 0.000000
vt 1.000000 0.000000
vt 1.000000 1.000000
vt 0.000000 1.000000
vt 0.000000 0.000000
vt 1.000000 0.000000
vt 1.000000 1.000000
vt 0.000000 1.000000
vt 0.000000 0.000000
vt 1.000000 0.000000
vt 1.000000 1.000000
vt 0.000000 1.000000
vt 0.000000 0.000000
vt 1.000000 0.000000
vt 1.000000 1.000000
vt 0.000000 1.000000
vt 0.000000 0.000000
vt 1.000000 0.000000
vt 1.000000 1.000000
vt 0.000000 1.000000
vt 0.000000 0.000000
vt 1.000000 0.000000
vt 1.000000 1.000000
vt 0.000000 1.000000
vt 0.000000 0.000000
vt 1.000000 0.000000
vt 1.000000 1.000000
vt 0.000000 1.000000
vt 0.000000 0.000000
vt 1.000000 0.000000
vt 1.000000 1.000000
vt 0.000000 1.000000
vt 0.000000 0.000000
vt 1.000000 0.000000
vt 1.000000 1.000000
vt 0.000000 1.000000
vt 0.000000 0.000000
vt 1.000000 0.000000
vt 1.000000 1.000000
vt 0.000000 1.000000
vt 0.000000 0.000000
vt 1.000000 0.000000
vt 1.000000 1.000000
vt 0.000000 1.000000
vt 0.000000 0.000000
vt 1.000000 0.000000
vt 1.000000 1.000000
vt 0.000000 1.000000
vt 0.000000 0.000000
vt 1.000000 0.000000
vt 1.000000 1.000000
vt 0.000000 1.000000
vt 0.000000 0.000000
vt 1.000000 0.000000
vt 1.000000 1.000000
vt 0.000000 1.000000
vt 0.000000 0.000000
vt 1.000000 0.000000
vt 1.000000 1.000000
vt 0.000000 1.000000
vt 0.000000 0.000000
vt 1.000000 0.000000
vt 1.000000 1.000000
vt 0.000000 1.000000
vt 0.000000 0.000000
vt 1.000000 0.000000
vt 1.000000 1.000000
vt 0.000000 1.000000
vt 0.000000 0.000000
vt 1.000000 0.000000
vt 1.000000 1.000000
vt 0.000000 1.000000
vt 0.000000 0.000000
vt 1.000000 0.000000
vt 1.000000 1.000000
vt 0.000000 1.000000
vt 0.000000 0.000000
vt 1.000000 0.000000
vt 1.000000 1.000000
vt 0.000000 1.000000
vt 0.000000 0.000000
vt 1.000000 0.000000
vt 1.000000 1.000000
vt 0.000000 1.000000
vt 0.000000 0.000000
vt 1.000000 0.000000
vt 1.000000 1.000000
vt 0.000000 1.000000
vt 0.000000 0.000000
vt 1.000000 0.000000
vt 1.000000 1.000000
vt 0.000000 1.000000
vt 0.000000 0.000000
vt 1.000000 0.000000
vt 1.000000 1.000000
vt 0.000000 1.000000
vt 0.000000 0.000000
vt 1.000000 0.000000
vt 1.000000 1.000000
vt 0.000000 1.000000
vt 0.000000 0.000000
vt 1.000000 0.000000
vt 1.000000 1.000000
vt 0.000000 1.000000
vt 0.000000 0.000000
vt 1.000000 0.000000
vt 1.000000 1.000000
vt 0.000000 1.000000
vt 0.000000 0.000000
vt 1.000000 0.000000
vt 1.000000 1.000000
vt 0.000000 1.000000
vt 1.000000 0.500000
vt 0.904508 0.793893
vt 0.654508 0.975528
vt 0.345492 0.975528
vt 0.095492 0.793893
vt 0.000000 0.500000
vt 0.095492 0.206107
vt 0.345492 0.024472
vt 0.654508 0.024472
vt 0.904508 0.206107
vt 1.000000 0.500000
vt 0.904508 0.793893
vt 0.654508 0.975528
vt 0.345492 0.975528
vt 0.095492 0.793893
vt 0.000000 0.500000
vt 0.095492 0.206107
vt 0.345492 0.024472
vt 0.654508 0.024472
vt 0.904508 0.206107
vt 0.000000 0.000000
vt 1.000000 0.000000
vt 1.000000 1.000000
vt 0.000000 1.000000
vt 0.000000 0.000000
vt 1.000000 0.000000
vt 1.000000 1.000000
vt 0.000000 1.000000
vt 0.000000 0.000000
vt 1.000000 0.000000
vt 1.000000 1.000000
vt 0.000000 1.000000
vt 0.000000 0.000000
vt 1.000000 0.000000
vt 1.000000 1.000000
vt 0.000000 1.000000
vt 0.000000 0.000000
vt 1.000000 0.000000
vt 1.000000 1.000000
vt 0.000000 1.000000
vt 0.000000 0.000000
vt 1.000000 0.000000
vt 1.000000 1.000000
vt 0.000000 1.000000
vt 0.000000 0.000000
vt 1.000000 0.000000
vt 1.000000 1.000000
vt 0.000000 1.000000
vt 0.000000 0.000000
vt 1.000000 0.000000
vt 1.000000 1.000000
vt 0.000000 1.000000
vt 0.000000 0.000000
vt 1.000000 0.000000
vt 1.000000 1.000000
vt 0.000000 1.000000
vt 0.000000 0.000000
vt 1.000000 0.000000
vt 1.000000 1.000000
vt 0.000000 1.000000
vt 1.000000 0.500000
vt 0.904508 0.793893
vt 0.654508 0.975528
vt 0.345492 0.975528
vt 0.095492 0.793893
vt 0.000000 0.500000
vt 0.095492 0.206107
vt 0.345492 0.024472
vt 0.654508 0.024472
vt 0.904508 0.206107
vt 1.000000 0.500000
vt 0.904508 0.793893
vt 0.654508 0.975528
vt 0.345492 0.975528
vt 0.095492 0.793893
vt 0.000000 0.500000
vt 0.095492 0.206107
vt 0.345492 0.024472
vt 0.654508 0.024472
vt 0.904508 0.206107
vt 0.000000 0.000000
vt 1.000000 0.000000
vt 1.000000 1.000000
vt 0.000000 1.000000
vt 0.000000 0.000000
vt 1.000000 0.000000
vt 1.000000 1.000000
vt 0.000000 1.000000
vt 0.000000 0.000000
vt 1.000000 0.000000
vt 1.000000 1.000000
vt 0.000000 1.000000
vt 0.000000 0.000000
vt 1.000000 0.000000
vt 1.000000 1.000000
vt 0.000000 1.000000
vt 0.000000 0.000000
vt 1.000000 0.000000
vt 1.000000 1.000000
vt 0.000000 1.000000
vt 0.000000 0.000000
vt 1.000000 0.000000
vt 1.000000 1.000000
vt 0.000000 1.000000
vt 0.000000 0.000000
vt 1.000000 0.000000
vt 1.000000 1.000000
vt 0.000000 1.000000
vt 0.000000 0.000000
vt 1.000000 0.000000
vt 1.000000 1.000000
vt 0.000000 1.000000
vt 0.000000 0.000000
vt 1.000000 0.000000
vt 1.000000 1.000000
vt 0.000000 1.000000
vt 0.000000 0.000000
vt 1.000000 0.000000
vt 1.000000 1.000000
vt 0.000000 1.000000
vt 1.000000 0.500000
vt 0.904508 0.793893
vt 0.654508 0.975528
vt 0.345492 0.975528
vt 0.095492 0.793893
vt 0.000000 0.500000
vt 0.095492 0.206107
vt 0.345492 0.024472
vt 0.654508 0.024472
vt 0.904508 0.206107
vt 1.000000 0.500000
vt 0.904508 0.793893
vt 0.654508 0.975528
vt 0.345492 0.975528
vt 0.095492 0.793893
vt 0.000000 0.500000
vt 0.095492 0.206107
vt 0.345492 0.024472
vt 0.654508 0.024472
vt 0.904508 0.206107
vt 0.000000 0.000000
vt 1.000000 0.000000
vt 1.000000 1.000000
vt 0.000000 1.000000
vt 0.000000 0.000000
vt 1.000000 0.000000
vt 1.000000 1.000000
vt 0.000000 1.000000
vt 0.000000 0.000000
vt 1.000000 0.000000
vt 1.000000 1.000000
vt 0.000000 1.000000
vt 0.000000 0.000000
vt 1.000000 0.000000
vt 1.000000 1.000000
vt 0.000000 1.000000
vt 0.000000 0.000000
vt 1.000000 0.000000
vt 1.000000 1.000000
vt 0.000000 1.000000
vt 0.000000 0.000000
vt 1.000000 0.000000
vt 1.000000 1.000000
vt 0.000000 1.000000
vt 0.000000 0.000000
vt 1.000000 0.000000
vt 1.000000 1.000000
vt 0.000000 1.000000
vt 0.000000 0.000000
vt 1.000000 0.000000
vt 1.000000 1.000000
vt 0.000000 1.000000
vt 1.000000 0.500000
vt 0.853553 0.853553
vt 0.500000 1.000000
vt 0.146447 0.853553
vt 0.000000 0.500000
vt 0.146447 0.146447
vt 0.500000 0.000000
vt 0.853553 0.146447
vt 1.000000 0.500000
vt 0.853553 0.853553
vt 0.500000 1.000000
vt 0.146447 0.853553
vt 0.000000 0.500000
vt 0.146447 0.146447
vt 0.500000 0.000000
vt 0.853553 0.146447
vt 0.000000 0.000000
vt 1.000000 0.000000
vt 1.000000 1.000000
vt 0.000000 1.000000
vt 0.000000 0.000000
vt 1.000000 0.000000
vt 1.000000 1.000000
vt 0.000000 1.000000
vt 0.000000 0.000000
vt 1.000000 0.000000
vt 1.000000 1.000000
vt 0.000000 1.000000
vt 0.000000 0.000000
vt 1.000000 0.000000
vt 1.000000 1.000000
vt 0.000000 1.000000
vt 0.000000 0.000000
vt 1.000000 0.000000
vt 1.000000 1.000000
vt 0.000000 1.000000
vt 0.000000 0.000000
vt 1.000000 0.000000
vt 1.000000 1.000000
vt 0.000000 1.000000
vt 0.000000 0.000000
vt 1.000000 0.000000
vt 1.000000 1.000000
vt 0.000000 1.000000
vt 0.000000 0.000000
vt 1.000000 0.000000
vt 1.000000 1.000000
vt 0.000000 1.000000
vt 1.000000 0.500000
vt 0.853553 0.853553
vt 0.500000 1.000000
vt 0.146447 0.853553
vt 0.000000 0.500000
vt 0.146447 0.146447
vt 0.500000 0.000000
vt 0.853553 0.146447
vt 1.000000 0.500000
vt 0.853553 0.853553
vt 0.500000 1.000000
vt 0.146447 0.853553
vt 0.000000 0.500000
vt 0.146447 0.146447
vt 0.500000 0.000000
vt 0.853553 0.146447
vt 0.000000 0.000000
vt 1.000000 0.000000
vt 1.000000 1.000000
vt 0.000000 1.000000
vt 0.000000 0.000000
vt 1.000000 0.000000
vt 1.000000 1.000000
vt 0.000000 1.000000
vt 0.000000 0.000000
vt 1.000000 0.000000
vt 1.000000 1.000000
vt 0.000000 1.000000
vt 0.000000 0.000000
vt 1.000000 0.000000
vt 1.000000 1.000000
vt 0.000000 1.000000
vt 0.000000 0.000000
vt 1.000000 0.000000
vt 1.000000 1.000000
vt 0.000000 1.000000
vt 0.000000 0.000000
vt 1.000000 0.000000
vt 1.000000 1.000000
vt 0.000000 1.000000
vt 0.000000 0.000000
vt 1.000000 0.000000
vt 1.000000 1.000000
vt 0.000000 1.000000
vt 0.000000 0.000000
vt 1.000000 0.000000
vt 1.000000 1.000000
vt 0.000000 1.000000
vt 1.000000 0.500000
vt 0.853553 0.853553
vt 0.500000 1.000000
vt 0.146447 0.853553
vt 0.000000 0.500000
vt 0.146447 0.146447
vt 0.500000 0.000000
vt 0.853553 0.146447
vt 1.000000 0.500000
vt 0.853553 0.853553
vt 0.500000 1.000000
vt 0.146447 0.853553
vt 0.000000 0.500000
vt 0.146447 0.146447
vt 0.500000 0.000000
vt 0.853553 0.146447
vt 0.000000 0.000000
vt 1.000000 0.000000
vt 1.000000 1.000000
vt 0.000000 1.000000
vt 0.000000 0.000000
vt 1.000000 0.000000
vt 1.000000 1.000000
vt 0.000000 1.000000
vt 0.000000 0.000000
vt 1.000000 0.000000
vt 1.000000 1.000000
vt 0.000000 1.000000
vt 0.000000 0.000000
vt 1.000000 0.000000
vt 1.000000 1.000000
vt 0.000000 1.000000
vt 0.000000 0.000000
vt 1.000000 0.000000
vt 1.000000 1.000000
vt 0.000000 1.000000
vt 0.000000 0.000000
vt 1.000000 0.000000
vt 1.000000 1.000000
vt 0.000000 1.000000
vt 0.000000 0.000000
vt 1.000000 0.000000
vt 1.000000 1.000000
vt 0.000000 1.000000
vt 0.000000 0.000000
vt 1.000000 0.000000
vt 1.000000 1.000000
vt 0.000000 1.000000
vt 1.000000 0.500000
vt 0.853553 0.853553
vt 0.500000 1.000000
vt 0.146447 0.853553
vt 0.000000 0.500000
vt 0.146447 0.146447
vt 0.500000 0.000000
vt 0.853553 0.146447
vt 1.000000 0.500000
vt 0.853553 0.853553
vt 0.500000 1.000000
vt 0.146447 0.853553
vt 0.000000 0.500000
vt 0.146447 0.146447
vt 0.500000 0.000000
vt 0.853553 0.146447
vt 0.000000 0.000000
vt 1.000000 0.000000
vt 1.000000 1.000000
vt 0.000000 1.000000
vt 0.000000 0.000000
vt 1.000000 0.000000
vt 1.000000 1.000000
vt 0.000000 1.000000
vt 0.000000 0.000000
vt 1.000000 0.000000
vt 1.000000 1.000000
vt 0.000000 1.000000
vt 0.000000 0.000000
vt 1.000000 0.000000
vt 1.000000 1.000000
vt 0.000000 1.000000
vt 0.000000 0.000000
vt 1.000000 0.000000
vt 1.000000 1.000000
vt 0.000000 1.000000
vt 0.000000 0.000000
vt 1.000000 0.000000
vt 1.000000 1.000000
vt 0.000000 1.000000
vt 0.000000 0.000000
vt 1.000000 0.000000
vt 1.000000 1.000000
vt 0.000000 1.000000
vt 0.000000 0.000000
vt 1.000000 0.000000
vt 1.000000 1.000000
vt 0.000000 1.000000
vt 0.000000 0.000000
vt 1.000000 0.000000
vt 1.000000 1.000000
vt 0.000000 1.000000
vt 0.000000 0.000000
vt 1.000000 0.000000
vt 1.000000 1.000000
vt 0.000000 1.000000
vt 0.000000 0.000000
vt 1.000000 0.000000
vt 1.000000 1.000000
vt 0.000000 1.000000
vt 0.000000 0.000000
vt 1.000000 0.000000
vt 1.000000 1.000000
vt 0.000000 1.000000
vt 0.000000 0.000000
vt 1.000000 0.000000
vt 1.000000 1.000000
vt 0.000000 1.000000
vt 0.000000 0.000000
vt 1.000000 0.000000
vt 1.000000 1.000000
vt 0.000000 1.000000
vt 0.000000 0.000000
vt 1.000000 0.000000
vt 1.000000 1.000000
vt 0.000000 1.000000
vt 0.000000 0.000000
vt 1.000000 0.000000
vt 1.000000 1.000000
vt 0.000000 1.000000
vt 0.000000 0.000000
vt 1.000000 0.000000
vt 1.000000 1.000000
vt 0.000000 1.000000
vt 0.000000 0.000000
vt 1.000000 0.000000
vt 1.000000 1.000000
vt 0.000000 1.000000
vt 0.000000 0.000000
vt 1.000000 0.000000
vt 1.000000 1.000000
vt 0.000000 1.000000
vt 0.000000 0.000000
vt 1.000000 0.000000
vt 1.000000 1.000000
vt 0.000000 1.000000
vt 0.000000 0.000000
vt 1.000000 0.000000
vt 1.000000 1.000000
vt 0.000000 1.000000
vt 0.000000 0.000000
vt 1.000000 0.000000
vt 1.000000 1.000000
vt 0.000000 1.000000
vt 0.000000 0.000000
vt 1.000000 0.000000
vt 1.000000 1.000000
vt 0.000000 1.000000
vt 0.000000 0.000000
vt 1.000000 0.000000
vt 1.000000 1.000000
vt 0.000000 1.000000
vt 0.000000 0.000000
vt 1.000000 0.000000
vt 1.000000 1.000000
vt 0.000000 1.000000
vt 0.000000 0.000000
vt 1.000000 0.000000
vt 1.000000 1.000000
vt 0.000000 1.000000
vt 0.000000 0.000000
vt 1.000000 0.000000
vt 1.000000 1.000000
vt 0.000000 1.000000
vt 0.000000 0.000000
vt 1.000000 0.000000
vt 1.000000 1.000000
vt 0.000000 1.000000
vt 0.000000 0.000000
vt 1.000000 0.000000
vt 1.000000 1.000000
vt 0.000000 1.000000
vt 0.000000 0.000000
vt 1.000000 0.000000
vt 1.000000 1.000000
vt 0.000000 1.000000
vt 0.000000 0.000000
vt 1.000000 0.000000
vt 1.000000 1.000000
vt 0.000000 1.000000
vt 0.000000 0.000000
vt 1.000000 0.000000
vt 1.000000 1.000000
vt 0.000000 1.000000
vt 0.000000 0.000000
vt 1.000000 0.000000
vt 1.000000 1.000000
vt 0.000000 1.000000
vt 0.000000 0.000000
vt 1.000000 0.000000
vt 1.000000 1.000000
vt 0.000000 1.000000
vt 0.000000 0.000000
vt 1.000000 0.000000
vt 1.000000 1.000000
vt 0.000000 1.000000
vt 0.000000 0.000000
vt 1.000000 0.000000
vt 1.000000 1.000000
vt 0.000000 1.000000
vt 0.000000 0.000000
vt 1.000000 0.000000
vt 1.000000 1.000000
vt 0.000000 1.000000
vt 0.000000 0.000000
vt 1.000000 0.000000
vt 1.000000 1.000000
vt 0.000000 1.000000
vt 0.000000 0.000000
vt 1.000000 0.000000
vt 1.000000 1.000000
vt 0.000000 1.000000
vt 0.000000 0.000000
vt 1.000000 0.000000
vt 1.000000 1.000000
vt 0.000000 1.000000
vt 0.000000 0.000000
vt 1.000000 0.000000
vt 1.000000 1.000000
vt 0.000000 1.000000
vt 0.000000 0.000000
vt 1.000000 0.000000
vt 1.000000 1.000000
vt 0.000000 1.000000
vt 0.000000 0.000000
vt 1.000000 0.000000
vt 1.000000 1.000000
vt 0.000000 1.000000
vt 0.000000 0.000000
vt 1.000000 0.000000
vt 1.000000 1.000000
vt 0.000000 1.000000
vt 0.000000 0.000000
vt 1.000000 0.000000
vt 1.000000 1.000000
vt 0.000000 1.000000
vt 0.000000 0.000000
vt 1.000000 0.000000
vt 1.000000 1.000000
vt 0.000000 1.000000
vt 0.000000 0.000000
vt 1.000000 0.000000
vt 1.000000 1.000000
vt 0.000000 1.000000
vt 0.000000 0.000000
vt 1.000000 0.000000
vt 1.000000 1.000000
vt 0.000000 1.000000
vt 0.000000 0.000000
vt 1.000000 0.000000
vt 1.000000 1.000000
vt 0.000000 1.000000
vt 0.000000 0.000000
vt 1.000000 0.000000
vt 1.000000 1.000000
vt 0.000000 1.000000
vt 0.000000 0.000000
vt 1.000000 0.000000
vt 1.000000 1.000000
vt 0.000000 1.000000
vt 0.000000 0.000000
vt 1.000000 0.000000
vt 1.000000 1.000000
vt 0.000000 1.000000
vt 0.000000 0.000000
vt 1.000000 0.000000
vt 1.000000 1.000000
vt 0.000000 1.000000
vt 0.000000 0.000000
vt 1.000000 0.000000
vt 1.000000 1.000000
vt 0.000000 1.000000
vt 0.000000 0.000000
vt 1.000000 0.000000
vt 1.000000 1.000000
vt 0.000000 1.000000
vt 0.000000 0.000000
vt 1.000000 0.000000
vt 1.000000 1.000000
vt 0.000000 1.000000
vt 0.000000 0.000000
vt 1.000000 0.000000
vt 1.000000 1.000000
vt 0.000000 1.000000
vt 0.000000 0.000000
vt 1.000000 0.000000
vt 1.000000 1.000000
vt 0.000000 1.000000
vt 0.000000 0.000000
vt 1.000000 0.000000
vt 1.000000 1.000000
vt 0.000000 1.000000
vt 0.000000 0.000000
vt 1.000000 0.000000
vt 1.000000 1.000000
vt 0.000000 1.000000
vt 0.000000 0.000000
vt 1.000000 0.000000
vt 1.000000 1.000000
vt 0.000000 1.000000
vt 0.000000 0.000000
vt 1.000000 0.000000
vt 1.000000 1.000000
vt 0.000000 1.000000
vt 0.000000 0.000000
vt 1.000000 0.000000
vt 1.000000 1.000000
vt 0.000000 1.000000
vt 0.000000 0.000000
vt 1.000000 0.000000
vt 1.000000 1.000000
vt 0.000000 1.000000
vt 0.000000 0.000000
vt 1.000000 0.000000
vt 1.000000 1.000000
vt 0.000000 1.000000
vt 0.000000 0.000000
vt 1.000000 0.000000
vt 1.000000 1.000000
vt 0.000000 1.000000
vt 0.000000 0.000000
vt 1.000000 0.000000
vt 1.000000 1.000000
vt 0.000000 1.000000
vt 0.000000 0.000000
vt 1.000000 0.000000
vt 1.000000 1.000000
vt 0.000000 1.000000
vt 0.000000 0.000000
vt 1.000000 0.000000
vt 1.000000 1.000000
vt 0.000000 1.000000
vt 0.000000 0.000000
vt 1.000000 0.000000
vt 1.000000 1.000000
vt 0.000000 1.000000
vt 0.000000 0.000000
vt 1.000000 0.000000
vt 1.000000 1.000000
vt 0.000000 1.000000
vt 0.000000 0.000000
vt 1.000000 0.000000
vt 1.000000 1.000000
vt 0.000000 1.000000
vt 0.000000 0.000000
vt 1.000000 0.000000
vt 1.000000 1.000000
vt 0.000000 1.000000
vt 0.000000 0.000000
vt 1.000000 0.000000
vt 1.000000 1.000000
vt 0.000000 1.000000
vt 0.000000 0.000000
vt 1.000000 0.000000
vt 1.000000 1.000000
vt 0.000000 1.000000
vt 0.000000 0.000000
vt 1.000000 0.000000
vt 1.000000 1.000000
vt 0.000000 1.000000
vt 0.000000 0.000000
vt 1.000000 0.000000
vt 1.000000 1.000000
vt 0.000000 1.000000
vt 0.000000 0.000000
vt 1.000000 0.000000
vt 1.000000 1.000000
vt 0.000000 1.000000
vt 0.000000 0.000000
vt 1.000000 0.000000
vt 1.000000 1.000000
vt 0.000000 1.000000
vt 0.000000 0.000000
vt 1.000000 0.000000
vt 1.000000 1.000000
vt 0.000000 1.000000
vt 1.000000 0.500000
vt 0.853553 0.853553
vt 0.500000 1.000000
vt 0.146447 0.853553
vt 0.000000 0.500000
vt 0.146447 0.146447
vt 0.500000 0.000000
vt 0.853553 0.146447
vt 1.000000 0.500000
vt 0.853553 0.853553
vt 0.500000 1.000000
vt 0.146447 0.853553
vt 0.000000 0.500000
vt 0.146447 0.146447
vt 0.500000 0.000000
vt 0.853553 0.146447
vt 0.000000 0.000000
vt 1.000000 0.000000
vt 1.000000 1.000000
vt 0.000000 1.000000
vt 0.000000 0.000000
vt 1.000000 0.000000
vt 1.000000 1.000000
vt 0.000000 1.000000
vt 0.000000 0.000000
vt 1.000000 0.000000
vt 1.000000 1.000000
vt 0.000000 1.000000
vt 0.000000 0.000000
vt 1.000000 0.000000
vt 1.000000 1.000000
vt 0.000000 1.000000
vt 0.000000 0.000000
vt 1.000000 0.000000
vt 1.000000 1.000000
vt 0.000000 1.000000
vt 0.000000 0.000000
vt 1.000000 0.000000
vt 1.000000 1.000000
vt 0.000000 1.000000
vt 0.000000 0.000000
vt 1.000000 0.000000
vt 1.000000 1.000000
vt 0.000000 1.000000
vt 0.000000 0.000000
vt 1.000000 0.000000
vt 1.000000 1.000000
vt 0.000000 1.000000
vt 1.000000 0.500000
vt 0.853553 0.853553
vt 0.500000 1.000000
vt 0.146447 0.853553
vt 0.000000 0.500000
vt 0.146447 0.146447
vt 0.500000 0.000000
vt 0.853553 0.146447
vt 1.000000 0.500000
vt 0.853553 0.853553
vt 0.500000 1.000000
vt 0.146447 0.853553
vt 0.000000 0.500000
vt 0.146447 0.146447
vt 0.500000 0.000000
vt 0.853553 0.146447
vt 0.000000 0.000000
vt 1.000000 0.000000
vt 1.000000 1.000000
vt 0.000000 1.000000
vt 0.000000 0.000000
vt 1.000000 0.000000
vt 1.000000 1.000000
vt 0.000000 1.000000
vt 0.000000 0.000000
vt 1.000000 0.000000
vt 1.000000 1.000000
vt 0.000000 1.000000
vt 0.000000 0.000000
vt 1.000000 0.000000
vt 1.000000 1.000000
vt 0.000000 1.000000
vt 0.000000 0.000000
vt 1.000000 0.000000
vt 1.000000 1.000000
vt 0.000000 1.000000
vt 0.000000 0.000000
vt 1.000000 0.000000
vt 1.000000 1.000000
vt 0.000000 1.000000
vt 0.000000 0.000000
vt 1.000000 0.000000
vt 1.000000 1.000000
vt 0.000000 1.000000
vt 0.000000 0.000000
vt 1.000000 0.000000
vt 1.000000 1.000000
vt 0.000000 1.000000
vt 1.000000 0.500000
vt 0.853553 0.853553
vt 0.500000 1.000000
vt 0.146447 0.853553
vt 0.000000 0.500000
vt 0.146447 0.146447
vt 0.500000 0.000000
vt 0.853553 0.146447
vt 1.000000 0.500000
vt 0.853553 0.853553
vt 0.500000 1.000000
vt 0.146447 0.853553
vt 0.000000 0.500000
vt 0.146447 0.146447
vt 0.500000 0.000000
vt 0.853553 0.146447
vt 0.000000 0.000000
vt 1.000000 0.000000
vt 1.000000 1.000000
vt 0.000000 1.000000
vt 0.000000 0.000000
vt 1.000000 0.000000
vt 1.000000 1.000000
vt 0.000000 1.000000
vt 0.000000 0.000000
vt 1.000000 0.000000
vt 1.000000 1.000000
vt 0.000000 1.000000
vt 0.000000 0.000000
vt 1.000000 0.000000
vt 1.000000 1.000000
vt 0.000000 1.000000
vt 0.000000 0.000000
vt 1.000000 0.000000
vt 1.000000 1.000000
vt 0.000000 1.000000
vt 0.000000 0.000000
vt 1.000000 0.000000
vt 1.000000 1.000000
vt 0.000000 1.000000
vt 0.000000 0.000000
vt 1.000000 0.000000
vt 1.000000 1.000000
vt 0.000000 1.000000
vt 0.000000 0.000000
vt 1.000000 0.000000
vt 1.000000 1.000000
vt 0.000000 1.000000
vt 1.000000 0.500000
vt 0.853553 0.853553
vt 0.500000 1.000000
vt 0.146447 0.853553
vt 0.000000 0.500000
vt 0.146447 0.146447
vt 0.500000 0.000000
vt 0.853553 0.146447
vt 1.000000 0.500000
vt 0.853553 0.853553
vt 0.500000 1.000000
vt 0.146447 0.853553
vt 0.000000 0.500000
vt 0.146447 0.146447
vt 0.500000 0.000000
vt 0.853553 0.146447
vt 0.000000 0.000000
vt 1.000000 0.000000
vt 1.000000 1.000000
vt 0.000000 1.000000
vt 0.000000 0.000000
vt 1.000000 0.000000
vt 1.000000 1.000000
vt 0.000000 1.000000
vt 0.000000 0.000000
vt 1.000000 0.000000
vt 1.000000 1.000000
vt 0.000000 1.000000
vt 0.000000 0.000000
vt 1.000000 0.000000
vt 1.000000 1.000000
vt 0.000000 1.000000
vt 0.000000 0.000000
vt 1.000000 0.000000
vt 1.000000 1.000000
vt 0.000000 1.000000
vt 0.000000 0.000000
vt 1.000000 0.000000
vt 1.000000 1.000000
vt 0.000000 1.000000
vt 0.000000 0.000000
vt 1.000000 0.000000
vt 1.000000 1.000000
vt 0.000000 1.000000
vt 0.000000 0.000000
vt 1.000000 0.000000
vt 1.000000 1.000000
vt 0.000000 1.000000
vt 0.000000 0.000000
vt 1.000000 0.000000
vt 1.000000 1.000000
vt 0.000000 1.000000
vt 0.000000 0.000000
vt 1.000000 0.000000
vt 1.000000 1.000000
vt 0.000000 1.000000
vt 0.000000 0.000000
vt 1.000000 0.000000
vt 1.000000 1.000000
vt 0.000000 1.000000
vt 0.000000 0.000000
vt 1.000000 0.000000
vt 1.000000 1.000000
vt 0.000000 1.000000
vt 0.000000 0.000000
vt 1.000000 0.000000
vt 1.000000 1.000000
vt 0.000000 1.000000
vt 0.000000 0.000000
vt 1.000000 0.000000
vt 1.000000 1.000000
vt 0.000000 1.000000
vt 0.000000 0.000000
vt 1.000000 0.000000
vt 1.000000 1.000000
vt 0.000000 1.000000
vt 0.000000 0.000000
vt 1.000000 0.000000
vt 1.000000 1.000000
vt 0.000000 1.000000
vt 0.000000 0.000000
vt 1.000000 0.000000
vt 1.000000 1.000000
vt 0.000000 1.000000
vt 0.000000 0.000000
vt 1.000000 0.000000
vt 1.000000 1.000000
vt 0.000000 1.000000
vt 0.000000 0.000000
vt 1.000000 0.000000
vt 1.000000 1.000000
vt 0.000000 1.000000
vt 0.000000 0.000000
vt 1.000000 0.000000
vt 1.000000 1.000000
vt 0.000000 1.000000
vt 0.000000 0.000000
vt 1.000000 0.000000
vt 1.000000 1.000000
vt 0.000000 1.000000
vt 0.000000 0.000000
vt 1.000000 0.000000
vt 1.000000 1.000000
vt 0.000000 1.000000
vt 0.000000 0.000000
vt 1.000000 0.000000
vt 1.000000 1.000000
vt 0.000000 1.000000
vt 0.000000 0.000000
vt 1.000000 0.000000
vt 1.000000 1.000000
vt 0.000000 1.000000
vt 0.000000 0.000000
vt 1.000000 0.000000
vt 1.000000 1.000000
vt 0.000000 1.000000
vt 0.000000 0.000000
vt 1.000000 0.000000
vt 1.000000 1.000000
vt 0.000000 1.000000
vt 0.000000 0.000000
vt 1.000000 0.000000
vt 1.000000 1.000000
vt 0.000000 1.000000
vt 0.000000 0.000000
vt 1.000000 0.000000
vt 1.000000 1.000000
vt 0.000000 1.000000
vt 0.000000 0.000000
vt 1.000000 0.000000
vt 1.000000 1.000000
vt 0.000000 1.000000
vt 0.000000 0.000000
vt 1.000000 0.000000
vt 1.000000 1.000000
vt 0.000000 1.000000
vt 0.000000 0.000000
vt 1.000000 0.000000
vt 1.000000 1.000000
vt 0.000000 1.000000
vt 0.000000 0.000000
vt 1.000000 0.000000
vt 1.000000 1.000000
vt 0.000000 1.000000
vt 0.000000 0.000000
vt 1.000000 0.000000
vt 1.000000 1.000000
vt 0.000000 1.000000
vt 0.000000 0.000000
vt 1.000000 0.000000
vt 1.000000 1.000000
vt 0.000000 1.000000
vt 0.000000 0.000000
vt 1.000000 0.000000
vt 1.000000 1.000000
vt 0.000000 1.000000
vt 0.000000 0.000000
vt 1.000000 0.000000
vt 1.000000 1.000000
vt 0.000000 1.000000
vt 0.000000 0.000000
vt 1.000000 0.000000
vt 1.000000 1.000000
vt 0.000000 1.000000
vt 0.000000 0.000000
vt 1.000000 0.000000
vt 1.000000 1.000000
vt 0.000000 1.000000
vt 0.000000 0.000000
vt 1.000000 0.000000
vt 1.000000 1.000000
vt 0.000000 1.000000
vt 0.000000 0.000000
vt 1.000000 0.000000
vt 1.000000 1.000000
vt 0.000000 1.000000
vt 0.000000 0.000000
vt 1.000000 0.000000
vt 1.000000 1.000000
vt 0.000000 1.000000
vt 0.000000 0.000000
vt 1.000000 0.000000
vt 1.000000 1.000000
vt 0.000000 1.000000
vt 0.000000 0.000000
vt 1.000000 0.000000
vt 1.000000 1.000000
vt 0.000000 1.000000
vt 0.000000 0.000000
vt 1.000000 0.000000
vt 1.000000 1.000000
vt 0.000000 1.000000
vt 1.000000 0.500000
vt 0.853553 0.853553
vt 0.500000 1.000000
vt 0.146447 0.853553
vt 0.000000 0.500000
vt 0.146447 0.146447
vt 0.500000 0.000000
vt 0.853553 0.146447
vt 1.000000 0.500000
vt 0.853553 0.853553
vt 0.500000 1.000000
vt 0.146447 0.853553
vt 0.000000 0.500000
vt 0.146447 0.146447
vt 0.500000 0.000000
vt 0.853553 0.146447
vt 0.000000 0.000000
vt 1.000000 0.000000
vt 1.000000 1.000000
vt 0.000000 1.000000
vt 0.000000 0.000000
vt 1.000000 0.000000
vt 1.000000 1.000000
vt 0.000000 1.000000
vt 0.000000 0.000000
vt 1.000000 0.000000
vt 1.000000 1.000000
vt 0.000000 1.000000
vt 0.000000 0.000000
vt 1.000000 0.000000
vt 1.000000 1.000000
vt 0.000000 1.000000
vt 0.000000 0.000000
vt 1.000000 0.000000
vt 1.000000 1.000000
vt 0.000000 1.000000
vt 0.000000 0.000000
vt 1.000000 0.000000
vt 1.000000 1.000000
vt 0.000000 1.000000
vt 0.000000 0.000000
vt 1.000000 0.000000
vt 1.000000 1.000000
vt 0.000000 1.000000
vt 0.000000 0.000000
vt 1.000000 0.000000
vt 1.000000 1.000000
vt 0.000000 1.000000
vt 1.000000 0.500000
vt 0.853553 0.853553
vt 0.500000 1.000000
vt 0.146447 0.853553
vt 0.000000 0.500000
vt 0.146447 0.146447
vt 0.500000 0.000000
vt 0.853553 0.146447
vt 1.000000 0.500000
vt 0.853553 0.853553
vt 0.500000 1.000000
vt 0.146447 0.853553
vt 0.000000 0.500000
vt 0.146447 0.146447
vt 0.500000 0.000000
vt 0.853553 0.146447
vt 0.000000 0.000000
vt 1.000000 0.000000
vt 1.000000 1.000000
vt 0.000000 1.000000
vt 0.000000 0.000000
vt 1.000000 0.000000
vt 1.000000 1.000000
vt 0.000000 1.000000
vt 0.000000 0.000000
vt 1.000000 0.000000
vt 1.000000 1.000000
vt 0.000000 1.000000
vt 0.000000 0.000000
vt 1.000000 0.000000
vt 1.000000 1.000000
vt 0.000000 1.000000
vt 0.000000 0.000000
vt 1.000000 0.000000
vt 1.000000 1.000000
vt 0.000000 1.000000
vt 0.000000 0.000000
vt 1.000000 0.000000
vt 1.000000 1.000000
vt 0.000000 1.000000
vt 0.000000 0.000000
vt 1.000000 0.000000
vt 1.000000 1.000000
vt 0.000000 1.000000
vt 0.000000 0.000000
vt 1.000000 0.000000
vt 1.000000 1.000000
vt 0.000000 1.000000
vt 1.000000 0.500000
vt 0.853553 0.853553
vt 0.500000 1.000000
vt 0.146447 0.853553
vt 0.000000 0.500000
vt 0.146447 0.146447
vt 0.500000 0.000000
vt 0.853553 0.146447
vt 1.000000 0.500000
vt 0.853553 0.853553
vt 0.500000 1.000000
vt 0.146447 0.853553
vt 0.000000 0.500000
vt 0.146447 0.146447
vt 0.500000 0.000000
vt 0.853553 0.146447
vt 0.000000 0.000000
vt 1.000000 0.000000
vt 1.000000 1.000000
vt 0.000000 1.000000
vt 0.000000 0.000000
vt 1.000000 0.000000
vt 1.000000 1.000000
vt 0.000000 1.000000
vt 0.000000 0.000000
vt 1.000000 0.000000
vt 1.000000 1.000000
vt 0.000000 1.000000
vt 0.000000 0.000000
vt 1.000000 0.000000
vt 1.000000 1.000000
vt 0.000000 1.000000
vt 0.000000 0.000000
vt 1.000000 0.000000
vt 1.000000 1.000000
vt 0.000000 1.000000
vt 0.000000 0.000000
vt 1.000000 0.000000
vt 1.000000 1.000000
vt 0.000000 1.000000
vt 0.000000 0.000000
vt 1.000000 0.000000
vt 1.000000 1.000000
vt 0.000000 1.000000
vt 0.000000 0.000000
vt 1.000000 0.000000
vt 1.000000 1.000000
vt 0.000000 1.000000
vt 1.000000 0.500000
vt 0.853553 0.853553
vt 0.500000 1.000000
vt 0.146447 0.853553
vt 0.000000 0.500000
vt 0.146447 0.146447
vt 0.500000 0.000000
vt 0.853553 0.146447
vt 1.000000 0.500000
vt 0.853553 0.853553
vt 0.500000 1.000000
vt 0.146447 0.853553
vt 0.000000 0.500000
vt 0.146447 0.146447
vt 0.500000 0.000000
vt 0.853553 0.146447
vt 0.000000 0.000000
vt 1.000000 0.000000
vt 1.000000 1.000000
vt 0.000000 1.000000
vt 0.000000 0.000000
vt 1.000000 0.000000
vt 1.000000 1.000000
vt 0.000000 1.000000
vt 0.000000 0.000000
vt 1.000000 0.000000
vt 1.000000 1.000000
vt 0.000000 1.000000
vt 0.000000 0.000000
vt 1.000000 0.000000
vt 1.000000 1.000000
vt 0.000000 1.000000
vt 0.000000 0.000000
vt 1.000000 0.000000
vt 1.000000 1.000000
vt 0.000000 1.000000
vt 0.000000 0.000000
vt 1.000000 0.000000
vt 1.000000 1.000000
vt 0.000000 1.000000
vt 0.000000 0.000000
vt 1.000000 0.000000
vt 1.000000 1.000000
vt 0.000000 1.000000
vt 0.000000 0.000000
vt 1.000000 0.000000
vt 1.000000 1.000000
vt 0.000000 1.000000
vt 0.000000 0.000000
vt 1.000000 0.000000
vt 1.000000 1.000000
vt 0.000000 1.000000
vt 0.000000 0.000000
vt 1.000000 0.000000
vt 1.000000 1.000000
vt 0.000000 1.000000
vt 0.000000 0.000000
vt 1.000000 0.000000
vt 1.000000 1.000000
vt 0.000000 1.000000
vt 0.000000 0.000000
vt 1.000000 0.000000
vt 1.000000 1.000000
vt 0.000000 1.000000
vt 0.000000 0.000000
vt 1.000000 0.000000
vt 1.000000 1.000000
vt 0.000000 1.000000
vt 0.000000 0.000000
vt 1.000000 0.000000
vt 1.000000 1.000000
vt 0.000000 1.000000
vt 0.000000 0.000000
vt 1.000000 0.000000
vt 1.000000 1.000000
vt 0.000000 1.000000
vt 0.000000 0.000000
vt 1.000000 0.000000
vt 1.000000 1.000000
vt 0.000000 1.000000
vt 0.000000 0.000000
vt 1.000000 0.000000
vt 1.000000 1.000000
vt 0.000000 1.000000
vt 0.000000 0.000000
vt 1.000000 0.000000
vt 1.000000 1.000000
vt 0.000000 1.000000
vt 0.000000 0.000000
vt 1.000000 0.000000
vt 1.000000 1.000000
vt 0.000000 1.000000
vt 0.000000 0.000000
vt 1.000000 0.000000
vt 1.000000 1.000000
vt 0.000000 1.000000
vt 0.000000 0.000000
vt 1.000000 0.000000
vt 1.000000 1.000000
vt 0.000000 1.000000
vt 0.000000 0.000000
vt 1.000000 0.000000
vt 1.000000 1.000000
vt 0.000000 1.000000
vt 0.000000 0.000000
vt 1.000000 0.000000
vt 1.000000 1.000000
vt 0.000000 1.000000
vt 0.000000 0.000000
vt 1.000000 0.000000
vt 1.000000 1.000000
vt 0.000000 1.000000
vt 0.000000 0.000000
vt 1.000000 0.000000
vt 1.000000 1.000000
vt 0.000000 1.000000
vt 0.000000 0.000000
vt 1.000000 0.000000
vt 1.000000 1.000000
vt 0.000000 1.000000
vt 0.000000 0.000000
vt 1.000000 0.000000
vt 1.000000 1.000000
vt 0.000000 1.000000
vt 0.000000 0.000000
vt 1.000000 0.000000
vt 1.000000 1.000000
vt 0.000000 1.000000
vt 0.000000 0.000000
vt 1.000000 0.000000
vt 1.000000 1.000000
vt 0.000000 1.000000
vt 0.000000 0.000000
vt 1.000000 0.000000
vt 1.000000 1.000000
vt 0.000000 1.000000
vt 0.000000 0.000000
vt 1.000000 0.000000
vt 1.000000 1.000000
vt 0.000000 1.000000
vt 0.000000 0.000000
vt 1.000000 0.000000
vt 1.000000 1.000000
vt 0.000000 1.000000
vt 0.000000 0.000000
vt 1.000000 0.000000
vt 1.000000 1.000000
vt 0.000000 1.000000
vt 0.000000 0.000000
vt 1.000000 0.000000
vt 1.000000 1.000000
vt 0.000000 1.000000
vt 0.000000 0.000000
vt 1.000000 0.000000
vt 1.000000 1.000000
vt 0.000000 1.000000
vt 0.000000 0.000000
vt 1.000000 0.000000
vt 1.000000 1.000000
vt 0.000000 1.000000
vt 0.000000 0.000000
vt 1.000000 0.000000
vt 1.000000 1.000000
vt 0.000000 1.000000
vt 0.000000 0.000000
vt 1.000000 0.000000
vt 1.000000 1.000000
vt 0.000000 1.000000
vt 0.000000 0.000000
vt 1.000000 0.000000
vt 1.000000 1.000000
vt 0.000000 1.000000
vt 0.000000 0.000000
vt 1.000000 0.000000
vt 1.000000 1.000000
vt 0.000000 1.000000
vt 0.000000 0.000000
vt 1.000000 0.000000
vt 1.000000 1.000000
vt 0.000000 1.000000
vt 0.000000 0.000000
vt 1.000000 0.000000
vt 1.000000 1.000000
vt 0.000000 1.000000
vt 0.000000 0.000000
vt 1.000000 0.000000
vt 1.000000 1.000000
vt 0.000000 1.000000
vt 0.000000 0.000000
vt 1.000000 0.000000
vt 1.000000 1.000000
vt 0.000000 1.000000
vt 0.000000 0.000000
vt 1.000000 0.000000
vt 1.000000 1.000000
vt 0.000000 1.000000
vt 0.000000 0.000000
vt 1.000000 0.000000
vt 1.000000 1.000000
vt 0.000000 1.000000
vt 0.000000 0.000000
vt 1.000000 0.000000
vt 1.000000 1.000000
vt 0.000000 1.000000
vt 0.000000 0.000000
vt 1.000000 0.000000
vt 1.000000 1.000000
vt 0.000000 1.000000
vn 0.000000 0.000000 1.000000
vn 0.000000 0.000000 -1.000000
vn 1.000000 0.000000 0.000000
vn -1.000000 0.000000 0.000000
vn 0.000000 -1.000000 0.000000
vn -0.000000 1.000000 0.000000
vn 0.000000 0.000000 1.000000
vn 0.000000 0.000000 -1.000000
vn 1.000000 0.000000 0.000000
vn -1.000000 0.000000 0.000000
vn 0.000000 -1.000000 0.000000
vn -0.000000 1.000000 0.000000
vn 0.000000 0.000000 1.000000
vn 0.000000 0.000000 -1.000000
vn 1.000000 0.000000 0.000000
vn -1.000000 0.000000 0.000000
vn 0.000000 -1.000000 0.000000
vn -0.000000 1.000000 0.000000
vn 0.000000 0.000000 1.000000
vn 0.000000 0.000000 -1.000000
vn 1.000000 0.000000 0.000000
vn -1.000000 0.000000 0.000000
vn 0.000000 -1.000000 0.000000
vn -0.000000 1.000000 0.000000
vn 0.000000 0.000000 1.000000
vn 0.000000 0.000000 -1.000000
vn 1.000000 0.000000 0.000000
vn -1.000000 0.000000 0.000000
vn 0.000000 -1.000000 0.000000
vn -0.000000 1.000000 0.000000
vn 0.000000 0.000000 1.000000
vn 0.000000 0.000000 -1.000000
vn 1.000000 0.000000 0.000000
vn -1.000000 0.000000 0.000000
vn 0.000000 -1.000000 0.000000
vn -0.000000 1.000000 0.000000
vn 0.000000 0.000000 1.000000
vn 0.000000 0.000000 -1.000000
vn 1.000000 0.000000 0.000000
vn -1.000000 0.000000 0.000000
vn 0.000000 -1.000000 0.000000
vn -0.000000 1.000000 0.000000
vn 0.000000 0.000000 1.000000
vn 0.000000 0.000000 -1.000000
vn 1.000000 0.000000 0.000000
vn -1.000000 0.000000 0.000000
vn 0.000000 -1.000000 0.000000
vn -0.000000 1.000000 0.000000
vn 0.000000 0.000000 1.000000
vn 0.000000 0.000000 -1.000000
vn 1.000000 0.000000 0.000000
vn -1.000000 0.000000 0.000000
vn 0.000000 -1.000000 0.000000
vn -0.000000 1.000000 0.000000
vn 0.000000 0.000000 1.000000
vn 0.000000 0.000000 -1.000000
vn 1.000000 0.000000 0.000000
vn -1.000000 0.000000 0.000000
vn 0.000000 -1.000000 0.000000
vn -0.000000 1.000000 0.000000
vn 0.000000 -0.309017 0.951057
vn 0.000000 -0.809017 0.587785
vn 0.000000 -1.000000 0.000000
vn 0.000000 -0.809017 -0.587785
vn 0.000000 -0.309017 -0.951057
vn 0.000000 0.309017 -0.951057
vn 0.000000 0.809017 -0.587785
vn 0.000000 1.000000 0.000000
vn 0.000000 0.809017 0.587785
vn 0.000000 0.309017 0.951057
vn -1.000000 0.000000 0.000000
vn 1.000000 0.000000 0.000000
vn -0.951057 -0.309017 0.000000
vn -0.587785 -0.809017 0.000000
vn 0.000000 -1.000000 0.000000
vn 0.587785 -0.809017 0.000000
vn 0.951057 -0.309017 0.000000
vn 0.951057 0.309017 0.000000
vn 0.587785 0.809017 0.000000
vn 0.000000 1.000000 0.000000
vn -0.587785 0.809017 0.000000
vn -0.951057 0.309017 0.000000
vn 0.000000 0.000000 -1.000000
vn 0.000000 0.000000 1.000000
vn -0.951057 -0.309017 0.000000
vn -0.587785 -0.809017 0.000000
vn 0.000000 -1.000000 0.000000
vn 0.587785 -0.809017 0.000000
vn 0.951057 -0.309017 0.000000
vn 0.951057 0.309017 0.000000
vn 0.587785 0.809017 0.000000
vn 0.000000 1.000000 0.000000
vn -0.587785 0.809017 0.000000
vn -0.951057 0.309017 0.000000
vn 0.000000 0.000000 -1.000000
vn 0.000000 0.000000 1.000000
vn 0.923880 0.000000 -0.382683
vn 0.382683 0.000000 -0.923880
vn -0.382683 0.000000 -0.923880
vn -0.923880 0.000000 -0.382683
vn -0.923880 0.000000 0.382683
vn -0.382683 0.000000 0.923880
vn 0.382683 0.000000 0.923880
vn 0.923880 0.000000 0.382683
vn 0.000000 -1.000000 0.000000
vn 0.000000 1.000000 0.000000
vn 0.923880 0.000000 -0.382683
vn 0.382683 0.000000 -0.923880
vn -0.382683 0.000000 -0.923880
vn -0.923880 0.000000 -0.382683
vn -0.923880 0.000000 0.382683
vn -0.382683 0.000000 0.923880
vn 0.382683 0.000000 0.923880
vn 0.923880 0.000000 0.382683
vn 0.000000 -1.000000 0.000000
vn 0.000000 1.000000 0.000000
vn 0.923880 0.000000 -0.382683
vn 0.382683 0.000000 -0.923880
vn -0.382683 0.000000 -0.923880
vn -0.923880 0.000000 -0.382683
vn -0.923880 0.000000 0.382683
vn -0.382683 0.000000 0.923880
vn 0.382683 0.000000 0.923880
vn 0.923880 0.000000 0.382683
vn 0.000000 -1.000000 0.000000
vn 0.000000 1.000000 0.000000
vn 0.923880 0.000000 -0.382683
vn 0.382683 0.000000 -0.923880
vn -0.382683 0.000000 -0.923880
vn -0.923880 0.000000 -0.382683
vn -0.923880 0.000000 0.382683
vn -0.382683 0.000000 0.923880
vn 0.382683 0.000000 0.923880
vn 0.923880 0.000000 0.382683
vn 0.000000 -1.000000 0.000000
vn 0.000000 1.000000 0.000000
vn 0.000000 0.000000 1.000000
vn 0.000000 0.000000 -1.000000
vn 1.000000 0.000000 0.000000
vn -1.000000 0.000000 0.000000
vn 0.000000 -1.000000 0.000000
vn -0.000000 1.000000 0.000000
vn 0.000000 0.000000 1.000000
vn 0.000000 0.000000 -1.000000
vn 1.000000 0.000000 0.000000
vn -1.000000 0.000000 0.000000
vn 0.000000 -1.000000 0.000000
vn -0.000000 1.000000 0.000000
vn 0.000000 0.000000 1.000000
vn 0.000000 0.000000 -1.000000
vn 1.000000 0.000000 0.000000
vn -1.000000 0.000000 0.000000
vn 0.000000 -1.000000 0.000000
vn -0.000000 1.000000 0.000000
vn 0.000000 0.000000 1.000000
vn 0.000000 0.000000 -1.000000
vn 1.000000 0.000000 0.000000
vn -1.000000 0.000000 0.000000
vn 0.000000 -1.000000 0.000000
vn -0.000000 1.000000 0.000000
vn 0.000000 0.000000 1.000000
vn 0.000000 0.000000 -1.000000
vn 1.000000 0.000000 0.000000
vn -1.000000 0.000000 0.000000
vn 0.000000 -1.000000 0.000000
vn -0.000000 1.000000 0.000000
vn 0.000000 0.000000 1.000000
vn 0.000000 0.000000 -1.000000
vn 1.000000 0.000000 0.000000
vn -1.000000 0.000000 0.000000
vn 0.000000 -1.000000 0.000000
vn -0.000000 1.000000 0.000000
vn 0.000000 0.000000 1.000000
vn 0.000000 0.000000 -1.000000
vn 1.000000 0.000000 0.000000
vn -1.000000 0.000000 0.000000
vn 0.000000 -1.000000 0.000000
vn -0.000000 1.000000 0.000000
vn 0.000000 0.000000 1.000000
vn 0.000000 0.000000 -1.000000
vn 1.000000 0.000000 0.000000
vn -1.000000 0.000000 0.000000
vn 0.000000 -1.000000 0.000000
vn -0.000000 1.000000 0.000000
vn 0.000000 0.000000 1.000000
vn 0.000000 0.000000 -1.000000
vn 1.000000 0.000000 0.000000
vn -1.000000 0.000000 0.000000
vn 0.000000 -1.000000 0.000000
vn -0.000000 1.000000 0.000000
vn 0.000000 0.000000 1.000000
vn 0.000000 0.000000 -1.000000
vn 1.000000 0.000000 0.000000
vn -1.000000 0.000000 0.000000
vn 0.000000 -1.000000 0.000000
vn -0.000000 1.000000 0.000000
vn 0.000000 0.000000 1.000000
vn 0.000000 0.000000 -1.000000
vn 1.000000 0.000000 0.000000
vn -1.000000 0.000000 0.000000
vn 0.000000 -1.000000 0.000000
vn -0.000000 1.000000 0.000000
vn 0.000000 0.000000 1.000000
vn 0.000000 0.000000 -1.000000
vn 1.000000 0.000000 0.000000
vn -1.000000 0.000000 0.000000
vn 0.000000 -1.000000 0.000000
vn -0.000000 1.000000 0.000000
vn -0.923880 0.000000 -0.382683
vn -0.382683 0.000000 -0.923880
vn 0.382683 0.000000 -0.923880
vn 0.923880 0.000000 -0.382683
vn 0.923880 0.000000 0.382683
vn 0.382683 0.000000 0.923880
vn -0.382683 0.000000 0.923880
vn -0.923880 0.000000 0.382683
vn 0.000000 1.000000 0.000000
vn 0.000000 -1.000000 0.000000
vn -0.923880 0.000000 -0.382683
vn -0.382683 0.000000 -0.923880
vn 0.382683 0.000000 -0.923880
vn 0.923880 0.000000 -0.382683
vn 0.923880 0.000000 0.382683
vn 0.382683 0.000000 0.923880
vn -0.382683 0.000000 0.923880
vn -0.923880 0.000000 0.382683
vn 0.000000 1.000000 0.000000
vn 0.000000 -1.000000 0.000000
vn -0.923880 0.000000 -0.382683
vn -0.382683 0.000000 -0.923880
vn 0.382683 0.000000 -0.923880
vn 0.923880 0.000000 -0.382683
vn 0.923880 0.000000 0.382683
vn 0.382683 0.000000 0.923880
vn -0.382683 0.000000 0.923880
vn -0.923880 0.000000 0.382683
vn 0.000000 1.000000 0.000000
vn 0.000000 -1.000000 0.000000
vn -0.923880 0.000000 -0.382683
vn -0.382683 0.000000 -0.923880
vn 0.382683 0.000000 -0.923880
vn 0.923880 0.000000 -0.382683
vn 0.923880 0.000000 0.382683
vn 0.382683 0.000000 0.923880
vn -0.382683 0.000000 0.923880
vn -0.923880 0.000000 0.382683
vn 0.000000 1.000000 0.000000
vn 0.000000 -1.000000 0.000000
vn 0.000000 0.000000 1.000000
vn 0.000000 0.000000 -1.000000
vn 1.000000 0.000000 0.000000
vn -1.000000 0.000000 0.000000
vn 0.000000 -1.000000 0.000000
vn -0.000000 1.000000 0.000000
vn 0.000000 0.000000 1.000000
vn 0.000000 0.000000 -1.000000
vn 1.000000 0.000000 0.000000
vn -1.000000 0.000000 0.000000
vn 0.000000 -1.000000 0.000000
vn -0.000000 1.000000 0.000000
vn 0.000000 0.000000 1.000000
vn 0.000000 0.000000 -1.000000
vn 1.000000 0.000000 0.000000
vn -1.000000 0.000000 0.000000
vn 0.000000 -1.000000 0.000000
vn -0.000000 1.000000 0.000000
vn 0.000000 0.000000 1.000000
vn 0.000000 0.000000 -1.000000
vn 1.000000 0.000000 0.000000
vn -1.000000 0.000000 0.000000
vn 0.000000 -1.000000 0.000000
vn -0.000000 1.000000 0.000000
vn 0.000000 0.000000 1.000000
vn 0.000000 0.000000 -1.000000
vn 1.000000 0.000000 0.000000
vn -1.000000 0.000000 0.000000
vn 0.000000 -1.000000 0.000000
vn -0.000000 1.000000 0.000000
vn 0.000000 0.000000 1.000000
vn 0.000000 0.000000 -1.000000
vn 1.000000 0.000000 0.000000
vn -1.000000 0.000000 0.000000
vn 0.000000 -1.000000 0.000000
vn -0.000000 1.000000 0.000000
vn -0.923880 0.000000 -0.382683
vn -0.382683 0.000000 -0.923880
vn 0.382683 0.000000 -0.923880
vn 0.923880 0.000000 -0.382683
vn 0.923880 0.000000 0.382683
vn 0.382683 0.000000 0.923880
vn -0.382683 0.000000 0.923880
vn -0.923880 0.000000 0.382683
vn 0.000000 1.000000 0.000000
vn 0.000000 -1.000000 0.000000
vn -0.923880 0.000000 -0.382683
vn -0.382683 0.000000 -0.923880
vn 0.382683 0.000000 -0.923880
vn 0.923880 0.000000 -0.382683
vn 0.923880 0.000000 0.382683
vn 0.382683 0.000000 0.923880
vn -0.382683 0.000000 0.923880
vn -0.923880 0.000000 0.382683
vn 0.000000 1.000000 0.000000
vn 0.000000 -1.000000 0.000000
vn -0.923880 0.000000 -0.382683
vn -0.382683 0.000000 -0.923880
vn 0.382683 0.000000 -0.923880
vn 0.923880 0.000000 -0.382683
vn 0.923880 0.000000 0.382683
vn 0.382683 0.000000 0.923880
vn -0.382683 0.000000 0.923880
vn -0.923880 0.000000 0.382683
vn 0.000000 1.000000 0.000000
vn 0.000000 -1.000000 0.000000
vn -0.923880 0.000000 -0.382683
vn -0.382683 0.000000 -0.923880
vn 0.382683 0.000000 -0.923880
vn 0.923880 0.000000 -0.382683
vn 0.923880 0.000000 0.382683
vn 0.382683 0.000000 0.923880
vn -0.382683 0.000000 0.923880
vn -0.923880 0.000000 0.382683
vn 0.000000 1.000000 0.000000
vn 0.000000 -1.000000 0.000000
vn 0.000000 0.000000 1.000000
vn 0.000000 0.000000 -1.000000
vn 1.000000 0.000000 0.000000
vn -1.000000 0.000000 0.000000
vn 0.000000 -1.000000 0.000000
vn -0.000000 1.000000 0.000000
vn 0.000000 0.000000 1.000000
vn 0.000000 0.000000 -1.000000
vn 1.000000 0.000000 0.000000
vn -1.000000 0.000000 0.000000
vn 0.000000 -1.000000 0.000000
vn -0.000000 1.000000 0.000000
vn 0.000000 0.000000 1.000000
vn 0.000000 0.000000 -1.000000
vn 1.000000 0.000000 0.000000
vn -1.000000 0.000000 0.000000
vn 0.000000 -1.000000 0.000000
vn -0.000000 1.000000 0.000000
vn 0.000000 0.000000 1.000000
vn 0.000000 0.000000 -1.000000
vn 1.000000 0.000000 0.000000
vn -1.000000 0.000000 0.000000
vn 0.000000 -1.000000 0.000000
vn -0.000000 1.000000 0.000000
vn 0.000000 0.000000 1.000000
vn 0.000000 0.000000 -1.000000
vn 1.000000 0.000000 0.000000
vn -1.000000 0.000000 0.000000
vn 0.000000 -1.000000 0.000000
vn -0.000000 1.000000 0.000000
vn 0.000000 0.000000 1.000000
vn 0.000000 0.000000 -1.000000
vn 1.000000 0.000000 0.000000
vn -1.000000 0.000000 0.000000
vn 0.000000 -1.000000 0.000000
vn -0.000000 1.000000 0.000000
vn 0.000000 0.000000 1.000000
vn 0.000000 0.000000 -1.000000
vn 1.000000 0.000000 0.000000
vn -1.000000 0.000000 0.000000
vn 0.000000 -1.000000 0.000000
vn -0.000000 1.000000 0.000000
vn 0.000000 0.000000 1.000000
vn 0.000000 0.000000 -1.000000
vn 1.000000 0.000000 0.000000
vn -1.000000 0.000000 0.000000
vn 0.000000 -1.000000 0.000000
vn -0.000000 1.000000 0.000000
usemtl floor_blue
f 1/1/1 2/2/1 3/3/1 4/4/1
f 6/5/2 5/6/2 8/7/2 7/8/2
f 5/9/3 1/10/3 4/11/3 8/12/3
f 2/13/4 6/14/4 7/15/4 3/16/4
f 4/17/5 3/18/5 7/19/5 8/20/5
f 5/21/6 6/22/6 2/23/6 1/24/6
usemtl ceiling_dim
f 9/25/7 10/26/7 11/27/7 12/28/7
f 14/29/8 13/30/8 16/31/8 15/32/8
f 13/33/9 9/34/9 12/35/9 16/36/9
f 10/37/10 14/38/10 15/39/10 11/40/10
f 12/41/11 11/42/11 15/43/11 16/44/11
f 13/45/12 14/46/12 10/47/12 9/48/12
usemtl wall_cold
f 17/49/13 18/50/13 19/51/13 20/52/13
f 22/53/14 21/54/14 24/55/14 23/56/14
f 21/57/15 17/58/15 20/59/15 24/60/15
f 18/61/16 22/62/16 23/63/16 19/64/16
f 20/65/17 19/66/17 23/67/17 24/68/17
f 21/69/18 22/70/18 18/71/18 17/72/18
f 25/73/19 26/74/19 27/75/19 28/76/19
f 30/77/20 29/78/20 32/79/20 31/80/20
f 29/81/21 25/82/21 28/83/21 32/84/21
f 26/85/22 30/86/22 31/87/22 27/88/22
f 28/89/23 27/90/23 31/91/23 32/92/23
f 29/93/24 30/94/24 26/95/24 25/96/24
f 33/97/25 34/98/25 35/99/25 36/100/25
f 38/101/26 37/102/26 40/103/26 39/104/26
f 37/105/27 33/106/27 36/107/27 40/108/27
f 34/109/28 38/110/28 39/111/28 35/112/28
f 36/113/29 35/114/29 39/115/29 40/116/29
f 37/117/30 38/118/30 34/119/30 33/120/30
f 41/121/31 42/122/31 43/123/31 44/124/31
f 46/125/32 45/126/32 48/127/32 47/128/32
f 45/129/33 41/130/33 44/131/33 48/132/33
f 42/133/34 46/134/34 47/135/34 43/136/34
f 44/137/35 43/138/35 47/139/35 48/140/35
f 45/141/36 46/142/36 42/143/36 41/144/36
usemtl wall_trim
f 49/145/37 50/146/37 51/147/37 52/148/37
f 54/149/38 53/150/38 56/151/38 55/152/38
f 53/153/39 49/154/39 52/155/39 56/156/39
f 50/157/40 54/158/40 55/159/40 51/160/40
f 52/161/41 51/162/41 55/163/41 56/164/41
f 53/165/42 54/166/42 50/167/42 49/168/42
f 57/169/43 58/170/43 59/171/43 60/172/43
f 62/173/44 61/174/44 64/175/44 63/176/44
f 61/177/45 57/178/45 60/179/45 64/180/45
f 58/181/46 62/182/46 63/183/46 59/184/46
f 60/185/47 59/186/47 63/187/47 64/188/47
f 61/189/48 62/190/48 58/191/48 57/192/48
f 65/193/49 66/194/49 67/195/49 68/196/49
f 70/197/50 69/198/50 72/199/50 71/200/50
f 69/201/51 65/202/51 68/203/51 72/204/51
f 66/205/52 70/206/52 71/207/52 67/208/52
f 68/209/53 67/210/53 71/211/53 72/212/53
f 69/213/54 70/214/54 66/215/54 65/216/54
f 73/217/55 74/218/55 75/219/55 76/220/55
f 78/221/56 77/222/56 80/223/56 79/224/56
f 77/225/57 73/226/57 76/227/57 80/228/57
f 74/229/58 78/230/58 79/231/58 75/232/58
f 76/233/59 75/234/59 79/235/59 80/236/59
f 77/237/60 78/238/60 74/239/60 73/240/60
usemtl rail_bumper
f 81/241/61 83/242/61 84/243/61 82/244/61
f 83/245/62 85/246/62 86/247/62 84/248/62
f 85/249/63 87/250/63 88/251/63 86/252/63
f 87/253/64 89/254/64 90/255/64 88/256/64
f 89/257/65 91/258/65 92/259/65 90/260/65
f 91/261/66 93/262/66 94/263/66 92/264/66
f 93/265/67 95/266/67 96/267/67 94/268/67
f 95/269/68 97/270/68 98/271/68 96/272/68
f 97/273/69 99/274/69 100/275/69 98/276/69
f 99/277/70 81/278/70 82/279/70 100/280/70
f 99/281/71 97/282/71 95/283/71 93/284/71 91/285/71 89/286/71 87/287/71 85/288/71 83/289/71 81/290/71
f 82/291/72 84/292/72 86/293/72 88/294/72 90/295/72 92/296/72 94/297/72 96/298/72 98/299/72 100/300/72
f 101/301/73 103/302/73 104/303/73 102/304/73
f 103/305/74 105/306/74 106/307/74 104/308/74
f 105/309/75 107/310/75 108/311/75 106/312/75
f 107/313/76 109/314/76 110/315/76 108/316/76
f 109/317/77 111/318/77 112/319/77 110/320/77
f 111/321/78 113/322/78 114/323/78 112/324/78
f 113/325/79 115/326/79 116/327/79 114/328/79
f 115/329/80 117/330/80 118/331/80 116/332/80
f 117/333/81 119/334/81 120/335/81 118/336/81
f 119/337/82 101/338/82 102/339/82 120/340/82
f 119/341/83 117/342/83 115/343/83 113/344/83 111/345/83 109/346/83 107/347/83 105/348/83 103/349/83 101/350/83
f 102/351/84 104/352/84 106/353/84 108/354/84 110/355/84 112/356/84 114/357/84 116/358/84 118/359/84 120/360/84
f 121/361/85 123/362/85 124/363/85 122/364/85
f 123/365/86 125/366/86 126/367/86 124/368/86
f 125/369/87 127/370/87 128/371/87 126/372/87
f 127/373/88 129/374/88 130/375/88 128/376/88
f 129/377/89 131/378/89 132/379/89 130/380/89
f 131/381/90 133/382/90 134/383/90 132/384/90
f 133/385/91 135/386/91 136/387/91 134/388/91
f 135/389/92 137/390/92 138/391/92 136/392/92
f 137/393/93 139/394/93 140/395/93 138/396/93
f 139/397/94 121/398/94 122/399/94 140/400/94
f 139/401/95 137/402/95 135/403/95 133/404/95 131/405/95 129/406/95 127/407/95 125/408/95 123/409/95 121/410/95
f 122/411/96 124/412/96 126/413/96 128/414/96 130/415/96 132/416/96 134/417/96 136/418/96 138/419/96 140/420/96
usemtl wall_trim
f 141/421/97 143/422/97 144/423/97 142/424/97
f 143/425/98 145/426/98 146/427/98 144/428/98
f 145/429/99 147/430/99 148/431/99 146/432/99
f 147/433/100 149/434/100 150/435/100 148/436/100
f 149/437/101 151/438/101 152/439/101 150/440/101
f 151/441/102 153/442/102 154/443/102 152/444/102
f 153/445/103 155/446/103 156/447/103 154/448/103
f 155/449/104 141/450/104 142/451/104 156/452/104
f 155/453/105 153/454/105 151/455/105 149/456/105 147/457/105 145/458/105 143/459/105 141/460/105
f 142/461/106 144/462/106 146/463/106 148/464/106 150/465/106 152/466/106 154/467/106 156/468/106
f 157/469/107 159/470/107 160/471/107 158/472/107
f 159/473/108 161/474/108 162/475/108 160/476/108
f 161/477/109 163/478/109 164/479/109 162/480/109
f 163/481/110 165/482/110 166/483/110 164/484/110
f 165/485/111 167/486/111 168/487/111 166/488/111
f 167/489/112 169/490/112 170/491/112 168/492/112
f 169/493/113 171/494/113 172/495/113 170/496/113
f 171/497/114 157/498/114 158/499/114 172/500/114
f 171/501/115 169/502/115 167/503/115 165/504/115 163/505/115 161/506/115 159/507/115 157/508/115
f 158/509/116 160/510/116 162/511/116 164/512/116 166/513/116 168/514/116 170/515/116 172/516/116
f 173/517/117 175/518/117 176/519/117 174/520/117
f 175/521/118 177/522/118 178/523/118 176/524/118
f 177/525/119 179/526/119 180/527/119 178/528/119
f 179/529/120 181/530/120 182/531/120 180/532/120
f 181/533/121 183/534/121 184/535/121 182/536/121
f 183/537/122 185/538/122 186/539/122 184/540/122
f 185/541/123 187/542/123 188/543/123 186/544/123
f 187/545/124 173/546/124 174/547/124 188/548/124
f 187/549/125 185/550/125 183/551/125 181/552/125 179/553/125 177/554/125 175/555/125 173/556/125
f 174/557/126 176/558/126 178/559/126 180/560/126 182/561/126 184/562/126 186/563/126 188/564/126
f 189/565/127 191/566/127 192/567/127 190/568/127
f 191/569/128 193/570/128 194/571/128 192/572/128
f 193/573/129 195/574/129 196/575/129 194/576/129
f 195/577/130 197/578/130 198/579/130 196/580/130
f 197/581/131 199/582/131 200/583/131 198/584/131
f 199/585/132 201/586/132 202/587/132 200/588/132
f 201/589/133 203/590/133 204/591/133 202/592/133
f 203/593/134 189/594/134 190/595/134 204/596/134
f 203/597/135 201/598/135 199/599/135 197/600/135 195/601/135 193/602/135 191/603/135 189/604/135
f 190/605/136 192/606/136 194/607/136 196/608/136 198/609/136 200/610/136 202/611/136 204/612/136
usemtl wall_stain
f 205/613/137 206/614/137 207/615/137 208/616/137
f 210/617/138 209/618/138 212/619/138 211/620/138
f 209/621/139 205/622/139 208/623/139 212/624/139
f 206/625/140 210/626/140 211/627/140 207/628/140
f 208/629/141 207/630/141 211/631/141 212/632/141
f 209/633/142 210/634/142 206/635/142 205/636/142
f 213/637/143 214/638/143 215/639/143 216/640/143
f 218/641/144 217/642/144 220/643/144 219/644/144
f 217/645/145 213/646/145 216/647/145 220/648/145
f 214/649/146 218/650/146 219/651/146 215/652/146
f 216/653/147 215/654/147 219/655/147 220/656/147
f 217/657/148 218/658/148 214/659/148 213/660/148
usemtl vinyl_scuff
f 221/661/149 222/662/149 223/663/149 224/664/149
f 226/665/150 225/666/150 228/667/150 227/668/150
f 225/669/151 221/670/151 224/671/151 228/672/151
f 222/673/152 226/674/152 227/675/152 223/676/152
f 224/677/153 223/678/153 227/679/153 228/680/153
f 225/681/154 226/682/154 222/683/154 221/684/154
f 229/685/155 230/686/155 231/687/155 232/688/155
f 234/689/156 233/690/156 236/691/156 235/692/156
f 233/693/157 229/694/157 232/695/157 236/696/157
f 230/697/158 234/698/158 235/699/158 231/700/158
f 232/701/159 231/702/159 235/703/159 236/704/159
f 233/705/160 234/706/160 230/707/160 229/708/160
f 237/709/161 238/710/161 239/711/161 240/712/161
f 242/713/162 241/714/162 244/715/162 243/716/162
f 241/717/163 237/718/163 240/719/163 244/720/163
f 238/721/164 242/722/164 243/723/164 239/724/164
f 240/725/165 239/726/165 243/727/165 244/728/165
f 241/729/166 242/730/166 238/731/166 237/732/166
usemtl old_bruise
f 245/733/167 246/734/167 247/735/167 248/736/167
f 250/737/168 249/738/168 252/739/168 251/740/168
f 249/741/169 245/742/169 248/743/169 252/744/169
f 246/745/170 250/746/170 251/747/170 247/748/170
f 248/749/171 247/750/171 251/751/171 252/752/171
f 249/753/172 250/754/172 246/755/172 245/756/172
f 253/757/173 254/758/173 255/759/173 256/760/173
f 258/761/174 257/762/174 260/763/174 259/764/174
f 257/765/175 253/766/175 256/767/175 260/768/175
f 254/769/176 258/770/176 259/771/176 255/772/176
f 256/773/177 255/774/177 259/775/177 260/776/177
f 257/777/178 258/778/178 254/779/178 253/780/178
f 261/781/179 262/782/179 263/783/179 264/784/179
f 266/785/180 265/786/180 268/787/180 267/788/180
f 265/789/181 261/790/181 264/791/181 268/792/181
f 262/793/182 266/794/182 267/795/182 263/796/182
f 264/797/183 263/798/183 267/799/183 268/800/183
f 265/801/184 266/802/184 262/803/184 261/804/184
f 269/805/185 270/806/185 271/807/185 272/808/185
f 274/809/186 273/810/186 276/811/186 275/812/186
f 273/813/187 269/814/187 272/815/187 276/816/187
f 270/817/188 274/818/188 275/819/188 271/820/188
f 272/821/189 271/822/189 275/823/189 276/824/189
f 273/825/190 274/826/190 270/827/190 269/828/190
usemtl dark_glass
f 277/829/191 278/830/191 279/831/191 280/832/191
f 282/833/192 281/834/192 284/835/192 283/836/192
f 281/837/193 277/838/193 280/839/193 284/840/193
f 278/841/194 282/842/194 283/843/194 279/844/194
f 280/845/195 279/846/195 283/847/195 284/848/195
f 281/849/196 282/850/196 278/851/196 277/852/196
usemtl metal
f 285/853/197 286/854/197 287/855/197 288/856/197
f 290/857/198 289/858/198 292/859/198 291/860/198
f 289/861/199 285/862/199 288/863/199 292/864/199
f 286/865/200 290/866/200 291/867/200 287/868/200
f 288/869/201 287/870/201 291/871/201 292/872/201
f 289/873/202 290/874/202 286/875/202 285/876/202
f 293/877/203 294/878/203 295/879/203 296/880/203
f 298/881/204 297/882/204 300/883/204 299/884/204
f 297/885/205 293/886/205 296/887/205 300/888/205
f 294/889/206 298/890/206 299/891/206 295/892/206
f 296/893/207 295/894/207 299/895/207 300/896/207
f 297/897/208 298/898/208 294/899/208 293/900/208
f 301/901/209 303/902/209 304/903/209 302/904/209
f 303/905/210 305/906/210 306/907/210 304/908/210
f 305/909/211 307/910/211 308/911/211 306/912/211
f 307/913/212 309/914/212 310/915/212 308/916/212
f 309/917/213 311/918/213 312/919/213 310/920/213
f 311/921/214 313/922/214 314/923/214 312/924/214
f 313/925/215 315/926/215 316/927/215 314/928/215
f 315/929/216 301/930/216 302/931/216 316/932/216
f 315/933/217 313/934/217 311/935/217 309/936/217 307/937/217 305/938/217 303/939/217 301/940/217
f 302/941/218 304/942/218 306/943/218 308/944/218 310/945/218 312/946/218 314/947/218 316/948/218
f 317/949/219 319/950/219 320/951/219 318/952/219
f 319/953/220 321/954/220 322/955/220 320/956/220
f 321/957/221 323/958/221 324/959/221 322/960/221
f 323/961/222 325/962/222 326/963/222 324/964/222
f 325/965/223 327/966/223 328/967/223 326/968/223
f 327/969/224 329/970/224 330/971/224 328/972/224
f 329/973/225 331/974/225 332/975/225 330/976/225
f 331/977/226 317/978/226 318/979/226 332/980/226
f 331/981/227 329/982/227 327/983/227 325/984/227 323/985/227 321/986/227 319/987/227 317/988/227
f 318/989/228 320/990/228 322/991/228 324/992/228 326/993/228 328/994/228 330/995/228 332/996/228
f 333/997/229 335/998/229 336/999/229 334/1000/229
f 335/1001/230 337/1002/230 338/1003/230 336/1004/230
f 337/1005/231 339/1006/231 340/1007/231 338/1008/231
f 339/1009/232 341/1010/232 342/1011/232 340/1012/232
f 341/1013/233 343/1014/233 344/1015/233 342/1016/233
f 343/1017/234 345/1018/234 346/1019/234 344/1020/234
f 345/1021/235 347/1022/235 348/1023/235 346/1024/235
f 347/1025/236 333/1026/236 334/1027/236 348/1028/236
f 347/1029/237 345/1030/237 343/1031/237 341/1032/237 339/1033/237 337/1034/237 335/1035/237 333/1036/237
f 334/1037/238 336/1038/238 338/1039/238 340/1040/238 342/1041/238 344/1042/238 346/1043/238 348/1044/238
f 349/1045/239 351/1046/239 352/1047/239 350/1048/239
f 351/1049/240 353/1050/240 354/1051/240 352/1052/240
f 353/1053/241 355/1054/241 356/1055/241 354/1056/241
f 355/1057/242 357/1058/242 358/1059/242 356/1060/242
f 357/1061/243 359/1062/243 360/1063/243 358/1064/243
f 359/1065/244 361/1066/244 362/1067/244 360/1068/244
f 361/1069/245 363/1070/245 364/1071/245 362/1072/245
f 363/1073/246 349/1074/246 350/1075/246 364/1076/246
f 363/1077/247 361/1078/247 359/1079/247 357/1080/247 355/1081/247 353/1082/247 351/1083/247 349/1084/247
f 350/1085/248 352/1086/248 354/1087/248 356/1088/248 358/1089/248 360/1090/248 362/1091/248 364/1092/248
usemtl dark_glass
f 365/1093/249 366/1094/249 367/1095/249 368/1096/249
f 370/1097/250 369/1098/250 372/1099/250 371/1100/250
f 369/1101/251 365/1102/251 368/1103/251 372/1104/251
f 366/1105/252 370/1106/252 371/1107/252 367/1108/252
f 368/1109/253 367/1110/253 371/1111/253 372/1112/253
f 369/1113/254 370/1114/254 366/1115/254 365/1116/254
usemtl metal
f 373/1117/255 374/1118/255 375/1119/255 376/1120/255
f 378/1121/256 377/1122/256 380/1123/256 379/1124/256
f 377/1125/257 373/1126/257 376/1127/257 380/1128/257
f 374/1129/258 378/1130/258 379/1131/258 375/1132/258
f 376/1133/259 375/1134/259 379/1135/259 380/1136/259
f 377/1137/260 378/1138/260 374/1139/260 373/1140/260
f 381/1141/261 382/1142/261 383/1143/261 384/1144/261
f 386/1145/262 385/1146/262 388/1147/262 387/1148/262
f 385/1149/263 381/1150/263 384/1151/263 388/1152/263
f 382/1153/264 386/1154/264 387/1155/264 383/1156/264
f 384/1157/265 383/1158/265 387/1159/265 388/1160/265
f 385/1161/266 386/1162/266 382/1163/266 381/1164/266
f 389/1165/267 390/1166/267 391/1167/267 392/1168/267
f 394/1169/268 393/1170/268 396/1171/268 395/1172/268
f 393/1173/269 389/1174/269 392/1175/269 396/1176/269
f 390/1177/270 394/1178/270 395/1179/270 391/1180/270
f 392/1181/271 391/1182/271 395/1183/271 396/1184/271
f 393/1185/272 394/1186/272 390/1187/272 389/1188/272
f 397/1189/273 398/1190/273 399/1191/273 400/1192/273
f 402/1193/274 401/1194/274 404/1195/274 403/1196/274
f 401/1197/275 397/1198/275 400/1199/275 404/1200/275
f 398/1201/276 402/1202/276 403/1203/276 399/1204/276
f 400/1205/277 399/1206/277 403/1207/277 404/1208/277
f 401/1209/278 402/1210/278 398/1211/278 397/1212/278
f 405/1213/279 406/1214/279 407/1215/279 408/1216/279
f 410/1217/280 409/1218/280 412/1219/280 411/1220/280
f 409/1221/281 405/1222/281 408/1223/281 412/1224/281
f 406/1225/282 410/1226/282 411/1227/282 407/1228/282
f 408/1229/283 407/1230/283 411/1231/283 412/1232/283
f 409/1233/284 410/1234/284 406/1235/284 405/1236/284
f 413/1237/285 415/1238/285 416/1239/285 414/1240/285
f 415/1241/286 417/1242/286 418/1243/286 416/1244/286
f 417/1245/287 419/1246/287 420/1247/287 418/1248/287
f 419/1249/288 421/1250/288 422/1251/288 420/1252/288
f 421/1253/289 423/1254/289 424/1255/289 422/1256/289
f 423/1257/290 425/1258/290 426/1259/290 424/1260/290
f 425/1261/291 427/1262/291 428/1263/291 426/1264/291
f 427/1265/292 413/1266/292 414/1267/292 428/1268/292
f 427/1269/293 425/1270/293 423/1271/293 421/1272/293 419/1273/293 417/1274/293 415/1275/293 413/1276/293
f 414/1277/294 416/1278/294 418/1279/294 420/1280/294 422/1281/294 424/1282/294 426/1283/294 428/1284/294
f 429/1285/295 431/1286/295 432/1287/295 430/1288/295
f 431/1289/296 433/1290/296 434/1291/296 432/1292/296
f 433/1293/297 435/1294/297 436/1295/297 434/1296/297
f 435/1297/298 437/1298/298 438/1299/298 436/1300/298
f 437/1301/299 439/1302/299 440/1303/299 438/1304/299
f 439/1305/300 441/1306/300 442/1307/300 440/1308/300
f 441/1309/301 443/1310/301 444/1311/301 442/1312/301
f 443/1313/302 429/1314/302 430/1315/302 444/1316/302
f 443/1317/303 441/1318/303 439/1319/303 437/1320/303 435/1321/303 433/1322/303 431/1323/303 429/1324/303
f 430/1325/304 432/1326/304 434/1327/304 436/1328/304 438/1329/304 440/1330/304 442/1331/304 444/1332/304
f 445/1333/305 447/1334/305 448/1335/305 446/1336/305
f 447/1337/306 449/1338/306 450/1339/306 448/1340/306
f 449/1341/307 451/1342/307 452/1343/307 450/1344/307
f 451/1345/308 453/1346/308 454/1347/308 452/1348/308
f 453/1349/309 455/1350/309 456/1351/309 454/1352/309
f 455/1353/310 457/1354/310 458/1355/310 456/1356/310
f 457/1357/311 459/1358/311 460/1359/311 458/1360/311
f 459/1361/312 445/1362/312 446/1363/312 460/1364/312
f 459/1365/313 457/1366/313 455/1367/313 453/1368/313 451/1369/313 449/1370/313 447/1371/313 445/1372/313
f 446/1373/314 448/1374/314 450/1375/314 452/1376/314 454/1377/314 456/1378/314 458/1379/314 460/1380/314
f 461/1381/315 463/1382/315 464/1383/315 462/1384/315
f 463/1385/316 465/1386/316 466/1387/316 464/1388/316
f 465/1389/317 467/1390/317 468/1391/317 466/1392/317
f 467/1393/318 469/1394/318 470/1395/318 468/1396/318
f 469/1397/319 471/1398/319 472/1399/319 470/1400/319
f 471/1401/320 473/1402/320 474/1403/320 472/1404/320
f 473/1405/321 475/1406/321 476/1407/321 474/1408/321
f 475/1409/322 461/1410/322 462/1411/322 476/1412/322
f 475/1413/323 473/1414/323 471/1415/323 469/1416/323 467/1417/323 465/1418/323 463/1419/323 461/1420/323
f 462/1421/324 464/1422/324 466/1423/324 468/1424/324 470/1425/324 472/1426/324 474/1427/324 476/1428/324
usemtl paper
f 477/1429/325 478/1430/325 479/1431/325 480/1432/325
f 482/1433/326 481/1434/326 484/1435/326 483/1436/326
f 481/1437/327 477/1438/327 480/1439/327 484/1440/327
f 478/1441/328 482/1442/328 483/1443/328 479/1444/328
f 480/1445/329 479/1446/329 483/1447/329 484/1448/329
f 481/1449/330 482/1450/330 478/1451/330 477/1452/330
usemtl warning_red
f 485/1453/331 486/1454/331 487/1455/331 488/1456/331
f 490/1457/332 489/1458/332 492/1459/332 491/1460/332
f 489/1461/333 485/1462/333 488/1463/333 492/1464/333
f 486/1465/334 490/1466/334 491/1467/334 487/1468/334
f 488/1469/335 487/1470/335 491/1471/335 492/1472/335
f 489/1473/336 490/1474/336 486/1475/336 485/1476/336
usemtl outlet_white
f 493/1477/337 494/1478/337 495/1479/337 496/1480/337
f 498/1481/338 497/1482/338 500/1483/338 499/1484/338
f 497/1485/339 493/1486/339 496/1487/339 500/1488/339
f 494/1489/340 498/1490/340 499/1491/340 495/1492/340
f 496/1493/341 495/1494/341 499/1495/341 500/1496/341
f 497/1497/342 498/1498/342 494/1499/342 493/1500/342
usemtl rubber_dark
f 501/1501/343 502/1502/343 503/1503/343 504/1504/343
f 506/1505/344 505/1506/344 508/1507/344 507/1508/344
f 505/1509/345 501/1510/345 504/1511/345 508/1512/345
f 502/1513/346 506/1514/346 507/1515/346 503/1516/346
f 504/1517/347 503/1518/347 507/1519/347 508/1520/347
f 505/1521/348 506/1522/348 502/1523/348 501/1524/348
f 509/1525/349 510/1526/349 511/1527/349 512/1528/349
f 514/1529/350 513/1530/350 516/1531/350 515/1532/350
f 513/1533/351 509/1534/351 512/1535/351 516/1536/351
f 510/1537/352 514/1538/352 515/1539/352 511/1540/352
f 512/1541/353 511/1542/353 515/1543/353 516/1544/353
f 513/1545/354 514/1546/354 510/1547/354 509/1548/354
usemtl paper
f 517/1549/355 518/1550/355 519/1551/355 520/1552/355
f 522/1553/356 521/1554/356 524/1555/356 523/1556/356
f 521/1557/357 517/1558/357 520/1559/357 524/1560/357
f 518/1561/358 522/1562/358 523/1563/358 519/1564/358
f 520/1565/359 519/1566/359 523/1567/359 524/1568/359
f 521/1569/360 522/1570/360 518/1571/360 517/1572/360
usemtl warning_red
f 525/1573/361 526/1574/361 527/1575/361 528/1576/361
f 530/1577/362 529/1578/362 532/1579/362 531/1580/362
f 529/1581/363 525/1582/363 528/1583/363 532/1584/363
f 526/1585/364 530/1586/364 531/1587/364 527/1588/364
f 528/1589/365 527/1590/365 531/1591/365 532/1592/365
f 529/1593/366 530/1594/366 526/1595/366 525/1596/366
usemtl medical_green
f 533/1597/367 534/1598/367 535/1599/367 536/1600/367
f 538/1601/368 537/1602/368 540/1603/368 539/1604/368
f 537/1605/369 533/1606/369 536/1607/369 540/1608/369
f 534/1609/370 538/1610/370 539/1611/370 535/1612/370
f 536/1613/371 535/1614/371 539/1615/371 540/1616/371
f 537/1617/372 538/1618/372 534/1619/372 533/1620/372
