# Generated by tools/generate_hospital_ward_assets.py
mtllib hospital_ward_materials.mtl
o ward_iv_stand
v 0.025000 0.020000 0.000000
v 0.025000 1.740000 0.000000
v 0.021651 0.020000 0.012500
v 0.021651 1.740000 0.012500
v 0.012500 0.020000 0.021651
v 0.012500 1.740000 0.021651
v 0.000000 0.020000 0.025000
v 0.000000 1.740000 0.025000
v -0.012500 0.020000 0.021651
v -0.012500 1.740000 0.021651
v -0.021651 0.020000 0.012500
v -0.021651 1.740000 0.012500
v -0.025000 0.020000 0.000000
v -0.025000 1.740000 0.000000
v -0.021651 0.020000 -0.012500
v -0.021651 1.740000 -0.012500
v -0.012500 0.020000 -0.021651
v -0.012500 1.740000 -0.021651
v -0.000000 0.020000 -0.025000
v -0.000000 1.740000 -0.025000
v 0.012500 0.020000 -0.021651
v 0.012500 1.740000 -0.021651
v 0.021651 0.020000 -0.012500
v 0.021651 1.740000 -0.012500
v -0.270000 1.742500 -0.017500
v 0.270000 1.742500 -0.017500
v 0.270000 1.777500 -0.017500
v -0.270000 1.777500 -0.017500
v -0.270000 1.742500 0.017500
v 0.270000 1.742500 0.017500
v 0.270000 1.777500 0.017500
v -0.270000 1.777500 0.017500
v -0.267500 1.440000 -0.017500
v -0.232500 1.440000 -0.017500
v -0.232500 1.760000 -0.017500
v -0.267500 1.760000 -0.017500
v -0.267500 1.440000 0.017500
v -0.232500 1.440000 0.017500
v -0.232500 1.760000 0.017500
v -0.267500 1.760000 0.017500
v 0.232500 1.440000 -0.017500
v 0.267500 1.440000 -0.017500
v 0.267500 1.760000 -0.017500
v 0.232500 1.760000 -0.017500
v 0.232500 1.440000 0.017500
v 0.267500 1.440000 0.017500
v 0.267500 1.760000 0.017500
v 0.232500 1.760000 0.017500
v -0.330000 1.185000 -0.030000
v -0.150000 1.185000 -0.030000
v -0.150000 1.535000 -0.030000
v -0.330000 1.535000 -0.030000
v -0.330000 1.185000 0.030000
v -0.150000 1.185000 0.030000
v -0.150000 1.535000 0.030000
v -0.330000 1.535000 0.030000
v -0.300000 1.190000 -0.047500
v -0.180000 1.190000 -0.047500
v -0.180000 1.430000 -0.047500
v -0.300000 1.430000 -0.047500
v -0.300000 1.190000 -0.022500
v -0.180000 1.190000 -0.022500
v -0.180000 1.430000 -0.022500
v -0.300000 1.430000 -0.022500
v -0.252500 0.880000 -0.012500
v -0.227500 0.880000 -0.012500
v -0.227500 1.360000 -0.012500
v -0.252500 1.360000 -0.012500
v -0.252500 0.880000 0.012500
v -0.227500 0.880000 0.012500
v -0.227500 1.360000 0.012500
v -0.252500 1.360000 0.012500
v -0.187500 0.930000 -0.012500
v -0.152500 0.930000 -0.012500
v -0.152500 1.070000 -0.012500
v -0.187500 1.070000 -0.012500
v -0.187500 0.930000 0.012500
v -0.152500 0.930000 0.012500
v -0.152500 1.070000 0.012500
v -0.187500 1.070000 0.012500
v -0.139000 0.580000 -0.009000
v -0.121000 0.580000 -0.009000
v -0.121000 0.980000 -0.009000
v -0.139000 0.980000 -0.009000
v -0.139000 0.580000 0.009000
v -0.121000 0.580000 0.009000
v -0.121000 0.980000 0.009000
v -0.139000 0.980000 0.009000
v -0.140000 0.593000 -0.009000
v 0.060000 0.593000 -0.009000
v 0.060000 0.607000 -0.009000
v -0.140000 0.607000 -0.009000
v -0.140000 0.593000 0.009000
v 0.060000 0.593000 0.009000
v 0.060000 0.607000 0.009000
v -0.140000 0.607000 0.009000
v 0.121000 0.450000 -0.009000
v 0.139000 0.450000 -0.009000
v 0.139000 0.610000 -0.009000
v 0.121000 0.610000 -0.009000
v 0.121000 0.450000 0.009000
v 0.139000 0.450000 0.009000
v 0.139000 0.610000 0.009000
v 0.121000 0.610000 0.009000
v -0.350000 0.000000 -0.350000
v 0.350000 0.000000 -0.350000
v 0.350000 0.060000 -0.350000
v -0.350000 0.060000 -0.350000
v -0.350000 0.000000 0.350000
v 0.350000 0.000000 0.350000
v 0.350000 0.060000 0.350000
v -0.350000 0.060000 0.350000
vt 0.000000 0.000000
vt 1.000000 0.000000
vt 1.000000 1.000000
vt 0.000000 1.000000
vt 0.000000 0.000000
vt 1.000000 0.000000
vt 1.000000 1.000000
vt 0.000000 1.000000
vt 0.000000 0.000000
vt 1.000000 0.000000
vt 1.000000 1.000000
vt 0.000000 1.000000
vt 0.000000 0.000000
vt 1.000000 0.000000
vt 1.000000 1.000000
vt 0.000000 1.000000
vt 0.000000 0.000000
vt 1.000000 0.000000
vt 1.000000 1.000000
vt 0.000000 1.000000
vt 0.000000 0.000000
vt 1.000000 0.000000
vt 1.000000 1.000000
vt 0.000000 1.000000
vt 0.000000 0.000000
vt 1.000000 0.000000
vt 1.000000 1.000000
vt 0.000000 1.000000
vt 0.000000 0.000000
vt 1.000000 0.000000
vt 1.000000 1.000000
vt 0.000000 1.000000
vt 0.000000 0.000000
vt 1.000000 0.000000
vt 1.000000 1.000000
vt 0.000000 1.000000
vt 0.000000 0.000000
vt 1.000000 0.000000
vt 1.000000 1.000000
vt 0.000000 1.000000
vt 0.000000 0.000000
vt 1.000000 0.000000
vt 1.000000 1.000000
vt 0.000000 1.000000
vt 0.000000 0.000000
vt 1.000000 0.000000
vt 1.000000 1.000000
vt 0.000000 1.000000
vt 1.000000 0.500000
vt 0.933013 0.750000
vt 0.750000 0.933013
vt 0.500000 1.000000
vt 0.250000 0.933013
vt 0.066987 0.750000
vt 0.000000 0.500000
vt 0.066987 0.250000
vt 0.250000 0.066987
vt 0.500000 0.000000
vt 0.750000 0.066987
vt 0.933013 0.250000
vt 1.000000 0.500000
vt 0.933013 0.750000
vt 0.750000 0.933013
vt 0.500000 1.000000
vt 0.250000 0.933013
vt 0.066987 0.750000
vt 0.000000 0.500000
vt 0.066987 0.250000
vt 0.250000 0.066987
vt 0.500000 0.000000
vt 0.750000 0.066987
vt 0.933013 0.250000
vt 0.000000 0.000000
vt 1.000000 0.000000
vt 1.000000 1.000000
vt 0.000000 1.000000
vt 0.000000 0.000000
vt 1.000000 0.000000
vt 1.000000 1.000000
vt 0.000000 1.000000
vt 0.000000 0.000000
vt 1.000000 0.000000
vt 1.000000 1.000000
vt 0.000000 1.000000
vt 0.000000 0.000000
vt 1.000000 0.000000
vt 1.000000 1.000000
vt 0.000000 1.000000
vt 0.000000 0.000000
vt 1.000000 0.000000
vt 1.000000 1.000000
vt 0.000000 1.000000
vt 0.000000 0.000000
vt 1.000000 0.000000
vt 1.000000 1.000000
vt 0.000000 1.000000
vt 0.000000 0.000000
vt 1.000000 0.000000
vt 1.000000 1.000000
vt 0.000000 1.000000
vt 0.000000 0.000000
vt 1.000000 0.000000
vt 1.000000 1.000000
vt 0.000000 1.000000
vt 0.000000 0.000000
vt 1.000000 0.000000
vt 1.000000 1.000000
vt 0.000000 1.000000
vt 0.000000 0.000000
vt 1.000000 0.000000
vt 1.000000 1.000000
vt 0.000000 1.000000
vt 0.000000 0.000000
vt 1.000000 0.000000
vt 1.000000 1.000000
vt 0.000000 1.000000
vt 0.000000 0.000000
vt 1.000000 0.000000
vt 1.000000 1.000000
vt 0.000000 1.000000
vt 0.000000 0.000000
vt 1.000000 0.000000
vt 1.000000 1.000000
vt 0.000000 1.000000
vt 0.000000 0.000000
vt 1.000000 0.000000
vt 1.000000 1.000000
vt 0.000000 1.000000
vt 0.000000 0.000000
vt 1.000000 0.000000
vt 1.000000 1.000000
vt 0.000000 1.000000
vt 0.000000 0.000000
vt 1.000000 0.000000
vt 1.000000 1.000000
vt 0.000000 1.000000
vt 0.000000 0.000000
vt 1.000000 0.000000
vt 1.000000 1.000000
vt 0.000000 1.000000
vt 0.000000 0.000000
vt 1.000000 0.000000
vt 1.000000 1.000000
vt 0.000000 1.000000
vt 0.000000 0.000000
vt 1.000000 0.000000
vt 1.000000 1.000000
vt 0.000000 1.000000
vt 0.000000 0.000000
vt 1.000000 0.000000
vt 1.000000 1.000000
vt 0.000000 1.000000
vt 0.000000 0.000000
vt 1.000000 0.000000
vt 1.000000 1.000000
vt 0.000000 1.000000
vt 0.000000 0.000000
vt 1.000000 0.000000
vt 1.000000 1.000000
vt 0.000000 1.000000
vt 0.000000 0.000000
vt 1.000000 0.000000
vt 1.000000 1.000000
vt 0.000000 1.000000
vt 0.000000 0.000000
vt 1.000000 0.000000
vt 1.000000 1.000000
vt 0.000000 1.000000
vt 0.000000 0.000000
vt 1.000000 0.000000
vt 1.000000 1.000000
vt 0.000000 1.000000
vt 0.000000 0.000000
vt 1.000000 0.000000
vt 1.000000 1.000000
vt 0.000000 1.000000
vt 0.000000 0.000000
vt 1.000000 0.000000
vt 1.000000 1.000000
vt 0.000000 1.000000
vt 0.000000 0.000000
vt 1.000000 0.000000
vt 1.000000 1.000000
vt 0.000000 1.000000
vt 0.000000 0.000000
vt 1.000000 0.000000
vt 1.000000 1.000000
vt 0.000000 1.000000
vt 0.000000 0.000000
vt 1.000000 0.000000
vt 1.000000 1.000000
vt 0.000000 1.000000
vt 0.000000 0.000000
vt 1.000000 0.000000
vt 1.000000 1.000000
vt 0.000000 1.000000
vt 0.000000 0.000000
vt 1.000000 0.000000
vt 1.000000 1.000000
vt 0.000000 1.000000
vt 0.000000 0.000000
vt 1.000000 0.000000
vt 1.000000 1.000000
vt 0.000000 1.000000
vt 0.000000 0.000000
vt 1.000000 0.000000
vt 1.000000 1.000000
vt 0.000000 1.000000
vt 0.000000 0.000000
vt 1.000000 0.000000
vt 1.000000 1.000000
vt 0.000000 1.000000
vt 0.000000 0.000000
vt 1.000000 0.000000
vt 1.000000 1.000000
vt 0.000000 1.000000
vt 0.000000 0.000000
vt 1.000000 0.000000
vt 1.000000 1.000000
vt 0.000000 1.000000
vt 0.000000 0.000000
vt 1.000000 0.000000
vt 1.000000 1.000000
vt 0.000000 1.000000
vt 0.000000 0.000000
vt 1.000000 0.000000
vt 1.000000 1.000000
vt 0.000000 1.000000
vt 0.000000 0.000000
vt 1.000000 0.000000
vt 1.000000 1.000000
vt 0.000000 1.000000
vt 0.000000 0.000000
vt 1.000000 0.000000
vt 1.000000 1.000000
vt 0.000000 1.000000
vt 0.000000 0.000000
vt 1.000000 0.000000
vt 1.000000 1.000000
vt 0.000000 1.000000
vt 0.000000 0.000000
vt 1.000000 0.000000
vt 1.000000 1.000000
vt 0.000000 1.000000
vt 0.000000 0.000000
vt 1.000000 0.000000
vt 1.000000 1.000000
vt 0.000000 1.000000
vt 0.000000 0.000000
vt 1.000000 0.000000
vt 1.000000 1.000000
vt 0.000000 1.000000
vt 0.000000 0.000000
vt 1.000000 0.000000
vt 1.000000 1.000000
vt 0.000000 1.000000
vt 0.000000 0.000000
vt 1.000000 0.000000
vt 1.000000 1.000000
vt 0.000000 1.000000
vt 0.000000 0.000000
vt 1.000000 0.000000
vt 1.000000 1.000000
vt 0.000000 1.000000
vt 0.000000 0.000000
vt 1.000000 0.000000
vt 1.000000 1.000000
vt 0.000000 1.000000
vt 0.000000 0.000000
vt 1.000000 0.000000
vt 1.000000 1.000000
vt 0.000000 1.000000
vt 0.000000 0.000000
vt 1.000000 0.000000
vt 1.000000 1.000000
vt 0.000000 1.000000
vt 0.000000 0.000000
vt 1.000000 0.000000
vt 1.000000 1.000000
vt 0.000000 1.000000
vt 0.000000 0.000000
vt 1.000000 0.000000
vt 1.000000 1.000000
vt 0.000000 1.000000
vt 0.000000 0.000000
vt 1.000000 0.000000
vt 1.000000 1.000000
vt 0.000000 1.000000
vt 0.000000 0.000000
vt 1.000000 0.000000
vt 1.000000 1.000000
vt 0.000000 1.000000
vt 0.000000 0.000000
vt 1.000000 0.000000
vt 1.000000 1.000000
vt 0.000000 1.000000
vt 0.000000 0.000000
vt 1.000000 0.000000
vt 1.000000 1.000000
vt 0.000000 1.000000
vt 0.000000 0.000000
vt 1.000000 0.000000
vt 1.000000 1.000000
vt 0.000000 1.000000
vt 0.000000 0.000000
vt 1.000000 0.000000
vt 1.000000 1.000000
vt 0.000000 1.000000
vt 0.000000 0.000000
vt 1.000000 0.000000
vt 1.000000 1.000000
vt 0.000000 1.000000
vt 0.000000 0.000000
vt 1.000000 0.000000
vt 1.000000 1.000000
vt 0.000000 1.000000
vt 0.000000 0.000000
vt 1.000000 0.000000
vt 1.000000 1.000000
vt 0.000000 1.000000
vt 0.000000 0.000000
vt 1.000000 0.000000
vt 1.000000 1.000000
vt 0.000000 1.000000
vt 0.000000 0.000000
vt 1.000000 0.000000
vt 1.000000 1.000000
vt 0.000000 1.000000
vt 0.000000 0.000000
vt 1.000000 0.000000
vt 1.000000 1.000000
vt 0.000000 1.000000
vt 0.000000 0.000000
vt 1.000000 0.000000
vt 1.000000 1.000000
vt 0.000000 1.000000
vn -0.965926 0.000000 -0.258819
vn -0.707107 0.000000 -0.707107
vn -0.258819 0.000000 -0.965926
vn 0.258819 0.000000 -0.965926
vn 0.707107 0.000000 -0.707107
vn 0.965926 0.000000 -0.258819
vn 0.965926 0.000000 0.258819
vn 0.707107 0.000000 0.707107
vn 0.258819 0.000000 0.965926
vn -0.258819 0.000000 0.965926
vn -0.707107 0.000000 0.707107
vn -0.965926 0.000000 0.258819
vn 0.000000 1.000000 0.000000
vn 0.000000 -1.000000 0.000000
vn 0.000000 0.000000 1.000000
vn 0.000000 0.000000 -1.000000
vn 1.000000 0.000000 0.000000
vn -1.000000 0.000000 0.000000
vn 0.000000 -1.000000 0.000000
vn -0.000000 1.000000 0.000000
vn 0.000000 0.000000 1.000000
vn 0.000000 0.000000 -1.000000
vn 1.000000 0.000000 0.000000
vn -1.000000 0.000000 0.000000
vn 0.000000 -1.000000 0.000000
vn -0.000000 1.000000 0.000000
vn 0.000000 0.000000 1.000000
vn 0.000000 0.000000 -1.000000
vn 1.000000 0.000000 0.000000
vn -1.000000 0.000000 0.000000
vn 0.000000 -1.000000 0.000000
vn -0.000000 1.000000 0.000000
vn 0.000000 0.000000 1.000000
vn 0.000000 0.000000 -1.000000
vn 1.000000 0.000000 0.000000
vn -1.000000 0.000000 0.000000
vn 0.000000 -1.000000 0.000000
vn -0.000000 1.000000 0.000000
vn 0.000000 0.000000 1.000000
vn 0.000000 0.000000 -1.000000
vn 1.000000 0.000000 0.000000
vn -1.000000 0.000000 0.000000
vn 0.000000 -1.000000 0.000000
vn -0.000000 1.000000 0.000000
vn 0.000000 0.000000 1.000000
vn 0.000000 0.000000 -1.000000
vn 1.000000 0.000000 0.000000
vn -1.000000 0.000000 0.000000
vn 0.000000 -1.000000 0.000000
vn -0.000000 1.000000 0.000000
vn 0.000000 0.000000 1.000000
vn 0.000000 0.000000 -1.000000
vn 1.000000 0.000000 0.000000
vn -1.000000 0.000000 0.000000
vn 0.000000 -1.000000 0.000000
vn -0.000000 1.000000 0.000000
vn 0.000000 0.000000 1.000000
vn 0.000000 0.000000 -1.000000
vn 1.000000 0.000000 0.000000
vn -1.000000 0.000000 0.000000
vn 0.000000 -1.000000 0.000000
vn -0.000000 1.000000 0.000000
vn 0.000000 0.000000 1.000000
vn 0.000000 0.000000 -1.000000
vn 1.000000 0.000000 0.000000
vn -1.000000 0.000000 0.000000
vn 0.000000 -1.000000 0.000000
vn -0.000000 1.000000 0.000000
vn 0.000000 0.000000 1.000000
vn 0.000000 0.000000 -1.000000
vn 1.000000 0.000000 0.000000
vn -1.000000 0.000000 0.000000
vn 0.000000 -1.000000 0.000000
vn -0.000000 1.000000 0.000000
vn 0.000000 0.000000 1.000000
vn 0.000000 0.000000 -1.000000
vn 1.000000 0.000000 0.000000
vn -1.000000 0.000000 0.000000
vn 0.000000 -1.000000 0.000000
vn -0.000000 1.000000 0.000000
usemtl metal
f 1/1/1 3/2/1 4/3/1 2/4/1
f 3/5/2 5/6/2 6/7/2 4/8/2
f 5/9/3 7/10/3 8/11/3 6/12/3
f 7/13/4 9/14/4 10/15/4 8/16/4
f 9/17/5 11/18/5 12/19/5 10/20/5
f 11/21/6 13/22/6 14/23/6 12/24/6
f 13/25/7 15/26/7 16/27/7 14/28/7
f 15/29/8 17/30/8 18/31/8 16/32/8
f 17/33/9 19/34/9 20/35/9 18/36/9
f 19/37/10 21/38/10 22/39/10 20/40/10
f 21/41/11 23/42/11 24/43/11 22/44/11
f 23/45/12 1/46/12 2/47/12 24/48/12
f 23/49/13 21/50/13 19/51/13 17/52/13 15/53/13 13/54/13 11/55/13 9/56/13 7/57/13 5/58/13 3/59/13 1/60/13
f 2/61/14 4/62/14 6/63/14 8/64/14 10/65/14 12/66/14 14/67/14 16/68/14 18/69/14 20/70/14 22/71/14 24/72/14
f 25/73/15 26/74/15 27/75/15 28/76/15
f 30/77/16 29/78/16 32/79/16 31/80/16
f 29/81/17 25/82/17 28/83/17 32/84/17
f 26/85/18 30/86/18 31/87/18 27/88/18
f 28/89/19 27/90/19 31/91/19 32/92/19
f 29/93/20 30/94/20 26/95/20 25/96/20
f 33/97/21 34/98/21 35/99/21 36/100/21
f 38/101/22 37/102/22 40/103/22 39/104/22
f 37/105/23 33/106/23 36/107/23 40/108/23
f 34/109/24 38/110/24 39/111/24 35/112/24
f 36/113/25 35/114/25 39/115/25 40/116/25
f 37/117/26 38/118/26 34/119/26 33/120/26
f 41/121/27 42/122/27 43/123/27 44/124/27
f 46/125/28 45/126/28 48/127/28 47/128/28
f 45/129/29 41/130/29 44/131/29 48/132/29
f 42/133/30 46/134/30 47/135/30 43/136/30
f 44/137/31 43/138/31 47/139/31 48/140/31
f 45/141/32 46/142/32 42/143/32 41/144/32
usemtl bed_sheet
f 49/145/33 50/146/33 51/147/33 52/148/33
f 54/149/34 53/150/34 56/151/34 55/152/34
f 53/153/35 49/154/35 52/155/35 56/156/35
f 50/157/36 54/158/36 55/159/36 51/160/36
f 52/161/37 51/162/37 55/163/37 56/164/37
f 53/165/38 54/166/38 50/167/38 49/168/38
usemtl fluid_blue
f 57/169/39 58/170/39 59/171/39 60/172/39
f 62/173/40 61/174/40 64/175/40 63/176/40
f 61/177/41 57/178/41 60/179/41 64/180/41
f 58/181/42 62/182/42 63/183/42 59/184/42
f 60/185/43 59/186/43 63/187/43 64/188/43
f 61/189/44 62/190/44 58/191/44 57/192/44
usemtl metal
f 65/193/45 66/194/45 67/195/45 68/196/45
f 70/197/46 69/198/46 72/199/46 71/200/46
f 69/201/47 65/202/47 68/203/47 72/204/47
f 66/205/48 70/206/48 71/207/48 67/208/48
f 68/209/49 67/210/49 71/211/49 72/212/49
f 69/213/50 70/214/50 66/215/50 65/216/50
usemtl fluid_blue
f 73/217/51 74/218/51 75/219/51 76/220/51
f 78/221/52 77/222/52 80/223/52 79/224/52
f 77/225/53 73/226/53 76/227/53 80/228/53
f 74/229/54 78/230/54 79/231/54 75/232/54
f 76/233/55 75/234/55 79/235/55 80/236/55
f 77/237/56 78/238/56 74/239/56 73/240/56
usemtl rubber_dark
f 81/241/57 82/242/57 83/243/57 84/244/57
f 86/245/58 85/246/58 88/247/58 87/248/58
f 85/249/59 81/250/59 84/251/59 88/252/59
f 82/253/60 86/254/60 87/255/60 83/256/60
f 84/257/61 83/258/61 87/259/61 88/260/61
f 85/261/62 86/262/62 82/263/62 81/264/62
f 89/265/63 90/266/63 91/267/63 92/268/63
f 94/269/64 93/270/64 96/271/64 95/272/64
f 93/273/65 89/274/65 92/275/65 96/276/65
f 90/277/66 94/278/66 95/279/66 91/280/66
f 92/281/67 91/282/67 95/283/67 96/284/67
f 93/285/68 94/286/68 90/287/68 89/288/68
f 97/289/69 98/290/69 99/291/69 100/292/69
f 102/293/70 101/294/70 104/295/70 103/296/70
f 101/297/71 97/298/71 100/299/71 104/300/71
f 98/301/72 102/302/72 103/303/72 99/304/72
f 100/305/73 99/306/73 103/307/73 104/308/73
f 101/309/74 102/310/74 98/311/74 97/312/74
usemtl metal
f 105/313/75 106/314/75 107/315/75 108/316/75
f 110/317/76 109/318/76 112/319/76 111/320/76
f 109/321/77 105/322/77 108/323/77 112/324/77
f 106/325/78 110/326/78 111/327/78 107/328/78
f 108/329/79 107/330/79 111/331/79 112/332/79
f 109/333/80 110/334/80 106/335/80 105/336/80
