# Generated by tools/generate_hospital_ward_assets.py
mtllib hospital_ward_materials.mtl
o ward_overbed_light
v -0.635000 2.005000 -0.040000
v 0.635000 2.005000 -0.040000
v 0.635000 2.115000 -0.040000
v -0.635000 2.115000 -0.040000
v -0.635000 2.005000 0.040000
v 0.635000 2.005000 0.040000
v 0.635000 2.115000 0.040000
v -0.635000 2.115000 0.040000
v -0.670000 2.005000 -0.005000
v 0.670000 2.005000 -0.005000
v 0.670000 2.115000 -0.005000
v -0.670000 2.115000 -0.005000
v -0.670000 2.005000 0.005000
v 0.670000 2.005000 0.005000
v 0.670000 2.115000 0.005000
v -0.670000 2.115000 0.005000
v -0.600000 2.005000 -0.005000
v -0.600000 2.115000 -0.005000
v -0.610251 2.005000 0.019749
v -0.610251 2.115000 0.019749
v -0.635000 2.005000 0.030000
v -0.635000 2.115000 0.030000
v -0.659749 2.005000 0.019749
v -0.659749 2.115000 0.019749
v -0.670000 2.005000 -0.005000
v -0.670000 2.115000 -0.005000
v -0.659749 2.005000 -0.029749
v -0.659749 2.115000 -0.029749
v -0.635000 2.005000 -0.040000
v -0.635000 2.115000 -0.040000
v -0.610251 2.005000 -0.029749
v -0.610251 2.115000 -0.029749
v -0.600000 2.005000 0.005000
v -0.600000 2.115000 0.005000
v -0.610251 2.005000 0.029749
v -0.610251 2.115000 0.029749
v -0.635000 2.005000 0.040000
v -0.635000 2.115000 0.040000
v -0.659749 2.005000 0.029749
v -0.659749 2.115000 0.029749
v -0.670000 2.005000 0.005000
v -0.670000 2.115000 0.005000
v -0.659749 2.005000 -0.019749
v -0.659749 2.115000 -0.019749
v -0.635000 2.005000 -0.030000
v -0.635000 2.115000 -0.030000
v -0.610251 2.005000 -0.019749
v -0.610251 2.115000 -0.019749
v 0.670000 2.005000 -0.005000
v 0.670000 2.115000 -0.005000
v 0.659749 2.005000 0.019749
v 0.659749 2.115000 0.019749
v 0.635000 2.005000 0.030000
v 0.635000 2.115000 0.030000
v 0.610251 2.005000 0.019749
v 0.610251 2.115000 0.019749
v 0.600000 2.005000 -0.005000
v 0.600000 2.115000 -0.005000
v 0.610251 2.005000 -0.029749
v 0.610251 2.115000 -0.029749
v 0.635000 2.005000 -0.040000
v 0.635000 2.115000 -0.040000
v 0.659749 2.005000 -0.029749
v 0.659749 2.115000 -0.029749
v 0.670000 2.005000 0.005000
v 0.670000 2.115000 0.005000
v 0.659749 2.005000 0.029749
v 0.659749 2.115000 0.029749
v 0.635000 2.005000 0.040000
v 0.635000 2.115000 0.040000
v 0.610251 2.005000 0.029749
v 0.610251 2.115000 0.029749
v 0.600000 2.005000 0.005000
v 0.600000 2.115000 0.005000
v 0.610251 2.005000 -0.019749
v 0.610251 2.115000 -0.019749
v 0.635000 2.005000 -0.030000
v 0.635000 2.115000 -0.030000
v 0.659749 2.005000 -0.019749
v 0.659749 2.115000 -0.019749
v -0.540000 1.990000 -0.019000
v 0.540000 1.990000 -0.019000
v -0.540000 1.974718 -0.023966
v 0.540000 1.974718 -0.023966
v -0.540000 1.965273 -0.036966
v 0.540000 1.965273 -0.036966
v -0.540000 1.965273 -0.053034
v 0.540000 1.965273 -0.053034
v -0.540000 1.974718 -0.066034
v 0.540000 1.974718 -0.066034
v -0.540000 1.990000 -0.071000
v 0.540000 1.990000 -0.071000
v -0.540000 2.005282 -0.066034
v 0.540000 2.005282 -0.066034
v -0.540000 2.014727 -0.053034
v 0.540000 2.014727 -0.053034
v -0.540000 2.014727 -0.036966
v 0.540000 2.014727 -0.036966
v -0.540000 2.005282 -0.023966
v 0.540000 2.005282 -0.023966
v -0.390000 1.942000 -0.061000
v -0.210000 1.942000 -0.061000
v -0.210000 1.968000 -0.061000
v -0.390000 1.968000 -0.061000
v -0.390000 1.942000 -0.035000
v -0.210000 1.942000 -0.035000
v -0.210000 1.968000 -0.035000
v -0.390000 1.968000 -0.035000
v 0.270000 1.944000 -0.061000
v 0.410000 1.944000 -0.061000
v 0.410000 1.966000 -0.061000
v 0.270000 1.966000 -0.061000
v 0.270000 1.944000 -0.035000
v 0.410000 1.944000 -0.035000
v 0.410000 1.966000 -0.035000
v 0.270000 1.966000 -0.035000
v -0.602500 1.940000 -0.040000
v -0.557500 1.940000 -0.040000
v -0.557500 2.060000 -0.040000
v -0.602500 2.060000 -0.040000
v -0.602500 1.940000 0.000000
v -0.557500 1.940000 0.000000
v -0.557500 2.060000 0.000000
v -0.602500 2.060000 0.000000
v 0.557500 1.940000 -0.040000
v 0.602500 1.940000 -0.040000
v 0.602500 2.060000 -0.040000
v 0.557500 2.060000 -0.040000
v 0.557500 1.940000 0.000000
v 0.602500 1.940000 0.000000
v 0.602500 2.060000 0.000000
v 0.557500 2.060000 0.000000
vt 0.000000 0.000000
vt 1.000000 0.000000
vt 1.000000 1.000000
vt 0.000000 1.000000
vt 0.000000 0.000000
vt 1.000000 0.000000
vt 1.000000 1.000000
vt 0.000000 1.000000
vt 0.000000 0.000000
vt 1.000000 0.000000
vt 1.000000 1.000000
vt 0.000000 1.000000
vt 0.000000 0.000000
vt 1.000000 0.000000
vt 1.000000 1.000000
vt 0.000000 1.000000
vt 0.000000 0.000000
vt 1.000000 0.000000
vt 1.000000 1.000000
vt 0.000000 1.000000
vt 0.000000 0.000000
vt 1.000000 0.000000
vt 1.000000 1.000000
vt 0.000000 1.000000
vt 0.000000 0.000000
vt 1.000000 0.000000
vt 1.000000 1.000000
vt 0.000000 1.000000
vt 0.000000 0.000000
vt 1.000000 0.000000
vt 1.000000 1.000000
vt 0.000000 1.000000
vt 0.000000 0.000000
vt 1.000000 0.000000
vt 1.000000 1.000000
vt 0.000000 1.000000
vt 0.000000 0.000000
vt 1.000000 0.000000
vt 1.000000 1.000000
vt 0.000000 1.000000
vt 0.000000 0.000000
vt 1.000000 0.000000
vt 1.000000 1.000000
vt 0.000000 1.000000
vt 0.000000 0.000000
vt 1.000000 0.000000
vt 1.000000 1.000000
vt 0.000000 1.000000
vt 0.000000 0.000000
vt 1.000000 0.000000
vt 1.000000 1.000000
vt 0.000000 1.000000
vt 0.000000 0.000000
vt 1.000000 0.000000
vt 1.000000 1.000000
vt 0.000000 1.000000
vt 0.000000 0.000000
vt 1.000000 0.000000
vt 1.000000 1.000000
vt 0.000000 1.000000
vt 0.000000 0.000000
vt 1.000000 0.000000
vt 1.000000 1.000000
vt 0.000000 1.000000
vt 0.000000 0.000000
vt 1.000000 0.000000
vt 1.000000 1.000000
vt 0.000000 1.000000
vt 0.000000 0.000000
vt 1.000000 0.000000
vt 1.000000 1.000000
vt 0.000000 1.000000
vt 0.000000 0.000000
vt 1.000000 0.000000
vt 1.000000 1.000000
vt 0.000000 1.000000
vt 0.000000 0.000000
vt 1.000000 0.000000
vt 1.000000 1.000000
vt 0.000000 1.000000
vt 1.000000 0.500000
vt 0.853553 0.853553
vt 0.500000 1.000000
vt 0.146447 0.853553
vt 0.000000 0.500000
vt 0.146447 0.146447
vt 0.500000 0.000000
vt 0.853553 0.146447
vt 1.000000 0.500000
vt 0.853553 0.853553
vt 0.500000 1.000000
vt 0.146447 0.853553
vt 0.000000 0.500000
vt 0.146447 0.146447
vt 0.500000 0.000000
vt 0.853553 0.146447
vt 0.000000 0.000000
vt 1.000000 0.000000
vt 1.000000 1.000000
vt 0.000000 1.000000
vt 0.000000 0.000000
vt 1.000000 0.000000
vt 1.000000 1.000000
vt 0.000000 1.000000
vt 0.000000 0.000000
vt 1.000000 0.000000
vt 1.000000 1.000000
vt 0.000000 1.000000
vt 0.000000 0.000000
vt 1.000000 0.000000
vt 1.000000 1.000000
vt 0.000000 1.000000
vt 0.000000 0.000000
vt 1.000000 0.000000
vt 1.000000 1.000000
vt 0.000000 1.000000
vt 0.000000 0.000000
vt 1.000000 0.000000
vt 1.000000 1.000000
vt 0.000000 1.000000
vt 0.000000 0.000000
vt 1.000000 0.000000
vt 1.000000 1.000000
vt 0.000000 1.000000
vt 0.000000 0.000000
vt 1.000000 0.000000
vt 1.000000 1.000000
vt 0.000000 1.000000
vt 1.000000 0.500000
vt 0.853553 0.853553
vt 0.500000 1.000000
vt 0.146447 0.853553
vt 0.000000 0.500000
vt 0.146447 0.146447
vt 0.500000 0.000000
vt 0.853553 0.146447
vt 1.000000 0.500000
vt 0.853553 0.853553
vt 0.500000 1.000000
vt 0.146447 0.853553
vt 0.000000 0.500000
vt 0.146447 0.146447
vt 0.500000 0.000000
vt 0.853553 0.146447
vt 0.000000 0.000000
vt 1.000000 0.000000
vt 1.000000 1.000000
vt 0.000000 1.000000
vt 0.000000 0.000000
vt 1.000000 0.000000
vt 1.000000 1.000000
vt 0.000000 1.000000
vt 0.000000 0.000000
vt 1.000000 0.000000
vt 1.000000 1.000000
vt 0.000000 1.000000
vt 0.000000 0.000000
vt 1.000000 0.000000
vt 1.000000 1.000000
vt 0.000000 1.000000
vt 0.000000 0.000000
vt 1.000000 0.000000
vt 1.000000 1.000000
vt 0.000000 1.000000
vt 0.000000 0.000000
vt 1.000000 0.000000
vt 1.000000 1.000000
vt 0.000000 1.000000
vt 0.000000 0.000000
vt 1.000000 0.000000
vt 1.000000 1.000000
vt 0.000000 1.000000
vt 0.000000 0.000000
vt 1.000000 0.000000
vt 1.000000 1.000000
vt 0.000000 1.000000
vt 1.000000 0.500000
vt 0.853553 0.853553
vt 0.500000 1.000000
vt 0.146447 0.853553
vt 0.000000 0.500000
vt 0.146447 0.146447
vt 0.500000 0.000000
vt 0.853553 0.146447
vt 1.000000 0.500000
vt 0.853553 0.853553
vt 0.500000 1.000000
vt 0.146447 0.853553
vt 0.000000 0.500000
vt 0.146447 0.146447
vt 0.500000 0.000000
vt 0.853553 0.146447
vt 0.000000 0.000000
vt 1.000000 0.000000
vt 1.000000 1.000000
vt 0.000000 1.000000
vt 0.000000 0.000000
vt 1.000000 0.000000
vt 1.000000 1.000000
vt 0.000000 1.000000
vt 0.000000 0.000000
vt 1.000000 0.000000
vt 1.000000 1.000000
vt 0.000000 1.000000
vt 0.000000 0.000000
vt 1.000000 0.000000
vt 1.000000 1.000000
vt 0.000000 1.000000
vt 0.000000 0.000000
vt 1.000000 0.000000
vt 1.000000 1.000000
vt 0.000000 1.000000
vt 0.000000 0.000000
vt 1.000000 0.000000
vt 1.000000 1.000000
vt 0.000000 1.000000
vt 0.000000 0.000000
vt 1.000000 0.000000
vt 1.000000 1.000000
vt 0.000000 1.000000
vt 0.000000 0.000000
vt 1.000000 0.000000
vt 1.000000 1.000000
vt 0.000000 1.000000
vt 1.000000 0.500000
vt 0.853553 0.853553
vt 0.500000 1.000000
vt 0.146447 0.853553
vt 0.000000 0.500000
vt 0.146447 0.146447
vt 0.500000 0.000000
vt 0.853553 0.146447
vt 1.000000 0.500000
vt 0.853553 0.853553
vt 0.500000 1.000000
vt 0.146447 0.853553
vt 0.000000 0.500000
vt 0.146447 0.146447
vt 0.500000 0.000000
vt 0.853553 0.146447
vt 0.000000 0.000000
vt 1.000000 0.000000
vt 1.000000 1.000000
vt 0.000000 1.000000
vt 0.000000 0.000000
vt 1.000000 0.000000
vt 1.000000 1.000000
vt 0.000000 1.000000
vt 0.000000 0.000000
vt 1.000000 0.000000
vt 1.000000 1.000000
vt 0.000000 1.000000
vt 0.000000 0.000000
vt 1.000000 0.000000
vt 1.000000 1.000000
vt 0.000000 1.000000
vt 0.000000 0.000000
vt 1.000000 0.000000
vt 1.000000 1.000000
vt 0.000000 1.000000
vt 0.000000 0.000000
vt 1.000000 0.000000
vt 1.000000 1.000000
vt 0.000000 1.000000
vt 0.000000 0.000000
vt 1.000000 0.000000
vt 1.000000 1.000000
vt 0.000000 1.000000
vt 0.000000 0.000000
vt 1.000000 0.000000
vt 1.000000 1.000000
vt 0.000000 1.000000
vt 0.000000 0.000000
vt 1.000000 0.000000
vt 1.000000 1.000000
vt 0.000000 1.000000
vt 0.000000 0.000000
vt 1.000000 0.000000
vt 1.000000 1.000000
vt 0.000000 1.000000
vt 1.000000 0.500000
vt 0.904508 0.793893
vt 0.654508 0.975528
vt 0.345492 0.975528
vt 0.095492 0.793893
vt 0.000000 0.500000
vt 0.095492 0.206107
vt 0.345492 0.024472
vt 0.654508 0.024472
vt 0.904508 0.206107
vt 1.000000 0.500000
vt 0.904508 0.793893
vt 0.654508 0.975528
vt 0.345492 0.975528
vt 0.095492 0.793893
vt 0.000000 0.500000
vt 0.095492 0.206107
vt 0.345492 0.024472
vt 0.654508 0.024472
vt 0.904508 0.206107
vt 0.000000 0.000000
vt 1.000000 0.000000
vt 1.000000 1.000000
vt 0.000000 1.000000
vt 0.000000 0.000000
vt 1.000000 0.000000
vt 1.000000 1.000000
vt 0.000000 1.000000
vt 0.000000 0.000000
vt 1.000000 0.000000
vt 1.000000 1.000000
vt 0.000000 1.000000
vt 0.000000 0.000000
vt 1.000000 0.000000
vt 1.000000 1.000000
vt 0.000000 1.000000
vt 0.000000 0.000000
vt 1.000000 0.000000
vt 1.000000 1.000000
vt 0.000000 1.000000
vt 0.000000 0.000000
vt 1.000000 0.000000
vt 1.000000 1.000000
vt 0.000000 1.000000
vt 0.000000 0.000000
vt 1.000000 0.000000
vt 1.000000 1.000000
vt 0.000000 1.000000
vt 0.000000 0.000000
vt 1.000000 0.000000
vt 1.000000 1.000000
vt 0.000000 1.000000
vt 0.000000 0.000000
vt 1.000000 0.000000
vt 1.000000 1.000000
vt 0.000000 1.000000
vt 0.000000 0.000000
vt 1.000000 0.000000
vt 1.000000 1.000000
vt 0.000000 1.000000
vt 0.000000 0.000000
vt 1.000000 0.000000
vt 1.000000 1.000000
vt 0.000000 1.000000
vt 0.000000 0.000000
vt 1.000000 0.000000
vt 1.000000 1.000000
vt 0.000000 1.000000
vt 0.000000 0.000000
vt 1.000000 0.000000
vt 1.000000 1.000000
vt 0.000000 1.000000
vt 0.000000 0.000000
vt 1.000000 0.000000
vt 1.000000 1.000000
vt 0.000000 1.000000
vt 0.000000 0.000000
vt 1.000000 0.000000
vt 1.000000 1.000000
vt 0.000000 1.000000
vt 0.000000 0.000000
vt 1.000000 0.000000
vt 1.000000 1.000000
vt 0.000000 1.000000
vt 0.000000 0.000000
vt 1.000000 0.000000
vt 1.000000 1.000000
vt 0.000000 1.000000
vt 0.000000 0.000000
vt 1.000000 0.000000
vt 1.000000 1.000000
vt 0.000000 1.000000
vt 0.000000 0.000000
vt 1.000000 0.000000
vt 1.000000 1.000000
vt 0.000000 1.000000
vt 0.000000 0.000000
vt 1.000000 0.000000
vt 1.000000 1.000000
vt 0.000000 1.000000
vt 0.000000 0.000000
vt 1.000000 0.000000
vt 1.000000 1.000000
vt 0.000000 1.000000
vt 0.000000 0.000000
vt 1.000000 0.000000
vt 1.000000 1.000000
vt 0.000000 1.000000
vt 0.000000 0.000000
vt 1.000000 0.000000
vt 1.000000 1.000000
vt 0.000000 1.000000
vt 0.000000 0.000000
vt 1.000000 0.000000
vt 1.000000 1.000000
vt 0.000000 1.000000
vn 0.000000 0.000000 1.000000
vn 0.000000 0.000000 -1.000000
vn 1.000000 0.000000 0.000000
vn -1.000000 0.000000 0.000000
vn 0.000000 -1.000000 0.000000
vn -0.000000 1.000000 0.000000
vn 0.000000 0.000000 1.000000
vn 0.000000 0.000000 -1.000000
vn 1.000000 0.000000 0.000000
vn -1.000000 0.000000 0.000000
vn 0.000000 -1.000000 0.000000
vn -0.000000 1.000000 0.000000
vn -0.923880 0.000000 -0.382683
vn -0.382683 0.000000 -0.923880
vn 0.382683 0.000000 -0.923880
vn 0.923880 0.000000 -0.382683
vn 0.923880 0.000000 0.382683
vn 0.382683 0.000000 0.923880
vn -0.382683 0.000000 0.923880
vn -0.923880 0.000000 0.382683
vn 0.000000 1.000000 0.000000
vn 0.000000 -1.000000 0.000000
vn -0.923880 0.000000 -0.382683
vn -0.382683 0.000000 -0.923880
vn 0.382683 0.000000 -0.923880
vn 0.923880 0.000000 -0.382683
vn 0.923880 0.000000 0.382683
vn 0.382683 0.000000 0.923880
vn -0.382683 0.000000 0.923880
vn -0.923880 0.000000 0.382683
vn 0.000000 1.000000 0.000000
vn 0.000000 -1.000000 0.000000
vn -0.923880 0.000000 -0.382683
vn -0.382683 0.000000 -0.923880
vn 0.382683 0.000000 -0.923880
vn 0.923880 0.000000 -0.382683
vn 0.923880 0.000000 0.382683
vn 0.382683 0.000000 0.923880
vn -0.382683 0.000000 0.923880
vn -0.923880 0.000000 0.382683
vn 0.000000 1.000000 0.000000
vn 0.000000 -1.000000 0.000000
vn -0.923880 0.000000 -0.382683
vn -0.382683 0.000000 -0.923880
vn 0.382683 0.000000 -0.923880
vn 0.923880 0.000000 -0.382683
vn 0.923880 0.000000 0.382683
vn 0.382683 0.000000 0.923880
vn -0.382683 0.000000 0.923880
vn -0.923880 0.000000 0.382683
vn 0.000000 1.000000 0.000000
vn 0.000000 -1.000000 0.000000
vn 0.000000 -0.309017 0.951057
vn 0.000000 -0.809017 0.587785
vn 0.000000 -1.000000 0.000000
vn 0.000000 -0.809017 -0.587785
vn 0.000000 -0.309017 -0.951057
vn 0.000000 0.309017 -0.951057
vn 0.000000 0.809017 -0.587785
vn 0.000000 1.000000 0.000000
vn 0.000000 0.809017 0.587785
vn 0.000000 0.309017 0.951057
vn -1.000000 0.000000 0.000000
vn 1.000000 0.000000 0.000000
vn 0.000000 0.000000 1.000000
vn 0.000000 0.000000 -1.000000
vn 1.000000 0.000000 0.000000
vn -1.000000 0.000000 0.000000
vn 0.000000 -1.000000 0.000000
vn -0.000000 1.000000 0.000000
vn 0.000000 0.000000 1.000000
vn 0.000000 0.000000 -1.000000
vn 1.000000 0.000000 0.000000
vn -1.000000 0.000000 0.000000
vn 0.000000 -1.000000 0.000000
vn -0.000000 1.000000 0.000000
vn 0.000000 0.000000 1.000000
vn 0.000000 0.000000 -1.000000
vn 1.000000 0.000000 0.000000
vn -1.000000 0.000000 0.000000
vn 0.000000 -1.000000 0.000000
vn -0.000000 1.000000 0.000000
vn 0.000000 0.000000 1.000000
vn 0.000000 0.000000 -1.000000
vn 1.000000 0.000000 0.000000
vn -1.000000 0.000000 0.000000
vn 0.000000 -1.000000 0.000000
vn -0.000000 1.000000 0.000000
usemtl metal
f 1/1/1 2/2/1 3/3/1 4/4/1
f 6/5/2 5/6/2 8/7/2 7/8/2
f 5/9/3 1/10/3 4/11/3 8/12/3
f 2/13/4 6/14/4 7/15/4 3/16/4
f 4/17/5 3/18/5 7/19/5 8/20/5
f 5/21/6 6/22/6 2/23/6 1/24/6
f 9/25/7 10/26/7 11/27/7 12/28/7
f 14/29/8 13/30/8 16/31/8 15/32/8
f 13/33/9 9/34/9 12/35/9 16/36/9
f 10/37/10 14/38/10 15/39/10 11/40/10
f 12/41/11 11/42/11 15/43/11 16/44/11
f 13/45/12 14/46/12 10/47/12 9/48/12
f 17/49/13 19/50/13 20/51/13 18/52/13
f 19/53/14 21/54/14 22/55/14 20/56/14
f 21/57/15 23/58/15 24/59/15 22/60/15
f 23/61/16 25/62/16 26/63/16 24/64/16
f 25/65/17 27/66/17 28/67/17 26/68/17
f 27/69/18 29/70/18 30/71/18 28/72/18
f 29/73/19 31/74/19 32/75/19 30/76/19
f 31/77/20 17/78/20 18/79/20 32/80/20
f 31/81/21 29/82/21 27/83/21 25/84/21 23/85/21 21/86/21 19/87/21 17/88/21
f 18/89/22 20/90/22 22/91/22 24/92/22 26/93/22 28/94/22 30/95/22 32/96/22
f 33/97/23 35/98/23 36/99/23 34/100/23
f 35/101/24 37/102/24 38/103/24 36/104/24
f 37/105/25 39/106/25 40/107/25 38/108/25
f 39/109/26 41/110/26 42/111/26 40/112/26
f 41/113/27 43/114/27 44/115/27 42/116/27
f 43/117/28 45/118/28 46/119/28 44/120/28
f 45/121/29 47/122/29 48/123/29 46/124/29
f 47/125/30 33/126/30 34/127/30 48/128/30
f 47/129/31 45/130/31 43/131/31 41/132/31 39/133/31 37/134/31 35/135/31 33/136/31
f 34/137/32 36/138/32 38/139/32 40/140/32 42/141/32 44/142/32 46/143/32 48/144/32
f 49/145/33 51/146/33 52/147/33 50/148/33
f 51/149/34 53/150/34 54/151/34 52/152/34
f 53/153/35 55/154/35 56/155/35 54/156/35
f 55/157/36 57/158/36 58/159/36 56/160/36
f 57/161/37 59/162/37 60/163/37 58/164/37
f 59/165/38 61/166/38 62/167/38 60/168/38
f 61/169/39 63/170/39 64/171/39 62/172/39
f 63/173/40 49/174/40 50/175/40 64/176/40
f 63/177/41 61/178/41 59/179/41 57/180/41 55/181/41 53/182/41 51/183/41 49/184/41
f 50/185/42 52/186/42 54/187/42 56/188/42 58/189/42 60/190/42 62/191/42 64/192/42
f 65/193/43 67/194/43 68/195/43 66/196/43
f 67/197/44 69/198/44 70/199/44 68/200/44
f 69/201/45 71/202/45 72/203/45 70/204/45
f 71/205/46 73/206/46 74/207/46 72/208/46
f 73/209/47 75/210/47 76/211/47 74/212/47
f 75/213/48 77/214/48 78/215/48 76/216/48
f 77/217/49 79/218/49 80/219/49 78/220/49
f 79/221/50 65/222/50 66/223/50 80/224/50
f 79/225/51 77/226/51 75/227/51 73/228/51 71/229/51 69/230/51 67/231/51 65/232/51
f 66/233/52 68/234/52 70/235/52 72/236/52 74/237/52 76/238/52 78/239/52 80/240/52
usemtl soft_light
f 81/241/53 83/242/53 84/243/53 82/244/53
f 83/245/54 85/246/54 86/247/54 84/248/54
f 85/249/55 87/250/55 88/251/55 86/252/55
f 87/253/56 89/254/56 90/255/56 88/256/56
f 89/257/57 91/258/57 92/259/57 90/260/57
f 91/261/58 93/262/58 94/263/58 92/264/58
f 93/265/59 95/266/59 96/267/59 94/268/59
f 95/269/60 97/270/60 98/271/60 96/272/60
f 97/273/61 99/274/61 100/275/61 98/276/61
f 99/277/62 81/278/62 82/279/62 100/280/62
f 99/281/63 97/282/63 95/283/63 93/284/63 91/285/63 89/286/63 87/287/63 85/288/63 83/289/63 81/290/63
f 82/291/64 84/292/64 86/293/64 88/294/64 90/295/64 92/296/64 94/297/64 96/298/64 98/299/64 100/300/64
usemtl warm_indicator
f 101/301/65 102/302/65 103/303/65 104/304/65
f 106/305/66 105/306/66 108/307/66 107/308/66
f 105/309/67 101/310/67 104/311/67 108/312/67
f 102/313/68 106/314/68 107/315/68 103/316/68
f 104/317/69 103/318/69 107/319/69 108/320/69
f 105/321/70 106/322/70 102/323/70 101/324/70
usemtl soft_light
f 109/325/71 110/326/71 111/327/71 112/328/71
f 114/329/72 113/330/72 116/331/72 115/332/72
f 113/333/73 109/334/73 112/335/73 116/336/73
f 110/337/74 114/338/74 115/339/74 111/340/74
f 112/341/75 111/342/75 115/343/75 116/344/75
f 113/345/76 114/346/76 110/347/76 109/348/76
usemtl metal
f 117/349/77 118/350/77 119/351/77 120/352/77
f 122/353/78 121/354/78 124/355/78 123/356/78
f 121/357/79 117/358/79 120/359/79 124/360/79
f 118/361/80 122/362/80 123/363/80 119/364/80
f 120/365/81 119/366/81 123/367/81 124/368/81
f 121/369/82 122/370/82 118/371/82 117/372/82
f 125/373/83 126/374/83 127/375/83 128/376/83
f 130/377/84 129/378/84 132/379/84 131/380/84
f 129/381/85 125/382/85 128/383/85 132/384/85
f 126/385/86 130/386/86 131/387/86 127/388/86
f 128/389/87 127/390/87 131/391/87 132/392/87
f 129/393/88 130/394/88 126/395/88 125/396/88
