# Generated by tools/generate_hospital_ward_assets.py
mtllib hospital_ward_materials.mtl
o ward_patient_monitor
v -0.300000 0.960000 -0.080000
v 0.300000 0.960000 -0.080000
v 0.300000 1.400000 -0.080000
v -0.300000 1.400000 -0.080000
v -0.300000 0.960000 0.080000
v 0.300000 0.960000 0.080000
v 0.300000 1.400000 0.080000
v -0.300000 1.400000 0.080000
v -0.360000 0.960000 -0.020000
v 0.360000 0.960000 -0.020000
v 0.360000 1.400000 -0.020000
v -0.360000 1.400000 -0.020000
v -0.360000 0.960000 0.020000
v 0.360000 0.960000 0.020000
v 0.360000 1.400000 0.020000
v -0.360000 1.400000 0.020000
v -0.240000 0.960000 -0.020000
v -0.240000 1.400000 -0.020000
v -0.251459 0.960000 0.015267
v -0.251459 1.400000 0.015267
v -0.281459 0.960000 0.037063
v -0.281459 1.400000 0.037063
v -0.318541 0.960000 0.037063
v -0.318541 1.400000 0.037063
v -0.348541 0.960000 0.015267
v -0.348541 1.400000 0.015267
v -0.360000 0.960000 -0.020000
v -0.360000 1.400000 -0.020000
v -0.348541 0.960000 -0.055267
v -0.348541 1.400000 -0.055267
v -0.318541 0.960000 -0.077063
v -0.318541 1.400000 -0.077063
v -0.281459 0.960000 -0.077063
v -0.281459 1.400000 -0.077063
v -0.251459 0.960000 -0.055267
v -0.251459 1.400000 -0.055267
v -0.240000 0.960000 0.020000
v -0.240000 1.400000 0.020000
v -0.251459 0.960000 0.055267
v -0.251459 1.400000 0.055267
v -0.281459 0.960000 0.077063
v -0.281459 1.400000 0.077063
v -0.318541 0.960000 0.077063
v -0.318541 1.400000 0.077063
v -0.348541 0.960000 0.055267
v -0.348541 1.400000 0.055267
v -0.360000 0.960000 0.020000
v -0.360000 1.400000 0.020000
v -0.348541 0.960000 -0.015267
v -0.348541 1.400000 -0.015267
v -0.318541 0.960000 -0.037063
v -0.318541 1.400000 -0.037063
v -0.281459 0.960000 -0.037063
v -0.281459 1.400000 -0.037063
v -0.251459 0.960000 -0.015267
v -0.251459 1.400000 -0.015267
v 0.360000 0.960000 -0.020000
v 0.360000 1.400000 -0.020000
v 0.348541 0.960000 0.015267
v 0.348541 1.400000 0.015267
v 0.318541 0.960000 0.037063
v 0.318541 1.400000 0.037063
v 0.281459 0.960000 0.037063
v 0.281459 1.400000 0.037063
v 0.251459 0.960000 0.015267
v 0.251459 1.400000 0.015267
v 0.240000 0.960000 -0.020000
v 0.240000 1.400000 -0.020000
v 0.251459 0.960000 -0.055267
v 0.251459 1.400000 -0.055267
v 0.281459 0.960000 -0.077063
v 0.281459 1.400000 -0.077063
v 0.318541 0.960000 -0.077063
v 0.318541 1.400000 -0.077063
v 0.348541 0.960000 -0.055267
v 0.348541 1.400000 -0.055267
v 0.360000 0.960000 0.020000
v 0.360000 1.400000 0.020000
v 0.348541 0.960000 0.055267
v 0.348541 1.400000 0.055267
v 0.318541 0.960000 0.077063
v 0.318541 1.400000 0.077063
v 0.281459 0.960000 0.077063
v 0.281459 1.400000 0.077063
v 0.251459 0.960000 0.055267
v 0.251459 1.400000 0.055267
v 0.240000 0.960000 0.020000
v 0.240000 1.400000 0.020000
v 0.251459 0.960000 -0.015267
v 0.251459 1.400000 -0.015267
v 0.281459 0.960000 -0.037063
v 0.281459 1.400000 -0.037063
v 0.318541 0.960000 -0.037063
v 0.318541 1.400000 -0.037063
v 0.348541 0.960000 -0.015267
v 0.348541 1.400000 -0.015267
v -0.274250 1.030000 -0.112500
v 0.274250 1.030000 -0.112500
v 0.274250 1.350000 -0.112500
v -0.274250 1.350000 -0.112500
v -0.274250 1.030000 -0.077500
v 0.274250 1.030000 -0.077500
v 0.274250 1.350000 -0.077500
v -0.274250 1.350000 -0.077500
v -0.290000 1.030000 -0.096750
v 0.290000 1.030000 -0.096750
v 0.290000 1.350000 -0.096750
v -0.290000 1.350000 -0.096750
v -0.290000 1.030000 -0.093250
v 0.290000 1.030000 -0.093250
v 0.290000 1.350000 -0.093250
v -0.290000 1.350000 -0.093250
v -0.258500 1.030000 -0.096750
v -0.258500 1.350000 -0.096750
v -0.261508 1.030000 -0.087492
v -0.261508 1.350000 -0.087492
v -0.269383 1.030000 -0.081771
v -0.269383 1.350000 -0.081771
v -0.279117 1.030000 -0.081771
v -0.279117 1.350000 -0.081771
v -0.286992 1.030000 -0.087492
v -0.286992 1.350000 -0.087492
v -0.290000 1.030000 -0.096750
v -0.290000 1.350000 -0.096750
v -0.286992 1.030000 -0.106008
v -0.286992 1.350000 -0.106008
v -0.279117 1.030000 -0.111729
v -0.279117 1.350000 -0.111729
v -0.269383 1.030000 -0.111729
v -0.269383 1.350000 -0.111729
v -0.261508 1.030000 -0.106008
v -0.261508 1.350000 -0.106008
v -0.258500 1.030000 -0.093250
v -0.258500 1.350000 -0.093250
v -0.261508 1.030000 -0.083992
v -0.261508 1.350000 -0.083992
v -0.269383 1.030000 -0.078271
v -0.269383 1.350000 -0.078271
v -0.279117 1.030000 -0.078271
v -0.279117 1.350000 -0.078271
v -0.286992 1.030000 -0.083992
v -0.286992 1.350000 -0.083992
v -0.290000 1.030000 -0.093250
v -0.290000 1.350000 -0.093250
v -0.286992 1.030000 -0.102508
v -0.286992 1.350000 -0.102508
v -0.279117 1.030000 -0.108229
v -0.279117 1.350000 -0.108229
v -0.269383 1.030000 -0.108229
v -0.269383 1.350000 -0.108229
v -0.261508 1.030000 -0.102508
v -0.261508 1.350000 -0.102508
v 0.290000 1.030000 -0.096750
v 0.290000 1.350000 -0.096750
v 0.286992 1.030000 -0.087492
v 0.286992 1.350000 -0.087492
v 0.279117 1.030000 -0.081771
v 0.279117 1.350000 -0.081771
v 0.269383 1.030000 -0.081771
v 0.269383 1.350000 -0.081771
v 0.261508 1.030000 -0.087492
v 0.261508 1.350000 -0.087492
v 0.258500 1.030000 -0.096750
v 0.258500 1.350000 -0.096750
v 0.261508 1.030000 -0.106008
v 0.261508 1.350000 -0.106008
v 0.269383 1.030000 -0.111729
v 0.269383 1.350000 -0.111729
v 0.279117 1.030000 -0.111729
v 0.279117 1.350000 -0.111729
v 0.286992 1.030000 -0.106008
v 0.286992 1.350000 -0.106008
v 0.290000 1.030000 -0.093250
v 0.290000 1.350000 -0.093250
v 0.286992 1.030000 -0.083992
v 0.286992 1.350000 -0.083992
v 0.279117 1.030000 -0.078271
v 0.279117 1.350000 -0.078271
v 0.269383 1.030000 -0.078271
v 0.269383 1.350000 -0.078271
v 0.261508 1.030000 -0.083992
v 0.261508 1.350000 -0.083992
v 0.258500 1.030000 -0.093250
v 0.258500 1.350000 -0.093250
v 0.261508 1.030000 -0.102508
v 0.261508 1.350000 -0.102508
v 0.269383 1.030000 -0.108229
v 0.269383 1.350000 -0.108229
v 0.279117 1.030000 -0.108229
v 0.279117 1.350000 -0.108229
v 0.286992 1.030000 -0.102508
v 0.286992 1.350000 -0.102508
v -0.205000 1.212000 -0.125000
v -0.035000 1.212000 -0.125000
v -0.035000 1.228000 -0.125000
v -0.205000 1.228000 -0.125000
v -0.205000 1.212000 -0.111000
v -0.035000 1.212000 -0.111000
v -0.035000 1.228000 -0.111000
v -0.205000 1.228000 -0.111000
v 0.015000 1.252000 -0.125000
v 0.145000 1.252000 -0.125000
v 0.145000 1.268000 -0.125000
v 0.015000 1.268000 -0.125000
v 0.015000 1.252000 -0.111000
v 0.145000 1.252000 -0.111000
v 0.145000 1.268000 -0.111000
v 0.015000 1.268000 -0.111000
v 0.190000 1.152000 -0.125000
v 0.270000 1.152000 -0.125000
v 0.270000 1.168000 -0.125000
v 0.190000 1.168000 -0.125000
v 0.190000 1.152000 -0.111000
v 0.270000 1.152000 -0.111000
v 0.270000 1.168000 -0.111000
v 0.190000 1.168000 -0.111000
v -0.270000 1.092000 -0.125000
v -0.210000 1.092000 -0.125000
v -0.210000 1.108000 -0.125000
v -0.270000 1.108000 -0.125000
v -0.270000 1.092000 -0.111000
v -0.210000 1.092000 -0.111000
v -0.210000 1.108000 -0.111000
v -0.270000 1.108000 -0.111000
v -0.150000 1.092000 -0.125000
v -0.090000 1.092000 -0.125000
v -0.090000 1.108000 -0.125000
v -0.150000 1.108000 -0.125000
v -0.150000 1.092000 -0.111000
v -0.090000 1.092000 -0.111000
v -0.090000 1.108000 -0.111000
v -0.150000 1.108000 -0.111000
v -0.030000 1.092000 -0.125000
v 0.030000 1.092000 -0.125000
v 0.030000 1.108000 -0.125000
v -0.030000 1.108000 -0.125000
v -0.030000 1.092000 -0.111000
v 0.030000 1.092000 -0.111000
v 0.030000 1.108000 -0.111000
v -0.030000 1.108000 -0.111000
v -0.345000 0.430000 0.030000
v -0.345000 0.920000 0.030000
v -0.351684 0.430000 0.009428
v -0.351684 0.920000 0.009428
v -0.369184 0.430000 -0.003287
v -0.369184 0.920000 -0.003287
v -0.390816 0.430000 -0.003287
v -0.390816 0.920000 -0.003287
v -0.408316 0.430000 0.009428
v -0.408316 0.920000 0.009428
v -0.415000 0.430000 0.030000
v -0.415000 0.920000 0.030000
v -0.408316 0.430000 0.050572
v -0.408316 0.920000 0.050572
v -0.390816 0.430000 0.063287
v -0.390816 0.920000 0.063287
v -0.369184 0.430000 0.063287
v -0.369184 0.920000 0.063287
v -0.351684 0.430000 0.050572
v -0.351684 0.920000 0.050572
v -0.377015 0.920000 0.059851
v -0.177015 1.000000 0.039851
v -0.371096 0.903616 0.053501
v -0.171096 0.983616 0.033501
v -0.368579 0.893491 0.038175
v -0.168579 0.973491 0.018175
v -0.370424 0.893491 0.019726
v -0.170424 0.973491 -0.000274
v -0.375926 0.903616 0.005201
v -0.175926 0.983616 -0.014799
v -0.382985 0.920000 0.000149
v -0.182985 1.000000 -0.019851
v -0.388904 0.936384 0.006499
v -0.188904 1.016384 -0.013501
v -0.391421 0.946509 0.021825
v -0.191421 1.026509 0.001825
v -0.389576 0.946509 0.040274
v -0.189576 1.026509 0.020274
v -0.384074 0.936384 0.054799
v -0.184074 1.016384 0.034799
v -0.390000 0.390000 -0.140000
v 0.070000 0.390000 -0.140000
v 0.070000 0.470000 -0.140000
v -0.390000 0.470000 -0.140000
v -0.390000 0.390000 0.180000
v 0.070000 0.390000 0.180000
v 0.070000 0.470000 0.180000
v -0.390000 0.470000 0.180000
v -0.440000 0.390000 -0.090000
v 0.120000 0.390000 -0.090000
v 0.120000 0.470000 -0.090000
v -0.440000 0.470000 -0.090000
v -0.440000 0.390000 0.130000
v 0.120000 0.390000 0.130000
v 0.120000 0.470000 0.130000
v -0.440000 0.470000 0.130000
v -0.340000 0.390000 -0.090000
v -0.340000 0.470000 -0.090000
v -0.349549 0.390000 -0.060611
v -0.349549 0.470000 -0.060611
v -0.374549 0.390000 -0.042447
v -0.374549 0.470000 -0.042447
v -0.405451 0.390000 -0.042447
v -0.405451 0.470000 -0.042447
v -0.430451 0.390000 -0.060611
v -0.430451 0.470000 -0.060611
v -0.440000 0.390000 -0.090000
v -0.440000 0.470000 -0.090000
v -0.430451 0.390000 -0.119389
v -0.430451 0.470000 -0.119389
v -0.405451 0.390000 -0.137553
v -0.405451 0.470000 -0.137553
v -0.374549 0.390000 -0.137553
v -0.374549 0.470000 -0.137553
v -0.349549 0.390000 -0.119389
v -0.349549 0.470000 -0.119389
v -0.340000 0.390000 0.130000
v -0.340000 0.470000 0.130000
v -0.349549 0.390000 0.159389
v -0.349549 0.470000 0.159389
v -0.374549 0.390000 0.177553
v -0.374549 0.470000 0.177553
v -0.405451 0.390000 0.177553
v -0.405451 0.470000 0.177553
v -0.430451 0.390000 0.159389
v -0.430451 0.470000 0.159389
v -0.440000 0.390000 0.130000
v -0.440000 0.470000 0.130000
v -0.430451 0.390000 0.100611
v -0.430451 0.470000 0.100611
v -0.405451 0.390000 0.082447
v -0.405451 0.470000 0.082447
v -0.374549 0.390000 0.082447
v -0.374549 0.470000 0.082447
v -0.349549 0.390000 0.100611
v -0.349549 0.470000 0.100611
v 0.120000 0.390000 -0.090000
v 0.120000 0.470000 -0.090000
v 0.110451 0.390000 -0.060611
v 0.110451 0.470000 -0.060611
v 0.085451 0.390000 -0.042447
v 0.085451 0.470000 -0.042447
v 0.054549 0.390000 -0.042447
v 0.054549 0.470000 -0.042447
v 0.029549 0.390000 -0.060611
v 0.029549 0.470000 -0.060611
v 0.020000 0.390000 -0.090000
v 0.020000 0.470000 -0.090000
v 0.029549 0.390000 -0.119389
v 0.029549 0.470000 -0.119389
v 0.054549 0.390000 -0.137553
v 0.054549 0.470000 -0.137553
v 0.085451 0.390000 -0.137553
v 0.085451 0.470000 -0.137553
v 0.110451 0.390000 -0.119389
v 0.110451 0.470000 -0.119389
v 0.120000 0.390000 0.130000
v 0.120000 0.470000 0.130000
v 0.110451 0.390000 0.159389
v 0.110451 0.470000 0.159389
v 0.085451 0.390000 0.177553
v 0.085451 0.470000 0.177553
v 0.054549 0.390000 0.177553
v 0.054549 0.470000 0.177553
v 0.029549 0.390000 0.159389
v 0.029549 0.470000 0.159389
v 0.020000 0.390000 0.130000
v 0.020000 0.470000 0.130000
v 0.029549 0.390000 0.100611
v 0.029549 0.470000 0.100611
v 0.054549 0.390000 0.082447
v 0.054549 0.470000 0.082447
v 0.085451 0.390000 0.082447
v 0.085451 0.470000 0.082447
v 0.110451 0.390000 0.100611
v 0.110451 0.470000 0.100611
v 0.210000 0.840000 -0.070000
v 0.350000 0.840000 -0.070000
v 0.350000 0.920000 -0.070000
v 0.210000 0.920000 -0.070000
v 0.210000 0.840000 0.010000
v 0.350000 0.840000 0.010000
v 0.350000 0.920000 0.010000
v 0.210000 0.920000 0.010000
v 0.190000 0.840000 -0.050000
v 0.370000 0.840000 -0.050000
v 0.370000 0.920000 -0.050000
v 0.190000 0.920000 -0.050000
v 0.190000 0.840000 -0.010000
v 0.370000 0.840000 -0.010000
v 0.370000 0.920000 -0.010000
v 0.190000 0.920000 -0.010000
v 0.230000 0.840000 -0.050000
v 0.230000 0.920000 -0.050000
v 0.224142 0.840000 -0.035858
v 0.224142 0.920000 -0.035858
v 0.210000 0.840000 -0.030000
v 0.210000 0.920000 -0.030000
v 0.195858 0.840000 -0.035858
v 0.195858 0.920000 -0.035858
v 0.190000 0.840000 -0.050000
v 0.190000 0.920000 -0.050000
v 0.195858 0.840000 -0.064142
v 0.195858 0.920000 -0.064142
v 0.210000 0.840000 -0.070000
v 0.210000 0.920000 -0.070000
v 0.224142 0.840000 -0.064142
v 0.224142 0.920000 -0.064142
v 0.230000 0.840000 -0.010000
v 0.230000 0.920000 -0.010000
v 0.224142 0.840000 0.004142
v 0.224142 0.920000 0.004142
v 0.210000 0.840000 0.010000
v 0.210000 0.920000 0.010000
v 0.195858 0.840000 0.004142
v 0.195858 0.920000 0.004142
v 0.190000 0.840000 -0.010000
v 0.190000 0.920000 -0.010000
v 0.195858 0.840000 -0.024142
v 0.195858 0.920000 -0.024142
v 0.210000 0.840000 -0.030000
v 0.210000 0.920000 -0.030000
v 0.224142 0.840000 -0.024142
v 0.224142 0.920000 -0.024142
v 0.370000 0.840000 -0.050000
v 0.370000 0.920000 -0.050000
v 0.364142 0.840000 -0.035858
v 0.364142 0.920000 -0.035858
v 0.350000 0.840000 -0.030000
v 0.350000 0.920000 -0.030000
v 0.335858 0.840000 -0.035858
v 0.335858 0.920000 -0.035858
v 0.330000 0.840000 -0.050000
v 0.330000 0.920000 -0.050000
v 0.335858 0.840000 -0.064142
v 0.335858 0.920000 -0.064142
v 0.350000 0.840000 -0.070000
v 0.350000 0.920000 -0.070000
v 0.364142 0.840000 -0.064142
v 0.364142 0.920000 -0.064142
v 0.370000 0.840000 -0.010000
v 0.370000 0.920000 -0.010000
v 0.364142 0.840000 0.004142
v 0.364142 0.920000 0.004142
v 0.350000 0.840000 0.010000
v 0.350000 0.920000 0.010000
v 0.335858 0.840000 0.004142
v 0.335858 0.920000 0.004142
v 0.330000 0.840000 -0.010000
v 0.330000 0.920000 -0.010000
v 0.335858 0.840000 -0.024142
v 0.335858 0.920000 -0.024142
v 0.350000 0.840000 -0.030000
v 0.350000 0.920000 -0.030000
v 0.364142 0.840000 -0.024142
v 0.364142 0.920000 -0.024142
v 0.200000 0.978000 -0.101000
v 0.360000 0.978000 -0.101000
v 0.360000 1.002000 -0.101000
v 0.200000 1.002000 -0.101000
v 0.200000 0.978000 -0.083000
v 0.360000 0.978000 -0.083000
v 0.360000 1.002000 -0.083000
v 0.200000 1.002000 -0.083000
v 0.060000 0.980000 -0.101000
v 0.140000 0.980000 -0.101000
v 0.140000 1.000000 -0.101000
v 0.060000 1.000000 -0.101000
v 0.060000 0.980000 -0.083000
v 0.140000 0.980000 -0.083000
v 0.140000 1.000000 -0.083000
v 0.060000 1.000000 -0.083000
v -0.340855 0.980000 0.038030
v -0.480855 0.780000 0.048030
v -0.332873 0.974611 0.041990
v -0.472873 0.774611 0.051990
v -0.330258 0.973280 0.051981
v -0.470258 0.773280 0.061981
v -0.334979 0.977009 0.060481
v -0.474979 0.777009 0.070481
v -0.343481 0.982991 0.061088
v -0.483481 0.782991 0.071088
v -0.349362 0.986720 0.053346
v -0.489362 0.786720 0.063346
v -0.348193 0.985389 0.043084
v -0.488193 0.785389 0.053084
v -0.469510 0.780000 0.065828
v -0.419510 0.630000 -0.024172
v -0.477216 0.774691 0.070395
v -0.427216 0.624691 -0.019605
v -0.487019 0.773379 0.067135
v -0.437019 0.623379 -0.022865
v -0.491536 0.777054 0.058502
v -0.441536 0.627054 -0.031498
v -0.487366 0.782946 0.050997
v -0.437366 0.632946 -0.039003
v -0.477650 0.786621 0.050271
v -0.427650 0.636621 -0.039729
v -0.469703 0.785309 0.056872
v -0.419703 0.635309 -0.033128
v -0.430000 0.630000 -0.018000
v -0.350000 0.560000 -0.018000
v -0.436178 0.622939 -0.022518
v -0.356178 0.552939 -0.022518
v -0.437704 0.621196 -0.032670
v -0.357704 0.551196 -0.032670
v -0.433429 0.626082 -0.040812
v -0.353429 0.556082 -0.040812
v -0.426571 0.633918 -0.040812
v -0.346571 0.563918 -0.040812
v -0.422296 0.638804 -0.032670
v -0.342296 0.568804 -0.032670
v -0.423822 0.637061 -0.022518
v -0.343822 0.567061 -0.022518
v 0.191843 0.980000 0.059829
v 0.351843 0.820000 0.029829
v 0.185762 0.974424 0.057138
v 0.345762 0.814424 0.027138
v 0.182873 0.973047 0.049072
v 0.342873 0.813047 0.019072
v 0.185350 0.976906 0.041705
v 0.345350 0.816906 0.011705
v 0.191329 0.983094 0.040584
v 0.351329 0.823094 0.010584
v 0.196307 0.986953 0.046553
v 0.356307 0.826953 0.016553
v 0.196536 0.985576 0.055118
v 0.356536 0.825576 0.025118
v 0.355547 0.820000 0.028321
v 0.445547 0.670000 -0.031679
v 0.348182 0.815427 0.028705
v 0.438182 0.665427 -0.031295
v 0.342186 0.814298 0.022535
v 0.432186 0.664298 -0.037465
v 0.342074 0.817462 0.014456
v 0.432074 0.667462 -0.045544
v 0.347931 0.822538 0.010551
v 0.437931 0.672538 -0.049449
v 0.355345 0.825702 0.013762
v 0.445345 0.675702 -0.046238
v 0.358735 0.824573 0.021670
v 0.448735 0.674573 -0.038330
v 0.246000 0.811000 -0.087000
v 0.246000 0.829000 -0.087000
v 0.241314 0.811000 -0.075686
v 0.241314 0.829000 -0.075686
v 0.230000 0.811000 -0.071000
v 0.230000 0.829000 -0.071000
v 0.218686 0.811000 -0.075686
v 0.218686 0.829000 -0.075686
v 0.214000 0.811000 -0.087000
v 0.214000 0.829000 -0.087000
v 0.218686 0.811000 -0.098314
v 0.218686 0.829000 -0.098314
v 0.230000 0.811000 -0.103000
v 0.230000 0.829000 -0.103000
v 0.241314 0.811000 -0.098314
v 0.241314 0.829000 -0.098314
v 0.306000 0.811000 -0.087000
v 0.306000 0.829000 -0.087000
v 0.301314 0.811000 -0.075686
v 0.301314 0.829000 -0.075686
v 0.290000 0.811000 -0.071000
v 0.290000 0.829000 -0.071000
v 0.278686 0.811000 -0.075686
v 0.278686 0.829000 -0.075686
v 0.274000 0.811000 -0.087000
v 0.274000 0.829000 -0.087000
v 0.278686 0.811000 -0.098314
v 0.278686 0.829000 -0.098314
v 0.290000 0.811000 -0.103000
v 0.290000 0.829000 -0.103000
v 0.301314 0.811000 -0.098314
v 0.301314 0.829000 -0.098314
v 0.366000 0.811000 -0.087000
v 0.366000 0.829000 -0.087000
v 0.361314 0.811000 -0.075686
v 0.361314 0.829000 -0.075686
v 0.350000 0.811000 -0.071000
v 0.350000 0.829000 -0.071000
v 0.338686 0.811000 -0.075686
v 0.338686 0.829000 -0.075686
v 0.334000 0.811000 -0.087000
v 0.334000 0.829000 -0.087000
v 0.338686 0.811000 -0.098314
v 0.338686 0.829000 -0.098314
v 0.350000 0.811000 -0.103000
v 0.350000 0.829000 -0.103000
v 0.361314 0.811000 -0.098314
v 0.361314 0.829000 -0.098314
vt 0.000000 0.000000
vt 1.000000 0.000000
vt 1.000000 1.000000
vt 0.000000 1.000000
vt 0.000000 0.000000
vt 1.000000 0.000000
vt 1.000000 1.000000
vt 0.000000 1.000000
vt 0.000000 0.000000
vt 1.000000 0.000000
vt 1.000000 1.000000
vt 0.000000 1.000000
vt 0.000000 0.000000
vt 1.000000 0.000000
vt 1.000000 1.000000
vt 0.000000 1.000000
vt 0.000000 0.000000
vt 1.000000 0.000000
vt 1.000000 1.000000
vt 0.000000 1.000000
vt 0.000000 0.000000
vt 1.000000 0.000000
vt 1.000000 1.000000
vt 0.000000 1.000000
vt 0.000000 0.000000
vt 1.000000 0.000000
vt 1.000000 1.000000
vt 0.000000 1.000000
vt 0.000000 0.000000
vt 1.000000 0.000000
vt 1.000000 1.000000
vt 0.000000 1.000000
vt 0.000000 0.000000
vt 1.000000 0.000000
vt 1.000000 1.000000
vt 0.000000 1.000000
vt 0.000000 0.000000
vt 1.000000 0.000000
vt 1.000000 1.000000
vt 0.000000 1.000000
vt 0.000000 0.000000
vt 1.000000 0.000000
vt 1.000000 1.000000
vt 0.000000 1.000000
vt 0.000000 0.000000
vt 1.000000 0.000000
vt 1.000000 1.000000
vt 0.000000 1.000000
vt 0.000000 0.000000
vt 1.000000 0.000000
vt 1.000000 1.000000
vt 0.000000 1.000000
vt 0.000000 0.000000
vt 1.000000 0.000000
vt 1.000000 1.000000
vt 0.000000 1.000000
vt 0.000000 0.000000
vt 1.000000 0.000000
vt 1.000000 1.000000
vt 0.000000 1.000000
vt 0.000000 0.000000
vt 1.000000 0.000000
vt 1.000000 1.000000
vt 0.000000 1.000000
vt 0.000000 0.000000
vt 1.000000 0.000000
vt 1.000000 1.000000
vt 0.000000 1.000000
vt 0.000000 0.000000
vt 1.000000 0.000000
vt 1.000000 1.000000
vt 0.000000 1.000000
vt 0.000000 0.000000
vt 1.000000 0.000000
vt 1.000000 1.000000
vt 0.000000 1.000000
vt 0.000000 0.000000
vt 1.000000 0.000000
vt 1.000000 1.000000
vt 0.000000 1.000000
vt 0.000000 0.000000
vt 1.000000 0.000000
vt 1.000000 1.000000
vt 0.000000 1.000000
vt 0.000000 0.000000
vt 1.000000 0.000000
vt 1.000000 1.000000
vt 0.000000 1.000000
vt 1.000000 0.500000
vt 0.904508 0.793893
vt 0.654508 0.975528
vt 0.345492 0.975528
vt 0.095492 0.793893
vt 0.000000 0.500000
vt 0.095492 0.206107
vt 0.345492 0.024472
vt 0.654508 0.024472
vt 0.904508 0.206107
vt 1.000000 0.500000
vt 0.904508 0.793893
vt 0.654508 0.975528
vt 0.345492 0.975528
vt 0.095492 0.793893
vt 0.000000 0.500000
vt 0.095492 0.206107
vt 0.345492 0.024472
vt 0.654508 0.024472
vt 0.904508 0.206107
vt 0.000000 0.000000
vt 1.000000 0.000000
vt 1.000000 1.000000
vt 0.000000 1.000000
vt 0.000000 0.000000
vt 1.000000 0.000000
vt 1.000000 1.000000
vt 0.000000 1.000000
vt 0.000000 0.000000
vt 1.000000 0.000000
vt 1.000000 1.000000
vt 0.000000 1.000000
vt 0.000000 0.000000
vt 1.000000 0.000000
vt 1.000000 1.000000
vt 0.000000 1.000000
vt 0.000000 0.000000
vt 1.000000 0.000000
vt 1.000000 1.000000
vt 0.000000 1.000000
vt 0.000000 0.000000
vt 1.000000 0.000000
vt 1.000000 1.000000
vt 0.000000 1.000000
vt 0.000000 0.000000
vt 1.000000 0.000000
vt 1.000000 1.000000
vt 0.000000 1.000000
vt 0.000000 0.000000
vt 1.000000 0.000000
vt 1.000000 1.000000
vt 0.000000 1.000000
vt 0.000000 0.000000
vt 1.000000 0.000000
vt 1.000000 1.000000
vt 0.000000 1.000000
vt 0.000000 0.000000
vt 1.000000 0.000000
vt 1.000000 1.000000
vt 0.000000 1.000000
vt 1.000000 0.500000
vt 0.904508 0.793893
vt 0.654508 0.975528
vt 0.345492 0.975528
vt 0.095492 0.793893
vt 0.000000 0.500000
vt 0.095492 0.206107
vt 0.345492 0.024472
vt 0.654508 0.024472
vt 0.904508 0.206107
vt 1.000000 0.500000
vt 0.904508 0.793893
vt 0.654508 0.975528
vt 0.345492 0.975528
vt 0.095492 0.793893
vt 0.000000 0.500000
vt 0.095492 0.206107
vt 0.345492 0.024472
vt 0.654508 0.024472
vt 0.904508 0.206107
vt 0.000000 0.000000
vt 1.000000 0.000000
vt 1.000000 1.000000
vt 0.000000 1.000000
vt 0.000000 0.000000
vt 1.000000 0.000000
vt 1.000000 1.000000
vt 0.000000 1.000000
vt 0.000000 0.000000
vt 1.000000 0.000000
vt 1.000000 1.000000
vt 0.000000 1.000000
vt 0.000000 0.000000
vt 1.000000 0.000000
vt 1.000000 1.000000
vt 0.000000 1.000000
vt 0.000000 0.000000
vt 1.000000 0.000000
vt 1.000000 1.000000
vt 0.000000 1.000000
vt 0.000000 0.000000
vt 1.000000 0.000000
vt 1.000000 1.000000
vt 0.000000 1.000000
vt 0.000000 0.000000
vt 1.000000 0.000000
vt 1.000000 1.000000
vt 0.000000 1.000000
vt 0.000000 0.000000
vt 1.000000 0.000000
vt 1.000000 1.000000
vt 0.000000 1.000000
vt 0.000000 0.000000
vt 1.000000 0.000000
vt 1.000000 1.000000
vt 0.000000 1.000000
vt 0.000000 0.000000
vt 1.000000 0.000000
vt 1.000000 1.000000
vt 0.000000 1.000000
vt 1.000000 0.500000
vt 0.904508 0.793893
vt 0.654508 0.975528
vt 0.345492 0.975528
vt 0.095492 0.793893
vt 0.000000 0.500000
vt 0.095492 0.206107
vt 0.345492 0.024472
vt 0.654508 0.024472
vt 0.904508 0.206107
vt 1.000000 0.500000
vt 0.904508 0.793893
vt 0.654508 0.975528
vt 0.345492 0.975528
vt 0.095492 0.793893
vt 0.000000 0.500000
vt 0.095492 0.206107
vt 0.345492 0.024472
vt 0.654508 0.024472
vt 0.904508 0.206107
vt 0.000000 0.000000
vt 1.000000 0.000000
vt 1.000000 1.000000
vt 0.000000 1.000000
vt 0.000000 0.000000
vt 1.000000 0.000000
vt 1.000000 1.000000
vt 0.000000 1.000000
vt 0.000000 0.000000
vt 1.000000 0.000000
vt 1.000000 1.000000
vt 0.000000 1.000000
vt 0.000000 0.000000
vt 1.000000 0.000000
vt 1.000000 1.000000
vt 0.000000 1.000000
vt 0.000000 0.000000
vt 1.000000 0.000000
vt 1.000000 1.000000
vt 0.000000 1.000000
vt 0.000000 0.000000
vt 1.000000 0.000000
vt 1.000000 1.000000
vt 0.000000 1.000000
vt 0.000000 0.000000
vt 1.000000 0.000000
vt 1.000000 1.000000
vt 0.000000 1.000000
vt 0.000000 0.000000
vt 1.000000 0.000000
vt 1.000000 1.000000
vt 0.000000 1.000000
vt 0.000000 0.000000
vt 1.000000 0.000000
vt 1.000000 1.000000
vt 0.000000 1.000000
vt 0.000000 0.000000
vt 1.000000 0.000000
vt 1.000000 1.000000
vt 0.000000 1.000000
vt 1.000000 0.500000
vt 0.904508 0.793893
vt 0.654508 0.975528
vt 0.345492 0.975528
vt 0.095492 0.793893
vt 0.000000 0.500000
vt 0.095492 0.206107
vt 0.345492 0.024472
vt 0.654508 0.024472
vt 0.904508 0.206107
vt 1.000000 0.500000
vt 0.904508 0.793893
vt 0.654508 0.975528
vt 0.345492 0.975528
vt 0.095492 0.793893
vt 0.000000 0.500000
vt 0.095492 0.206107
vt 0.345492 0.024472
vt 0.654508 0.024472
vt 0.904508 0.206107
vt 0.000000 0.000000
vt 1.000000 0.000000
vt 1.000000 1.000000
vt 0.000000 1.000000
vt 0.000000 0.000000
vt 1.000000 0.000000
vt 1.000000 1.000000
vt 0.000000 1.000000
vt 0.000000 0.000000
vt 1.000000 0.000000
vt 1.000000 1.000000
vt 0.000000 1.000000
vt 0.000000 0.000000
vt 1.000000 0.000000
vt 1.000000 1.000000
vt 0.000000 1.000000
vt 0.000000 0.000000
vt 1.000000 0.000000
vt 1.000000 1.000000
vt 0.000000 1.000000
vt 0.000000 0.000000
vt 1.000000 0.000000
vt 1.000000 1.000000
vt 0.000000 1.000000
vt 0.000000 0.000000
vt 1.000000 0.000000
vt 1.000000 1.000000
vt 0.000000 1.000000
vt 0.000000 0.000000
vt 1.000000 0.000000
vt 1.000000 1.000000
vt 0.000000 1.000000
vt 0.000000 0.000000
vt 1.000000 0.000000
vt 1.000000 1.000000
vt 0.000000 1.000000
vt 0.000000 0.000000
vt 1.000000 0.000000
vt 1.000000 1.000000
vt 0.000000 1.000000
vt 0.000000 0.000000
vt 1.000000 0.000000
vt 1.000000 1.000000
vt 0.000000 1.000000
vt 0.000000 0.000000
vt 1.000000 0.000000
vt 1.000000 1.000000
vt 0.000000 1.000000
vt 0.000000 0.000000
vt 1.000000 0.000000
vt 1.000000 1.000000
vt 0.000000 1.000000
vt 0.000000 0.000000
vt 1.000000 0.000000
vt 1.000000 1.000000
vt 0.000000 1.000000
vt 0.000000 0.000000
vt 1.000000 0.000000
vt 1.000000 1.000000
vt 0.000000 1.000000
vt 0.000000 0.000000
vt 1.000000 0.000000
vt 1.000000 1.000000
vt 0.000000 1.000000
vt 0.000000 0.000000
vt 1.000000 0.000000
vt 1.000000 1.000000
vt 0.000000 1.000000
vt 0.000000 0.000000
vt 1.000000 0.000000
vt 1.000000 1.000000
vt 0.000000 1.000000
vt 0.000000 0.000000
vt 1.000000 0.000000
vt 1.000000 1.000000
vt 0.000000 1.000000
vt 0.000000 0.000000
vt 1.000000 0.000000
vt 1.000000 1.000000
vt 0.000000 1.000000
vt 0.000000 0.000000
vt 1.000000 0.000000
vt 1.000000 1.000000
vt 0.000000 1.000000
vt 0.000000 0.000000
vt 1.000000 0.000000
vt 1.000000 1.000000
vt 0.000000 1.000000
vt 1.000000 0.500000
vt 0.904508 0.793893
vt 0.654508 0.975528
vt 0.345492 0.975528
vt 0.095492 0.793893
vt 0.000000 0.500000
vt 0.095492 0.206107
vt 0.345492 0.024472
vt 0.654508 0.024472
vt 0.904508 0.206107
vt 1.000000 0.500000
vt 0.904508 0.793893
vt 0.654508 0.975528
vt 0.345492 0.975528
vt 0.095492 0.793893
vt 0.000000 0.500000
vt 0.095492 0.206107
vt 0.345492 0.024472
vt 0.654508 0.024472
vt 0.904508 0.206107
vt 0.000000 0.000000
vt 1.000000 0.000000
vt 1.000000 1.000000
vt 0.000000 1.000000
vt 0.000000 0.000000
vt 1.000000 0.000000
vt 1.000000 1.000000
vt 0.000000 1.000000
vt 0.000000 0.000000
vt 1.000000 0.000000
vt 1.000000 1.000000
vt 0.000000 1.000000
vt 0.000000 0.000000
vt 1.000000 0.000000
vt 1.000000 1.000000
vt 0.000000 1.000000
vt 0.000000 0.000000
vt 1.000000 0.000000
vt 1.000000 1.000000
vt 0.000000 1.000000
vt 0.000000 0.000000
vt 1.000000 0.000000
vt 1.000000 1.000000
vt 0.000000 1.000000
vt 0.000000 0.000000
vt 1.000000 0.000000
vt 1.000000 1.000000
vt 0.000000 1.000000
vt 0.000000 0.000000
vt 1.000000 0.000000
vt 1.000000 1.000000
vt 0.000000 1.000000
vt 0.000000 0.000000
vt 1.000000 0.000000
vt 1.000000 1.000000
vt 0.000000 1.000000
vt 0.000000 0.000000
vt 1.000000 0.000000
vt 1.000000 1.000000
vt 0.000000 1.000000
vt 1.000000 0.500000
vt 0.904508 0.793893
vt 0.654508 0.975528
vt 0.345492 0.975528
vt 0.095492 0.793893
vt 0.000000 0.500000
vt 0.095492 0.206107
vt 0.345492 0.024472
vt 0.654508 0.024472
vt 0.904508 0.206107
vt 1.000000 0.500000
vt 0.904508 0.793893
vt 0.654508 0.975528
vt 0.345492 0.975528
vt 0.095492 0.793893
vt 0.000000 0.500000
vt 0.095492 0.206107
vt 0.345492 0.024472
vt 0.654508 0.024472
vt 0.904508 0.206107
vt 0.000000 0.000000
vt 1.000000 0.000000
vt 1.000000 1.000000
vt 0.000000 1.000000
vt 0.000000 0.000000
vt 1.000000 0.000000
vt 1.000000 1.000000
vt 0.000000 1.000000
vt 0.000000 0.000000
vt 1.000000 0.000000
vt 1.000000 1.000000
vt 0.000000 1.000000
vt 0.000000 0.000000
vt 1.000000 0.000000
vt 1.000000 1.000000
vt 0.000000 1.000000
vt 0.000000 0.000000
vt 1.000000 0.000000
vt 1.000000 1.000000
vt 0.000000 1.000000
vt 0.000000 0.000000
vt 1.000000 0.000000
vt 1.000000 1.000000
vt 0.000000 1.000000
vt 0.000000 0.000000
vt 1.000000 0.000000
vt 1.000000 1.000000
vt 0.000000 1.000000
vt 0.000000 0.000000
vt 1.000000 0.000000
vt 1.000000 1.000000
vt 0.000000 1.000000
vt 0.000000 0.000000
vt 1.000000 0.000000
vt 1.000000 1.000000
vt 0.000000 1.000000
vt 0.000000 0.000000
vt 1.000000 0.000000
vt 1.000000 1.000000
vt 0.000000 1.000000
vt 1.000000 0.500000
vt 0.904508 0.793893
vt 0.654508 0.975528
vt 0.345492 0.975528
vt 0.095492 0.793893
vt 0.000000 0.500000
vt 0.095492 0.206107
vt 0.345492 0.024472
vt 0.654508 0.024472
vt 0.904508 0.206107
vt 1.000000 0.500000
vt 0.904508 0.793893
vt 0.654508 0.975528
vt 0.345492 0.975528
vt 0.095492 0.793893
vt 0.000000 0.500000
vt 0.095492 0.206107
vt 0.345492 0.024472
vt 0.654508 0.024472
vt 0.904508 0.206107
vt 0.000000 0.000000
vt 1.000000 0.000000
vt 1.000000 1.000000
vt 0.000000 1.000000
vt 0.000000 0.000000
vt 1.000000 0.000000
vt 1.000000 1.000000
vt 0.000000 1.000000
vt 0.000000 0.000000
vt 1.000000 0.000000
vt 1.000000 1.000000
vt 0.000000 1.000000
vt 0.000000 0.000000
vt 1.000000 0.000000
vt 1.000000 1.000000
vt 0.000000 1.000000
vt 0.000000 0.000000
vt 1.000000 0.000000
vt 1.000000 1.000000
vt 0.000000 1.000000
vt 0.000000 0.000000
vt 1.000000 0.000000
vt 1.000000 1.000000
vt 0.000000 1.000000
vt 0.000000 0.000000
vt 1.000000 0.000000
vt 1.000000 1.000000
vt 0.000000 1.000000
vt 0.000000 0.000000
vt 1.000000 0.000000
vt 1.000000 1.000000
vt 0.000000 1.000000
vt 0.000000 0.000000
vt 1.000000 0.000000
vt 1.000000 1.000000
vt 0.000000 1.000000
vt 0.000000 0.000000
vt 1.000000 0.000000
vt 1.000000 1.000000
vt 0.000000 1.000000
vt 1.000000 0.500000
vt 0.904508 0.793893
vt 0.654508 0.975528
vt 0.345492 0.975528
vt 0.095492 0.793893
vt 0.000000 0.500000
vt 0.095492 0.206107
vt 0.345492 0.024472
vt 0.654508 0.024472
vt 0.904508 0.206107
vt 1.000000 0.500000
vt 0.904508 0.793893
vt 0.654508 0.975528
vt 0.345492 0.975528
vt 0.095492 0.793893
vt 0.000000 0.500000
vt 0.095492 0.206107
vt 0.345492 0.024472
vt 0.654508 0.024472
vt 0.904508 0.206107
vt 0.000000 0.000000
vt 1.000000 0.000000
vt 1.000000 1.000000
vt 0.000000 1.000000
vt 0.000000 0.000000
vt 1.000000 0.000000
vt 1.000000 1.000000
vt 0.000000 1.000000
vt 0.000000 0.000000
vt 1.000000 0.000000
vt 1.000000 1.000000
vt 0.000000 1.000000
vt 0.000000 0.000000
vt 1.000000 0.000000
vt 1.000000 1.000000
vt 0.000000 1.000000
vt 0.000000 0.000000
vt 1.000000 0.000000
vt 1.000000 1.000000
vt 0.000000 1.000000
vt 0.000000 0.000000
vt 1.000000 0.000000
vt 1.000000 1.000000
vt 0.000000 1.000000
vt 0.000000 0.000000
vt 1.000000 0.000000
vt 1.000000 1.000000
vt 0.000000 1.000000
vt 0.000000 0.000000
vt 1.000000 0.000000
vt 1.000000 1.000000
vt 0.000000 1.000000
vt 0.000000 0.000000
vt 1.000000 0.000000
vt 1.000000 1.000000
vt 0.000000 1.000000
vt 0.000000 0.000000
vt 1.000000 0.000000
vt 1.000000 1.000000
vt 0.000000 1.000000
vt 0.000000 0.000000
vt 1.000000 0.000000
vt 1.000000 1.000000
vt 0.000000 1.000000
vt 0.000000 0.000000
vt 1.000000 0.000000
vt 1.000000 1.000000
vt 0.000000 1.000000
vt 0.000000 0.000000
vt 1.000000 0.000000
vt 1.000000 1.000000
vt 0.000000 1.000000
vt 0.000000 0.000000
vt 1.000000 0.000000
vt 1.000000 1.000000
vt 0.000000 1.000000
vt 0.000000 0.000000
vt 1.000000 0.000000
vt 1.000000 1.000000
vt 0.000000 1.000000
vt 0.000000 0.000000
vt 1.000000 0.000000
vt 1.000000 1.000000
vt 0.000000 1.000000
vt 0.000000 0.000000
vt 1.000000 0.000000
vt 1.000000 1.000000
vt 0.000000 1.000000
vt 0.000000 0.000000
vt 1.000000 0.000000
vt 1.000000 1.000000
vt 0.000000 1.000000
vt 0.000000 0.000000
vt 1.000000 0.000000
vt 1.000000 1.000000
vt 0.000000 1.000000
vt 0.000000 0.000000
vt 1.000000 0.000000
vt 1.000000 1.000000
vt 0.000000 1.000000
vt 0.000000 0.000000
vt 1.000000 0.000000
vt 1.000000 1.000000
vt 0.000000 1.000000
vt 0.000000 0.000000
vt 1.000000 0.000000
vt 1.000000 1.000000
vt 0.000000 1.000000
vt 0.000000 0.000000
vt 1.000000 0.000000
vt 1.000000 1.000000
vt 0.000000 1.000000
vt 0.000000 0.000000
vt 1.000000 0.000000
vt 1.000000 1.000000
vt 0.000000 1.000000
vt 0.000000 0.000000
vt 1.000000 0.000000
vt 1.000000 1.000000
vt 0.000000 1.000000
vt 0.000000 0.000000
vt 1.000000 0.000000
vt 1.000000 1.000000
vt 0.000000 1.000000
vt 0.000000 0.000000
vt 1.000000 0.000000
vt 1.000000 1.000000
vt 0.000000 1.000000
vt 0.000000 0.000000
vt 1.000000 0.000000
vt 1.000000 1.000000
vt 0.000000 1.000000
vt 0.000000 0.000000
vt 1.000000 0.000000
vt 1.000000 1.000000
vt 0.000000 1.000000
vt 0.000000 0.000000
vt 1.000000 0.000000
vt 1.000000 1.000000
vt 0.000000 1.000000
vt 0.000000 0.000000
vt 1.000000 0.000000
vt 1.000000 1.000000
vt 0.000000 1.000000
vt 0.000000 0.000000
vt 1.000000 0.000000
vt 1.000000 1.000000
vt 0.000000 1.000000
vt 0.000000 0.000000
vt 1.000000 0.000000
vt 1.000000 1.000000
vt 0.000000 1.000000
vt 0.000000 0.000000
vt 1.000000 0.000000
vt 1.000000 1.000000
vt 0.000000 1.000000
vt 0.000000 0.000000
vt 1.000000 0.000000
vt 1.000000 1.000000
vt 0.000000 1.000000
vt 0.000000 0.000000
vt 1.000000 0.000000
vt 1.000000 1.000000
vt 0.000000 1.000000
vt 0.000000 0.000000
vt 1.000000 0.000000
vt 1.000000 1.000000
vt 0.000000 1.000000
vt 0.000000 0.000000
vt 1.000000 0.000000
vt 1.000000 1.000000
vt 0.000000 1.000000
vt 0.000000 0.000000
vt 1.000000 0.000000
vt 1.000000 1.000000
vt 0.000000 1.000000
vt 0.000000 0.000000
vt 1.000000 0.000000
vt 1.000000 1.000000
vt 0.000000 1.000000
vt 0.000000 0.000000
vt 1.000000 0.000000
vt 1.000000 1.000000
vt 0.000000 1.000000
vt 0.000000 0.000000
vt 1.000000 0.000000
vt 1.000000 1.000000
vt 0.000000 1.000000
vt 0.000000 0.000000
vt 1.000000 0.000000
vt 1.000000 1.000000
vt 0.000000 1.000000
vt 0.000000 0.000000
vt 1.000000 0.000000
vt 1.000000 1.000000
vt 0.000000 1.000000
vt 0.000000 0.000000
vt 1.000000 0.000000
vt 1.000000 1.000000
vt 0.000000 1.000000
vt 0.000000 0.000000
vt 1.000000 0.000000
vt 1.000000 1.000000
vt 0.000000 1.000000
vt 1.000000 0.500000
vt 0.904508 0.793893
vt 0.654508 0.975528
vt 0.345492 0.975528
vt 0.095492 0.793893
vt 0.000000 0.500000
vt 0.095492 0.206107
vt 0.345492 0.024472
vt 0.654508 0.024472
vt 0.904508 0.206107
vt 1.000000 0.500000
vt 0.904508 0.793893
vt 0.654508 0.975528
vt 0.345492 0.975528
vt 0.095492 0.793893
vt 0.000000 0.500000
vt 0.095492 0.206107
vt 0.345492 0.024472
vt 0.654508 0.024472
vt 0.904508 0.206107
vt 0.000000 0.000000
vt 1.000000 0.000000
vt 1.000000 1.000000
vt 0.000000 1.000000
vt 0.000000 0.000000
vt 1.000000 0.000000
vt 1.000000 1.000000
vt 0.000000 1.000000
vt 0.000000 0.000000
vt 1.000000 0.000000
vt 1.000000 1.000000
vt 0.000000 1.000000
vt 0.000000 0.000000
vt 1.000000 0.000000
vt 1.000000 1.000000
vt 0.000000 1.000000
vt 0.000000 0.000000
vt 1.000000 0.000000
vt 1.000000 1.000000
vt 0.000000 1.000000
vt 0.000000 0.000000
vt 1.000000 0.000000
vt 1.000000 1.000000
vt 0.000000 1.000000
vt 0.000000 0.000000
vt 1.000000 0.000000
vt 1.000000 1.000000
vt 0.000000 1.000000
vt 0.000000 0.000000
vt 1.000000 0.000000
vt 1.000000 1.000000
vt 0.000000 1.000000
vt 0.000000 0.000000
vt 1.000000 0.000000
vt 1.000000 1.000000
vt 0.000000 1.000000
vt 0.000000 0.000000
vt 1.000000 0.000000
vt 1.000000 1.000000
vt 0.000000 1.000000
vt 1.000000 0.500000
vt 0.904508 0.793893
vt 0.654508 0.975528
vt 0.345492 0.975528
vt 0.095492 0.793893
vt 0.000000 0.500000
vt 0.095492 0.206107
vt 0.345492 0.024472
vt 0.654508 0.024472
vt 0.904508 0.206107
vt 1.000000 0.500000
vt 0.904508 0.793893
vt 0.654508 0.975528
vt 0.345492 0.975528
vt 0.095492 0.793893
vt 0.000000 0.500000
vt 0.095492 0.206107
vt 0.345492 0.024472
vt 0.654508 0.024472
vt 0.904508 0.206107
vt 0.000000 0.000000
vt 1.000000 0.000000
vt 1.000000 1.000000
vt 0.000000 1.000000
vt 0.000000 0.000000
vt 1.000000 0.000000
vt 1.000000 1.000000
vt 0.000000 1.000000
vt 0.000000 0.000000
vt 1.000000 0.000000
vt 1.000000 1.000000
vt 0.000000 1.000000
vt 0.000000 0.000000
vt 1.000000 0.000000
vt 1.000000 1.000000
vt 0.000000 1.000000
vt 0.000000 0.000000
vt 1.000000 0.000000
vt 1.000000 1.000000
vt 0.000000 1.000000
vt 0.000000 0.000000
vt 1.000000 0.000000
vt 1.000000 1.000000
vt 0.000000 1.000000
vt 0.000000 0.000000
vt 1.000000 0.000000
vt 1.000000 1.000000
vt 0.000000 1.000000
vt 0.000000 0.000000
vt 1.000000 0.000000
vt 1.000000 1.000000
vt 0.000000 1.000000
vt 0.000000 0.000000
vt 1.000000 0.000000
vt 1.000000 1.000000
vt 0.000000 1.000000
vt 0.000000 0.000000
vt 1.000000 0.000000
vt 1.000000 1.000000
vt 0.000000 1.000000
vt 0.000000 0.000000
vt 1.000000 0.000000
vt 1.000000 1.000000
vt 0.000000 1.000000
vt 0.000000 0.000000
vt 1.000000 0.000000
vt 1.000000 1.000000
vt 0.000000 1.000000
vt 0.000000 0.000000
vt 1.000000 0.000000
vt 1.000000 1.000000
vt 0.000000 1.000000
vt 0.000000 0.000000
vt 1.000000 0.000000
vt 1.000000 1.000000
vt 0.000000 1.000000
vt 0.000000 0.000000
vt 1.000000 0.000000
vt 1.000000 1.000000
vt 0.000000 1.000000
vt 0.000000 0.000000
vt 1.000000 0.000000
vt 1.000000 1.000000
vt 0.000000 1.000000
vt 0.000000 0.000000
vt 1.000000 0.000000
vt 1.000000 1.000000
vt 0.000000 1.000000
vt 0.000000 0.000000
vt 1.000000 0.000000
vt 1.000000 1.000000
vt 0.000000 1.000000
vt 0.000000 0.000000
vt 1.000000 0.000000
vt 1.000000 1.000000
vt 0.000000 1.000000
vt 0.000000 0.000000
vt 1.000000 0.000000
vt 1.000000 1.000000
vt 0.000000 1.000000
vt 0.000000 0.000000
vt 1.000000 0.000000
vt 1.000000 1.000000
vt 0.000000 1.000000
vt 0.000000 0.000000
vt 1.000000 0.000000
vt 1.000000 1.000000
vt 0.000000 1.000000
vt 1.000000 0.500000
vt 0.904508 0.793893
vt 0.654508 0.975528
vt 0.345492 0.975528
vt 0.095492 0.793893
vt 0.000000 0.500000
vt 0.095492 0.206107
vt 0.345492 0.024472
vt 0.654508 0.024472
vt 0.904508 0.206107
vt 1.000000 0.500000
vt 0.904508 0.793893
vt 0.654508 0.975528
vt 0.345492 0.975528
vt 0.095492 0.793893
vt 0.000000 0.500000
vt 0.095492 0.206107
vt 0.345492 0.024472
vt 0.654508 0.024472
vt 0.904508 0.206107
vt 0.000000 0.000000
vt 1.000000 0.000000
vt 1.000000 1.000000
vt 0.000000 1.000000
vt 0.000000 0.000000
vt 1.000000 0.000000
vt 1.000000 1.000000
vt 0.000000 1.000000
vt 0.000000 0.000000
vt 1.000000 0.000000
vt 1.000000 1.000000
vt 0.000000 1.000000
vt 0.000000 0.000000
vt 1.000000 0.000000
vt 1.000000 1.000000
vt 0.000000 1.000000
vt 0.000000 0.000000
vt 1.000000 0.000000
vt 1.000000 1.000000
vt 0.000000 1.000000
vt 0.000000 0.000000
vt 1.000000 0.000000
vt 1.000000 1.000000
vt 0.000000 1.000000
vt 0.000000 0.000000
vt 1.000000 0.000000
vt 1.000000 1.000000
vt 0.000000 1.000000
vt 0.000000 0.000000
vt 1.000000 0.000000
vt 1.000000 1.000000
vt 0.000000 1.000000
vt 0.000000 0.000000
vt 1.000000 0.000000
vt 1.000000 1.000000
vt 0.000000 1.000000
vt 0.000000 0.000000
vt 1.000000 0.000000
vt 1.000000 1.000000
vt 0.000000 1.000000
vt 1.000000 0.500000
vt 0.904508 0.793893
vt 0.654508 0.975528
vt 0.345492 0.975528
vt 0.095492 0.793893
vt 0.000000 0.500000
vt 0.095492 0.206107
vt 0.345492 0.024472
vt 0.654508 0.024472
vt 0.904508 0.206107
vt 1.000000 0.500000
vt 0.904508 0.793893
vt 0.654508 0.975528
vt 0.345492 0.975528
vt 0.095492 0.793893
vt 0.000000 0.500000
vt 0.095492 0.206107
vt 0.345492 0.024472
vt 0.654508 0.024472
vt 0.904508 0.206107
vt 0.000000 0.000000
vt 1.000000 0.000000
vt 1.000000 1.000000
vt 0.000000 1.000000
vt 0.000000 0.000000
vt 1.000000 0.000000
vt 1.000000 1.000000
vt 0.000000 1.000000
vt 0.000000 0.000000
vt 1.000000 0.000000
vt 1.000000 1.000000
vt 0.000000 1.000000
vt 0.000000 0.000000
vt 1.000000 0.000000
vt 1.000000 1.000000
vt 0.000000 1.000000
vt 0.000000 0.000000
vt 1.000000 0.000000
vt 1.000000 1.000000
vt 0.000000 1.000000
vt 0.000000 0.000000
vt 1.000000 0.000000
vt 1.000000 1.000000
vt 0.000000 1.000000
vt 0.000000 0.000000
vt 1.000000 0.000000
vt 1.000000 1.000000
vt 0.000000 1.000000
vt 0.000000 0.000000
vt 1.000000 0.000000
vt 1.000000 1.000000
vt 0.000000 1.000000
vt 0.000000 0.000000
vt 1.000000 0.000000
vt 1.000000 1.000000
vt 0.000000 1.000000
vt 0.000000 0.000000
vt 1.000000 0.000000
vt 1.000000 1.000000
vt 0.000000 1.000000
vt 1.000000 0.500000
vt 0.904508 0.793893
vt 0.654508 0.975528
vt 0.345492 0.975528
vt 0.095492 0.793893
vt 0.000000 0.500000
vt 0.095492 0.206107
vt 0.345492 0.024472
vt 0.654508 0.024472
vt 0.904508 0.206107
vt 1.000000 0.500000
vt 0.904508 0.793893
vt 0.654508 0.975528
vt 0.345492 0.975528
vt 0.095492 0.793893
vt 0.000000 0.500000
vt 0.095492 0.206107
vt 0.345492 0.024472
vt 0.654508 0.024472
vt 0.904508 0.206107
vt 0.000000 0.000000
vt 1.000000 0.000000
vt 1.000000 1.000000
vt 0.000000 1.000000
vt 0.000000 0.000000
vt 1.000000 0.000000
vt 1.000000 1.000000
vt 0.000000 1.000000
vt 0.000000 0.000000
vt 1.000000 0.000000
vt 1.000000 1.000000
vt 0.000000 1.000000
vt 0.000000 0.000000
vt 1.000000 0.000000
vt 1.000000 1.000000
vt 0.000000 1.000000
vt 0.000000 0.000000
vt 1.000000 0.000000
vt 1.000000 1.000000
vt 0.000000 1.000000
vt 0.000000 0.000000
vt 1.000000 0.000000
vt 1.000000 1.000000
vt 0.000000 1.000000
vt 0.000000 0.000000
vt 1.000000 0.000000
vt 1.000000 1.000000
vt 0.000000 1.000000
vt 0.000000 0.000000
vt 1.000000 0.000000
vt 1.000000 1.000000
vt 0.000000 1.000000
vt 0.000000 0.000000
vt 1.000000 0.000000
vt 1.000000 1.000000
vt 0.000000 1.000000
vt 0.000000 0.000000
vt 1.000000 0.000000
vt 1.000000 1.000000
vt 0.000000 1.000000
vt 1.000000 0.500000
vt 0.904508 0.793893
vt 0.654508 0.975528
vt 0.345492 0.975528
vt 0.095492 0.793893
vt 0.000000 0.500000
vt 0.095492 0.206107
vt 0.345492 0.024472
vt 0.654508 0.024472
vt 0.904508 0.206107
vt 1.000000 0.500000
vt 0.904508 0.793893
vt 0.654508 0.975528
vt 0.345492 0.975528
vt 0.095492 0.793893
vt 0.000000 0.500000
vt 0.095492 0.206107
vt 0.345492 0.024472
vt 0.654508 0.024472
vt 0.904508 0.206107
vt 0.000000 0.000000
vt 1.000000 0.000000
vt 1.000000 1.000000
vt 0.000000 1.000000
vt 0.000000 0.000000
vt 1.000000 0.000000
vt 1.000000 1.000000
vt 0.000000 1.000000
vt 0.000000 0.000000
vt 1.000000 0.000000
vt 1.000000 1.000000
vt 0.000000 1.000000
vt 0.000000 0.000000
vt 1.000000 0.000000
vt 1.000000 1.000000
vt 0.000000 1.000000
vt 0.000000 0.000000
vt 1.000000 0.000000
vt 1.000000 1.000000
vt 0.000000 1.000000
vt 0.000000 0.000000
vt 1.000000 0.000000
vt 1.000000 1.000000
vt 0.000000 1.000000
vt 0.000000 0.000000
vt 1.000000 0.000000
vt 1.000000 1.000000
vt 0.000000 1.000000
vt 0.000000 0.000000
vt 1.000000 0.000000
vt 1.000000 1.000000
vt 0.000000 1.000000
vt 0.000000 0.000000
vt 1.000000 0.000000
vt 1.000000 1.000000
vt 0.000000 1.000000
vt 0.000000 0.000000
vt 1.000000 0.000000
vt 1.000000 1.000000
vt 0.000000 1.000000
vt 0.000000 0.000000
vt 1.000000 0.000000
vt 1.000000 1.000000
vt 0.000000 1.000000
vt 0.000000 0.000000
vt 1.000000 0.000000
vt 1.000000 1.000000
vt 0.000000 1.000000
vt 0.000000 0.000000
vt 1.000000 0.000000
vt 1.000000 1.000000
vt 0.000000 1.000000
vt 0.000000 0.000000
vt 1.000000 0.000000
vt 1.000000 1.000000
vt 0.000000 1.000000
vt 0.000000 0.000000
vt 1.000000 0.000000
vt 1.000000 1.000000
vt 0.000000 1.000000
vt 0.000000 0.000000
vt 1.000000 0.000000
vt 1.000000 1.000000
vt 0.000000 1.000000
vt 0.000000 0.000000
vt 1.000000 0.000000
vt 1.000000 1.000000
vt 0.000000 1.000000
vt 0.000000 0.000000
vt 1.000000 0.000000
vt 1.000000 1.000000
vt 0.000000 1.000000
vt 0.000000 0.000000
vt 1.000000 0.000000
vt 1.000000 1.000000
vt 0.000000 1.000000
vt 0.000000 0.000000
vt 1.000000 0.000000
vt 1.000000 1.000000
vt 0.000000 1.000000
vt 1.000000 0.500000
vt 0.853553 0.853553
vt 0.500000 1.000000
vt 0.146447 0.853553
vt 0.000000 0.500000
vt 0.146447 0.146447
vt 0.500000 0.000000
vt 0.853553 0.146447
vt 1.000000 0.500000
vt 0.853553 0.853553
vt 0.500000 1.000000
vt 0.146447 0.853553
vt 0.000000 0.500000
vt 0.146447 0.146447
vt 0.500000 0.000000
vt 0.853553 0.146447
vt 0.000000 0.000000
vt 1.000000 0.000000
vt 1.000000 1.000000
vt 0.000000 1.000000
vt 0.000000 0.000000
vt 1.000000 0.000000
vt 1.000000 1.000000
vt 0.000000 1.000000
vt 0.000000 0.000000
vt 1.000000 0.000000
vt 1.000000 1.000000
vt 0.000000 1.000000
vt 0.000000 0.000000
vt 1.000000 0.000000
vt 1.000000 1.000000
vt 0.000000 1.000000
vt 0.000000 0.000000
vt 1.000000 0.000000
vt 1.000000 1.000000
vt 0.000000 1.000000
vt 0.000000 0.000000
vt 1.000000 0.000000
vt 1.000000 1.000000
vt 0.000000 1.000000
vt 0.000000 0.000000
vt 1.000000 0.000000
vt 1.000000 1.000000
vt 0.000000 1.000000
vt 0.000000 0.000000
vt 1.000000 0.000000
vt 1.000000 1.000000
vt 0.000000 1.000000
vt 1.000000 0.500000
vt 0.853553 0.853553
vt 0.500000 1.000000
vt 0.146447 0.853553
vt 0.000000 0.500000
vt 0.146447 0.146447
vt 0.500000 0.000000
vt 0.853553 0.146447
vt 1.000000 0.500000
vt 0.853553 0.853553
vt 0.500000 1.000000
vt 0.146447 0.853553
vt 0.000000 0.500000
vt 0.146447 0.146447
vt 0.500000 0.000000
vt 0.853553 0.146447
vt 0.000000 0.000000
vt 1.000000 0.000000
vt 1.000000 1.000000
vt 0.000000 1.000000
vt 0.000000 0.000000
vt 1.000000 0.000000
vt 1.000000 1.000000
vt 0.000000 1.000000
vt 0.000000 0.000000
vt 1.000000 0.000000
vt 1.000000 1.000000
vt 0.000000 1.000000
vt 0.000000 0.000000
vt 1.000000 0.000000
vt 1.000000 1.000000
vt 0.000000 1.000000
vt 0.000000 0.000000
vt 1.000000 0.000000
vt 1.000000 1.000000
vt 0.000000 1.000000
vt 0.000000 0.000000
vt 1.000000 0.000000
vt 1.000000 1.000000
vt 0.000000 1.000000
vt 0.000000 0.000000
vt 1.000000 0.000000
vt 1.000000 1.000000
vt 0.000000 1.000000
vt 0.000000 0.000000
vt 1.000000 0.000000
vt 1.000000 1.000000
vt 0.000000 1.000000
vt 1.000000 0.500000
vt 0.853553 0.853553
vt 0.500000 1.000000
vt 0.146447 0.853553
vt 0.000000 0.500000
vt 0.146447 0.146447
vt 0.500000 0.000000
vt 0.853553 0.146447
vt 1.000000 0.500000
vt 0.853553 0.853553
vt 0.500000 1.000000
vt 0.146447 0.853553
vt 0.000000 0.500000
vt 0.146447 0.146447
vt 0.500000 0.000000
vt 0.853553 0.146447
vt 0.000000 0.000000
vt 1.000000 0.000000
vt 1.000000 1.000000
vt 0.000000 1.000000
vt 0.000000 0.000000
vt 1.000000 0.000000
vt 1.000000 1.000000
vt 0.000000 1.000000
vt 0.000000 0.000000
vt 1.000000 0.000000
vt 1.000000 1.000000
vt 0.000000 1.000000
vt 0.000000 0.000000
vt 1.000000 0.000000
vt 1.000000 1.000000
vt 0.000000 1.000000
vt 0.000000 0.000000
vt 1.000000 0.000000
vt 1.000000 1.000000
vt 0.000000 1.000000
vt 0.000000 0.000000
vt 1.000000 0.000000
vt 1.000000 1.000000
vt 0.000000 1.000000
vt 0.000000 0.000000
vt 1.000000 0.000000
vt 1.000000 1.000000
vt 0.000000 1.000000
vt 0.000000 0.000000
vt 1.000000 0.000000
vt 1.000000 1.000000
vt 0.000000 1.000000
vt 1.000000 0.500000
vt 0.853553 0.853553
vt 0.500000 1.000000
vt 0.146447 0.853553
vt 0.000000 0.500000
vt 0.146447 0.146447
vt 0.500000 0.000000
vt 0.853553 0.146447
vt 1.000000 0.500000
vt 0.853553 0.853553
vt 0.500000 1.000000
vt 0.146447 0.853553
vt 0.000000 0.500000
vt 0.146447 0.146447
vt 0.500000 0.000000
vt 0.853553 0.146447
vt 0.000000 0.000000
vt 1.000000 0.000000
vt 1.000000 1.000000
vt 0.000000 1.000000
vt 0.000000 0.000000
vt 1.000000 0.000000
vt 1.000000 1.000000
vt 0.000000 1.000000
vt 0.000000 0.000000
vt 1.000000 0.000000
vt 1.000000 1.000000
vt 0.000000 1.000000
vt 0.000000 0.000000
vt 1.000000 0.000000
vt 1.000000 1.000000
vt 0.000000 1.000000
vt 0.000000 0.000000
vt 1.000000 0.000000
vt 1.000000 1.000000
vt 0.000000 1.000000
vt 0.000000 0.000000
vt 1.000000 0.000000
vt 1.000000 1.000000
vt 0.000000 1.000000
vt 0.000000 0.000000
vt 1.000000 0.000000
vt 1.000000 1.000000
vt 0.000000 1.000000
vt 0.000000 0.000000
vt 1.000000 0.000000
vt 1.000000 1.000000
vt 0.000000 1.000000
vt 0.000000 0.000000
vt 1.000000 0.000000
vt 1.000000 1.000000
vt 0.000000 1.000000
vt 0.000000 0.000000
vt 1.000000 0.000000
vt 1.000000 1.000000
vt 0.000000 1.000000
vt 0.000000 0.000000
vt 1.000000 0.000000
vt 1.000000 1.000000
vt 0.000000 1.000000
vt 0.000000 0.000000
vt 1.000000 0.000000
vt 1.000000 1.000000
vt 0.000000 1.000000
vt 0.000000 0.000000
vt 1.000000 0.000000
vt 1.000000 1.000000
vt 0.000000 1.000000
vt 0.000000 0.000000
vt 1.000000 0.000000
vt 1.000000 1.000000
vt 0.000000 1.000000
vt 0.000000 0.000000
vt 1.000000 0.000000
vt 1.000000 1.000000
vt 0.000000 1.000000
vt 0.000000 0.000000
vt 1.000000 0.000000
vt 1.000000 1.000000
vt 0.000000 1.000000
vt 0.000000 0.000000
vt 1.000000 0.000000
vt 1.000000 1.000000
vt 0.000000 1.000000
vt 0.000000 0.000000
vt 1.000000 0.000000
vt 1.000000 1.000000
vt 0.000000 1.000000
vt 0.000000 0.000000
vt 1.000000 0.000000
vt 1.000000 1.000000
vt 0.000000 1.000000
vt 1.000000 0.500000
vt 0.811745 0.890916
vt 0.388740 0.987464
vt 0.049516 0.716942
vt 0.049516 0.283058
vt 0.388740 0.012536
vt 0.811745 0.109084
vt 1.000000 0.500000
vt 0.811745 0.890916
vt 0.388740 0.987464
vt 0.049516 0.716942
vt 0.049516 0.283058
vt 0.388740 0.012536
vt 0.811745 0.109084
vt 0.000000 0.000000
vt 1.000000 0.000000
vt 1.000000 1.000000
vt 0.000000 1.000000
vt 0.000000 0.000000
vt 1.000000 0.000000
vt 1.000000 1.000000
vt 0.000000 1.000000
vt 0.000000 0.000000
vt 1.000000 0.000000
vt 1.000000 1.000000
vt 0.000000 1.000000
vt 0.000000 0.000000
vt 1.000000 0.000000
vt 1.000000 1.000000
vt 0.000000 1.000000
vt 0.000000 0.000000
vt 1.000000 0.000000
vt 1.000000 1.000000
vt 0.000000 1.000000
vt 0.000000 0.000000
vt 1.000000 0.000000
vt 1.000000 1.000000
vt 0.000000 1.000000
vt 0.000000 0.000000
vt 1.000000 0.000000
vt 1.000000 1.000000
vt 0.000000 1.000000
vt 1.000000 0.500000
vt 0.811745 0.890916
vt 0.388740 0.987464
vt 0.049516 0.716942
vt 0.049516 0.283058
vt 0.388740 0.012536
vt 0.811745 0.109084
vt 1.000000 0.500000
vt 0.811745 0.890916
vt 0.388740 0.987464
vt 0.049516 0.716942
vt 0.049516 0.283058
vt 0.388740 0.012536
vt 0.811745 0.109084
vt 0.000000 0.000000
vt 1.000000 0.000000
vt 1.000000 1.000000
vt 0.000000 1.000000
vt 0.000000 0.000000
vt 1.000000 0.000000
vt 1.000000 1.000000
vt 0.000000 1.000000
vt 0.000000 0.000000
vt 1.000000 0.000000
vt 1.000000 1.000000
vt 0.000000 1.000000
vt 0.000000 0.000000
vt 1.000000 0.000000
vt 1.000000 1.000000
vt 0.000000 1.000000
vt 0.000000 0.000000
vt 1.000000 0.000000
vt 1.000000 1.000000
vt 0.000000 1.000000
vt 0.000000 0.000000
vt 1.000000 0.000000
vt 1.000000 1.000000
vt 0.000000 1.000000
vt 0.000000 0.000000
vt 1.000000 0.000000
vt 1.000000 1.000000
vt 0.000000 1.000000
vt 1.000000 0.500000
vt 0.811745 0.890916
vt 0.388740 0.987464
vt 0.049516 0.716942
vt 0.049516 0.283058
vt 0.388740 0.012536
vt 0.811745 0.109084
vt 1.000000 0.500000
vt 0.811745 0.890916
vt 0.388740 0.987464
vt 0.049516 0.716942
vt 0.049516 0.283058
vt 0.388740 0.012536
vt 0.811745 0.109084
vt 0.000000 0.000000
vt 1.000000 0.000000
vt 1.000000 1.000000
vt 0.000000 1.000000
vt 0.000000 0.000000
vt 1.000000 0.000000
vt 1.000000 1.000000
vt 0.000000 1.000000
vt 0.000000 0.000000
vt 1.000000 0.000000
vt 1.000000 1.000000
vt 0.000000 1.000000
vt 0.000000 0.000000
vt 1.000000 0.000000
vt 1.000000 1.000000
vt 0.000000 1.000000
vt 0.000000 0.000000
vt 1.000000 0.000000
vt 1.000000 1.000000
vt 0.000000 1.000000
vt 0.000000 0.000000
vt 1.000000 0.000000
vt 1.000000 1.000000
vt 0.000000 1.000000
vt 0.000000 0.000000
vt 1.000000 0.000000
vt 1.000000 1.000000
vt 0.000000 1.000000
vt 1.000000 0.500000
vt 0.811745 0.890916
vt 0.388740 0.987464
vt 0.049516 0.716942
vt 0.049516 0.283058
vt 0.388740 0.012536
vt 0.811745 0.109084
vt 1.000000 0.500000
vt 0.811745 0.890916
vt 0.388740 0.987464
vt 0.049516 0.716942
vt 0.049516 0.283058
vt 0.388740 0.012536
vt 0.811745 0.109084
vt 0.000000 0.000000
vt 1.000000 0.000000
vt 1.000000 1.000000
vt 0.000000 1.000000
vt 0.000000 0.000000
vt 1.000000 0.000000
vt 1.000000 1.000000
vt 0.000000 1.000000
vt 0.000000 0.000000
vt 1.000000 0.000000
vt 1.000000 1.000000
vt 0.000000 1.000000
vt 0.000000 0.000000
vt 1.000000 0.000000
vt 1.000000 1.000000
vt 0.000000 1.000000
vt 0.000000 0.000000
vt 1.000000 0.000000
vt 1.000000 1.000000
vt 0.000000 1.000000
vt 0.000000 0.000000
vt 1.000000 0.000000
vt 1.000000 1.000000
vt 0.000000 1.000000
vt 0.000000 0.000000
vt 1.000000 0.000000
vt 1.000000 1.000000
vt 0.000000 1.000000
vt 1.000000 0.500000
vt 0.811745 0.890916
vt 0.388740 0.987464
vt 0.049516 0.716942
vt 0.049516 0.283058
vt 0.388740 0.012536
vt 0.811745 0.109084
vt 1.000000 0.500000
vt 0.811745 0.890916
vt 0.388740 0.987464
vt 0.049516 0.716942
vt 0.049516 0.283058
vt 0.388740 0.012536
vt 0.811745 0.109084
vt 0.000000 0.000000
vt 1.000000 0.000000
vt 1.000000 1.000000
vt 0.000000 1.000000
vt 0.000000 0.000000
vt 1.000000 0.000000
vt 1.000000 1.000000
vt 0.000000 1.000000
vt 0.000000 0.000000
vt 1.000000 0.000000
vt 1.000000 1.000000
vt 0.000000 1.000000
vt 0.000000 0.000000
vt 1.000000 0.000000
vt 1.000000 1.000000
vt 0.000000 1.000000
vt 0.000000 0.000000
vt 1.000000 0.000000
vt 1.000000 1.000000
vt 0.000000 1.000000
vt 0.000000 0.000000
vt 1.000000 0.000000
vt 1.000000 1.000000
vt 0.000000 1.000000
vt 0.000000 0.000000
vt 1.000000 0.000000
vt 1.000000 1.000000
vt 0.000000 1.000000
vt 0.000000 0.000000
vt 1.000000 0.000000
vt 1.000000 1.000000
vt 0.000000 1.000000
vt 1.000000 0.500000
vt 0.853553 0.853553
vt 0.500000 1.000000
vt 0.146447 0.853553
vt 0.000000 0.500000
vt 0.146447 0.146447
vt 0.500000 0.000000
vt 0.853553 0.146447
vt 1.000000 0.500000
vt 0.853553 0.853553
vt 0.500000 1.000000
vt 0.146447 0.853553
vt 0.000000 0.500000
vt 0.146447 0.146447
vt 0.500000 0.000000
vt 0.853553 0.146447
vt 0.000000 0.000000
vt 1.000000 0.000000
vt 1.000000 1.000000
vt 0.000000 1.000000
vt 0.000000 0.000000
vt 1.000000 0.000000
vt 1.000000 1.000000
vt 0.000000 1.000000
vt 0.000000 0.000000
vt 1.000000 0.000000
vt 1.000000 1.000000
vt 0.000000 1.000000
vt 0.000000 0.000000
vt 1.000000 0.000000
vt 1.000000 1.000000
vt 0.000000 1.000000
vt 0.000000 0.000000
vt 1.000000 0.000000
vt 1.000000 1.000000
vt 0.000000 1.000000
vt 0.000000 0.000000
vt 1.000000 0.000000
vt 1.000000 1.000000
vt 0.000000 1.000000
vt 0.000000 0.000000
vt 1.000000 0.000000
vt 1.000000 1.000000
vt 0.000000 1.000000
vt 0.000000 0.000000
vt 1.000000 0.000000
vt 1.000000 1.000000
vt 0.000000 1.000000
vt 1.000000 0.500000
vt 0.853553 0.853553
vt 0.500000 1.000000
vt 0.146447 0.853553
vt 0.000000 0.500000
vt 0.146447 0.146447
vt 0.500000 0.000000
vt 0.853553 0.146447
vt 1.000000 0.500000
vt 0.853553 0.853553
vt 0.500000 1.000000
vt 0.146447 0.853553
vt 0.000000 0.500000
vt 0.146447 0.146447
vt 0.500000 0.000000
vt 0.853553 0.146447
vt 0.000000 0.000000
vt 1.000000 0.000000
vt 1.000000 1.000000
vt 0.000000 1.000000
vt 0.000000 0.000000
vt 1.000000 0.000000
vt 1.000000 1.000000
vt 0.000000 1.000000
vt 0.000000 0.000000
vt 1.000000 0.000000
vt 1.000000 1.000000
vt 0.000000 1.000000
vt 0.000000 0.000000
vt 1.000000 0.000000
vt 1.000000 1.000000
vt 0.000000 1.000000
vt 0.000000 0.000000
vt 1.000000 0.000000
vt 1.000000 1.000000
vt 0.000000 1.000000
vt 0.000000 0.000000
vt 1.000000 0.000000
vt 1.000000 1.000000
vt 0.000000 1.000000
vt 0.000000 0.000000
vt 1.000000 0.000000
vt 1.000000 1.000000
vt 0.000000 1.000000
vt 0.000000 0.000000
vt 1.000000 0.000000
vt 1.000000 1.000000
vt 0.000000 1.000000
vt 1.000000 0.500000
vt 0.853553 0.853553
vt 0.500000 1.000000
vt 0.146447 0.853553
vt 0.000000 0.500000
vt 0.146447 0.146447
vt 0.500000 0.000000
vt 0.853553 0.146447
vt 1.000000 0.500000
vt 0.853553 0.853553
vt 0.500000 1.000000
vt 0.146447 0.853553
vt 0.000000 0.500000
vt 0.146447 0.146447
vt 0.500000 0.000000
vt 0.853553 0.146447
vn 0.000000 0.000000 1.000000
vn 0.000000 0.000000 -1.000000
vn 1.000000 0.000000 0.000000
vn -1.000000 0.000000 0.000000
vn 0.000000 -1.000000 0.000000
vn -0.000000 1.000000 0.000000
vn 0.000000 0.000000 1.000000
vn 0.000000 0.000000 -1.000000
vn 1.000000 0.000000 0.000000
vn -1.000000 0.000000 0.000000
vn 0.000000 -1.000000 0.000000
vn -0.000000 1.000000 0.000000
vn -0.951057 0.000000 -0.309017
vn -0.587785 0.000000 -0.809017
vn -0.000000 0.000000 -1.000000
vn 0.587785 0.000000 -0.809017
vn 0.951057 0.000000 -0.309017
vn 0.951057 0.000000 0.309017
vn 0.587785 0.000000 0.809017
vn 0.000000 0.000000 1.000000
vn -0.587785 0.000000 0.809017
vn -0.951057 0.000000 0.309017
vn 0.000000 1.000000 0.000000
vn 0.000000 -1.000000 0.000000
vn -0.951057 0.000000 -0.309017
vn -0.587785 0.000000 -0.809017
vn -0.000000 0.000000 -1.000000
vn 0.587785 0.000000 -0.809017
vn 0.951057 0.000000 -0.309017
vn 0.951057 0.000000 0.309017
vn 0.587785 0.000000 0.809017
vn 0.000000 0.000000 1.000000
vn -0.587785 0.000000 0.809017
vn -0.951057 0.000000 0.309017
vn 0.000000 1.000000 0.000000
vn 0.000000 -1.000000 0.000000
vn -0.951057 0.000000 -0.309017
vn -0.587785 0.000000 -0.809017
vn -0.000000 0.000000 -1.000000
vn 0.587785 0.000000 -0.809017
vn 0.951057 0.000000 -0.309017
vn 0.951057 0.000000 0.309017
vn 0.587785 0.000000 0.809017
vn 0.000000 0.000000 1.000000
vn -0.587785 0.000000 0.809017
vn -0.951057 0.000000 0.309017
vn 0.000000 1.000000 0.000000
vn 0.000000 -1.000000 0.000000
vn -0.951057 0.000000 -0.309017
vn -0.587785 0.000000 -0.809017
vn -0.000000 0.000000 -1.000000
vn 0.587785 0.000000 -0.809017
vn 0.951057 0.000000 -0.309017
vn 0.951057 0.000000 0.309017
vn 0.587785 0.000000 0.809017
vn 0.000000 0.000000 1.000000
vn -0.587785 0.000000 0.809017
vn -0.951057 0.000000 0.309017
vn 0.000000 1.000000 0.000000
vn 0.000000 -1.000000 0.000000
vn 0.000000 0.000000 1.000000
vn 0.000000 0.000000 -1.000000
vn 1.000000 0.000000 0.000000
vn -1.000000 0.000000 0.000000
vn 0.000000 -1.000000 0.000000
vn -0.000000 1.000000 0.000000
vn 0.000000 0.000000 1.000000
vn 0.000000 0.000000 -1.000000
vn 1.000000 0.000000 0.000000
vn -1.000000 0.000000 0.000000
vn 0.000000 -1.000000 0.000000
vn -0.000000 1.000000 0.000000
vn -0.951057 0.000000 -0.309017
vn -0.587785 0.000000 -0.809017
vn 0.000000 0.000000 -1.000000
vn 0.587785 0.000000 -0.809017
vn 0.951057 0.000000 -0.309017
vn 0.951057 0.000000 0.309017
vn 0.587785 0.000000 0.809017
vn 0.000000 0.000000 1.000000
vn -0.587785 0.000000 0.809017
vn -0.951057 0.000000 0.309017
vn 0.000000 1.000000 0.000000
vn 0.000000 -1.000000 0.000000
vn -0.951057 0.000000 -0.309017
vn -0.587785 0.000000 -0.809017
vn 0.000000 0.000000 -1.000000
vn 0.587785 0.000000 -0.809017
vn 0.951057 0.000000 -0.309017
vn 0.951057 0.000000 0.309017
vn 0.587785 0.000000 0.809017
vn 0.000000 0.000000 1.000000
vn -0.587785 0.000000 0.809017
vn -0.951057 0.000000 0.309017
vn 0.000000 1.000000 0.000000
vn 0.000000 -1.000000 0.000000
vn -0.951057 0.000000 -0.309017
vn -0.587785 0.000000 -0.809017
vn 0.000000 0.000000 -1.000000
vn 0.587785 0.000000 -0.809017
vn 0.951057 0.000000 -0.309017
vn 0.951057 0.000000 0.309017
vn 0.587785 0.000000 0.809017
vn 0.000000 0.000000 1.000000
vn -0.587785 0.000000 0.809017
vn -0.951057 0.000000 0.309017
vn 0.000000 1.000000 0.000000
vn 0.000000 -1.000000 0.000000
vn -0.951057 0.000000 -0.309017
vn -0.587785 0.000000 -0.809017
vn 0.000000 0.000000 -1.000000
vn 0.587785 0.000000 -0.809017
vn 0.951057 0.000000 -0.309017
vn 0.951057 0.000000 0.309017
vn 0.587785 0.000000 0.809017
vn 0.000000 0.000000 1.000000
vn -0.587785 0.000000 0.809017
vn -0.951057 0.000000 0.309017
vn 0.000000 1.000000 0.000000
vn 0.000000 -1.000000 0.000000
vn 0.000000 0.000000 1.000000
vn 0.000000 0.000000 -1.000000
vn 1.000000 0.000000 0.000000
vn -1.000000 0.000000 0.000000
vn 0.000000 -1.000000 0.000000
vn -0.000000 1.000000 0.000000
vn 0.000000 0.000000 1.000000
vn 0.000000 0.000000 -1.000000
vn 1.000000 0.000000 0.000000
vn -1.000000 0.000000 0.000000
vn 0.000000 -1.000000 0.000000
vn -0.000000 1.000000 0.000000
vn 0.000000 0.000000 1.000000
vn 0.000000 0.000000 -1.000000
vn 1.000000 0.000000 0.000000
vn -1.000000 0.000000 0.000000
vn 0.000000 -1.000000 0.000000
vn -0.000000 1.000000 0.000000
vn 0.000000 0.000000 1.000000
vn 0.000000 0.000000 -1.000000
vn 1.000000 0.000000 0.000000
vn -1.000000 0.000000 0.000000
vn 0.000000 -1.000000 0.000000
vn -0.000000 1.000000 0.000000
vn 0.000000 0.000000 1.000000
vn 0.000000 0.000000 -1.000000
vn 1.000000 0.000000 0.000000
vn -1.000000 0.000000 0.000000
vn 0.000000 -1.000000 0.000000
vn -0.000000 1.000000 0.000000
vn 0.000000 0.000000 1.000000
vn 0.000000 0.000000 -1.000000
vn 1.000000 0.000000 0.000000
vn -1.000000 0.000000 0.000000
vn 0.000000 -1.000000 0.000000
vn -0.000000 1.000000 0.000000
vn 0.951057 0.000000 -0.309017
vn 0.587785 0.000000 -0.809017
vn 0.000000 0.000000 -1.000000
vn -0.587785 0.000000 -0.809017
vn -0.951057 0.000000 -0.309017
vn -0.951057 0.000000 0.309017
vn -0.587785 0.000000 0.809017
vn 0.000000 0.000000 1.000000
vn 0.587785 0.000000 0.809017
vn 0.951057 0.000000 0.309017
vn 0.000000 -1.000000 0.000000
vn 0.000000 1.000000 0.000000
vn 0.208341 -0.287111 0.934966
vn 0.356177 -0.751667 0.555099
vn 0.367965 -0.929111 -0.036796
vn 0.239203 -0.751667 -0.614637
vn 0.019074 -0.287111 -0.957707
vn -0.208341 0.287111 -0.934966
vn -0.356177 0.751667 -0.555099
vn -0.367965 0.929111 0.036796
vn -0.239203 0.751667 0.614637
vn -0.019074 0.287111 0.957707
vn -0.924500 -0.369800 0.092450
vn 0.924500 0.369800 -0.092450
vn 0.000000 0.000000 1.000000
vn 0.000000 0.000000 -1.000000
vn 1.000000 0.000000 0.000000
vn -1.000000 0.000000 0.000000
vn 0.000000 -1.000000 0.000000
vn -0.000000 1.000000 0.000000
vn 0.000000 0.000000 1.000000
vn 0.000000 0.000000 -1.000000
vn 1.000000 0.000000 0.000000
vn -1.000000 0.000000 0.000000
vn 0.000000 -1.000000 0.000000
vn -0.000000 1.000000 0.000000
vn -0.951057 0.000000 -0.309017
vn -0.587785 0.000000 -0.809017
vn -0.000000 0.000000 -1.000000
vn 0.587785 0.000000 -0.809017
vn 0.951057 0.000000 -0.309017
vn 0.951057 0.000000 0.309017
vn 0.587785 0.000000 0.809017
vn 0.000000 0.000000 1.000000
vn -0.587785 0.000000 0.809017
vn -0.951057 0.000000 0.309017
vn 0.000000 1.000000 0.000000
vn 0.000000 -1.000000 0.000000
vn -0.951057 0.000000 -0.309017
vn -0.587785 0.000000 -0.809017
vn 0.000000 0.000000 -1.000000
vn 0.587785 0.000000 -0.809017
vn 0.951057 0.000000 -0.309017
vn 0.951057 0.000000 0.309017
vn 0.587785 0.000000 0.809017
vn 0.000000 0.000000 1.000000
vn -0.587785 0.000000 0.809017
vn -0.951057 0.000000 0.309017
vn 0.000000 1.000000 0.000000
vn 0.000000 -1.000000 0.000000
vn -0.951057 0.000000 -0.309017
vn -0.587785 0.000000 -0.809017
vn -0.000000 0.000000 -1.000000
vn 0.587785 0.000000 -0.809017
vn 0.951057 0.000000 -0.309017
vn 0.951057 0.000000 0.309017
vn 0.587785 0.000000 0.809017
vn 0.000000 0.000000 1.000000
vn -0.587785 0.000000 0.809017
vn -0.951057 0.000000 0.309017
vn 0.000000 1.000000 0.000000
vn 0.000000 -1.000000 0.000000
vn -0.951057 0.000000 -0.309017
vn -0.587785 0.000000 -0.809017
vn 0.000000 0.000000 -1.000000
vn 0.587785 0.000000 -0.809017
vn 0.951057 0.000000 -0.309017
vn 0.951057 0.000000 0.309017
vn 0.587785 0.000000 0.809017
vn 0.000000 0.000000 1.000000
vn -0.587785 0.000000 0.809017
vn -0.951057 0.000000 0.309017
vn 0.000000 1.000000 0.000000
vn 0.000000 -1.000000 0.000000
vn 0.000000 0.000000 1.000000
vn 0.000000 0.000000 -1.000000
vn 1.000000 0.000000 0.000000
vn -1.000000 0.000000 0.000000
vn 0.000000 -1.000000 0.000000
vn -0.000000 1.000000 0.000000
vn 0.000000 0.000000 1.000000
vn 0.000000 0.000000 -1.000000
vn 1.000000 0.000000 0.000000
vn -1.000000 0.000000 0.000000
vn 0.000000 -1.000000 0.000000
vn -0.000000 1.000000 0.000000
vn -0.923880 0.000000 -0.382683
vn -0.382683 0.000000 -0.923880
vn 0.382683 0.000000 -0.923880
vn 0.923880 0.000000 -0.382683
vn 0.923880 0.000000 0.382683
vn 0.382683 0.000000 0.923880
vn -0.382683 0.000000 0.923880
vn -0.923880 0.000000 0.382683
vn 0.000000 1.000000 0.000000
vn 0.000000 -1.000000 0.000000
vn -0.923880 0.000000 -0.382683
vn -0.382683 0.000000 -0.923880
vn 0.382683 0.000000 -0.923880
vn 0.923880 0.000000 -0.382683
vn 0.923880 0.000000 0.382683
vn 0.382683 0.000000 0.923880
vn -0.382683 0.000000 0.923880
vn -0.923880 0.000000 0.382683
vn 0.000000 1.000000 0.000000
vn 0.000000 -1.000000 0.000000
vn -0.923880 0.000000 -0.382683
vn -0.382683 0.000000 -0.923880
vn 0.382683 0.000000 -0.923880
vn 0.923880 0.000000 -0.382683
vn 0.923880 0.000000 0.382683
vn 0.382683 0.000000 0.923880
vn -0.382683 0.000000 0.923880
vn -0.923880 0.000000 0.382683
vn 0.000000 1.000000 0.000000
vn 0.000000 -1.000000 0.000000
vn -0.923880 0.000000 -0.382683
vn -0.382683 0.000000 -0.923880
vn 0.382683 0.000000 -0.923880
vn 0.923880 0.000000 -0.382683
vn 0.923880 0.000000 0.382683
vn 0.382683 0.000000 0.923880
vn -0.382683 0.000000 0.923880
vn -0.923880 0.000000 0.382683
vn 0.000000 1.000000 0.000000
vn 0.000000 -1.000000 0.000000
vn 0.000000 0.000000 1.000000
vn 0.000000 0.000000 -1.000000
vn 1.000000 0.000000 0.000000
vn -1.000000 0.000000 0.000000
vn 0.000000 -1.000000 0.000000
vn -0.000000 1.000000 0.000000
vn 0.000000 0.000000 1.000000
vn 0.000000 0.000000 -1.000000
vn 1.000000 0.000000 0.000000
vn -1.000000 0.000000 0.000000
vn 0.000000 -1.000000 0.000000
vn -0.000000 1.000000 0.000000
vn 0.290060 -0.249241 -0.923983
vn 0.780141 -0.560039 -0.278812
vn 0.682760 -0.449117 0.576310
vn 0.071247 -0.000000 0.997459
vn -0.593916 0.449117 0.667501
vn -0.811849 0.560039 -0.165099
vn -0.418442 0.249241 -0.873376
vn 0.572982 0.818546 -0.040927
vn -0.572982 -0.818546 0.040927
vn 0.613861 -0.245534 0.750258
vn -0.195843 -0.551711 0.810716
vn -0.858074 -0.442438 0.260689
vn -0.874157 -0.000000 -0.485643
vn -0.231983 0.442438 -0.866275
vn 0.584880 0.551711 -0.594585
vn 0.961316 0.245534 0.124840
vn -0.274825 0.824475 0.494685
vn 0.274825 -0.824475 -0.494685
vn -0.285714 -0.326531 0.900969
vn -0.641995 -0.733708 0.222521
vn -0.514840 -0.588388 -0.623490
vn 0.000000 0.000000 -1.000000
vn 0.514840 0.588388 -0.623490
vn 0.641995 0.733708 0.222521
vn 0.285714 0.326531 0.900969
vn -0.752577 0.658505 -0.000000
vn 0.752577 -0.658505 -0.000000
vn -0.132893 -0.309441 0.941587
vn -0.630685 -0.695307 0.344652
vn -0.653558 -0.557593 -0.511813
vn -0.184289 -0.000000 -0.982872
vn 0.423754 0.557593 -0.713809
vn 0.712701 0.695307 0.092767
vn 0.464970 0.309441 0.829488
vn -0.700973 0.700973 0.131432
vn 0.700973 -0.700973 -0.131432
vn 0.206947 -0.253778 0.944865
vn -0.534529 -0.570233 0.623789
vn -0.873494 -0.457291 -0.167012
vn -0.554700 0.000000 -0.832050
vn 0.181794 0.457291 -0.870537
vn 0.781394 0.570233 -0.253492
vn 0.792588 0.253778 0.554438
vn -0.486664 0.811107 0.324443
vn 0.486664 -0.811107 -0.324443
vn -0.923880 0.000000 -0.382683
vn -0.382683 0.000000 -0.923880
vn 0.382683 0.000000 -0.923880
vn 0.923880 0.000000 -0.382683
vn 0.923880 0.000000 0.382683
vn 0.382683 0.000000 0.923880
vn -0.382683 0.000000 0.923880
vn -0.923880 0.000000 0.382683
vn 0.000000 1.000000 0.000000
vn 0.000000 -1.000000 0.000000
vn -0.923880 0.000000 -0.382683
vn -0.382683 0.000000 -0.923880
vn 0.382683 0.000000 -0.923880
vn 0.923880 0.000000 -0.382683
vn 0.923880 0.000000 0.382683
vn 0.382683 0.000000 0.923880
vn -0.382683 0.000000 0.923880
vn -0.923880 0.000000 0.382683
vn 0.000000 1.000000 0.000000
vn 0.000000 -1.000000 0.000000
vn -0.923880 0.000000 -0.382683
vn -0.382683 0.000000 -0.923880
vn 0.382683 0.000000 -0.923880
vn 0.923880 0.000000 -0.382683
vn 0.923880 0.000000 0.382683
vn 0.382683 0.000000 0.923880
vn -0.382683 0.000000 0.923880
vn -0.923880 0.000000 0.382683
vn 0.000000 1.000000 0.000000
vn 0.000000 -1.000000 0.000000
usemtl rubber_dark
f 1/1/1 2/2/1 3/3/1 4/4/1
f 6/5/2 5/6/2 8/7/2 7/8/2
f 5/9/3 1/10/3 4/11/3 8/12/3
f 2/13/4 6/14/4 7/15/4 3/16/4
f 4/17/5 3/18/5 7/19/5 8/20/5
f 5/21/6 6/22/6 2/23/6 1/24/6
f 9/25/7 10/26/7 11/27/7 12/28/7
f 14/29/8 13/30/8 16/31/8 15/32/8
f 13/33/9 9/34/9 12/35/9 16/36/9
f 10/37/10 14/38/10 15/39/10 11/40/10
f 12/41/11 11/42/11 15/43/11 16/44/11
f 13/45/12 14/46/12 10/47/12 9/48/12
f 17/49/13 19/50/13 20/51/13 18/52/13
f 19/53/14 21/54/14 22/55/14 20/56/14
f 21/57/15 23/58/15 24/59/15 22/60/15
f 23/61/16 25/62/16 26/63/16 24/64/16
f 25/65/17 27/66/17 28/67/17 26/68/17
f 27/69/18 29/70/18 30/71/18 28/72/18
f 29/73/19 31/74/19 32/75/19 30/76/19
f 31/77/20 33/78/20 34/79/20 32/80/20
f 33/81/21 35/82/21 36/83/21 34/84/21
f 35/85/22 17/86/22 18/87/22 36/88/22
f 35/89/23 33/90/23 31/91/23 29/92/23 27/93/23 25/94/23 23/95/23 21/96/23 19/97/23 17/98/23
f 18/99/24 20/100/24 22/101/24 24/102/24 26/103/24 28/104/24 30/105/24 32/106/24 34/107/24 36/108/24
f 37/109/25 39/110/25 40/111/25 38/112/25
f 39/113/26 41/114/26 42/115/26 40/116/26
f 41/117/27 43/118/27 44/119/27 42/120/27
f 43/121/28 45/122/28 46/123/28 44/124/28
f 45/125/29 47/126/29 48/127/29 46/128/29
f 47/129/30 49/130/30 50/131/30 48/132/30
f 49/133/31 51/134/31 52/135/31 50/136/31
f 51/137/32 53/138/32 54/139/32 52/140/32
f 53/141/33 55/142/33 56/143/33 54/144/33
f 55/145/34 37/146/34 38/147/34 56/148/34
f 55/149/35 53/150/35 51/151/35 49/152/35 47/153/35 45/154/35 43/155/35 41/156/35 39/157/35 37/158/35
f 38/159/36 40/160/36 42/161/36 44/162/36 46/163/36 48/164/36 50/165/36 52/166/36 54/167/36 56/168/36
f 57/169/37 59/170/37 60/171/37 58/172/37
f 59/173/38 61/174/38 62/175/38 60/176/38
f 61/177/39 63/178/39 64/179/39 62/180/39
f 63/181/40 65/182/40 66/183/40 64/184/40
f 65/185/41 67/186/41 68/187/41 66/188/41
f 67/189/42 69/190/42 70/191/42 68/192/42
f 69/193/43 71/194/43 72/195/43 70/196/43
f 71/197/44 73/198/44 74/199/44 72/200/44
f 73/201/45 75/202/45 76/203/45 74/204/45
f 75/205/46 57/206/46 58/207/46 76/208/46
f 75/209/47 73/210/47 71/211/47 69/212/47 67/213/47 65/214/47 63/215/47 61/216/47 59/217/47 57/218/47
f 58/219/48 60/220/48 62/221/48 64/222/48 66/223/48 68/224/48 70/225/48 72/226/48 74/227/48 76/228/48
f 77/229/49 79/230/49 80/231/49 78/232/49
f 79/233/50 81/234/50 82/235/50 80/236/50
f 81/237/51 83/238/51 84/239/51 82/240/51
f 83/241/52 85/242/52 86/243/52 84/244/52
f 85/245/53 87/246/53 88/247/53 86/248/53
f 87/249/54 89/250/54 90/251/54 88/252/54
f 89/253/55 91/254/55 92/255/55 90/256/55
f 91/257/56 93/258/56 94/259/56 92/260/56
f 93/261/57 95/262/57 96/263/57 94/264/57
f 95/265/58 77/266/58 78/267/58 96/268/58
f 95/269/59 93/270/59 91/271/59 89/272/59 87/273/59 85/274/59 83/275/59 81/276/59 79/277/59 77/278/59
f 78/279/60 80/280/60 82/281/60 84/282/60 86/283/60 88/284/60 90/285/60 92/286/60 94/287/60 96/288/60
usemtl monitor_glass
f 97/289/61 98/290/61 99/291/61 100/292/61
f 102/293/62 101/294/62 104/295/62 103/296/62
f 101/297/63 97/298/63 100/299/63 104/300/63
f 98/301/64 102/302/64 103/303/64 99/304/64
f 100/305/65 99/306/65 103/307/65 104/308/65
f 101/309/66 102/310/66 98/311/66 97/312/66
f 105/313/67 106/314/67 107/315/67 108/316/67
f 110/317/68 109/318/68 112/319/68 111/320/68
f 109/321/69 105/322/69 108/323/69 112/324/69
f 106/325/70 110/326/70 111/327/70 107/328/70
f 108/329/71 107/330/71 111/331/71 112/332/71
f 109/333/72 110/334/72 106/335/72 105/336/72
f 113/337/73 115/338/73 116/339/73 114/340/73
f 115/341/74 117/342/74 118/343/74 116/344/74
f 117/345/75 119/346/75 120/347/75 118/348/75
f 119/349/76 121/350/76 122/351/76 120/352/76
f 121/353/77 123/354/77 124/355/77 122/356/77
f 123/357/78 125/358/78 126/359/78 124/360/78
f 125/361/79 127/362/79 128/363/79 126/364/79
f 127/365/80 129/366/80 130/367/80 128/368/80
f 129/369/81 131/370/81 132/371/81 130/372/81
f 131/373/82 113/374/82 114/375/82 132/376/82
f 131/377/83 129/378/83 127/379/83 125/380/83 123/381/83 121/382/83 119/383/83 117/384/83 115/385/83 113/386/83
f 114/387/84 116/388/84 118/389/84 120/390/84 122/391/84 124/392/84 126/393/84 128/394/84 130/395/84 132/396/84
f 133/397/85 135/398/85 136/399/85 134/400/85
f 135/401/86 137/402/86 138/403/86 136/404/86
f 137/405/87 139/406/87 140/407/87 138/408/87
f 139/409/88 141/410/88 142/411/88 140/412/88
f 141/413/89 143/414/89 144/415/89 142/416/89
f 143/417/90 145/418/90 146/419/90 144/420/90
f 145/421/91 147/422/91 148/423/91 146/424/91
f 147/425/92 149/426/92 150/427/92 148/428/92
f 149/429/93 151/430/93 152/431/93 150/432/93
f 151/433/94 133/434/94 134/435/94 152/436/94
f 151/437/95 149/438/95 147/439/95 145/440/95 143/441/95 141/442/95 139/443/95 137/444/95 135/445/95 133/446/95
f 134/447/96 136/448/96 138/449/96 140/450/96 142/451/96 144/452/96 146/453/96 148/454/96 150/455/96 152/456/96
f 153/457/97 155/458/97 156/459/97 154/460/97
f 155/461/98 157/462/98 158/463/98 156/464/98
f 157/465/99 159/466/99 160/467/99 158/468/99
f 159/469/100 161/470/100 162/471/100 160/472/100
f 161/473/101 163/474/101 164/475/101 162/476/101
f 163/477/102 165/478/102 166/479/102 164/480/102
f 165/481/103 167/482/103 168/483/103 166/484/103
f 167/485/104 169/486/104 170/487/104 168/488/104
f 169/489/105 171/490/105 172/491/105 170/492/105
f 171/493/106 153/494/106 154/495/106 172/496/106
f 171/497/107 169/498/107 167/499/107 165/500/107 163/501/107 161/502/107 159/503/107 157/504/107 155/505/107 153/506/107
f 154/507/108 156/508/108 158/509/108 160/510/108 162/511/108 164/512/108 166/513/108 168/514/108 170/515/108 172/516/108
f 173/517/109 175/518/109 176/519/109 174/520/109
f 175/521/110 177/522/110 178/523/110 176/524/110
f 177/525/111 179/526/111 180/527/111 178/528/111
f 179/529/112 181/530/112 182/531/112 180/532/112
f 181/533/113 183/534/113 184/535/113 182/536/113
f 183/537/114 185/538/114 186/539/114 184/540/114
f 185/541/115 187/542/115 188/543/115 186/544/115
f 187/545/116 189/546/116 190/547/116 188/548/116
f 189/549/117 191/550/117 192/551/117 190/552/117
f 191/553/118 173/554/118 174/555/118 192/556/118
f 191/557/119 189/558/119 187/559/119 185/560/119 183/561/119 181/562/119 179/563/119 177/564/119 175/565/119 173/566/119
f 174/567/120 176/568/120 178/569/120 180/570/120 182/571/120 184/572/120 186/573/120 188/574/120 190/575/120 192/576/120
usemtl medical_green
f 193/577/121 194/578/121 195/579/121 196/580/121
f 198/581/122 197/582/122 200/583/122 199/584/122
f 197/585/123 193/586/123 196/587/123 200/588/123
f 194/589/124 198/590/124 199/591/124 195/592/124
f 196/593/125 195/594/125 199/595/125 200/596/125
f 197/597/126 198/598/126 194/599/126 193/600/126
f 201/601/127 202/602/127 203/603/127 204/604/127
f 206/605/128 205/606/128 208/607/128 207/608/128
f 205/609/129 201/610/129 204/611/129 208/612/129
f 202/613/130 206/614/130 207/615/130 203/616/130
f 204/617/131 203/618/131 207/619/131 208/620/131
f 205/621/132 206/622/132 202/623/132 201/624/132
f 209/625/133 210/626/133 211/627/133 212/628/133
f 214/629/134 213/630/134 216/631/134 215/632/134
f 213/633/135 209/634/135 212/635/135 216/636/135
f 210/637/136 214/638/136 215/639/136 211/640/136
f 212/641/137 211/642/137 215/643/137 216/644/137
f 213/645/138 214/646/138 210/647/138 209/648/138
usemtl signal_yellow
f 217/649/139 218/650/139 219/651/139 220/652/139
f 222/653/140 221/654/140 224/655/140 223/656/140
f 221/657/141 217/658/141 220/659/141 224/660/141
f 218/661/142 222/662/142 223/663/142 219/664/142
f 220/665/143 219/666/143 223/667/143 224/668/143
f 221/669/144 222/670/144 218/671/144 217/672/144
usemtl warning_red
f 225/673/145 226/674/145 227/675/145 228/676/145
f 230/677/146 229/678/146 232/679/146 231/680/146
f 229/681/147 225/682/147 228/683/147 232/684/147
f 226/685/148 230/686/148 231/687/148 227/688/148
f 228/689/149 227/690/149 231/691/149 232/692/149
f 229/693/150 230/694/150 226/695/150 225/696/150
usemtl fluid_blue
f 233/697/151 234/698/151 235/699/151 236/700/151
f 238/701/152 237/702/152 240/703/152 239/704/152
f 237/705/153 233/706/153 236/707/153 240/708/153
f 234/709/154 238/710/154 239/711/154 235/712/154
f 236/713/155 235/714/155 239/715/155 240/716/155
f 237/717/156 238/718/156 234/719/156 233/720/156
usemtl metal
f 241/721/157 243/722/157 244/723/157 242/724/157
f 243/725/158 245/726/158 246/727/158 244/728/158
f 245/729/159 247/730/159 248/731/159 246/732/159
f 247/733/160 249/734/160 250/735/160 248/736/160
f 249/737/161 251/738/161 252/739/161 250/740/161
f 251/741/162 253/742/162 254/743/162 252/744/162
f 253/745/163 255/746/163 256/747/163 254/748/163
f 255/749/164 257/750/164 258/751/164 256/752/164
f 257/753/165 259/754/165 260/755/165 258/756/165
f 259/757/166 241/758/166 242/759/166 260/760/166
f 259/761/167 257/762/167 255/763/167 253/764/167 251/765/167 249/766/167 247/767/167 245/768/167 243/769/167 241/770/167
f 242/771/168 244/772/168 246/773/168 248/774/168 250/775/168 252/776/168 254/777/168 256/778/168 258/779/168 260/780/168
f 261/781/169 263/782/169 264/783/169 262/784/169
f 263/785/170 265/786/170 266/787/170 264/788/170
f 265/789/171 267/790/171 268/791/171 266/792/171
f 267/793/172 269/794/172 270/795/172 268/796/172
f 269/797/173 271/798/173 272/799/173 270/800/173
f 271/801/174 273/802/174 274/803/174 272/804/174
f 273/805/175 275/806/175 276/807/175 274/808/175
f 275/809/176 277/810/176 278/811/176 276/812/176
f 277/813/177 279/814/177 280/815/177 278/816/177
f 279/817/178 261/818/178 262/819/178 280/820/178
f 279/821/179 277/822/179 275/823/179 273/824/179 271/825/179 269/826/179 267/827/179 265/828/179 263/829/179 261/830/179
f 262/831/180 264/832/180 266/833/180 268/834/180 270/835/180 272/836/180 274/837/180 276/838/180 278/839/180 280/840/180
f 281/841/181 282/842/181 283/843/181 284/844/181
f 286/845/182 285/846/182 288/847/182 287/848/182
f 285/849/183 281/850/183 284/851/183 288/852/183
f 282/853/184 286/854/184 287/855/184 283/856/184
f 284/857/185 283/858/185 287/859/185 288/860/185
f 285/861/186 286/862/186 282/863/186 281/864/186
f 289/865/187 290/866/187 291/867/187 292/868/187
f 294/869/188 293/870/188 296/871/188 295/872/188
f 293/873/189 289/874/189 292/875/189 296/876/189
f 290/877/190 294/878/190 295/879/190 291/880/190
f 292/881/191 291/882/191 295/883/191 296/884/191
f 293/885/192 294/886/192 290/887/192 289/888/192
f 297/889/193 299/890/193 300/891/193 298/892/193
f 299/893/194 301/894/194 302/895/194 300/896/194
f 301/897/195 303/898/195 304/899/195 302/900/195
f 303/901/196 305/902/196 306/903/196 304/904/196
f 305/905/197 307/906/197 308/907/197 306/908/197
f 307/909/198 309/910/198 310/911/198 308/912/198
f 309/913/199 311/914/199 312/915/199 310/916/199
f 311/917/200 313/918/200 314/919/200 312/920/200
f 313/921/201 315/922/201 316/923/201 314/924/201
f 315/925/202 297/926/202 298/927/202 316/928/202
f 315/929/203 313/930/203 311/931/203 309/932/203 307/933/203 305/934/203 303/935/203 301/936/203 299/937/203 297/938/203
f 298/939/204 300/940/204 302/941/204 304/942/204 306/943/204 308/944/204 310/945/204 312/946/204 314/947/204 316/948/204
f 317/949/205 319/950/205 320/951/205 318/952/205
f 319/953/206 321/954/206 322/955/206 320/956/206
f 321/957/207 323/958/207 324/959/207 322/960/207
f 323/961/208 325/962/208 326/963/208 324/964/208
f 325/965/209 327/966/209 328/967/209 326/968/209
f 327/969/210 329/970/210 330/971/210 328/972/210
f 329/973/211 331/974/211 332/975/211 330/976/211
f 331/977/212 333/978/212 334/979/212 332/980/212
f 333/981/213 335/982/213 336/983/213 334/984/213
f 335/985/214 317/986/214 318/987/214 336/988/214
f 335/989/215 333/990/215 331/991/215 329/992/215 327/993/215 325/994/215 323/995/215 321/996/215 319/997/215 317/998/215
f 318/999/216 320/1000/216 322/1001/216 324/1002/216 326/1003/216 328/1004/216 330/1005/216 332/1006/216 334/1007/216 336/1008/216
f 337/1009/217 339/1010/217 340/1011/217 338/1012/217
f 339/1013/218 341/1014/218 342/1015/218 340/1016/218
f 341/1017/219 343/1018/219 344/1019/219 342/1020/219
f 343/1021/220 345/1022/220 346/1023/220 344/1024/220
f 345/1025/221 347/1026/221 348/1027/221 346/1028/221
f 347/1029/222 349/1030/222 350/1031/222 348/1032/222
f 349/1033/223 351/1034/223 352/1035/223 350/1036/223
f 351/1037/224 353/1038/224 354/1039/224 352/1040/224
f 353/1041/225 355/1042/225 356/1043/225 354/1044/225
f 355/1045/226 337/1046/226 338/1047/226 356/1048/226
f 355/1049/227 353/1050/227 351/1051/227 349/1052/227 347/1053/227 345/1054/227 343/1055/227 341/1056/227 339/1057/227 337/1058/227
f 338/1059/228 340/1060/228 342/1061/228 344/1062/228 346/1063/228 348/1064/228 350/1065/228 352/1066/228 354/1067/228 356/1068/228
f 357/1069/229 359/1070/229 360/1071/229 358/1072/229
f 359/1073/230 361/1074/230 362/1075/230 360/1076/230
f 361/1077/231 363/1078/231 364/1079/231 362/1080/231
f 363/1081/232 365/1082/232 366/1083/232 364/1084/232
f 365/1085/233 367/1086/233 368/1087/233 366/1088/233
f 367/1089/234 369/1090/234 370/1091/234 368/1092/234
f 369/1093/235 371/1094/235 372/1095/235 370/1096/235
f 371/1097/236 373/1098/236 374/1099/236 372/1100/236
f 373/1101/237 375/1102/237 376/1103/237 374/1104/237
f 375/1105/238 357/1106/238 358/1107/238 376/1108/238
f 375/1109/239 373/1110/239 371/1111/239 369/1112/239 367/1113/239 365/1114/239 363/1115/239 361/1116/239 359/1117/239 357/1118/239
f 358/1119/240 360/1120/240 362/1121/240 364/1122/240 366/1123/240 368/1124/240 370/1125/240 372/1126/240 374/1127/240 376/1128/240
usemtl warning_red
f 377/1129/241 378/1130/241 379/1131/241 380/1132/241
f 382/1133/242 381/1134/242 384/1135/242 383/1136/242
f 381/1137/243 377/1138/243 380/1139/243 384/1140/243
f 378/1141/244 382/1142/244 383/1143/244 379/1144/244
f 380/1145/245 379/1146/245 383/1147/245 384/1148/245
f 381/1149/246 382/1150/246 378/1151/246 377/1152/246
f 385/1153/247 386/1154/247 387/1155/247 388/1156/247
f 390/1157/248 389/1158/248 392/1159/248 391/1160/248
f 389/1161/249 385/1162/249 388/1163/249 392/1164/249
f 386/1165/250 390/1166/250 391/1167/250 387/1168/250
f 388/1169/251 387/1170/251 391/1171/251 392/1172/251
f 389/1173/252 390/1174/252 386/1175/252 385/1176/252
f 393/1177/253 395/1178/253 396/1179/253 394/1180/253
f 395/1181/254 397/1182/254 398/1183/254 396/1184/254
f 397/1185/255 399/1186/255 400/1187/255 398/1188/255
f 399/1189/256 401/1190/256 402/1191/256 400/1192/256
f 401/1193/257 403/1194/257 404/1195/257 402/1196/257
f 403/1197/258 405/1198/258 406/1199/258 404/1200/258
f 405/1201/259 407/1202/259 408/1203/259 406/1204/259
f 407/1205/260 393/1206/260 394/1207/260 408/1208/260
f 407/1209/261 405/1210/261 403/1211/261 401/1212/261 399/1213/261 397/1214/261 395/1215/261 393/1216/261
f 394/1217/262 396/1218/262 398/1219/262 400/1220/262 402/1221/262 404/1222/262 406/1223/262 408/1224/262
f 409/1225/263 411/1226/263 412/1227/263 410/1228/263
f 411/1229/264 413/1230/264 414/1231/264 412/1232/264
f 413/1233/265 415/1234/265 416/1235/265 414/1236/265
f 415/1237/266 417/1238/266 418/1239/266 416/1240/266
f 417/1241/267 419/1242/267 420/1243/267 418/1244/267
f 419/1245/268 421/1246/268 422/1247/268 420/1248/268
f 421/1249/269 423/1250/269 424/1251/269 422/1252/269
f 423/1253/270 409/1254/270 410/1255/270 424/1256/270
f 423/1257/271 421/1258/271 419/1259/271 417/1260/271 415/1261/271 413/1262/271 411/1263/271 409/1264/271
f 410/1265/272 412/1266/272 414/1267/272 416/1268/272 418/1269/272 420/1270/272 422/1271/272 424/1272/272
f 425/1273/273 427/1274/273 428/1275/273 426/1276/273
f 427/1277/274 429/1278/274 430/1279/274 428/1280/274
f 429/1281/275 431/1282/275 432/1283/275 430/1284/275
f 431/1285/276 433/1286/276 434/1287/276 432/1288/276
f 433/1289/277 435/1290/277 436/1291/277 434/1292/277
f 435/1293/278 437/1294/278 438/1295/278 436/1296/278
f 437/1297/279 439/1298/279 440/1299/279 438/1300/279
f 439/1301/280 425/1302/280 426/1303/280 440/1304/280
f 439/1305/281 437/1306/281 435/1307/281 433/1308/281 431/1309/281 429/1310/281 427/1311/281 425/1312/281
f 426/1313/282 428/1314/282 430/1315/282 432/1316/282 434/1317/282 436/1318/282 438/1319/282 440/1320/282
f 441/1321/283 443/1322/283 444/1323/283 442/1324/283
f 443/1325/284 445/1326/284 446/1327/284 444/1328/284
f 445/1329/285 447/1330/285 448/1331/285 446/1332/285
f 447/1333/286 449/1334/286 450/1335/286 448/1336/286
f 449/1337/287 451/1338/287 452/1339/287 450/1340/287
f 451/1341/288 453/1342/288 454/1343/288 452/1344/288
f 453/1345/289 455/1346/289 456/1347/289 454/1348/289
f 455/1349/290 441/1350/290 442/1351/290 456/1352/290
f 455/1353/291 453/1354/291 451/1355/291 449/1356/291 447/1357/291 445/1358/291 443/1359/291 441/1360/291
f 442/1361/292 444/1362/292 446/1363/292 448/1364/292 450/1365/292 452/1366/292 454/1367/292 456/1368/292
usemtl warm_indicator
f 457/1369/293 458/1370/293 459/1371/293 460/1372/293
f 462/1373/294 461/1374/294 464/1375/294 463/1376/294
f 461/1377/295 457/1378/295 460/1379/295 464/1380/295
f 458/1381/296 462/1382/296 463/1383/296 459/1384/296
f 460/1385/297 459/1386/297 463/1387/297 464/1388/297
f 461/1389/298 462/1390/298 458/1391/298 457/1392/298
usemtl sterile_blue
f 465/1393/299 466/1394/299 467/1395/299 468/1396/299
f 470/1397/300 469/1398/300 472/1399/300 471/1400/300
f 469/1401/301 465/1402/301 468/1403/301 472/1404/301
f 466/1405/302 470/1406/302 471/1407/302 467/1408/302
f 468/1409/303 467/1410/303 471/1411/303 472/1412/303
f 469/1413/304 470/1414/304 466/1415/304 465/1416/304
usemtl rubber_dark
f 473/1417/305 475/1418/305 476/1419/305 474/1420/305
f 475/1421/306 477/1422/306 478/1423/306 476/1424/306
f 477/1425/307 479/1426/307 480/1427/307 478/1428/307
f 479/1429/308 481/1430/308 482/1431/308 480/1432/308
f 481/1433/309 483/1434/309 484/1435/309 482/1436/309
f 483/1437/310 485/1438/310 486/1439/310 484/1440/310
f 485/1441/311 473/1442/311 474/1443/311 486/1444/311
f 485/1445/312 483/1446/312 481/1447/312 479/1448/312 477/1449/312 475/1450/312 473/1451/312
f 474/1452/313 476/1453/313 478/1454/313 480/1455/313 482/1456/313 484/1457/313 486/1458/313
f 487/1459/314 489/1460/314 490/1461/314 488/1462/314
f 489/1463/315 491/1464/315 492/1465/315 490/1466/315
f 491/1467/316 493/1468/316 494/1469/316 492/1470/316
f 493/1471/317 495/1472/317 496/1473/317 494/1474/317
f 495/1475/318 497/1476/318 498/1477/318 496/1478/318
f 497/1479/319 499/1480/319 500/1481/319 498/1482/319
f 499/1483/320 487/1484/320 488/1485/320 500/1486/320
f 499/1487/321 497/1488/321 495/1489/321 493/1490/321 491/1491/321 489/1492/321 487/1493/321
f 488/1494/322 490/1495/322 492/1496/322 494/1497/322 496/1498/322 498/1499/322 500/1500/322
f 501/1501/323 503/1502/323 504/1503/323 502/1504/323
f 503/1505/324 505/1506/324 506/1507/324 504/1508/324
f 505/1509/325 507/1510/325 508/1511/325 506/1512/325
f 507/1513/326 509/1514/326 510/1515/326 508/1516/326
f 509/1517/327 511/1518/327 512/1519/327 510/1520/327
f 511/1521/328 513/1522/328 514/1523/328 512/1524/328
f 513/1525/329 501/1526/329 502/1527/329 514/1528/329
f 513/1529/330 511/1530/330 509/1531/330 507/1532/330 505/1533/330 503/1534/330 501/1535/330
f 502/1536/331 504/1537/331 506/1538/331 508/1539/331 510/1540/331 512/1541/331 514/1542/331
usemtl medical_green
f 515/1543/332 517/1544/332 518/1545/332 516/1546/332
f 517/1547/333 519/1548/333 520/1549/333 518/1550/333
f 519/1551/334 521/1552/334 522/1553/334 520/1554/334
f 521/1555/335 523/1556/335 524/1557/335 522/1558/335
f 523/1559/336 525/1560/336 526/1561/336 524/1562/336
f 525/1563/337 527/1564/337 528/1565/337 526/1566/337
f 527/1567/338 515/1568/338 516/1569/338 528/1570/338
f 527/1571/339 525/1572/339 523/1573/339 521/1574/339 519/1575/339 517/1576/339 515/1577/339
f 516/1578/340 518/1579/340 520/1580/340 522/1581/340 524/1582/340 526/1583/340 528/1584/340
f 529/1585/341 531/1586/341 532/1587/341 530/1588/341
f 531/1589/342 533/1590/342 534/1591/342 532/1592/342
f 533/1593/343 535/1594/343 536/1595/343 534/1596/343
f 535/1597/344 537/1598/344 538/1599/344 536/1600/344
f 537/1601/345 539/1602/345 540/1603/345 538/1604/345
f 539/1605/346 541/1606/346 542/1607/346 540/1608/346
f 541/1609/347 529/1610/347 530/1611/347 542/1612/347
f 541/1613/348 539/1614/348 537/1615/348 535/1616/348 533/1617/348 531/1618/348 529/1619/348
f 530/1620/349 532/1621/349 534/1622/349 536/1623/349 538/1624/349 540/1625/349 542/1626/349
usemtl metal
f 543/1627/350 545/1628/350 546/1629/350 544/1630/350
f 545/1631/351 547/1632/351 548/1633/351 546/1634/351
f 547/1635/352 549/1636/352 550/1637/352 548/1638/352
f 549/1639/353 551/1640/353 552/1641/353 550/1642/353
f 551/1643/354 553/1644/354 554/1645/354 552/1646/354
f 553/1647/355 555/1648/355 556/1649/355 554/1650/355
f 555/1651/356 557/1652/356 558/1653/356 556/1654/356
f 557/1655/357 543/1656/357 544/1657/357 558/1658/357
f 557/1659/358 555/1660/358 553/1661/358 551/1662/358 549/1663/358 547/1664/358 545/1665/358 543/1666/358
f 544/1667/359 546/1668/359 548/1669/359 550/1670/359 552/1671/359 554/1672/359 556/1673/359 558/1674/359
usemtl signal_yellow
f 559/1675/360 561/1676/360 562/1677/360 560/1678/360
f 561/1679/361 563/1680/361 564/1681/361 562/1682/361
f 563/1683/362 565/1684/362 566/1685/362 564/1686/362
f 565/1687/363 567/1688/363 568/1689/363 566/1690/363
f 567/1691/364 569/1692/364 570/1693/364 568/1694/364
f 569/1695/365 571/1696/365 572/1697/365 570/1698/365
f 571/1699/366 573/1700/366 574/1701/366 572/1702/366
f 573/1703/367 559/1704/367 560/1705/367 574/1706/367
f 573/1707/368 571/1708/368 569/1709/368 567/1710/368 565/1711/368 563/1712/368 561/1713/368 559/1714/368
f 560/1715/369 562/1716/369 564/1717/369 566/1718/369 568/1719/369 570/1720/369 572/1721/369 574/1722/369
usemtl fluid_blue
f 575/1723/370 577/1724/370 578/1725/370 576/1726/370
f 577/1727/371 579/1728/371 580/1729/371 578/1730/371
f 579/1731/372 581/1732/372 582/1733/372 580/1734/372
f 581/1735/373 583/1736/373 584/1737/373 582/1738/373
f 583/1739/374 585/1740/374 586/1741/374 584/1742/374
f 585/1743/375 587/1744/375 588/1745/375 586/1746/375
f 587/1747/376 589/1748/376 590/1749/376 588/1750/376
f 589/1751/377 575/1752/377 576/1753/377 590/1754/377
f 589/1755/378 587/1756/378 585/1757/378 583/1758/378 581/1759/378 579/1760/378 577/1761/378 575/1762/378
f 576/1763/379 578/1764/379 580/1765/379 582/1766/379 584/1767/379 586/1768/379 588/1769/379 590/1770/379
