# Generated by tools/generate_hospital_ward_assets.py
mtllib hospital_ward_materials.mtl
o privacy_curtain
v -0.850000 2.027500 -0.022500
v 0.850000 2.027500 -0.022500
v 0.850000 2.072500 -0.022500
v -0.850000 2.072500 -0.022500
v -0.850000 2.027500 0.022500
v 0.850000 2.027500 0.022500
v 0.850000 2.072500 0.022500
v -0.850000 2.072500 0.022500
v -0.860000 0.360000 0.008000
v -0.740000 0.360000 0.008000
v -0.740000 1.960000 0.072000
v -0.860000 1.960000 0.072000
v -0.820000 1.960000 0.025000
v -0.780000 1.960000 0.025000
v -0.780000 2.040000 0.025000
v -0.820000 2.040000 0.025000
v -0.820000 1.960000 0.055000
v -0.780000 1.960000 0.055000
v -0.780000 2.040000 0.055000
v -0.820000 2.040000 0.055000
v -0.660000 0.360000 -0.072000
v -0.540000 0.360000 -0.072000
v -0.540000 1.960000 -0.008000
v -0.660000 1.960000 -0.008000
v -0.620000 1.960000 -0.055000
v -0.580000 1.960000 -0.055000
v -0.580000 2.040000 -0.055000
v -0.620000 2.040000 -0.055000
v -0.620000 1.960000 -0.025000
v -0.580000 1.960000 -0.025000
v -0.580000 2.040000 -0.025000
v -0.620000 2.040000 -0.025000
v -0.460000 0.360000 0.008000
v -0.340000 0.360000 0.008000
v -0.340000 1.960000 0.072000
v -0.460000 1.960000 0.072000
v -0.420000 1.960000 0.025000
v -0.380000 1.960000 0.025000
v -0.380000 2.040000 0.025000
v -0.420000 2.040000 0.025000
v -0.420000 1.960000 0.055000
v -0.380000 1.960000 0.055000
v -0.380000 2.040000 0.055000
v -0.420000 2.040000 0.055000
v -0.260000 0.360000 -0.072000
v -0.140000 0.360000 -0.072000
v -0.140000 1.960000 -0.008000
v -0.260000 1.960000 -0.008000
v -0.220000 1.960000 -0.055000
v -0.180000 1.960000 -0.055000
v -0.180000 2.040000 -0.055000
v -0.220000 2.040000 -0.055000
v -0.220000 1.960000 -0.025000
v -0.180000 1.960000 -0.025000
v -0.180000 2.040000 -0.025000
v -0.220000 2.040000 -0.025000
v -0.060000 0.360000 0.008000
v 0.060000 0.360000 0.008000
v 0.060000 1.960000 0.072000
v -0.060000 1.960000 0.072000
v -0.020000 1.960000 0.025000
v 0.020000 1.960000 0.025000
v 0.020000 2.040000 0.025000
v -0.020000 2.040000 0.025000
v -0.020000 1.960000 0.055000
v 0.020000 1.960000 0.055000
v 0.020000 2.040000 0.055000
v -0.020000 2.040000 0.055000
v 0.140000 0.360000 -0.072000
v 0.260000 0.360000 -0.072000
v 0.260000 1.960000 -0.008000
v 0.140000 1.960000 -0.008000
v 0.180000 1.960000 -0.055000
v 0.220000 1.960000 -0.055000
v 0.220000 2.040000 -0.055000
v 0.180000 2.040000 -0.055000
v 0.180000 1.960000 -0.025000
v 0.220000 1.960000 -0.025000
v 0.220000 2.040000 -0.025000
v 0.180000 2.040000 -0.025000
v 0.340000 0.360000 0.008000
v 0.460000 0.360000 0.008000
v 0.460000 1.960000 0.072000
v 0.340000 1.960000 0.072000
v 0.380000 1.960000 0.025000
v 0.420000 1.960000 0.025000
v 0.420000 2.040000 0.025000
v 0.380000 2.040000 0.025000
v 0.380000 1.960000 0.055000
v 0.420000 1.960000 0.055000
v 0.420000 2.040000 0.055000
v 0.380000 2.040000 0.055000
v 0.540000 0.360000 -0.072000
v 0.660000 0.360000 -0.072000
v 0.660000 1.960000 -0.008000
v 0.540000 1.960000 -0.008000
v 0.580000 1.960000 -0.055000
v 0.620000 1.960000 -0.055000
v 0.620000 2.040000 -0.055000
v 0.580000 2.040000 -0.055000
v 0.580000 1.960000 -0.025000
v 0.620000 1.960000 -0.025000
v 0.620000 2.040000 -0.025000
v 0.580000 2.040000 -0.025000
v 0.740000 0.360000 0.008000
v 0.860000 0.360000 0.008000
v 0.860000 1.960000 0.072000
v 0.740000 1.960000 0.072000
v 0.780000 1.960000 0.025000
v 0.820000 1.960000 0.025000
v 0.820000 2.040000 0.025000
v 0.780000 2.040000 0.025000
v 0.780000 1.960000 0.055000
v 0.820000 1.960000 0.055000
v 0.820000 2.040000 0.055000
v 0.780000 2.040000 0.055000
vt 0.000000 0.000000
vt 1.000000 0.000000
vt 1.000000 1.000000
vt 0.000000 1.000000
vt 0.000000 0.000000
vt 1.000000 0.000000
vt 1.000000 1.000000
vt 0.000000 1.000000
vt 0.000000 0.000000
vt 1.000000 0.000000
vt 1.000000 1.000000
vt 0.000000 1.000000
vt 0.000000 0.000000
vt 1.000000 0.000000
vt 1.000000 1.000000
vt 0.000000 1.000000
vt 0.000000 0.000000
vt 1.000000 0.000000
vt 1.000000 1.000000
vt 0.000000 1.000000
vt 0.000000 0.000000
vt 1.000000 0.000000
vt 1.000000 1.000000
vt 0.000000 1.000000
vt 0.000000 0.000000
vt 1.000000 0.000000
vt 1.000000 1.000000
vt 0.000000 1.000000
vt 0.000000 0.000000
vt 1.000000 0.000000
vt 1.000000 1.000000
vt 0.000000 1.000000
vt 0.000000 0.000000
vt 1.000000 0.000000
vt 1.000000 1.000000
vt 0.000000 1.000000
vt 0.000000 0.000000
vt 1.000000 0.000000
vt 1.000000 1.000000
vt 0.000000 1.000000
vt 0.000000 0.000000
vt 1.000000 0.000000
vt 1.000000 1.000000
vt 0.000000 1.000000
vt 0.000000 0.000000
vt 1.000000 0.000000
vt 1.000000 1.000000
vt 0.000000 1.000000
vt 0.000000 0.000000
vt 1.000000 0.000000
vt 1.000000 1.000000
vt 0.000000 1.000000
vt 0.000000 0.000000
vt 1.000000 0.000000
vt 1.000000 1.000000
vt 0.000000 1.000000
vt 0.000000 0.000000
vt 1.000000 0.000000
vt 1.000000 1.000000
vt 0.000000 1.000000
vt 0.000000 0.000000
vt 1.000000 0.000000
vt 1.000000 1.000000
vt 0.000000 1.000000
vt 0.000000 0.000000
vt 1.000000 0.000000
vt 1.000000 1.000000
vt 0.000000 1.000000
vt 0.000000 0.000000
vt 1.000000 0.000000
vt 1.000000 1.000000
vt 0.000000 1.000000
vt 0.000000 0.000000
vt 1.000000 0.000000
vt 1.000000 1.000000
vt 0.000000 1.000000
vt 0.000000 0.000000
vt 1.000000 0.000000
vt 1.000000 1.000000
vt 0.000000 1.000000
vt 0.000000 0.000000
vt 1.000000 0.000000
vt 1.000000 1.000000
vt 0.000000 1.000000
vt 0.000000 0.000000
vt 1.000000 0.000000
vt 1.000000 1.000000
vt 0.000000 1.000000
vt 0.000000 0.000000
vt 1.000000 0.000000
vt 1.000000 1.000000
vt 0.000000 1.000000
vt 0.000000 0.000000
vt 1.000000 0.000000
vt 1.000000 1.000000
vt 0.000000 1.000000
vt 0.000000 0.000000
vt 1.000000 0.000000
vt 1.000000 1.000000
vt 0.000000 1.000000
vt 0.000000 0.000000
vt 1.000000 0.000000
vt 1.000000 1.000000
vt 0.000000 1.000000
vt 0.000000 0.000000
vt 1.000000 0.000000
vt 1.000000 1.000000
vt 0.000000 1.000000
vt 0.000000 0.000000
vt 1.000000 0.000000
vt 1.000000 1.000000
vt 0.000000 1.000000
vt 0.000000 0.000000
vt 1.000000 0.000000
vt 1.000000 1.000000
vt 0.000000 1.000000
vt 0.000000 0.000000
vt 1.000000 0.000000
vt 1.000000 1.000000
vt 0.000000 1.000000
vt 0.000000 0.000000
vt 1.000000 0.000000
vt 1.000000 1.000000
vt 0.000000 1.000000
vt 0.000000 0.000000
vt 1.000000 0.000000
vt 1.000000 1.000000
vt 0.000000 1.000000
vt 0.000000 0.000000
vt 1.000000 0.000000
vt 1.000000 1.000000
vt 0.000000 1.000000
vt 0.000000 0.000000
vt 1.000000 0.000000
vt 1.000000 1.000000
vt 0.000000 1.000000
vt 0.000000 0.000000
vt 1.000000 0.000000
vt 1.000000 1.000000
vt 0.000000 1.000000
vt 0.000000 0.000000
vt 1.000000 0.000000
vt 1.000000 1.000000
vt 0.000000 1.000000
vt 0.000000 0.000000
vt 1.000000 0.000000
vt 1.000000 1.000000
vt 0.000000 1.000000
vt 0.000000 0.000000
vt 1.000000 0.000000
vt 1.000000 1.000000
vt 0.000000 1.000000
vt 0.000000 0.000000
vt 1.000000 0.000000
vt 1.000000 1.000000
vt 0.000000 1.000000
vt 0.000000 0.000000
vt 1.000000 0.000000
vt 1.000000 1.000000
vt 0.000000 1.000000
vt 0.000000 0.000000
vt 1.000000 0.000000
vt 1.000000 1.000000
vt 0.000000 1.000000
vt 0.000000 0.000000
vt 1.000000 0.000000
vt 1.000000 1.000000
vt 0.000000 1.000000
vt 0.000000 0.000000
vt 1.000000 0.000000
vt 1.000000 1.000000
vt 0.000000 1.000000
vt 0.000000 0.000000
vt 1.000000 0.000000
vt 1.000000 1.000000
vt 0.000000 1.000000
vt 0.000000 0.000000
vt 1.000000 0.000000
vt 1.000000 1.000000
vt 0.000000 1.000000
vt 0.000000 0.000000
vt 1.000000 0.000000
vt 1.000000 1.000000
vt 0.000000 1.000000
vt 0.000000 0.000000
vt 1.000000 0.000000
vt 1.000000 1.000000
vt 0.000000 1.000000
vt 0.000000 0.000000
vt 1.000000 0.000000
vt 1.000000 1.000000
vt 0.000000 1.000000
vt 0.000000 0.000000
vt 1.000000 0.000000
vt 1.000000 1.000000
vt 0.000000 1.000000
vt 0.000000 0.000000
vt 1.000000 0.000000
vt 1.000000 1.000000
vt 0.000000 1.000000
vt 0.000000 0.000000
vt 1.000000 0.000000
vt 1.000000 1.000000
vt 0.000000 1.000000
vt 0.000000 0.000000
vt 1.000000 0.000000
vt 1.000000 1.000000
vt 0.000000 1.000000
vt 0.000000 0.000000
vt 1.000000 0.000000
vt 1.000000 1.000000
vt 0.000000 1.000000
vt 0.000000 0.000000
vt 1.000000 0.000000
vt 1.000000 1.000000
vt 0.000000 1.000000
vt 0.000000 0.000000
vt 1.000000 0.000000
vt 1.000000 1.000000
vt 0.000000 1.000000
vt 0.000000 0.000000
vt 1.000000 0.000000
vt 1.000000 1.000000
vt 0.000000 1.000000
vt 0.000000 0.000000
vt 1.000000 0.000000
vt 1.000000 1.000000
vt 0.000000 1.000000
vt 0.000000 0.000000
vt 1.000000 0.000000
vt 1.000000 1.000000
vt 0.000000 1.000000
vt 0.000000 0.000000
vt 1.000000 0.000000
vt 1.000000 1.000000
vt 0.000000 1.000000
vt 0.000000 0.000000
vt 1.000000 0.000000
vt 1.000000 1.000000
vt 0.000000 1.000000
vt 0.000000 0.000000
vt 1.000000 0.000000
vt 1.000000 1.000000
vt 0.000000 1.000000
vt 0.000000 0.000000
vt 1.000000 0.000000
vt 1.000000 1.000000
vt 0.000000 1.000000
vt 0.000000 0.000000
vt 1.000000 0.000000
vt 1.000000 1.000000
vt 0.000000 1.000000
vt 0.000000 0.000000
vt 1.000000 0.000000
vt 1.000000 1.000000
vt 0.000000 1.000000
vt 0.000000 0.000000
vt 1.000000 0.000000
vt 1.000000 1.000000
vt 0.000000 1.000000
vt 0.000000 0.000000
vt 1.000000 0.000000
vt 1.000000 1.000000
vt 0.000000 1.000000
vt 0.000000 0.000000
vt 1.000000 0.000000
vt 1.000000 1.000000
vt 0.000000 1.000000
vt 0.000000 0.000000
vt 1.000000 0.000000
vt 1.000000 1.000000
vt 0.000000 1.000000
vt 0.000000 0.000000
vt 1.000000 0.000000
vt 1.000000 1.000000
vt 0.000000 1.000000
vn 0.000000 0.000000 1.000000
vn 0.000000 0.000000 -1.000000
vn 1.000000 0.000000 0.000000
vn -1.000000 0.000000 0.000000
vn 0.000000 -1.000000 0.000000
vn -0.000000 1.000000 0.000000
vn 0.000000 -0.039968 0.999201
vn 0.000000 0.000000 1.000000
vn 0.000000 0.000000 -1.000000
vn 1.000000 0.000000 0.000000
vn -1.000000 0.000000 0.000000
vn 0.000000 -1.000000 0.000000
vn -0.000000 1.000000 0.000000
vn 0.000000 -0.039968 0.999201
vn 0.000000 0.000000 1.000000
vn 0.000000 0.000000 -1.000000
vn 1.000000 0.000000 0.000000
vn -1.000000 0.000000 0.000000
vn 0.000000 -1.000000 0.000000
vn -0.000000 1.000000 0.000000
vn 0.000000 -0.039968 0.999201
vn 0.000000 0.000000 1.000000
vn 0.000000 0.000000 -1.000000
vn 1.000000 0.000000 0.000000
vn -1.000000 0.000000 0.000000
vn 0.000000 -1.000000 0.000000
vn -0.000000 1.000000 0.000000
vn 0.000000 -0.039968 0.999201
vn 0.000000 0.000000 1.000000
vn 0.000000 0.000000 -1.000000
vn 1.000000 0.000000 0.000000
vn -1.000000 0.000000 0.000000
vn 0.000000 -1.000000 0.000000
vn -0.000000 1.000000 0.000000
vn 0.000000 -0.039968 0.999201
vn 0.000000 0.000000 1.000000
vn 0.000000 0.000000 -1.000000
vn 1.000000 0.000000 0.000000
vn -1.000000 0.000000 0.000000
vn 0.000000 -1.000000 0.000000
vn -0.000000 1.000000 0.000000
vn 0.000000 -0.039968 0.999201
vn 0.000000 0.000000 1.000000
vn 0.000000 0.000000 -1.000000
vn 1.000000 0.000000 0.000000
vn -1.000000 0.000000 0.000000
vn 0.000000 -1.000000 0.000000
vn -0.000000 1.000000 0.000000
vn 0.000000 -0.039968 0.999201
vn 0.000000 0.000000 1.000000
vn 0.000000 0.000000 -1.000000
vn 1.000000 0.000000 0.000000
vn -1.000000 0.000000 0.000000
vn 0.000000 -1.000000 0.000000
vn -0.000000 1.000000 0.000000
vn 0.000000 -0.039968 0.999201
vn 0.000000 0.000000 1.000000
vn 0.000000 0.000000 -1.000000
vn 1.000000 0.000000 0.000000
vn -1.000000 0.000000 0.000000
vn 0.000000 -1.000000 0.000000
vn -0.000000 1.000000 0.000000
vn 0.000000 -0.039968 0.999201
vn 0.000000 0.000000 1.000000
vn 0.000000 0.000000 -1.000000
vn 1.000000 0.000000 0.000000
vn -1.000000 0.000000 0.000000
vn 0.000000 -1.000000 0.000000
vn -0.000000 1.000000 0.000000
usemtl metal
f 1/1/1 2/2/1 3/3/1 4/4/1
f 6/5/2 5/6/2 8/7/2 7/8/2
f 5/9/3 1/10/3 4/11/3 8/12/3
f 2/13/4 6/14/4 7/15/4 3/16/4
f 4/17/5 3/18/5 7/19/5 8/20/5
f 5/21/6 6/22/6 2/23/6 1/24/6
usemtl curtain
f 9/25/7 10/26/7 11/27/7 12/28/7
usemtl metal
f 13/29/8 14/30/8 15/31/8 16/32/8
f 18/33/9 17/34/9 20/35/9 19/36/9
f 17/37/10 13/38/10 16/39/10 20/40/10
f 14/41/11 18/42/11 19/43/11 15/44/11
f 16/45/12 15/46/12 19/47/12 20/48/12
f 17/49/13 18/50/13 14/51/13 13/52/13
usemtl curtain
f 21/53/14 22/54/14 23/55/14 24/56/14
usemtl metal
f 25/57/15 26/58/15 27/59/15 28/60/15
f 30/61/16 29/62/16 32/63/16 31/64/16
f 29/65/17 25/66/17 28/67/17 32/68/17
f 26/69/18 30/70/18 31/71/18 27/72/18
f 28/73/19 27/74/19 31/75/19 32/76/19
f 29/77/20 30/78/20 26/79/20 25/80/20
usemtl curtain
f 33/81/21 34/82/21 35/83/21 36/84/21
usemtl metal
f 37/85/22 38/86/22 39/87/22 40/88/22
f 42/89/23 41/90/23 44/91/23 43/92/23
f 41/93/24 37/94/24 40/95/24 44/96/24
f 38/97/25 42/98/25 43/99/25 39/100/25
f 40/101/26 39/102/26 43/103/26 44/104/26
f 41/105/27 42/106/27 38/107/27 37/108/27
usemtl curtain
f 45/109/28 46/110/28 47/111/28 48/112/28
usemtl metal
f 49/113/29 50/114/29 51/115/29 52/116/29
f 54/117/30 53/118/30 56/119/30 55/120/30
f 53/121/31 49/122/31 52/123/31 56/124/31
f 50/125/32 54/126/32 55/127/32 51/128/32
f 52/129/33 51/130/33 55/131/33 56/132/33
f 53/133/34 54/134/34 50/135/34 49/136/34
usemtl curtain
f 57/137/35 58/138/35 59/139/35 60/140/35
usemtl metal
f 61/141/36 62/142/36 63/143/36 64/144/36
f 66/145/37 65/146/37 68/147/37 67/148/37
f 65/149/38 61/150/38 64/151/38 68/152/38
f 62/153/39 66/154/39 67/155/39 63/156/39
f 64/157/40 63/158/40 67/159/40 68/160/40
f 65/161/41 66/162/41 62/163/41 61/164/41
usemtl curtain
f 69/165/42 70/166/42 71/167/42 72/168/42
usemtl metal
f 73/169/43 74/170/43 75/171/43 76/172/43
f 78/173/44 77/174/44 80/175/44 79/176/44
f 77/177/45 73/178/45 76/179/45 80/180/45
f 74/181/46 78/182/46 79/183/46 75/184/46
f 76/185/47 75/186/47 79/187/47 80/188/47
f 77/189/48 78/190/48 74/191/48 73/192/48
usemtl curtain
f 81/193/49 82/194/49 83/195/49 84/196/49
usemtl metal
f 85/197/50 86/198/50 87/199/50 88/200/50
f 90/201/51 89/202/51 92/203/51 91/204/51
f 89/205/52 85/206/52 88/207/52 92/208/52
f 86/209/53 90/210/53 91/211/53 87/212/53
f 88/213/54 87/214/54 91/215/54 92/216/54
f 89/217/55 90/218/55 86/219/55 85/220/55
usemtl curtain
f 93/221/56 94/222/56 95/223/56 96/224/56
usemtl metal
f 97/225/57 98/226/57 99/227/57 100/228/57
f 102/229/58 101/230/58 104/231/58 103/232/58
f 101/233/59 97/234/59 100/235/59 104/236/59
f 98/237/60 102/238/60 103/239/60 99/240/60
f 100/241/61 99/242/61 103/243/61 104/244/61
f 101/245/62 102/246/62 98/247/62 97/248/62
usemtl curtain
f 105/249/63 106/250/63 107/251/63 108/252/63
usemtl metal
f 109/253/64 110/254/64 111/255/64 112/256/64
f 114/257/65 113/258/65 116/259/65 115/260/65
f 113/261/66 109/262/66 112/263/66 116/264/66
f 110/265/67 114/266/67 115/267/67 111/268/67
f 112/269/68 111/270/68 115/271/68 116/272/68
f 113/273/69 114/274/69 110/275/69 109/276/69
