# Generated by tools/generate_hospital_ward_assets.py
mtllib hospital_ward_materials.mtl
o ward_door
v -0.395000 0.000000 -0.040000
v 0.395000 0.000000 -0.040000
v 0.395000 2.120000 -0.040000
v -0.395000 2.120000 -0.040000
v -0.395000 0.000000 0.040000
v 0.395000 0.000000 0.040000
v 0.395000 2.120000 0.040000
v -0.395000 2.120000 0.040000
v -0.430000 0.000000 -0.005000
v 0.430000 0.000000 -0.005000
v 0.430000 2.120000 -0.005000
v -0.430000 2.120000 -0.005000
v -0.430000 0.000000 0.005000
v 0.430000 0.000000 0.005000
v 0.430000 2.120000 0.005000
v -0.430000 2.120000 0.005000
v -0.360000 0.000000 -0.005000
v -0.360000 2.120000 -0.005000
v -0.370251 0.000000 0.019749
v -0.370251 2.120000 0.019749
v -0.395000 0.000000 0.030000
v -0.395000 2.120000 0.030000
v -0.419749 0.000000 0.019749
v -0.419749 2.120000 0.019749
v -0.430000 0.000000 -0.005000
v -0.430000 2.120000 -0.005000
v -0.419749 0.000000 -0.029749
v -0.419749 2.120000 -0.029749
v -0.395000 0.000000 -0.040000
v -0.395000 2.120000 -0.040000
v -0.370251 0.000000 -0.029749
v -0.370251 2.120000 -0.029749
v -0.360000 0.000000 0.005000
v -0.360000 2.120000 0.005000
v -0.370251 0.000000 0.029749
v -0.370251 2.120000 0.029749
v -0.395000 0.000000 0.040000
v -0.395000 2.120000 0.040000
v -0.419749 0.000000 0.029749
v -0.419749 2.120000 0.029749
v -0.430000 0.000000 0.005000
v -0.430000 2.120000 0.005000
v -0.419749 0.000000 -0.019749
v -0.419749 2.120000 -0.019749
v -0.395000 0.000000 -0.030000
v -0.395000 2.120000 -0.030000
v -0.370251 0.000000 -0.019749
v -0.370251 2.120000 -0.019749
v 0.430000 0.000000 -0.005000
v 0.430000 2.120000 -0.005000
v 0.419749 0.000000 0.019749
v 0.419749 2.120000 0.019749
v 0.395000 0.000000 0.030000
v 0.395000 2.120000 0.030000
v 0.370251 0.000000 0.019749
v 0.370251 2.120000 0.019749
v 0.360000 0.000000 -0.005000
v 0.360000 2.120000 -0.005000
v 0.370251 0.000000 -0.029749
v 0.370251 2.120000 -0.029749
v 0.395000 0.000000 -0.040000
v 0.395000 2.120000 -0.040000
v 0.419749 0.000000 -0.029749
v 0.419749 2.120000 -0.029749
v 0.430000 0.000000 0.005000
v 0.430000 2.120000 0.005000
v 0.419749 0.000000 0.029749
v 0.419749 2.120000 0.029749
v 0.395000 0.000000 0.040000
v 0.395000 2.120000 0.040000
v 0.370251 0.000000 0.029749
v 0.370251 2.120000 0.029749
v 0.360000 0.000000 0.005000
v 0.360000 2.120000 0.005000
v 0.370251 0.000000 -0.019749
v 0.370251 2.120000 -0.019749
v 0.395000 0.000000 -0.030000
v 0.395000 2.120000 -0.030000
v 0.419749 0.000000 -0.019749
v 0.419749 2.120000 -0.019749
v -0.520000 2.130000 -0.070000
v 0.520000 2.130000 -0.070000
v 0.520000 2.230000 -0.070000
v -0.520000 2.230000 -0.070000
v -0.520000 2.130000 0.050000
v 0.520000 2.130000 0.050000
v 0.520000 2.230000 0.050000
v -0.520000 2.230000 0.050000
v -0.570000 -0.040000 -0.070000
v -0.470000 -0.040000 -0.070000
v -0.470000 2.240000 -0.070000
v -0.570000 2.240000 -0.070000
v -0.570000 -0.040000 0.050000
v -0.470000 -0.040000 0.050000
v -0.470000 2.240000 0.050000
v -0.570000 2.240000 0.050000
v 0.470000 -0.040000 -0.070000
v 0.570000 -0.040000 -0.070000
v 0.570000 2.240000 -0.070000
v 0.470000 2.240000 -0.070000
v 0.470000 -0.040000 0.050000
v 0.570000 -0.040000 0.050000
v 0.570000 2.240000 0.050000
v 0.470000 2.240000 0.050000
v -0.380000 1.320000 -0.077500
v -0.060000 1.320000 -0.077500
v -0.060000 1.520000 -0.077500
v -0.380000 1.520000 -0.077500
v -0.380000 1.320000 -0.042500
v -0.060000 1.320000 -0.042500
v -0.060000 1.520000 -0.042500
v -0.380000 1.520000 -0.042500
v 0.270000 1.000000 -0.050000
v 0.410000 1.000000 -0.050000
v 0.270000 0.982366 -0.055729
v 0.410000 0.982366 -0.055729
v 0.270000 0.971468 -0.070729
v 0.410000 0.971468 -0.070729
v 0.270000 0.971468 -0.089271
v 0.410000 0.971468 -0.089271
v 0.270000 0.982366 -0.104271
v 0.410000 0.982366 -0.104271
v 0.270000 1.000000 -0.110000
v 0.410000 1.000000 -0.110000
v 0.270000 1.017634 -0.104271
v 0.410000 1.017634 -0.104271
v 0.270000 1.028532 -0.089271
v 0.410000 1.028532 -0.089271
v 0.270000 1.028532 -0.070729
v 0.410000 1.028532 -0.070729
v 0.270000 1.017634 -0.055729
v 0.410000 1.017634 -0.055729
v -0.310000 0.150000 -0.072500
v 0.310000 0.150000 -0.072500
v 0.310000 0.330000 -0.072500
v -0.310000 0.330000 -0.072500
v -0.310000 0.150000 -0.037500
v 0.310000 0.150000 -0.037500
v 0.310000 0.330000 -0.037500
v -0.310000 0.330000 -0.037500
vt 0.000000 0.000000
vt 1.000000 0.000000
vt 1.000000 1.000000
vt 0.000000 1.000000
vt 0.000000 0.000000
vt 1.000000 0.000000
vt 1.000000 1.000000
vt 0.000000 1.000000
vt 0.000000 0.000000
vt 1.000000 0.000000
vt 1.000000 1.000000
vt 0.000000 1.000000
vt 0.000000 0.000000
vt 1.000000 0.000000
vt 1.000000 1.000000
vt 0.000000 1.000000
vt 0.000000 0.000000
vt 1.000000 0.000000
vt 1.000000 1.000000
vt 0.000000 1.000000
vt 0.000000 0.000000
vt 1.000000 0.000000
vt 1.000000 1.000000
vt 0.000000 1.000000
vt 0.000000 0.000000
vt 1.000000 0.000000
vt 1.000000 1.000000
vt 0.000000 1.000000
vt 0.000000 0.000000
vt 1.000000 0.000000
vt 1.000000 1.000000
vt 0.000000 1.000000
vt 0.000000 0.000000
vt 1.000000 0.000000
vt 1.000000 1.000000
vt 0.000000 1.000000
vt 0.000000 0.000000
vt 1.000000 0.000000
vt 1.000000 1.000000
vt 0.000000 1.000000
vt 0.000000 0.000000
vt 1.000000 0.000000
vt 1.000000 1.000000
vt 0.000000 1.000000
vt 0.000000 0.000000
vt 1.000000 0.000000
vt 1.000000 1.000000
vt 0.000000 1.000000
vt 0.000000 0.000000
vt 1.000000 0.000000
vt 1.000000 1.000000
vt 0.000000 1.000000
vt 0.000000 0.000000
vt 1.000000 0.000000
vt 1.000000 1.000000
vt 0.000000 1.000000
vt 0.000000 0.000000
vt 1.000000 0.000000
vt 1.000000 1.000000
vt 0.000000 1.000000
vt 0.000000 0.000000
vt 1.000000 0.000000
vt 1.000000 1.000000
vt 0.000000 1.000000
vt 0.000000 0.000000
vt 1.000000 0.000000
vt 1.000000 1.000000
vt 0.000000 1.000000
vt 0.000000 0.000000
vt 1.000000 0.000000
vt 1.000000 1.000000
vt 0.000000 1.000000
vt 0.000000 0.000000
vt 1.000000 0.000000
vt 1.000000 1.000000
vt 0.000000 1.000000
vt 0.000000 0.000000
vt 1.000000 0.000000
vt 1.000000 1.000000
vt 0.000000 1.000000
vt 1.000000 0.500000
vt 0.853553 0.853553
vt 0.500000 1.000000
vt 0.146447 0.853553
vt 0.000000 0.500000
vt 0.146447 0.146447
vt 0.500000 0.000000
vt 0.853553 0.146447
vt 1.000000 0.500000
vt 0.853553 0.853553
vt 0.500000 1.000000
vt 0.146447 0.853553
vt 0.000000 0.500000
vt 0.146447 0.146447
vt 0.500000 0.000000
vt 0.853553 0.146447
vt 0.000000 0.000000
vt 1.000000 0.000000
vt 1.000000 1.000000
vt 0.000000 1.000000
vt 0.000000 0.000000
vt 1.000000 0.000000
vt 1.000000 1.000000
vt 0.000000 1.000000
vt 0.000000 0.000000
vt 1.000000 0.000000
vt 1.000000 1.000000
vt 0.000000 1.000000
vt 0.000000 0.000000
vt 1.000000 0.000000
vt 1.000000 1.000000
vt 0.000000 1.000000
vt 0.000000 0.000000
vt 1.000000 0.000000
vt 1.000000 1.000000
vt 0.000000 1.000000
vt 0.000000 0.000000
vt 1.000000 0.000000
vt 1.000000 1.000000
vt 0.000000 1.000000
vt 0.000000 0.000000
vt 1.000000 0.000000
vt 1.000000 1.000000
vt 0.000000 1.000000
vt 0.000000 0.000000
vt 1.000000 0.000000
vt 1.000000 1.000000
vt 0.000000 1.000000
vt 1.000000 0.500000
vt 0.853553 0.853553
vt 0.500000 1.000000
vt 0.146447 0.853553
vt 0.000000 0.500000
vt 0.146447 0.146447
vt 0.500000 0.000000
vt 0.853553 0.146447
vt 1.000000 0.500000
vt 0.853553 0.853553
vt 0.500000 1.000000
vt 0.146447 0.853553
vt 0.000000 0.500000
vt 0.146447 0.146447
vt 0.500000 0.000000
vt 0.853553 0.146447
vt 0.000000 0.000000
vt 1.000000 0.000000
vt 1.000000 1.000000
vt 0.000000 1.000000
vt 0.000000 0.000000
vt 1.000000 0.000000
vt 1.000000 1.000000
vt 0.000000 1.000000
vt 0.000000 0.000000
vt 1.000000 0.000000
vt 1.000000 1.000000
vt 0.000000 1.000000
vt 0.000000 0.000000
vt 1.000000 0.000000
vt 1.000000 1.000000
vt 0.000000 1.000000
vt 0.000000 0.000000
vt 1.000000 0.000000
vt 1.000000 1.000000
vt 0.000000 1.000000
vt 0.000000 0.000000
vt 1.000000 0.000000
vt 1.000000 1.000000
vt 0.000000 1.000000
vt 0.000000 0.000000
vt 1.000000 0.000000
vt 1.000000 1.000000
vt 0.000000 1.000000
vt 0.000000 0.000000
vt 1.000000 0.000000
vt 1.000000 1.000000
vt 0.000000 1.000000
vt 1.000000 0.500000
vt 0.853553 0.853553
vt 0.500000 1.000000
vt 0.146447 0.853553
vt 0.000000 0.500000
vt 0.146447 0.146447
vt 0.500000 0.000000
vt 0.853553 0.146447
vt 1.000000 0.500000
vt 0.853553 0.853553
vt 0.500000 1.000000
vt 0.146447 0.853553
vt 0.000000 0.500000
vt 0.146447 0.146447
vt 0.500000 0.000000
vt 0.853553 0.146447
vt 0.000000 0.000000
vt 1.000000 0.000000
vt 1.000000 1.000000
vt 0.000000 1.000000
vt 0.000000 0.000000
vt 1.000000 0.000000
vt 1.000000 1.000000
vt 0.000000 1.000000
vt 0.000000 0.000000
vt 1.000000 0.000000
vt 1.000000 1.000000
vt 0.000000 1.000000
vt 0.000000 0.000000
vt 1.000000 0.000000
vt 1.000000 1.000000
vt 0.000000 1.000000
vt 0.000000 0.000000
vt 1.000000 0.000000
vt 1.000000 1.000000
vt 0.000000 1.000000
vt 0.000000 0.000000
vt 1.000000 0.000000
vt 1.000000 1.000000
vt 0.000000 1.000000
vt 0.000000 0.000000
vt 1.000000 0.000000
vt 1.000000 1.000000
vt 0.000000 1.000000
vt 0.000000 0.000000
vt 1.000000 0.000000
vt 1.000000 1.000000
vt 0.000000 1.000000
vt 1.000000 0.500000
vt 0.853553 0.853553
vt 0.500000 1.000000
vt 0.146447 0.853553
vt 0.000000 0.500000
vt 0.146447 0.146447
vt 0.500000 0.000000
vt 0.853553 0.146447
vt 1.000000 0.500000
vt 0.853553 0.853553
vt 0.500000 1.000000
vt 0.146447 0.853553
vt 0.000000 0.500000
vt 0.146447 0.146447
vt 0.500000 0.000000
vt 0.853553 0.146447
vt 0.000000 0.000000
vt 1.000000 0.000000
vt 1.000000 1.000000
vt 0.000000 1.000000
vt 0.000000 0.000000
vt 1.000000 0.000000
vt 1.000000 1.000000
vt 0.000000 1.000000
vt 0.000000 0.000000
vt 1.000000 0.000000
vt 1.000000 1.000000
vt 0.000000 1.000000
vt 0.000000 0.000000
vt 1.000000 0.000000
vt 1.000000 1.000000
vt 0.000000 1.000000
vt 0.000000 0.000000
vt 1.000000 0.000000
vt 1.000000 1.000000
vt 0.000000 1.000000
vt 0.000000 0.000000
vt 1.000000 0.000000
vt 1.000000 1.000000
vt 0.000000 1.000000
vt 0.000000 0.000000
vt 1.000000 0.000000
vt 1.000000 1.000000
vt 0.000000 1.000000
vt 0.000000 0.000000
vt 1.000000 0.000000
vt 1.000000 1.000000
vt 0.000000 1.000000
vt 0.000000 0.000000
vt 1.000000 0.000000
vt 1.000000 1.000000
vt 0.000000 1.000000
vt 0.000000 0.000000
vt 1.000000 0.000000
vt 1.000000 1.000000
vt 0.000000 1.000000
vt 0.000000 0.000000
vt 1.000000 0.000000
vt 1.000000 1.000000
vt 0.000000 1.000000
vt 0.000000 0.000000
vt 1.000000 0.000000
vt 1.000000 1.000000
vt 0.000000 1.000000
vt 0.000000 0.000000
vt 1.000000 0.000000
vt 1.000000 1.000000
vt 0.000000 1.000000
vt 0.000000 0.000000
vt 1.000000 0.000000
vt 1.000000 1.000000
vt 0.000000 1.000000
vt 0.000000 0.000000
vt 1.000000 0.000000
vt 1.000000 1.000000
vt 0.000000 1.000000
vt 0.000000 0.000000
vt 1.000000 0.000000
vt 1.000000 1.000000
vt 0.000000 1.000000
vt 0.000000 0.000000
vt 1.000000 0.000000
vt 1.000000 1.000000
vt 0.000000 1.000000
vt 0.000000 0.000000
vt 1.000000 0.000000
vt 1.000000 1.000000
vt 0.000000 1.000000
vt 0.000000 0.000000
vt 1.000000 0.000000
vt 1.000000 1.000000
vt 0.000000 1.000000
vt 0.000000 0.000000
vt 1.000000 0.000000
vt 1.000000 1.000000
vt 0.000000 1.000000
vt 0.000000 0.000000
vt 1.000000 0.000000
vt 1.000000 1.000000
vt 0.000000 1.000000
vt 0.000000 0.000000
vt 1.000000 0.000000
vt 1.000000 1.000000
vt 0.000000 1.000000
vt 0.000000 0.000000
vt 1.000000 0.000000
vt 1.000000 1.000000
vt 0.000000 1.000000
vt 0.000000 0.000000
vt 1.000000 0.000000
vt 1.000000 1.000000
vt 0.000000 1.000000
vt 0.000000 0.000000
vt 1.000000 0.000000
vt 1.000000 1.000000
vt 0.000000 1.000000
vt 0.000000 0.000000
vt 1.000000 0.000000
vt 1.000000 1.000000
vt 0.000000 1.000000
vt 0.000000 0.000000
vt 1.000000 0.000000
vt 1.000000 1.000000
vt 0.000000 1.000000
vt 0.000000 0.000000
vt 1.000000 0.000000
vt 1.000000 1.000000
vt 0.000000 1.000000
vt 0.000000 0.000000
vt 1.000000 0.000000
vt 1.000000 1.000000
vt 0.000000 1.000000
vt 0.000000 0.000000
vt 1.000000 0.000000
vt 1.000000 1.000000
vt 0.000000 1.000000
vt 0.000000 0.000000
vt 1.000000 0.000000
vt 1.000000 1.000000
vt 0.000000 1.000000
vt 0.000000 0.000000
vt 1.000000 0.000000
vt 1.000000 1.000000
vt 0.000000 1.000000
vt 0.000000 0.000000
vt 1.000000 0.000000
vt 1.000000 1.000000
vt 0.000000 1.000000
vt 0.000000 0.000000
vt 1.000000 0.000000
vt 1.000000 1.000000
vt 0.000000 1.000000
vt 1.000000 0.500000
vt 0.904508 0.793893
vt 0.654508 0.975528
vt 0.345492 0.975528
vt 0.095492 0.793893
vt 0.000000 0.500000
vt 0.095492 0.206107
vt 0.345492 0.024472
vt 0.654508 0.024472
vt 0.904508 0.206107
vt 1.000000 0.500000
vt 0.904508 0.793893
vt 0.654508 0.975528
vt 0.345492 0.975528
vt 0.095492 0.793893
vt 0.000000 0.500000
vt 0.095492 0.206107
vt 0.345492 0.024472
vt 0.654508 0.024472
vt 0.904508 0.206107
vt 0.000000 0.000000
vt 1.000000 0.000000
vt 1.000000 1.000000
vt 0.000000 1.000000
vt 0.000000 0.000000
vt 1.000000 0.000000
vt 1.000000 1.000000
vt 0.000000 1.000000
vt 0.000000 0.000000
vt 1.000000 0.000000
vt 1.000000 1.000000
vt 0.000000 1.000000
vt 0.000000 0.000000
vt 1.000000 0.000000
vt 1.000000 1.000000
vt 0.000000 1.000000
vt 0.000000 0.000000
vt 1.000000 0.000000
vt 1.000000 1.000000
vt 0.000000 1.000000
vt 0.000000 0.000000
vt 1.000000 0.000000
vt 1.000000 1.000000
vt 0.000000 1.000000
vn 0.000000 0.000000 1.000000
vn 0.000000 0.000000 -1.000000
vn 1.000000 0.000000 0.000000
vn -1.000000 0.000000 0.000000
vn 0.000000 -1.000000 0.000000
vn -0.000000 1.000000 0.000000
vn 0.000000 0.000000 1.000000
vn 0.000000 0.000000 -1.000000
vn 1.000000 0.000000 0.000000
vn -1.000000 0.000000 0.000000
vn 0.000000 -1.000000 0.000000
vn -0.000000 1.000000 0.000000
vn -0.923880 0.000000 -0.382683
vn -0.382683 0.000000 -0.923880
vn 0.382683 0.000000 -0.923880
vn 0.923880 0.000000 -0.382683
vn 0.923880 0.000000 0.382683
vn 0.382683 0.000000 0.923880
vn -0.382683 0.000000 0.923880
vn -0.923880 0.000000 0.382683
vn 0.000000 1.000000 0.000000
vn 0.000000 -1.000000 0.000000
vn -0.923880 0.000000 -0.382683
vn -0.382683 0.000000 -0.923880
vn 0.382683 0.000000 -0.923880
vn 0.923880 0.000000 -0.382683
vn 0.923880 0.000000 0.382683
vn 0.382683 0.000000 0.923880
vn -0.382683 0.000000 0.923880
vn -0.923880 0.000000 0.382683
vn 0.000000 1.000000 0.000000
vn 0.000000 -1.000000 0.000000
vn -0.923880 0.000000 -0.382683
vn -0.382683 0.000000 -0.923880
vn 0.382683 0.000000 -0.923880
vn 0.923880 0.000000 -0.382683
vn 0.923880 0.000000 0.382683
vn 0.382683 0.000000 0.923880
vn -0.382683 0.000000 0.923880
vn -0.923880 0.000000 0.382683
vn 0.000000 1.000000 0.000000
vn 0.000000 -1.000000 0.000000
vn -0.923880 0.000000 -0.382683
vn -0.382683 0.000000 -0.923880
vn 0.382683 0.000000 -0.923880
vn 0.923880 0.000000 -0.382683
vn 0.923880 0.000000 0.382683
vn 0.382683 0.000000 0.923880
vn -0.382683 0.000000 0.923880
vn -0.923880 0.000000 0.382683
vn 0.000000 1.000000 0.000000
vn 0.000000 -1.000000 0.000000
vn 0.000000 0.000000 1.000000
vn 0.000000 0.000000 -1.000000
vn 1.000000 0.000000 0.000000
vn -1.000000 0.000000 0.000000
vn 0.000000 -1.000000 0.000000
vn -0.000000 1.000000 0.000000
vn 0.000000 0.000000 1.000000
vn 0.000000 0.000000 -1.000000
vn 1.000000 0.000000 0.000000
vn -1.000000 0.000000 0.000000
vn 0.000000 -1.000000 0.000000
vn -0.000000 1.000000 0.000000
vn 0.000000 0.000000 1.000000
vn 0.000000 0.000000 -1.000000
vn 1.000000 0.000000 0.000000
vn -1.000000 0.000000 0.000000
vn 0.000000 -1.000000 0.000000
vn -0.000000 1.000000 0.000000
vn 0.000000 0.000000 1.000000
vn 0.000000 0.000000 -1.000000
vn 1.000000 0.000000 0.000000
vn -1.000000 0.000000 0.000000
vn 0.000000 -1.000000 0.000000
vn -0.000000 1.000000 0.000000
vn 0.000000 -0.309017 0.951057
vn 0.000000 -0.809017 0.587785
vn 0.000000 -1.000000 0.000000
vn 0.000000 -0.809017 -0.587785
vn 0.000000 -0.309017 -0.951057
vn 0.000000 0.309017 -0.951057
vn 0.000000 0.809017 -0.587785
vn 0.000000 1.000000 0.000000
vn 0.000000 0.809017 0.587785
vn 0.000000 0.309017 0.951057
vn -1.000000 0.000000 0.000000
vn 1.000000 0.000000 0.000000
vn 0.000000 0.000000 1.000000
vn 0.000000 0.000000 -1.000000
vn 1.000000 0.000000 0.000000
vn -1.000000 0.000000 0.000000
vn 0.000000 -1.000000 0.000000
vn -0.000000 1.000000 0.000000
usemtl door
f 1/1/1 2/2/1 3/3/1 4/4/1
f 6/5/2 5/6/2 8/7/2 7/8/2
f 5/9/3 1/10/3 4/11/3 8/12/3
f 2/13/4 6/14/4 7/15/4 3/16/4
f 4/17/5 3/18/5 7/19/5 8/20/5
f 5/21/6 6/22/6 2/23/6 1/24/6
f 9/25/7 10/26/7 11/27/7 12/28/7
f 14/29/8 13/30/8 16/31/8 15/32/8
f 13/33/9 9/34/9 12/35/9 16/36/9
f 10/37/10 14/38/10 15/39/10 11/40/10
f 12/41/11 11/42/11 15/43/11 16/44/11
f 13/45/12 14/46/12 10/47/12 9/48/12
f 17/49/13 19/50/13 20/51/13 18/52/13
f 19/53/14 21/54/14 22/55/14 20/56/14
f 21/57/15 23/58/15 24/59/15 22/60/15
f 23/61/16 25/62/16 26/63/16 24/64/16
f 25/65/17 27/66/17 28/67/17 26/68/17
f 27/69/18 29/70/18 30/71/18 28/72/18
f 29/73/19 31/74/19 32/75/19 30/76/19
f 31/77/20 17/78/20 18/79/20 32/80/20
f 31/81/21 29/82/21 27/83/21 25/84/21 23/85/21 21/86/21 19/87/21 17/88/21
f 18/89/22 20/90/22 22/91/22 24/92/22 26/93/22 28/94/22 30/95/22 32/96/22
f 33/97/23 35/98/23 36/99/23 34/100/23
f 35/101/24 37/102/24 38/103/24 36/104/24
f 37/105/25 39/106/25 40/107/25 38/108/25
f 39/109/26 41/110/26 42/111/26 40/112/26
f 41/113/27 43/114/27 44/115/27 42/116/27
f 43/117/28 45/118/28 46/119/28 44/120/28
f 45/121/29 47/122/29 48/123/29 46/124/29
f 47/125/30 33/126/30 34/127/30 48/128/30
f 47/129/31 45/130/31 43/131/31 41/132/31 39/133/31 37/134/31 35/135/31 33/136/31
f 34/137/32 36/138/32 38/139/32 40/140/32 42/141/32 44/142/32 46/143/32 48/144/32
f 49/145/33 51/146/33 52/147/33 50/148/33
f 51/149/34 53/150/34 54/151/34 52/152/34
f 53/153/35 55/154/35 56/155/35 54/156/35
f 55/157/36 57/158/36 58/159/36 56/160/36
f 57/161/37 59/162/37 60/163/37 58/164/37
f 59/165/38 61/166/38 62/167/38 60/168/38
f 61/169/39 63/170/39 64/171/39 62/172/39
f 63/173/40 49/174/40 50/175/40 64/176/40
f 63/177/41 61/178/41 59/179/41 57/180/41 55/181/41 53/182/41 51/183/41 49/184/41
f 50/185/42 52/186/42 54/187/42 56/188/42 58/189/42 60/190/42 62/191/42 64/192/42
f 65/193/43 67/194/43 68/195/43 66/196/43
f 67/197/44 69/198/44 70/199/44 68/200/44
f 69/201/45 71/202/45 72/203/45 70/204/45
f 71/205/46 73/206/46 74/207/46 72/208/46
f 73/209/47 75/210/47 76/211/47 74/212/47
f 75/213/48 77/214/48 78/215/48 76/216/48
f 77/217/49 79/218/49 80/219/49 78/220/49
f 79/221/50 65/222/50 66/223/50 80/224/50
f 79/225/51 77/226/51 75/227/51 73/228/51 71/229/51 69/230/51 67/231/51 65/232/51
f 66/233/52 68/234/52 70/235/52 72/236/52 74/237/52 76/238/52 78/239/52 80/240/52
usemtl metal
f 81/241/53 82/242/53 83/243/53 84/244/53
f 86/245/54 85/246/54 88/247/54 87/248/54
f 85/249/55 81/250/55 84/251/55 88/252/55
f 82/253/56 86/254/56 87/255/56 83/256/56
f 84/257/57 83/258/57 87/259/57 88/260/57
f 85/261/58 86/262/58 82/263/58 81/264/58
f 89/265/59 90/266/59 91/267/59 92/268/59
f 94/269/60 93/270/60 96/271/60 95/272/60
f 93/273/61 89/274/61 92/275/61 96/276/61
f 90/277/62 94/278/62 95/279/62 91/280/62
f 92/281/63 91/282/63 95/283/63 96/284/63
f 93/285/64 94/286/64 90/287/64 89/288/64
f 97/289/65 98/290/65 99/291/65 100/292/65
f 102/293/66 101/294/66 104/295/66 103/296/66
f 101/297/67 97/298/67 100/299/67 104/300/67
f 98/301/68 102/302/68 103/303/68 99/304/68
f 100/305/69 99/306/69 103/307/69 104/308/69
f 101/309/70 102/310/70 98/311/70 97/312/70
usemtl dark_glass
f 105/313/71 106/314/71 107/315/71 108/316/71
f 110/317/72 109/318/72 112/319/72 111/320/72
f 109/321/73 105/322/73 108/323/73 112/324/73
f 106/325/74 110/326/74 111/327/74 107/328/74
f 108/329/75 107/330/75 111/331/75 112/332/75
f 109/333/76 110/334/76 106/335/76 105/336/76
usemtl metal
f 113/337/77 115/338/77 116/339/77 114/340/77
f 115/341/78 117/342/78 118/343/78 116/344/78
f 117/345/79 119/346/79 120/347/79 118/348/79
f 119/349/80 121/350/80 122/351/80 120/352/80
f 121/353/81 123/354/81 124/355/81 122/356/81
f 123/357/82 125/358/82 126/359/82 124/360/82
f 125/361/83 127/362/83 128/363/83 126/364/83
f 127/365/84 129/366/84 130/367/84 128/368/84
f 129/369/85 131/370/85 132/371/85 130/372/85
f 131/373/86 113/374/86 114/375/86 132/376/86
f 131/377/87 129/378/87 127/379/87 125/380/87 123/381/87 121/382/87 119/383/87 117/384/87 115/385/87 113/386/87
f 114/387/88 116/388/88 118/389/88 120/390/88 122/391/88 124/392/88 126/393/88 128/394/88 130/395/88 132/396/88
f 133/397/89 134/398/89 135/399/89 136/400/89
f 138/401/90 137/402/90 140/403/90 139/404/90
f 137/405/91 133/406/91 136/407/91 140/408/91
f 134/409/92 138/410/92 139/411/92 135/412/92
f 136/413/93 135/414/93 139/415/93 140/416/93
f 137/417/94 138/418/94 134/419/94 133/420/94
