# Generated by tools/generate_hospital_ward_assets.py
mtllib hospital_ward_materials.mtl
o ward_clinical_details
v 0.645000 0.960000 1.170000
v 0.715000 0.960000 1.170000
v 0.715000 1.000000 1.170000
v 0.645000 1.000000 1.170000
v 0.645000 0.960000 1.350000
v 0.715000 0.960000 1.350000
v 0.715000 1.000000 1.350000
v 0.645000 1.000000 1.350000
v 0.620000 0.960000 1.195000
v 0.740000 0.960000 1.195000
v 0.740000 1.000000 1.195000
v 0.620000 1.000000 1.195000
v 0.620000 0.960000 1.325000
v 0.740000 0.960000 1.325000
v 0.740000 1.000000 1.325000
v 0.620000 1.000000 1.325000
v 0.670000 0.960000 1.195000
v 0.670000 1.000000 1.195000
v 0.662678 0.960000 1.212678
v 0.662678 1.000000 1.212678
v 0.645000 0.960000 1.220000
v 0.645000 1.000000 1.220000
v 0.627322 0.960000 1.212678
v 0.627322 1.000000 1.212678
v 0.620000 0.960000 1.195000
v 0.620000 1.000000 1.195000
v 0.627322 0.960000 1.177322
v 0.627322 1.000000 1.177322
v 0.645000 0.960000 1.170000
v 0.645000 1.000000 1.170000
v 0.662678 0.960000 1.177322
v 0.662678 1.000000 1.177322
v 0.670000 0.960000 1.325000
v 0.670000 1.000000 1.325000
v 0.662678 0.960000 1.342678
v 0.662678 1.000000 1.342678
v 0.645000 0.960000 1.350000
v 0.645000 1.000000 1.350000
v 0.627322 0.960000 1.342678
v 0.627322 1.000000 1.342678
v 0.620000 0.960000 1.325000
v 0.620000 1.000000 1.325000
v 0.627322 0.960000 1.307322
v 0.627322 1.000000 1.307322
v 0.645000 0.960000 1.300000
v 0.645000 1.000000 1.300000
v 0.662678 0.960000 1.307322
v 0.662678 1.000000 1.307322
v 0.740000 0.960000 1.195000
v 0.740000 1.000000 1.195000
v 0.732678 0.960000 1.212678
v 0.732678 1.000000 1.212678
v 0.715000 0.960000 1.220000
v 0.715000 1.000000 1.220000
v 0.697322 0.960000 1.212678
v 0.697322 1.000000 1.212678
v 0.690000 0.960000 1.195000
v 0.690000 1.000000 1.195000
v 0.697322 0.960000 1.177322
v 0.697322 1.000000 1.177322
v 0.715000 0.960000 1.170000
v 0.715000 1.000000 1.170000
v 0.732678 0.960000 1.177322
v 0.732678 1.000000 1.177322
v 0.740000 0.960000 1.325000
v 0.740000 1.000000 1.325000
v 0.732678 0.960000 1.342678
v 0.732678 1.000000 1.342678
v 0.715000 0.960000 1.350000
v 0.715000 1.000000 1.350000
v 0.697322 0.960000 1.342678
v 0.697322 1.000000 1.342678
v 0.690000 0.960000 1.325000
v 0.690000 1.000000 1.325000
v 0.697322 0.960000 1.307322
v 0.697322 1.000000 1.307322
v 0.715000 0.960000 1.300000
v 0.715000 1.000000 1.300000
v 0.732678 0.960000 1.307322
v 0.732678 1.000000 1.307322
v 0.657500 0.992000 1.177500
v 0.702500 0.992000 1.177500
v 0.702500 1.008000 1.177500
v 0.657500 1.008000 1.177500
v 0.657500 0.992000 1.222500
v 0.702500 0.992000 1.222500
v 0.702500 1.008000 1.222500
v 0.657500 1.008000 1.222500
v 0.671642 0.965000 1.177090
v 0.631642 0.940000 1.017090
v 0.667600 0.955724 1.179549
v 0.627600 0.930724 1.019549
v 0.657835 0.953433 1.182349
v 0.617835 0.928433 1.022349
v 0.649700 0.959852 1.183379
v 0.609700 0.934852 1.023379
v 0.649322 0.970148 1.181865
v 0.609322 0.945148 1.021865
v 0.656984 0.976567 1.178947
v 0.616984 0.951567 1.018947
v 0.666917 0.974276 1.176821
v 0.626917 0.949276 1.016821
v 0.629600 0.940000 1.012800
v 0.509600 0.920000 0.852800
v 0.626546 0.930665 1.016258
v 0.506546 0.910665 0.856258
v 0.618562 0.928359 1.022533
v 0.498562 0.908359 0.862533
v 0.611662 0.934819 1.026901
v 0.491662 0.914819 0.866901
v 0.611040 0.945181 1.026073
v 0.491040 0.925181 0.866073
v 0.617165 0.951641 1.020671
v 0.497165 0.931641 0.860671
v 0.625425 0.949335 1.014764
v 0.505425 0.929335 0.854764
v 0.503657 0.920000 0.848571
v 0.253657 0.915000 0.768571
v 0.502450 0.910620 0.852929
v 0.252450 0.905620 0.772929
v 0.499398 0.908303 0.862611
v 0.249398 0.903303 0.782611
v 0.496799 0.914794 0.870327
v 0.246799 0.909794 0.790327
v 0.496610 0.925206 0.870267
v 0.246610 0.920206 0.790267
v 0.498974 0.931697 0.862475
v 0.248974 0.926697 0.782475
v 0.502110 0.929380 0.852820
v 0.252110 0.924380 0.772820
v 0.430000 0.927000 0.950000
v 0.610000 0.927000 0.950000
v 0.610000 0.943000 0.950000
v 0.430000 0.943000 0.950000
v 0.430000 0.927000 0.970000
v 0.610000 0.927000 0.970000
v 0.610000 0.943000 0.970000
v 0.430000 0.943000 0.970000
v -0.975528 1.020000 1.028944
v -0.695528 0.990000 0.888944
v -0.977879 1.012217 1.025910
v -0.697879 0.982217 0.885910
v -0.981827 1.010295 1.018426
v -0.701827 0.980295 0.878426
v -0.984399 1.015681 1.012127
v -0.704399 0.985681 0.872127
v -0.983659 1.024319 1.011756
v -0.703659 0.994319 0.871756
v -0.980163 1.029705 1.017594
v -0.700163 0.999705 0.877594
v -0.976545 1.027783 1.025243
v -0.696545 0.997783 0.885243
v -0.695528 0.990000 0.888944
v -0.415528 0.980000 0.748944
v -0.697435 0.982186 0.885688
v -0.417435 0.972186 0.745688
v -0.701274 0.980256 0.878149
v -0.421274 0.970256 0.738149
v -0.704153 0.985663 0.872003
v -0.424153 0.975663 0.732003
v -0.703905 0.994337 0.871880
v -0.423905 0.984337 0.731880
v -0.700717 0.999744 0.877871
v -0.420717 0.989744 0.737871
v -0.696988 0.997814 0.885465
v -0.416988 0.987814 0.745465
v -0.413195 0.980000 0.747328
v -0.273195 0.990000 0.617328
v -0.415458 0.972192 0.744291
v -0.275458 0.982192 0.614291
v -0.421141 0.970264 0.738023
v -0.281141 0.980264 0.608023
v -0.425964 0.975667 0.733243
v -0.285964 0.985667 0.603243
v -0.426297 0.984333 0.733552
v -0.286297 0.994333 0.603552
v -0.421888 0.989736 0.738716
v -0.281888 0.999736 0.608716
v -0.416057 0.987808 0.744847
v -0.276057 0.997808 0.614847
v -0.380000 0.983000 0.600000
v -0.180000 0.983000 0.600000
v -0.180000 0.997000 0.600000
v -0.380000 0.997000 0.600000
v -0.380000 0.983000 0.620000
v -0.180000 0.983000 0.620000
v -0.180000 0.997000 0.620000
v -0.380000 0.997000 0.620000
v -0.693356 1.040000 1.187474
v -0.513356 1.040000 1.027474
v -0.695858 1.032182 1.184660
v -0.515858 1.032182 1.024660
v -0.701478 1.030251 1.178337
v -0.521478 1.030251 1.018337
v -0.705986 1.035661 1.173266
v -0.525986 1.035661 1.013266
v -0.705986 1.044339 1.173266
v -0.525986 1.044339 1.013266
v -0.701478 1.049749 1.178337
v -0.521478 1.049749 1.018337
v -0.695858 1.047818 1.184660
v -0.515858 1.047818 1.024660
v -0.512628 1.040000 1.026757
v -0.292628 1.020000 0.786757
v -0.515728 1.032196 1.024566
v -0.295728 1.012196 0.784566
v -0.522044 1.030269 1.018937
v -0.302044 1.010269 0.778937
v -0.526821 1.035669 1.014108
v -0.306821 1.015669 0.774108
v -0.526462 1.044331 1.013716
v -0.306462 1.024331 0.773716
v -0.521236 1.049731 1.018056
v -0.301236 1.029731 0.778056
v -0.515080 1.047804 1.023860
v -0.295080 1.027804 0.783860
v -0.290715 1.020000 0.783714
v -0.170715 1.010000 0.483714
v -0.294301 1.012185 0.782540
v -0.174301 1.002185 0.482540
v -0.302178 1.010255 0.779454
v -0.182178 1.000255 0.479454
v -0.308415 1.015663 0.776779
v -0.188415 1.005663 0.476779
v -0.308315 1.024337 0.776529
v -0.188315 1.014337 0.476529
v -0.301954 1.029745 0.778894
v -0.181954 1.019745 0.478894
v -0.294121 1.027815 0.782091
v -0.174121 1.017815 0.482091
v -0.290000 1.003000 0.471000
v -0.070000 1.003000 0.471000
v -0.070000 1.017000 0.471000
v -0.290000 1.017000 0.471000
v -0.290000 1.003000 0.489000
v -0.070000 1.003000 0.489000
v -0.070000 1.017000 0.489000
v -0.290000 1.017000 0.489000
v -0.020000 0.998000 0.421000
v 0.260000 0.998000 0.421000
v 0.260000 1.012000 0.421000
v -0.020000 1.012000 0.421000
v -0.020000 0.998000 0.439000
v 0.260000 0.998000 0.439000
v 0.260000 1.012000 0.439000
v -0.020000 1.012000 0.439000
v -0.120000 1.017000 0.351000
v 0.040000 1.017000 0.351000
v 0.040000 1.031000 0.351000
v -0.120000 1.031000 0.351000
v -0.120000 1.017000 0.369000
v 0.040000 1.017000 0.369000
v 0.040000 1.031000 0.369000
v -0.120000 1.031000 0.369000
v 0.220000 0.981000 0.155000
v 0.460000 0.981000 0.155000
v 0.460000 0.999000 0.155000
v 0.220000 0.999000 0.155000
v 0.220000 0.981000 0.205000
v 0.460000 0.981000 0.205000
v 0.460000 0.999000 0.205000
v 0.220000 0.999000 0.205000
v 0.410000 0.990000 0.152500
v 0.450000 0.990000 0.152500
v 0.450000 1.010000 0.152500
v 0.410000 1.010000 0.152500
v 0.410000 0.990000 0.207500
v 0.450000 0.990000 0.207500
v 0.450000 1.010000 0.207500
v 0.410000 1.010000 0.207500
v 1.055000 1.002500 1.040000
v 1.305000 1.002500 1.040000
v 1.305000 1.037500 1.040000
v 1.055000 1.037500 1.040000
v 1.055000 1.002500 1.260000
v 1.305000 1.002500 1.260000
v 1.305000 1.037500 1.260000
v 1.055000 1.037500 1.260000
v 1.030000 1.002500 1.065000
v 1.330000 1.002500 1.065000
v 1.330000 1.037500 1.065000
v 1.030000 1.037500 1.065000
v 1.030000 1.002500 1.235000
v 1.330000 1.002500 1.235000
v 1.330000 1.037500 1.235000
v 1.030000 1.037500 1.235000
v 1.080000 1.002500 1.065000
v 1.080000 1.037500 1.065000
v 1.072678 1.002500 1.082678
v 1.072678 1.037500 1.082678
v 1.055000 1.002500 1.090000
v 1.055000 1.037500 1.090000
v 1.037322 1.002500 1.082678
v 1.037322 1.037500 1.082678
v 1.030000 1.002500 1.065000
v 1.030000 1.037500 1.065000
v 1.037322 1.002500 1.047322
v 1.037322 1.037500 1.047322
v 1.055000 1.002500 1.040000
v 1.055000 1.037500 1.040000
v 1.072678 1.002500 1.047322
v 1.072678 1.037500 1.047322
v 1.080000 1.002500 1.235000
v 1.080000 1.037500 1.235000
v 1.072678 1.002500 1.252678
v 1.072678 1.037500 1.252678
v 1.055000 1.002500 1.260000
v 1.055000 1.037500 1.260000
v 1.037322 1.002500 1.252678
v 1.037322 1.037500 1.252678
v 1.030000 1.002500 1.235000
v 1.030000 1.037500 1.235000
v 1.037322 1.002500 1.217322
v 1.037322 1.037500 1.217322
v 1.055000 1.002500 1.210000
v 1.055000 1.037500 1.210000
v 1.072678 1.002500 1.217322
v 1.072678 1.037500 1.217322
v 1.330000 1.002500 1.065000
v 1.330000 1.037500 1.065000
v 1.322678 1.002500 1.082678
v 1.322678 1.037500 1.082678
v 1.305000 1.002500 1.090000
v 1.305000 1.037500 1.090000
v 1.287322 1.002500 1.082678
v 1.287322 1.037500 1.082678
v 1.280000 1.002500 1.065000
v 1.280000 1.037500 1.065000
v 1.287322 1.002500 1.047322
v 1.287322 1.037500 1.047322
v 1.305000 1.002500 1.040000
v 1.305000 1.037500 1.040000
v 1.322678 1.002500 1.047322
v 1.322678 1.037500 1.047322
v 1.330000 1.002500 1.235000
v 1.330000 1.037500 1.235000
v 1.322678 1.002500 1.252678
v 1.322678 1.037500 1.252678
v 1.305000 1.002500 1.260000
v 1.305000 1.037500 1.260000
v 1.287322 1.002500 1.252678
v 1.287322 1.037500 1.252678
v 1.280000 1.002500 1.235000
v 1.280000 1.037500 1.235000
v 1.287322 1.002500 1.217322
v 1.287322 1.037500 1.217322
v 1.305000 1.002500 1.210000
v 1.305000 1.037500 1.210000
v 1.322678 1.002500 1.217322
v 1.322678 1.037500 1.217322
v 1.060000 1.036000 1.007500
v 1.300000 1.036000 1.007500
v 1.300000 1.054000 1.007500
v 1.060000 1.054000 1.007500
v 1.060000 1.036000 1.032500
v 1.300000 1.036000 1.032500
v 1.300000 1.054000 1.032500
v 1.060000 1.054000 1.032500
v 1.033000 1.056000 1.070000
v 1.047000 1.056000 1.070000
v 1.047000 1.074000 1.070000
v 1.033000 1.074000 1.070000
v 1.033000 1.056000 1.230000
v 1.047000 1.056000 1.230000
v 1.047000 1.074000 1.230000
v 1.033000 1.074000 1.230000
v 1.133000 1.059000 1.060000
v 1.147000 1.059000 1.060000
v 1.147000 1.077000 1.060000
v 1.133000 1.077000 1.060000
v 1.133000 1.059000 1.240000
v 1.147000 1.059000 1.240000
v 1.147000 1.077000 1.240000
v 1.133000 1.077000 1.240000
v 1.233000 1.062000 1.080000
v 1.247000 1.062000 1.080000
v 1.247000 1.080000 1.080000
v 1.233000 1.080000 1.080000
v 1.233000 1.062000 1.220000
v 1.247000 1.062000 1.220000
v 1.247000 1.080000 1.220000
v 1.233000 1.080000 1.220000
v 1.333000 1.051000 1.075000
v 1.347000 1.051000 1.075000
v 1.347000 1.069000 1.075000
v 1.333000 1.069000 1.075000
v 1.333000 1.051000 1.225000
v 1.347000 1.051000 1.225000
v 1.347000 1.069000 1.225000
v 1.333000 1.069000 1.225000
v 1.800000 1.702500 -2.600000
v 1.800000 1.737500 -2.600000
v 1.787821 1.702500 -2.538771
v 1.787821 1.737500 -2.538771
v 1.753137 1.702500 -2.486863
v 1.753137 1.737500 -2.486863
v 1.701229 1.702500 -2.452179
v 1.701229 1.737500 -2.452179
v 1.640000 1.702500 -2.440000
v 1.640000 1.737500 -2.440000
v 1.578771 1.702500 -2.452179
v 1.578771 1.737500 -2.452179
v 1.526863 1.702500 -2.486863
v 1.526863 1.737500 -2.486863
v 1.492179 1.702500 -2.538771
v 1.492179 1.737500 -2.538771
v 1.480000 1.702500 -2.600000
v 1.480000 1.737500 -2.600000
v 1.492179 1.702500 -2.661229
v 1.492179 1.737500 -2.661229
v 1.526863 1.702500 -2.713137
v 1.526863 1.737500 -2.713137
v 1.578771 1.702500 -2.747821
v 1.578771 1.737500 -2.747821
v 1.640000 1.702500 -2.760000
v 1.640000 1.737500 -2.760000
v 1.701229 1.702500 -2.747821
v 1.701229 1.737500 -2.747821
v 1.753137 1.702500 -2.713137
v 1.753137 1.737500 -2.713137
v 1.787821 1.702500 -2.661229
v 1.787821 1.737500 -2.661229
v 1.525000 1.605000 -2.635000
v 1.755000 1.605000 -2.635000
v 1.755000 1.835000 -2.635000
v 1.525000 1.835000 -2.635000
v 1.525000 1.605000 -2.615000
v 1.755000 1.605000 -2.615000
v 1.755000 1.835000 -2.615000
v 1.525000 1.835000 -2.615000
v 1.634000 1.665000 -2.648000
v 1.646000 1.665000 -2.648000
v 1.646000 1.775000 -2.648000
v 1.634000 1.775000 -2.648000
v 1.634000 1.665000 -2.636000
v 1.646000 1.665000 -2.636000
v 1.646000 1.775000 -2.636000
v 1.634000 1.775000 -2.636000
v 1.640000 1.714000 -2.648000
v 1.740000 1.714000 -2.648000
v 1.740000 1.726000 -2.648000
v 1.640000 1.726000 -2.648000
v 1.640000 1.714000 -2.636000
v 1.740000 1.714000 -2.636000
v 1.740000 1.726000 -2.636000
v 1.640000 1.726000 -2.636000
v -1.500000 1.270000 -2.642500
v -0.940000 1.270000 -2.642500
v -0.940000 1.570000 -2.642500
v -1.500000 1.570000 -2.642500
v -1.500000 1.270000 -2.617500
v -0.940000 1.270000 -2.617500
v -0.940000 1.570000 -2.617500
v -1.500000 1.570000 -2.617500
v -1.450000 1.297000 -2.659000
v -0.990000 1.297000 -2.659000
v -0.990000 1.323000 -2.659000
v -1.450000 1.323000 -2.659000
v -1.450000 1.297000 -2.641000
v -0.990000 1.297000 -2.641000
v -0.990000 1.323000 -2.641000
v -1.450000 1.323000 -2.641000
v -2.070000 0.915000 -2.642500
v -1.650000 0.915000 -2.642500
v -1.650000 1.165000 -2.642500
v -2.070000 1.165000 -2.642500
v -2.070000 0.915000 -2.617500
v -1.650000 0.915000 -2.617500
v -1.650000 1.165000 -2.617500
v -2.070000 1.165000 -2.617500
v -2.030000 1.118000 -2.659000
v -1.690000 1.118000 -2.659000
v -1.690000 1.142000 -2.659000
v -2.030000 1.142000 -2.659000
v -2.030000 1.118000 -2.641000
v -1.690000 1.118000 -2.641000
v -1.690000 1.142000 -2.641000
v -2.030000 1.142000 -2.641000
v -2.000000 1.010000 -2.659000
v -1.720000 1.010000 -2.659000
v -1.720000 1.030000 -2.659000
v -2.000000 1.030000 -2.659000
v -2.000000 1.010000 -2.641000
v -1.720000 1.010000 -2.641000
v -1.720000 1.030000 -2.641000
v -2.000000 1.030000 -2.641000
v -0.500000 0.003000 -0.610000
v 0.800000 0.003000 -0.610000
v 0.800000 0.021000 -0.610000
v -0.500000 0.021000 -0.610000
v -0.500000 0.003000 -0.430000
v 0.800000 0.003000 -0.430000
v 0.800000 0.021000 -0.430000
v -0.500000 0.021000 -0.430000
v -0.760000 0.006000 1.030000
v -0.280000 0.006000 1.030000
v -0.280000 0.022000 1.030000
v -0.760000 0.022000 1.030000
v -0.760000 0.006000 1.130000
v -0.280000 0.006000 1.130000
v -0.280000 0.022000 1.130000
v -0.760000 0.022000 1.130000
v 0.600000 0.007000 1.660000
v 0.960000 0.007000 1.660000
v 0.960000 0.023000 1.660000
v 0.600000 0.023000 1.660000
v 0.600000 0.007000 1.780000
v 0.960000 0.007000 1.780000
v 0.960000 0.023000 1.780000
v 0.600000 0.023000 1.780000
v -2.125000 1.025000 0.770000
v -2.085000 1.025000 0.770000
v -2.085000 1.075000 0.770000
v -2.125000 1.075000 0.770000
v -2.125000 1.025000 1.590000
v -2.085000 1.025000 1.590000
v -2.085000 1.075000 1.590000
v -2.125000 1.075000 1.590000
v -2.125000 1.005000 1.120000
v -2.095000 1.005000 1.120000
v -2.095000 1.095000 1.120000
v -2.125000 1.095000 1.120000
v -2.125000 1.005000 1.240000
v -2.095000 1.005000 1.240000
v -2.095000 1.095000 1.240000
v -2.125000 1.095000 1.240000
v 2.085000 1.025000 -0.380000
v 2.125000 1.025000 -0.380000
v 2.125000 1.075000 -0.380000
v 2.085000 1.075000 -0.380000
v 2.085000 1.025000 0.540000
v 2.125000 1.025000 0.540000
v 2.125000 1.075000 0.540000
v 2.085000 1.075000 0.540000
v 2.095000 1.005000 0.020000
v 2.125000 1.005000 0.020000
v 2.125000 1.095000 0.020000
v 2.095000 1.095000 0.020000
v 2.095000 1.005000 0.140000
v 2.125000 1.005000 0.140000
v 2.125000 1.095000 0.140000
v 2.095000 1.095000 0.140000
v -0.457500 2.345000 1.882500
v -0.422500 2.345000 1.882500
v -0.422500 2.465000 1.882500
v -0.457500 2.465000 1.882500
v -0.457500 2.345000 1.917500
v -0.422500 2.345000 1.917500
v -0.422500 2.465000 1.917500
v -0.457500 2.465000 1.917500
v -0.257500 2.345000 1.882500
v -0.222500 2.345000 1.882500
v -0.222500 2.465000 1.882500
v -0.257500 2.465000 1.882500
v -0.257500 2.345000 1.917500
v -0.222500 2.345000 1.917500
v -0.222500 2.465000 1.917500
v -0.257500 2.465000 1.917500
v -0.057500 2.345000 1.882500
v -0.022500 2.345000 1.882500
v -0.022500 2.465000 1.882500
v -0.057500 2.465000 1.882500
v -0.057500 2.345000 1.917500
v -0.022500 2.345000 1.917500
v -0.022500 2.465000 1.917500
v -0.057500 2.465000 1.917500
v 0.142500 2.345000 1.882500
v 0.177500 2.345000 1.882500
v 0.177500 2.465000 1.882500
v 0.142500 2.465000 1.882500
v 0.142500 2.345000 1.917500
v 0.177500 2.345000 1.917500
v 0.177500 2.465000 1.917500
v 0.142500 2.465000 1.917500
v 0.342500 2.345000 1.882500
v 0.377500 2.345000 1.882500
v 0.377500 2.465000 1.882500
v 0.342500 2.465000 1.882500
v 0.342500 2.345000 1.917500
v 0.377500 2.345000 1.917500
v 0.377500 2.465000 1.917500
v 0.342500 2.465000 1.917500
v -0.460000 2.322500 1.882500
v 0.560000 2.322500 1.882500
v 0.560000 2.357500 1.882500
v -0.460000 2.357500 1.882500
v -0.460000 2.322500 1.917500
v 0.560000 2.322500 1.917500
v 0.560000 2.357500 1.917500
v -0.460000 2.357500 1.917500
vt 0.000000 0.000000
vt 1.000000 0.000000
vt 1.000000 1.000000
vt 0.000000 1.000000
vt 0.000000 0.000000
vt 1.000000 0.000000
vt 1.000000 1.000000
vt 0.000000 1.000000
vt 0.000000 0.000000
vt 1.000000 0.000000
vt 1.000000 1.000000
vt 0.000000 1.000000
vt 0.000000 0.000000
vt 1.000000 0.000000
vt 1.000000 1.000000
vt 0.000000 1.000000
vt 0.000000 0.000000
vt 1.000000 0.000000
vt 1.000000 1.000000
vt 0.000000 1.000000
vt 0.000000 0.000000
vt 1.000000 0.000000
vt 1.000000 1.000000
vt 0.000000 1.000000
vt 0.000000 0.000000
vt 1.000000 0.000000
vt 1.000000 1.000000
vt 0.000000 1.000000
vt 0.000000 0.000000
vt 1.000000 0.000000
vt 1.000000 1.000000
vt 0.000000 1.000000
vt 0.000000 0.000000
vt 1.000000 0.000000
vt 1.000000 1.000000
vt 0.000000 1.000000
vt 0.000000 0.000000
vt 1.000000 0.000000
vt 1.000000 1.000000
vt 0.000000 1.000000
vt 0.000000 0.000000
vt 1.000000 0.000000
vt 1.000000 1.000000
vt 0.000000 1.000000
vt 0.000000 0.000000
vt 1.000000 0.000000
vt 1.000000 1.000000
vt 0.000000 1.000000
vt 0.000000 0.000000
vt 1.000000 0.000000
vt 1.000000 1.000000
vt 0.000000 1.000000
vt 0.000000 0.000000
vt 1.000000 0.000000
vt 1.000000 1.000000
vt 0.000000 1.000000
vt 0.000000 0.000000
vt 1.000000 0.000000
vt 1.000000 1.000000
vt 0.000000 1.000000
vt 0.000000 0.000000
vt 1.000000 0.000000
vt 1.000000 1.000000
vt 0.000000 1.000000
vt 0.000000 0.000000
vt 1.000000 0.000000
vt 1.000000 1.000000
vt 0.000000 1.000000
vt 0.000000 0.000000
vt 1.000000 0.000000
vt 1.000000 1.000000
vt 0.000000 1.000000
vt 0.000000 0.000000
vt 1.000000 0.000000
vt 1.000000 1.000000
vt 0.000000 1.000000
vt 0.000000 0.000000
vt 1.000000 0.000000
vt 1.000000 1.000000
vt 0.000000 1.000000
vt 1.000000 0.500000
vt 0.853553 0.853553
vt 0.500000 1.000000
vt 0.146447 0.853553
vt 0.000000 0.500000
vt 0.146447 0.146447
vt 0.500000 0.000000
vt 0.853553 0.146447
vt 1.000000 0.500000
vt 0.853553 0.853553
vt 0.500000 1.000000
vt 0.146447 0.853553
vt 0.000000 0.500000
vt 0.146447 0.146447
vt 0.500000 0.000000
vt 0.853553 0.146447
vt 0.000000 0.000000
vt 1.000000 0.000000
vt 1.000000 1.000000
vt 0.000000 1.000000
vt 0.000000 0.000000
vt 1.000000 0.000000
vt 1.000000 1.000000
vt 0.000000 1.000000
vt 0.000000 0.000000
vt 1.000000 0.000000
vt 1.000000 1.000000
vt 0.000000 1.000000
vt 0.000000 0.000000
vt 1.000000 0.000000
vt 1.000000 1.000000
vt 0.000000 1.000000
vt 0.000000 0.000000
vt 1.000000 0.000000
vt 1.000000 1.000000
vt 0.000000 1.000000
vt 0.000000 0.000000
vt 1.000000 0.000000
vt 1.000000 1.000000
vt 0.000000 1.000000
vt 0.000000 0.000000
vt 1.000000 0.000000
vt 1.000000 1.000000
vt 0.000000 1.000000
vt 0.000000 0.000000
vt 1.000000 0.000000
vt 1.000000 1.000000
vt 0.000000 1.000000
vt 1.000000 0.500000
vt 0.853553 0.853553
vt 0.500000 1.000000
vt 0.146447 0.853553
vt 0.000000 0.500000
vt 0.146447 0.146447
vt 0.500000 0.000000
vt 0.853553 0.146447
vt 1.000000 0.500000
vt 0.853553 0.853553
vt 0.500000 1.000000
vt 0.146447 0.853553
vt 0.000000 0.500000
vt 0.146447 0.146447
vt 0.500000 0.000000
vt 0.853553 0.146447
vt 0.000000 0.000000
vt 1.000000 0.000000
vt 1.000000 1.000000
vt 0.000000 1.000000
vt 0.000000 0.000000
vt 1.000000 0.000000
vt 1.000000 1.000000
vt 0.000000 1.000000
vt 0.000000 0.000000
vt 1.000000 0.000000
vt 1.000000 1.000000
vt 0.000000 1.000000
vt 0.000000 0.000000
vt 1.000000 0.000000
vt 1.000000 1.000000
vt 0.000000 1.000000
vt 0.000000 0.000000
vt 1.000000 0.000000
vt 1.000000 1.000000
vt 0.000000 1.000000
vt 0.000000 0.000000
vt 1.000000 0.000000
vt 1.000000 1.000000
vt 0.000000 1.000000
vt 0.000000 0.000000
vt 1.000000 0.000000
vt 1.000000 1.000000
vt 0.000000 1.000000
vt 0.000000 0.000000
vt 1.000000 0.000000
vt 1.000000 1.000000
vt 0.000000 1.000000
vt 1.000000 0.500000
vt 0.853553 0.853553
vt 0.500000 1.000000
vt 0.146447 0.853553
vt 0.000000 0.500000
vt 0.146447 0.146447
vt 0.500000 0.000000
vt 0.853553 0.146447
vt 1.000000 0.500000
vt 0.853553 0.853553
vt 0.500000 1.000000
vt 0.146447 0.853553
vt 0.000000 0.500000
vt 0.146447 0.146447
vt 0.500000 0.000000
vt 0.853553 0.146447
vt 0.000000 0.000000
vt 1.000000 0.000000
vt 1.000000 1.000000
vt 0.000000 1.000000
vt 0.000000 0.000000
vt 1.000000 0.000000
vt 1.000000 1.000000
vt 0.000000 1.000000
vt 0.000000 0.000000
vt 1.000000 0.000000
vt 1.000000 1.000000
vt 0.000000 1.000000
vt 0.000000 0.000000
vt 1.000000 0.000000
vt 1.000000 1.000000
vt 0.000000 1.000000
vt 0.000000 0.000000
vt 1.000000 0.000000
vt 1.000000 1.000000
vt 0.000000 1.000000
vt 0.000000 0.000000
vt 1.000000 0.000000
vt 1.000000 1.000000
vt 0.000000 1.000000
vt 0.000000 0.000000
vt 1.000000 0.000000
vt 1.000000 1.000000
vt 0.000000 1.000000
vt 0.000000 0.000000
vt 1.000000 0.000000
vt 1.000000 1.000000
vt 0.000000 1.000000
vt 1.000000 0.500000
vt 0.853553 0.853553
vt 0.500000 1.000000
vt 0.146447 0.853553
vt 0.000000 0.500000
vt 0.146447 0.146447
vt 0.500000 0.000000
vt 0.853553 0.146447
vt 1.000000 0.500000
vt 0.853553 0.853553
vt 0.500000 1.000000
vt 0.146447 0.853553
vt 0.000000 0.500000
vt 0.146447 0.146447
vt 0.500000 0.000000
vt 0.853553 0.146447
vt 0.000000 0.000000
vt 1.000000 0.000000
vt 1.000000 1.000000
vt 0.000000 1.000000
vt 0.000000 0.000000
vt 1.000000 0.000000
vt 1.000000 1.000000
vt 0.000000 1.000000
vt 0.000000 0.000000
vt 1.000000 0.000000
vt 1.000000 1.000000
vt 0.000000 1.000000
vt 0.000000 0.000000
vt 1.000000 0.000000
vt 1.000000 1.000000
vt 0.000000 1.000000
vt 0.000000 0.000000
vt 1.000000 0.000000
vt 1.000000 1.000000
vt 0.000000 1.000000
vt 0.000000 0.000000
vt 1.000000 0.000000
vt 1.000000 1.000000
vt 0.000000 1.000000
vt 0.000000 0.000000
vt 1.000000 0.000000
vt 1.000000 1.000000
vt 0.000000 1.000000
vt 0.000000 0.000000
vt 1.000000 0.000000
vt 1.000000 1.000000
vt 0.000000 1.000000
vt 0.000000 0.000000
vt 1.000000 0.000000
vt 1.000000 1.000000
vt 0.000000 1.000000
vt 0.000000 0.000000
vt 1.000000 0.000000
vt 1.000000 1.000000
vt 0.000000 1.000000
vt 0.000000 0.000000
vt 1.000000 0.000000
vt 1.000000 1.000000
vt 0.000000 1.000000
vt 0.000000 0.000000
vt 1.000000 0.000000
vt 1.000000 1.000000
vt 0.000000 1.000000
vt 0.000000 0.000000
vt 1.000000 0.000000
vt 1.000000 1.000000
vt 0.000000 1.000000
vt 1.000000 0.500000
vt 0.811745 0.890916
vt 0.388740 0.987464
vt 0.049516 0.716942
vt 0.049516 0.283058
vt 0.388740 0.012536
vt 0.811745 0.109084
vt 1.000000 0.500000
vt 0.811745 0.890916
vt 0.388740 0.987464
vt 0.049516 0.716942
vt 0.049516 0.283058
vt 0.388740 0.012536
vt 0.811745 0.109084
vt 0.000000 0.000000
vt 1.000000 0.000000
vt 1.000000 1.000000
vt 0.000000 1.000000
vt 0.000000 0.000000
vt 1.000000 0.000000
vt 1.000000 1.000000
vt 0.000000 1.000000
vt 0.000000 0.000000
vt 1.000000 0.000000
vt 1.000000 1.000000
vt 0.000000 1.000000
vt 0.000000 0.000000
vt 1.000000 0.000000
vt 1.000000 1.000000
vt 0.000000 1.000000
vt 0.000000 0.000000
vt 1.000000 0.000000
vt 1.000000 1.000000
vt 0.000000 1.000000
vt 0.000000 0.000000
vt 1.000000 0.000000
vt 1.000000 1.000000
vt 0.000000 1.000000
vt 0.000000 0.000000
vt 1.000000 0.000000
vt 1.000000 1.000000
vt 0.000000 1.000000
vt 1.000000 0.500000
vt 0.811745 0.890916
vt 0.388740 0.987464
vt 0.049516 0.716942
vt 0.049516 0.283058
vt 0.388740 0.012536
vt 0.811745 0.109084
vt 1.000000 0.500000
vt 0.811745 0.890916
vt 0.388740 0.987464
vt 0.049516 0.716942
vt 0.049516 0.283058
vt 0.388740 0.012536
vt 0.811745 0.109084
vt 0.000000 0.000000
vt 1.000000 0.000000
vt 1.000000 1.000000
vt 0.000000 1.000000
vt 0.000000 0.000000
vt 1.000000 0.000000
vt 1.000000 1.000000
vt 0.000000 1.000000
vt 0.000000 0.000000
vt 1.000000 0.000000
vt 1.000000 1.000000
vt 0.000000 1.000000
vt 0.000000 0.000000
vt 1.000000 0.000000
vt 1.000000 1.000000
vt 0.000000 1.000000
vt 0.000000 0.000000
vt 1.000000 0.000000
vt 1.000000 1.000000
vt 0.000000 1.000000
vt 0.000000 0.000000
vt 1.000000 0.000000
vt 1.000000 1.000000
vt 0.000000 1.000000
vt 0.000000 0.000000
vt 1.000000 0.000000
vt 1.000000 1.000000
vt 0.000000 1.000000
vt 1.000000 0.500000
vt 0.811745 0.890916
vt 0.388740 0.987464
vt 0.049516 0.716942
vt 0.049516 0.283058
vt 0.388740 0.012536
vt 0.811745 0.109084
vt 1.000000 0.500000
vt 0.811745 0.890916
vt 0.388740 0.987464
vt 0.049516 0.716942
vt 0.049516 0.283058
vt 0.388740 0.012536
vt 0.811745 0.109084
vt 0.000000 0.000000
vt 1.000000 0.000000
vt 1.000000 1.000000
vt 0.000000 1.000000
vt 0.000000 0.000000
vt 1.000000 0.000000
vt 1.000000 1.000000
vt 0.000000 1.000000
vt 0.000000 0.000000
vt 1.000000 0.000000
vt 1.000000 1.000000
vt 0.000000 1.000000
vt 0.000000 0.000000
vt 1.000000 0.000000
vt 1.000000 1.000000
vt 0.000000 1.000000
vt 0.000000 0.000000
vt 1.000000 0.000000
vt 1.000000 1.000000
vt 0.000000 1.000000
vt 0.000000 0.000000
vt 1.000000 0.000000
vt 1.000000 1.000000
vt 0.000000 1.000000
vt 0.000000 0.000000
vt 1.000000 0.000000
vt 1.000000 1.000000
vt 0.000000 1.000000
vt 0.000000 0.000000
vt 1.000000 0.000000
vt 1.000000 1.000000
vt 0.000000 1.000000
vt 0.000000 0.000000
vt 1.000000 0.000000
vt 1.000000 1.000000
vt 0.000000 1.000000
vt 0.000000 0.000000
vt 1.000000 0.000000
vt 1.000000 1.000000
vt 0.000000 1.000000
vt 0.000000 0.000000
vt 1.000000 0.000000
vt 1.000000 1.000000
vt 0.000000 1.000000
vt 0.000000 0.000000
vt 1.000000 0.000000
vt 1.000000 1.000000
vt 0.000000 1.000000
vt 0.000000 0.000000
vt 1.000000 0.000000
vt 1.000000 1.000000
vt 0.000000 1.000000
vt 1.000000 0.500000
vt 0.811745 0.890916
vt 0.388740 0.987464
vt 0.049516 0.716942
vt 0.049516 0.283058
vt 0.388740 0.012536
vt 0.811745 0.109084
vt 1.000000 0.500000
vt 0.811745 0.890916
vt 0.388740 0.987464
vt 0.049516 0.716942
vt 0.049516 0.283058
vt 0.388740 0.012536
vt 0.811745 0.109084
vt 0.000000 0.000000
vt 1.000000 0.000000
vt 1.000000 1.000000
vt 0.000000 1.000000
vt 0.000000 0.000000
vt 1.000000 0.000000
vt 1.000000 1.000000
vt 0.000000 1.000000
vt 0.000000 0.000000
vt 1.000000 0.000000
vt 1.000000 1.000000
vt 0.000000 1.000000
vt 0.000000 0.000000
vt 1.000000 0.000000
vt 1.000000 1.000000
vt 0.000000 1.000000
vt 0.000000 0.000000
vt 1.000000 0.000000
vt 1.000000 1.000000
vt 0.000000 1.000000
vt 0.000000 0.000000
vt 1.000000 0.000000
vt 1.000000 1.000000
vt 0.000000 1.000000
vt 0.000000 0.000000
vt 1.000000 0.000000
vt 1.000000 1.000000
vt 0.000000 1.000000
vt 1.000000 0.500000
vt 0.811745 0.890916
vt 0.388740 0.987464
vt 0.049516 0.716942
vt 0.049516 0.283058
vt 0.388740 0.012536
vt 0.811745 0.109084
vt 1.000000 0.500000
vt 0.811745 0.890916
vt 0.388740 0.987464
vt 0.049516 0.716942
vt 0.049516 0.283058
vt 0.388740 0.012536
vt 0.811745 0.109084
vt 0.000000 0.000000
vt 1.000000 0.000000
vt 1.000000 1.000000
vt 0.000000 1.000000
vt 0.000000 0.000000
vt 1.000000 0.000000
vt 1.000000 1.000000
vt 0.000000 1.000000
vt 0.000000 0.000000
vt 1.000000 0.000000
vt 1.000000 1.000000
vt 0.000000 1.000000
vt 0.000000 0.000000
vt 1.000000 0.000000
vt 1.000000 1.000000
vt 0.000000 1.000000
vt 0.000000 0.000000
vt 1.000000 0.000000
vt 1.000000 1.000000
vt 0.000000 1.000000
vt 0.000000 0.000000
vt 1.000000 0.000000
vt 1.000000 1.000000
vt 0.000000 1.000000
vt 0.000000 0.000000
vt 1.000000 0.000000
vt 1.000000 1.000000
vt 0.000000 1.000000
vt 1.000000 0.500000
vt 0.811745 0.890916
vt 0.388740 0.987464
vt 0.049516 0.716942
vt 0.049516 0.283058
vt 0.388740 0.012536
vt 0.811745 0.109084
vt 1.000000 0.500000
vt 0.811745 0.890916
vt 0.388740 0.987464
vt 0.049516 0.716942
vt 0.049516 0.283058
vt 0.388740 0.012536
vt 0.811745 0.109084
vt 0.000000 0.000000
vt 1.000000 0.000000
vt 1.000000 1.000000
vt 0.000000 1.000000
vt 0.000000 0.000000
vt 1.000000 0.000000
vt 1.000000 1.000000
vt 0.000000 1.000000
vt 0.000000 0.000000
vt 1.000000 0.000000
vt 1.000000 1.000000
vt 0.000000 1.000000
vt 0.000000 0.000000
vt 1.000000 0.000000
vt 1.000000 1.000000
vt 0.000000 1.000000
vt 0.000000 0.000000
vt 1.000000 0.000000
vt 1.000000 1.000000
vt 0.000000 1.000000
vt 0.000000 0.000000
vt 1.000000 0.000000
vt 1.000000 1.000000
vt 0.000000 1.000000
vt 0.000000 0.000000
vt 1.000000 0.000000
vt 1.000000 1.000000
vt 0.000000 1.000000
vt 0.000000 0.000000
vt 1.000000 0.000000
vt 1.000000 1.000000
vt 0.000000 1.000000
vt 0.000000 0.000000
vt 1.000000 0.000000
vt 1.000000 1.000000
vt 0.000000 1.000000
vt 0.000000 0.000000
vt 1.000000 0.000000
vt 1.000000 1.000000
vt 0.000000 1.000000
vt 0.000000 0.000000
vt 1.000000 0.000000
vt 1.000000 1.000000
vt 0.000000 1.000000
vt 0.000000 0.000000
vt 1.000000 0.000000
vt 1.000000 1.000000
vt 0.000000 1.000000
vt 0.000000 0.000000
vt 1.000000 0.000000
vt 1.000000 1.000000
vt 0.000000 1.000000
vt 1.000000 0.500000
vt 0.811745 0.890916
vt 0.388740 0.987464
vt 0.049516 0.716942
vt 0.049516 0.283058
vt 0.388740 0.012536
vt 0.811745 0.109084
vt 1.000000 0.500000
vt 0.811745 0.890916
vt 0.388740 0.987464
vt 0.049516 0.716942
vt 0.049516 0.283058
vt 0.388740 0.012536
vt 0.811745 0.109084
vt 0.000000 0.000000
vt 1.000000 0.000000
vt 1.000000 1.000000
vt 0.000000 1.000000
vt 0.000000 0.000000
vt 1.000000 0.000000
vt 1.000000 1.000000
vt 0.000000 1.000000
vt 0.000000 0.000000
vt 1.000000 0.000000
vt 1.000000 1.000000
vt 0.000000 1.000000
vt 0.000000 0.000000
vt 1.000000 0.000000
vt 1.000000 1.000000
vt 0.000000 1.000000
vt 0.000000 0.000000
vt 1.000000 0.000000
vt 1.000000 1.000000
vt 0.000000 1.000000
vt 0.000000 0.000000
vt 1.000000 0.000000
vt 1.000000 1.000000
vt 0.000000 1.000000
vt 0.000000 0.000000
vt 1.000000 0.000000
vt 1.000000 1.000000
vt 0.000000 1.000000
vt 1.000000 0.500000
vt 0.811745 0.890916
vt 0.388740 0.987464
vt 0.049516 0.716942
vt 0.049516 0.283058
vt 0.388740 0.012536
vt 0.811745 0.109084
vt 1.000000 0.500000
vt 0.811745 0.890916
vt 0.388740 0.987464
vt 0.049516 0.716942
vt 0.049516 0.283058
vt 0.388740 0.012536
vt 0.811745 0.109084
vt 0.000000 0.000000
vt 1.000000 0.000000
vt 1.000000 1.000000
vt 0.000000 1.000000
vt 0.000000 0.000000
vt 1.000000 0.000000
vt 1.000000 1.000000
vt 0.000000 1.000000
vt 0.000000 0.000000
vt 1.000000 0.000000
vt 1.000000 1.000000
vt 0.000000 1.000000
vt 0.000000 0.000000
vt 1.000000 0.000000
vt 1.000000 1.000000
vt 0.000000 1.000000
vt 0.000000 0.000000
vt 1.000000 0.000000
vt 1.000000 1.000000
vt 0.000000 1.000000
vt 0.000000 0.000000
vt 1.000000 0.000000
vt 1.000000 1.000000
vt 0.000000 1.000000
vt 0.000000 0.000000
vt 1.000000 0.000000
vt 1.000000 1.000000
vt 0.000000 1.000000
vt 1.000000 0.500000
vt 0.811745 0.890916
vt 0.388740 0.987464
vt 0.049516 0.716942
vt 0.049516 0.283058
vt 0.388740 0.012536
vt 0.811745 0.109084
vt 1.000000 0.500000
vt 0.811745 0.890916
vt 0.388740 0.987464
vt 0.049516 0.716942
vt 0.049516 0.283058
vt 0.388740 0.012536
vt 0.811745 0.109084
vt 0.000000 0.000000
vt 1.000000 0.000000
vt 1.000000 1.000000
vt 0.000000 1.000000
vt 0.000000 0.000000
vt 1.000000 0.000000
vt 1.000000 1.000000
vt 0.000000 1.000000
vt 0.000000 0.000000
vt 1.000000 0.000000
vt 1.000000 1.000000
vt 0.000000 1.000000
vt 0.000000 0.000000
vt 1.000000 0.000000
vt 1.000000 1.000000
vt 0.000000 1.000000
vt 0.000000 0.000000
vt 1.000000 0.000000
vt 1.000000 1.000000
vt 0.000000 1.000000
vt 0.000000 0.000000
vt 1.000000 0.000000
vt 1.000000 1.000000
vt 0.000000 1.000000
vt 0.000000 0.000000
vt 1.000000 0.000000
vt 1.000000 1.000000
vt 0.000000 1.000000
vt 0.000000 0.000000
vt 1.000000 0.000000
vt 1.000000 1.000000
vt 0.000000 1.000000
vt 0.000000 0.000000
vt 1.000000 0.000000
vt 1.000000 1.000000
vt 0.000000 1.000000
vt 0.000000 0.000000
vt 1.000000 0.000000
vt 1.000000 1.000000
vt 0.000000 1.000000
vt 0.000000 0.000000
vt 1.000000 0.000000
vt 1.000000 1.000000
vt 0.000000 1.000000
vt 0.000000 0.000000
vt 1.000000 0.000000
vt 1.000000 1.000000
vt 0.000000 1.000000
vt 0.000000 0.000000
vt 1.000000 0.000000
vt 1.000000 1.000000
vt 0.000000 1.000000
vt 0.000000 0.000000
vt 1.000000 0.000000
vt 1.000000 1.000000
vt 0.000000 1.000000
vt 0.000000 0.000000
vt 1.000000 0.000000
vt 1.000000 1.000000
vt 0.000000 1.000000
vt 0.000000 0.000000
vt 1.000000 0.000000
vt 1.000000 1.000000
vt 0.000000 1.000000
vt 0.000000 0.000000
vt 1.000000 0.000000
vt 1.000000 1.000000
vt 0.000000 1.000000
vt 0.000000 0.000000
vt 1.000000 0.000000
vt 1.000000 1.000000
vt 0.000000 1.000000
vt 0.000000 0.000000
vt 1.000000 0.000000
vt 1.000000 1.000000
vt 0.000000 1.000000
vt 0.000000 0.000000
vt 1.000000 0.000000
vt 1.000000 1.000000
vt 0.000000 1.000000
vt 0.000000 0.000000
vt 1.000000 0.000000
vt 1.000000 1.000000
vt 0.000000 1.000000
vt 0.000000 0.000000
vt 1.000000 0.000000
vt 1.000000 1.000000
vt 0.000000 1.000000
vt 0.000000 0.000000
vt 1.000000 0.000000
vt 1.000000 1.000000
vt 0.000000 1.000000
vt 0.000000 0.000000
vt 1.000000 0.000000
vt 1.000000 1.000000
vt 0.000000 1.000000
vt 0.000000 0.000000
vt 1.000000 0.000000
vt 1.000000 1.000000
vt 0.000000 1.000000
vt 0.000000 0.000000
vt 1.000000 0.000000
vt 1.000000 1.000000
vt 0.000000 1.000000
vt 0.000000 0.000000
vt 1.000000 0.000000
vt 1.000000 1.000000
vt 0.000000 1.000000
vt 0.000000 0.000000
vt 1.000000 0.000000
vt 1.000000 1.000000
vt 0.000000 1.000000
vt 0.000000 0.000000
vt 1.000000 0.000000
vt 1.000000 1.000000
vt 0.000000 1.000000
vt 0.000000 0.000000
vt 1.000000 0.000000
vt 1.000000 1.000000
vt 0.000000 1.000000
vt 0.000000 0.000000
vt 1.000000 0.000000
vt 1.000000 1.000000
vt 0.000000 1.000000
vt 0.000000 0.000000
vt 1.000000 0.000000
vt 1.000000 1.000000
vt 0.000000 1.000000
vt 0.000000 0.000000
vt 1.000000 0.000000
vt 1.000000 1.000000
vt 0.000000 1.000000
vt 0.000000 0.000000
vt 1.000000 0.000000
vt 1.000000 1.000000
vt 0.000000 1.000000
vt 0.000000 0.000000
vt 1.000000 0.000000
vt 1.000000 1.000000
vt 0.000000 1.000000
vt 0.000000 0.000000
vt 1.000000 0.000000
vt 1.000000 1.000000
vt 0.000000 1.000000
vt 0.000000 0.000000
vt 1.000000 0.000000
vt 1.000000 1.000000
vt 0.000000 1.000000
vt 0.000000 0.000000
vt 1.000000 0.000000
vt 1.000000 1.000000
vt 0.000000 1.000000
vt 0.000000 0.000000
vt 1.000000 0.000000
vt 1.000000 1.000000
vt 0.000000 1.000000
vt 0.000000 0.000000
vt 1.000000 0.000000
vt 1.000000 1.000000
vt 0.000000 1.000000
vt 0.000000 0.000000
vt 1.000000 0.000000
vt 1.000000 1.000000
vt 0.000000 1.000000
vt 0.000000 0.000000
vt 1.000000 0.000000
vt 1.000000 1.000000
vt 0.000000 1.000000
vt 0.000000 0.000000
vt 1.000000 0.000000
vt 1.000000 1.000000
vt 0.000000 1.000000
vt 0.000000 0.000000
vt 1.000000 0.000000
vt 1.000000 1.000000
vt 0.000000 1.000000
vt 0.000000 0.000000
vt 1.000000 0.000000
vt 1.000000 1.000000
vt 0.000000 1.000000
vt 0.000000 0.000000
vt 1.000000 0.000000
vt 1.000000 1.000000
vt 0.000000 1.000000
vt 0.000000 0.000000
vt 1.000000 0.000000
vt 1.000000 1.000000
vt 0.000000 1.000000
vt 0.000000 0.000000
vt 1.000000 0.000000
vt 1.000000 1.000000
vt 0.000000 1.000000
vt 0.000000 0.000000
vt 1.000000 0.000000
vt 1.000000 1.000000
vt 0.000000 1.000000
vt 0.000000 0.000000
vt 1.000000 0.000000
vt 1.000000 1.000000
vt 0.000000 1.000000
vt 1.000000 0.500000
vt 0.853553 0.853553
vt 0.500000 1.000000
vt 0.146447 0.853553
vt 0.000000 0.500000
vt 0.146447 0.146447
vt 0.500000 0.000000
vt 0.853553 0.146447
vt 1.000000 0.500000
vt 0.853553 0.853553
vt 0.500000 1.000000
vt 0.146447 0.853553
vt 0.000000 0.500000
vt 0.146447 0.146447
vt 0.500000 0.000000
vt 0.853553 0.146447
vt 0.000000 0.000000
vt 1.000000 0.000000
vt 1.000000 1.000000
vt 0.000000 1.000000
vt 0.000000 0.000000
vt 1.000000 0.000000
vt 1.000000 1.000000
vt 0.000000 1.000000
vt 0.000000 0.000000
vt 1.000000 0.000000
vt 1.000000 1.000000
vt 0.000000 1.000000
vt 0.000000 0.000000
vt 1.000000 0.000000
vt 1.000000 1.000000
vt 0.000000 1.000000
vt 0.000000 0.000000
vt 1.000000 0.000000
vt 1.000000 1.000000
vt 0.000000 1.000000
vt 0.000000 0.000000
vt 1.000000 0.000000
vt 1.000000 1.000000
vt 0.000000 1.000000
vt 0.000000 0.000000
vt 1.000000 0.000000
vt 1.000000 1.000000
vt 0.000000 1.000000
vt 0.000000 0.000000
vt 1.000000 0.000000
vt 1.000000 1.000000
vt 0.000000 1.000000
vt 1.000000 0.500000
vt 0.853553 0.853553
vt 0.500000 1.000000
vt 0.146447 0.853553
vt 0.000000 0.500000
vt 0.146447 0.146447
vt 0.500000 0.000000
vt 0.853553 0.146447
vt 1.000000 0.500000
vt 0.853553 0.853553
vt 0.500000 1.000000
vt 0.146447 0.853553
vt 0.000000 0.500000
vt 0.146447 0.146447
vt 0.500000 0.000000
vt 0.853553 0.146447
vt 0.000000 0.000000
vt 1.000000 0.000000
vt 1.000000 1.000000
vt 0.000000 1.000000
vt 0.000000 0.000000
vt 1.000000 0.000000
vt 1.000000 1.000000
vt 0.000000 1.000000
vt 0.000000 0.000000
vt 1.000000 0.000000
vt 1.000000 1.000000
vt 0.000000 1.000000
vt 0.000000 0.000000
vt 1.000000 0.000000
vt 1.000000 1.000000
vt 0.000000 1.000000
vt 0.000000 0.000000
vt 1.000000 0.000000
vt 1.000000 1.000000
vt 0.000000 1.000000
vt 0.000000 0.000000
vt 1.000000 0.000000
vt 1.000000 1.000000
vt 0.000000 1.000000
vt 0.000000 0.000000
vt 1.000000 0.000000
vt 1.000000 1.000000
vt 0.000000 1.000000
vt 0.000000 0.000000
vt 1.000000 0.000000
vt 1.000000 1.000000
vt 0.000000 1.000000
vt 1.000000 0.500000
vt 0.853553 0.853553
vt 0.500000 1.000000
vt 0.146447 0.853553
vt 0.000000 0.500000
vt 0.146447 0.146447
vt 0.500000 0.000000
vt 0.853553 0.146447
vt 1.000000 0.500000
vt 0.853553 0.853553
vt 0.500000 1.000000
vt 0.146447 0.853553
vt 0.000000 0.500000
vt 0.146447 0.146447
vt 0.500000 0.000000
vt 0.853553 0.146447
vt 0.000000 0.000000
vt 1.000000 0.000000
vt 1.000000 1.000000
vt 0.000000 1.000000
vt 0.000000 0.000000
vt 1.000000 0.000000
vt 1.000000 1.000000
vt 0.000000 1.000000
vt 0.000000 0.000000
vt 1.000000 0.000000
vt 1.000000 1.000000
vt 0.000000 1.000000
vt 0.000000 0.000000
vt 1.000000 0.000000
vt 1.000000 1.000000
vt 0.000000 1.000000
vt 0.000000 0.000000
vt 1.000000 0.000000
vt 1.000000 1.000000
vt 0.000000 1.000000
vt 0.000000 0.000000
vt 1.000000 0.000000
vt 1.000000 1.000000
vt 0.000000 1.000000
vt 0.000000 0.000000
vt 1.000000 0.000000
vt 1.000000 1.000000
vt 0.000000 1.000000
vt 0.000000 0.000000
vt 1.000000 0.000000
vt 1.000000 1.000000
vt 0.000000 1.000000
vt 1.000000 0.500000
vt 0.853553 0.853553
vt 0.500000 1.000000
vt 0.146447 0.853553
vt 0.000000 0.500000
vt 0.146447 0.146447
vt 0.500000 0.000000
vt 0.853553 0.146447
vt 1.000000 0.500000
vt 0.853553 0.853553
vt 0.500000 1.000000
vt 0.146447 0.853553
vt 0.000000 0.500000
vt 0.146447 0.146447
vt 0.500000 0.000000
vt 0.853553 0.146447
vt 0.000000 0.000000
vt 1.000000 0.000000
vt 1.000000 1.000000
vt 0.000000 1.000000
vt 0.000000 0.000000
vt 1.000000 0.000000
vt 1.000000 1.000000
vt 0.000000 1.000000
vt 0.000000 0.000000
vt 1.000000 0.000000
vt 1.000000 1.000000
vt 0.000000 1.000000
vt 0.000000 0.000000
vt 1.000000 0.000000
vt 1.000000 1.000000
vt 0.000000 1.000000
vt 0.000000 0.000000
vt 1.000000 0.000000
vt 1.000000 1.000000
vt 0.000000 1.000000
vt 0.000000 0.000000
vt 1.000000 0.000000
vt 1.000000 1.000000
vt 0.000000 1.000000
vt 0.000000 0.000000
vt 1.000000 0.000000
vt 1.000000 1.000000
vt 0.000000 1.000000
vt 0.000000 0.000000
vt 1.000000 0.000000
vt 1.000000 1.000000
vt 0.000000 1.000000
vt 0.000000 0.000000
vt 1.000000 0.000000
vt 1.000000 1.000000
vt 0.000000 1.000000
vt 0.000000 0.000000
vt 1.000000 0.000000
vt 1.000000 1.000000
vt 0.000000 1.000000
vt 0.000000 0.000000
vt 1.000000 0.000000
vt 1.000000 1.000000
vt 0.000000 1.000000
vt 0.000000 0.000000
vt 1.000000 0.000000
vt 1.000000 1.000000
vt 0.000000 1.000000
vt 0.000000 0.000000
vt 1.000000 0.000000
vt 1.000000 1.000000
vt 0.000000 1.000000
vt 0.000000 0.000000
vt 1.000000 0.000000
vt 1.000000 1.000000
vt 0.000000 1.000000
vt 0.000000 0.000000
vt 1.000000 0.000000
vt 1.000000 1.000000
vt 0.000000 1.000000
vt 0.000000 0.000000
vt 1.000000 0.000000
vt 1.000000 1.000000
vt 0.000000 1.000000
vt 0.000000 0.000000
vt 1.000000 0.000000
vt 1.000000 1.000000
vt 0.000000 1.000000
vt 0.000000 0.000000
vt 1.000000 0.000000
vt 1.000000 1.000000
vt 0.000000 1.000000
vt 0.000000 0.000000
vt 1.000000 0.000000
vt 1.000000 1.000000
vt 0.000000 1.000000
vt 0.000000 0.000000
vt 1.000000 0.000000
vt 1.000000 1.000000
vt 0.000000 1.000000
vt 0.000000 0.000000
vt 1.000000 0.000000
vt 1.000000 1.000000
vt 0.000000 1.000000
vt 0.000000 0.000000
vt 1.000000 0.000000
vt 1.000000 1.000000
vt 0.000000 1.000000
vt 0.000000 0.000000
vt 1.000000 0.000000
vt 1.000000 1.000000
vt 0.000000 1.000000
vt 0.000000 0.000000
vt 1.000000 0.000000
vt 1.000000 1.000000
vt 0.000000 1.000000
vt 0.000000 0.000000
vt 1.000000 0.000000
vt 1.000000 1.000000
vt 0.000000 1.000000
vt 0.000000 0.000000
vt 1.000000 0.000000
vt 1.000000 1.000000
vt 0.000000 1.000000
vt 0.000000 0.000000
vt 1.000000 0.000000
vt 1.000000 1.000000
vt 0.000000 1.000000
vt 0.000000 0.000000
vt 1.000000 0.000000
vt 1.000000 1.000000
vt 0.000000 1.000000
vt 0.000000 0.000000
vt 1.000000 0.000000
vt 1.000000 1.000000
vt 0.000000 1.000000
vt 0.000000 0.000000
vt 1.000000 0.000000
vt 1.000000 1.000000
vt 0.000000 1.000000
vt 0.000000 0.000000
vt 1.000000 0.000000
vt 1.000000 1.000000
vt 0.000000 1.000000
vt 0.000000 0.000000
vt 1.000000 0.000000
vt 1.000000 1.000000
vt 0.000000 1.000000
vt 0.000000 0.000000
vt 1.000000 0.000000
vt 1.000000 1.000000
vt 0.000000 1.000000
vt 0.000000 0.000000
vt 1.000000 0.000000
vt 1.000000 1.000000
vt 0.000000 1.000000
vt 0.000000 0.000000
vt 1.000000 0.000000
vt 1.000000 1.000000
vt 0.000000 1.000000
vt 0.000000 0.000000
vt 1.000000 0.000000
vt 1.000000 1.000000
vt 0.000000 1.000000
vt 0.000000 0.000000
vt 1.000000 0.000000
vt 1.000000 1.000000
vt 0.000000 1.000000
vt 0.000000 0.000000
vt 1.000000 0.000000
vt 1.000000 1.000000
vt 0.000000 1.000000
vt 0.000000 0.000000
vt 1.000000 0.000000
vt 1.000000 1.000000
vt 0.000000 1.000000
vt 0.000000 0.000000
vt 1.000000 0.000000
vt 1.000000 1.000000
vt 0.000000 1.000000
vt 0.000000 0.000000
vt 1.000000 0.000000
vt 1.000000 1.000000
vt 0.000000 1.000000
vt 0.000000 0.000000
vt 1.000000 0.000000
vt 1.000000 1.000000
vt 0.000000 1.000000
vt 0.000000 0.000000
vt 1.000000 0.000000
vt 1.000000 1.000000
vt 0.000000 1.000000
vt 0.000000 0.000000
vt 1.000000 0.000000
vt 1.000000 1.000000
vt 0.000000 1.000000
vt 0.000000 0.000000
vt 1.000000 0.000000
vt 1.000000 1.000000
vt 0.000000 1.000000
vt 0.000000 0.000000
vt 1.000000 0.000000
vt 1.000000 1.000000
vt 0.000000 1.000000
vt 1.000000 0.500000
vt 0.961940 0.691342
vt 0.853553 0.853553
vt 0.691342 0.961940
vt 0.500000 1.000000
vt 0.308658 0.961940
vt 0.146447 0.853553
vt 0.038060 0.691342
vt 0.000000 0.500000
vt 0.038060 0.308658
vt 0.146447 0.146447
vt 0.308658 0.038060
vt 0.500000 0.000000
vt 0.691342 0.038060
vt 0.853553 0.146447
vt 0.961940 0.308658
vt 1.000000 0.500000
vt 0.961940 0.691342
vt 0.853553 0.853553
vt 0.691342 0.961940
vt 0.500000 1.000000
vt 0.308658 0.961940
vt 0.146447 0.853553
vt 0.038060 0.691342
vt 0.000000 0.500000
vt 0.038060 0.308658
vt 0.146447 0.146447
vt 0.308658 0.038060
vt 0.500000 0.000000
vt 0.691342 0.038060
vt 0.853553 0.146447
vt 0.961940 0.308658
vt 0.000000 0.000000
vt 1.000000 0.000000
vt 1.000000 1.000000
vt 0.000000 1.000000
vt 0.000000 0.000000
vt 1.000000 0.000000
vt 1.000000 1.000000
vt 0.000000 1.000000
vt 0.000000 0.000000
vt 1.000000 0.000000
vt 1.000000 1.000000
vt 0.000000 1.000000
vt 0.000000 0.000000
vt 1.000000 0.000000
vt 1.000000 1.000000
vt 0.000000 1.000000
vt 0.000000 0.000000
vt 1.000000 0.000000
vt 1.000000 1.000000
vt 0.000000 1.000000
vt 0.000000 0.000000
vt 1.000000 0.000000
vt 1.000000 1.000000
vt 0.000000 1.000000
vt 0.000000 0.000000
vt 1.000000 0.000000
vt 1.000000 1.000000
vt 0.000000 1.000000
vt 0.000000 0.000000
vt 1.000000 0.000000
vt 1.000000 1.000000
vt 0.000000 1.000000
vt 0.000000 0.000000
vt 1.000000 0.000000
vt 1.000000 1.000000
vt 0.000000 1.000000
vt 0.000000 0.000000
vt 1.000000 0.000000
vt 1.000000 1.000000
vt 0.000000 1.000000
vt 0.000000 0.000000
vt 1.000000 0.000000
vt 1.000000 1.000000
vt 0.000000 1.000000
vt 0.000000 0.000000
vt 1.000000 0.000000
vt 1.000000 1.000000
vt 0.000000 1.000000
vt 0.000000 0.000000
vt 1.000000 0.000000
vt 1.000000 1.000000
vt 0.000000 1.000000
vt 0.000000 0.000000
vt 1.000000 0.000000
vt 1.000000 1.000000
vt 0.000000 1.000000
vt 0.000000 0.000000
vt 1.000000 0.000000
vt 1.000000 1.000000
vt 0.000000 1.000000
vt 0.000000 0.000000
vt 1.000000 0.000000
vt 1.000000 1.000000
vt 0.000000 1.000000
vt 0.000000 0.000000
vt 1.000000 0.000000
vt 1.000000 1.000000
vt 0.000000 1.000000
vt 0.000000 0.000000
vt 1.000000 0.000000
vt 1.000000 1.000000
vt 0.000000 1.000000
vt 0.000000 0.000000
vt 1.000000 0.000000
vt 1.000000 1.000000
vt 0.000000 1.000000
vt 0.000000 0.000000
vt 1.000000 0.000000
vt 1.000000 1.000000
vt 0.000000 1.000000
vt 0.000000 0.000000
vt 1.000000 0.000000
vt 1.000000 1.000000
vt 0.000000 1.000000
vt 0.000000 0.000000
vt 1.000000 0.000000
vt 1.000000 1.000000
vt 0.000000 1.000000
vt 0.000000 0.000000
vt 1.000000 0.000000
vt 1.000000 1.000000
vt 0.000000 1.000000
vt 0.000000 0.000000
vt 1.000000 0.000000
vt 1.000000 1.000000
vt 0.000000 1.000000
vt 0.000000 0.000000
vt 1.000000 0.000000
vt 1.000000 1.000000
vt 0.000000 1.000000
vt 0.000000 0.000000
vt 1.000000 0.000000
vt 1.000000 1.000000
vt 0.000000 1.000000
vt 0.000000 0.000000
vt 1.000000 0.000000
vt 1.000000 1.000000
vt 0.000000 1.000000
vt 0.000000 0.000000
vt 1.000000 0.000000
vt 1.000000 1.000000
vt 0.000000 1.000000
vt 0.000000 0.000000
vt 1.000000 0.000000
vt 1.000000 1.000000
vt 0.000000 1.000000
vt 0.000000 0.000000
vt 1.000000 0.000000
vt 1.000000 1.000000
vt 0.000000 1.000000
vt 0.000000 0.000000
vt 1.000000 0.000000
vt 1.000000 1.000000
vt 0.000000 1.000000
vt 0.000000 0.000000
vt 1.000000 0.000000
vt 1.000000 1.000000
vt 0.000000 1.000000
vt 0.000000 0.000000
vt 1.000000 0.000000
vt 1.000000 1.000000
vt 0.000000 1.000000
vt 0.000000 0.000000
vt 1.000000 0.000000
vt 1.000000 1.000000
vt 0.000000 1.000000
vt 0.000000 0.000000
vt 1.000000 0.000000
vt 1.000000 1.000000
vt 0.000000 1.000000
vt 0.000000 0.000000
vt 1.000000 0.000000
vt 1.000000 1.000000
vt 0.000000 1.000000
vt 0.000000 0.000000
vt 1.000000 0.000000
vt 1.000000 1.000000
vt 0.000000 1.000000
vt 0.000000 0.000000
vt 1.000000 0.000000
vt 1.000000 1.000000
vt 0.000000 1.000000
vt 0.000000 0.000000
vt 1.000000 0.000000
vt 1.000000 1.000000
vt 0.000000 1.000000
vt 0.000000 0.000000
vt 1.000000 0.000000
vt 1.000000 1.000000
vt 0.000000 1.000000
vt 0.000000 0.000000
vt 1.000000 0.000000
vt 1.000000 1.000000
vt 0.000000 1.000000
vt 0.000000 0.000000
vt 1.000000 0.000000
vt 1.000000 1.000000
vt 0.000000 1.000000
vt 0.000000 0.000000
vt 1.000000 0.000000
vt 1.000000 1.000000
vt 0.000000 1.000000
vt 0.000000 0.000000
vt 1.000000 0.000000
vt 1.000000 1.000000
vt 0.000000 1.000000
vt 0.000000 0.000000
vt 1.000000 0.000000
vt 1.000000 1.000000
vt 0.000000 1.000000
vt 0.000000 0.000000
vt 1.000000 0.000000
vt 1.000000 1.000000
vt 0.000000 1.000000
vt 0.000000 0.000000
vt 1.000000 0.000000
vt 1.000000 1.000000
vt 0.000000 1.000000
vt 0.000000 0.000000
vt 1.000000 0.000000
vt 1.000000 1.000000
vt 0.000000 1.000000
vt 0.000000 0.000000
vt 1.000000 0.000000
vt 1.000000 1.000000
vt 0.000000 1.000000
vt 0.000000 0.000000
vt 1.000000 0.000000
vt 1.000000 1.000000
vt 0.000000 1.000000
vt 0.000000 0.000000
vt 1.000000 0.000000
vt 1.000000 1.000000
vt 0.000000 1.000000
vt 0.000000 0.000000
vt 1.000000 0.000000
vt 1.000000 1.000000
vt 0.000000 1.000000
vt 0.000000 0.000000
vt 1.000000 0.000000
vt 1.000000 1.000000
vt 0.000000 1.000000
vt 0.000000 0.000000
vt 1.000000 0.000000
vt 1.000000 1.000000
vt 0.000000 1.000000
vt 0.000000 0.000000
vt 1.000000 0.000000
vt 1.000000 1.000000
vt 0.000000 1.000000
vt 0.000000 0.000000
vt 1.000000 0.000000
vt 1.000000 1.000000
vt 0.000000 1.000000
vt 0.000000 0.000000
vt 1.000000 0.000000
vt 1.000000 1.000000
vt 0.000000 1.000000
vt 0.000000 0.000000
vt 1.000000 0.000000
vt 1.000000 1.000000
vt 0.000000 1.000000
vt 0.000000 0.000000
vt 1.000000 0.000000
vt 1.000000 1.000000
vt 0.000000 1.000000
vt 0.000000 0.000000
vt 1.000000 0.000000
vt 1.000000 1.000000
vt 0.000000 1.000000
vt 0.000000 0.000000
vt 1.000000 0.000000
vt 1.000000 1.000000
vt 0.000000 1.000000
vt 0.000000 0.000000
vt 1.000000 0.000000
vt 1.000000 1.000000
vt 0.000000 1.000000
vt 0.000000 0.000000
vt 1.000000 0.000000
vt 1.000000 1.000000
vt 0.000000 1.000000
vt 0.000000 0.000000
vt 1.000000 0.000000
vt 1.000000 1.000000
vt 0.000000 1.000000
vt 0.000000 0.000000
vt 1.000000 0.000000
vt 1.000000 1.000000
vt 0.000000 1.000000
vt 0.000000 0.000000
vt 1.000000 0.000000
vt 1.000000 1.000000
vt 0.000000 1.000000
vt 0.000000 0.000000
vt 1.000000 0.000000
vt 1.000000 1.000000
vt 0.000000 1.000000
vt 0.000000 0.000000
vt 1.000000 0.000000
vt 1.000000 1.000000
vt 0.000000 1.000000
vt 0.000000 0.000000
vt 1.000000 0.000000
vt 1.000000 1.000000
vt 0.000000 1.000000
vt 0.000000 0.000000
vt 1.000000 0.000000
vt 1.000000 1.000000
vt 0.000000 1.000000
vt 0.000000 0.000000
vt 1.000000 0.000000
vt 1.000000 1.000000
vt 0.000000 1.000000
vt 0.000000 0.000000
vt 1.000000 0.000000
vt 1.000000 1.000000
vt 0.000000 1.000000
vt 0.000000 0.000000
vt 1.000000 0.000000
vt 1.000000 1.000000
vt 0.000000 1.000000
vt 0.000000 0.000000
vt 1.000000 0.000000
vt 1.000000 1.000000
vt 0.000000 1.000000
vt 0.000000 0.000000
vt 1.000000 0.000000
vt 1.000000 1.000000
vt 0.000000 1.000000
vt 0.000000 0.000000
vt 1.000000 0.000000
vt 1.000000 1.000000
vt 0.000000 1.000000
vt 0.000000 0.000000
vt 1.000000 0.000000
vt 1.000000 1.000000
vt 0.000000 1.000000
vt 0.000000 0.000000
vt 1.000000 0.000000
vt 1.000000 1.000000
vt 0.000000 1.000000
vt 0.000000 0.000000
vt 1.000000 0.000000
vt 1.000000 1.000000
vt 0.000000 1.000000
vt 0.000000 0.000000
vt 1.000000 0.000000
vt 1.000000 1.000000
vt 0.000000 1.000000
vt 0.000000 0.000000
vt 1.000000 0.000000
vt 1.000000 1.000000
vt 0.000000 1.000000
vt 0.000000 0.000000
vt 1.000000 0.000000
vt 1.000000 1.000000
vt 0.000000 1.000000
vt 0.000000 0.000000
vt 1.000000 0.000000
vt 1.000000 1.000000
vt 0.000000 1.000000
vt 0.000000 0.000000
vt 1.000000 0.000000
vt 1.000000 1.000000
vt 0.000000 1.000000
vt 0.000000 0.000000
vt 1.000000 0.000000
vt 1.000000 1.000000
vt 0.000000 1.000000
vt 0.000000 0.000000
vt 1.000000 0.000000
vt 1.000000 1.000000
vt 0.000000 1.000000
vt 0.000000 0.000000
vt 1.000000 0.000000
vt 1.000000 1.000000
vt 0.000000 1.000000
vt 0.000000 0.000000
vt 1.000000 0.000000
vt 1.000000 1.000000
vt 0.000000 1.000000
vt 0.000000 0.000000
vt 1.000000 0.000000
vt 1.000000 1.000000
vt 0.000000 1.000000
vt 0.000000 0.000000
vt 1.000000 0.000000
vt 1.000000 1.000000
vt 0.000000 1.000000
vt 0.000000 0.000000
vt 1.000000 0.000000
vt 1.000000 1.000000
vt 0.000000 1.000000
vt 0.000000 0.000000
vt 1.000000 0.000000
vt 1.000000 1.000000
vt 0.000000 1.000000
vt 0.000000 0.000000
vt 1.000000 0.000000
vt 1.000000 1.000000
vt 0.000000 1.000000
vt 0.000000 0.000000
vt 1.000000 0.000000
vt 1.000000 1.000000
vt 0.000000 1.000000
vt 0.000000 0.000000
vt 1.000000 0.000000
vt 1.000000 1.000000
vt 0.000000 1.000000
vt 0.000000 0.000000
vt 1.000000 0.000000
vt 1.000000 1.000000
vt 0.000000 1.000000
vt 0.000000 0.000000
vt 1.000000 0.000000
vt 1.000000 1.000000
vt 0.000000 1.000000
vt 0.000000 0.000000
vt 1.000000 0.000000
vt 1.000000 1.000000
vt 0.000000 1.000000
vt 0.000000 0.000000
vt 1.000000 0.000000
vt 1.000000 1.000000
vt 0.000000 1.000000
vt 0.000000 0.000000
vt 1.000000 0.000000
vt 1.000000 1.000000
vt 0.000000 1.000000
vt 0.000000 0.000000
vt 1.000000 0.000000
vt 1.000000 1.000000
vt 0.000000 1.000000
vt 0.000000 0.000000
vt 1.000000 0.000000
vt 1.000000 1.000000
vt 0.000000 1.000000
vt 0.000000 0.000000
vt 1.000000 0.000000
vt 1.000000 1.000000
vt 0.000000 1.000000
vt 0.000000 0.000000
vt 1.000000 0.000000
vt 1.000000 1.000000
vt 0.000000 1.000000
vt 0.000000 0.000000
vt 1.000000 0.000000
vt 1.000000 1.000000
vt 0.000000 1.000000
vt 0.000000 0.000000
vt 1.000000 0.000000
vt 1.000000 1.000000
vt 0.000000 1.000000
vt 0.000000 0.000000
vt 1.000000 0.000000
vt 1.000000 1.000000
vt 0.000000 1.000000
vt 0.000000 0.000000
vt 1.000000 0.000000
vt 1.000000 1.000000
vt 0.000000 1.000000
vt 0.000000 0.000000
vt 1.000000 0.000000
vt 1.000000 1.000000
vt 0.000000 1.000000
vt 0.000000 0.000000
vt 1.000000 0.000000
vt 1.000000 1.000000
vt 0.000000 1.000000
vt 0.000000 0.000000
vt 1.000000 0.000000
vt 1.000000 1.000000
vt 0.000000 1.000000
vt 0.000000 0.000000
vt 1.000000 0.000000
vt 1.000000 1.000000
vt 0.000000 1.000000
vt 0.000000 0.000000
vt 1.000000 0.000000
vt 1.000000 1.000000
vt 0.000000 1.000000
vt 0.000000 0.000000
vt 1.000000 0.000000
vt 1.000000 1.000000
vt 0.000000 1.000000
vt 0.000000 0.000000
vt 1.000000 0.000000
vt 1.000000 1.000000
vt 0.000000 1.000000
vt 0.000000 0.000000
vt 1.000000 0.000000
vt 1.000000 1.000000
vt 0.000000 1.000000
vt 0.000000 0.000000
vt 1.000000 0.000000
vt 1.000000 1.000000
vt 0.000000 1.000000
vt 0.000000 0.000000
vt 1.000000 0.000000
vt 1.000000 1.000000
vt 0.000000 1.000000
vt 0.000000 0.000000
vt 1.000000 0.000000
vt 1.000000 1.000000
vt 0.000000 1.000000
vt 0.000000 0.000000
vt 1.000000 0.000000
vt 1.000000 1.000000
vt 0.000000 1.000000
vt 0.000000 0.000000
vt 1.000000 0.000000
vt 1.000000 1.000000
vt 0.000000 1.000000
vt 0.000000 0.000000
vt 1.000000 0.000000
vt 1.000000 1.000000
vt 0.000000 1.000000
vt 0.000000 0.000000
vt 1.000000 0.000000
vt 1.000000 1.000000
vt 0.000000 1.000000
vt 0.000000 0.000000
vt 1.000000 0.000000
vt 1.000000 1.000000
vt 0.000000 1.000000
vt 0.000000 0.000000
vt 1.000000 0.000000
vt 1.000000 1.000000
vt 0.000000 1.000000
vt 0.000000 0.000000
vt 1.000000 0.000000
vt 1.000000 1.000000
vt 0.000000 1.000000
vn 0.000000 0.000000 1.000000
vn 0.000000 0.000000 -1.000000
vn 1.000000 0.000000 0.000000
vn -1.000000 0.000000 0.000000
vn 0.000000 -1.000000 0.000000
vn -0.000000 1.000000 0.000000
vn 0.000000 0.000000 1.000000
vn 0.000000 0.000000 -1.000000
vn 1.000000 0.000000 0.000000
vn -1.000000 0.000000 0.000000
vn 0.000000 -1.000000 0.000000
vn -0.000000 1.000000 0.000000
vn -0.923880 0.000000 -0.382683
vn -0.382683 0.000000 -0.923880
vn 0.382683 0.000000 -0.923880
vn 0.923880 0.000000 -0.382683
vn 0.923880 0.000000 0.382683
vn 0.382683 0.000000 0.923880
vn -0.382683 0.000000 0.923880
vn -0.923880 0.000000 0.382683
vn 0.000000 1.000000 0.000000
vn 0.000000 -1.000000 0.000000
vn -0.923880 0.000000 -0.382683
vn -0.382683 0.000000 -0.923880
vn 0.382683 0.000000 -0.923880
vn 0.923880 0.000000 -0.382683
vn 0.923880 0.000000 0.382683
vn 0.382683 0.000000 0.923880
vn -0.382683 0.000000 0.923880
vn -0.923880 0.000000 0.382683
vn 0.000000 1.000000 0.000000
vn 0.000000 -1.000000 0.000000
vn -0.923880 0.000000 -0.382683
vn -0.382683 0.000000 -0.923880
vn 0.382683 0.000000 -0.923880
vn 0.923880 0.000000 -0.382683
vn 0.923880 0.000000 0.382683
vn 0.382683 0.000000 0.923880
vn -0.382683 0.000000 0.923880
vn -0.923880 0.000000 0.382683
vn 0.000000 1.000000 0.000000
vn 0.000000 -1.000000 0.000000
vn -0.923880 0.000000 -0.382683
vn -0.382683 0.000000 -0.923880
vn 0.382683 0.000000 -0.923880
vn 0.923880 0.000000 -0.382683
vn 0.923880 0.000000 0.382683
vn 0.382683 0.000000 0.923880
vn -0.382683 0.000000 0.923880
vn -0.923880 0.000000 0.382683
vn 0.000000 1.000000 0.000000
vn 0.000000 -1.000000 0.000000
vn 0.000000 0.000000 1.000000
vn 0.000000 0.000000 -1.000000
vn 1.000000 0.000000 0.000000
vn -1.000000 0.000000 0.000000
vn 0.000000 -1.000000 0.000000
vn -0.000000 1.000000 0.000000
vn 0.889840 -0.428983 -0.155431
vn 0.251315 -0.963916 0.087783
vn -0.576455 -0.773001 0.264895
vn -0.970143 0.000000 0.242536
vn -0.633293 0.773001 0.037542
vn 0.180439 0.963916 -0.195722
vn 0.858297 0.428983 -0.281603
vn 0.239796 0.149873 0.959185
vn -0.239796 -0.149873 -0.959185
vn 0.746679 -0.431730 -0.506043
vn 0.236222 -0.970090 -0.055905
vn -0.452115 -0.777951 0.436330
vn -0.800000 0.000000 0.600000
vn -0.545469 0.777951 0.311858
vn 0.119811 0.970090 -0.211120
vn 0.694871 0.431730 -0.575120
vn 0.597022 0.099504 0.796030
vn -0.597022 -0.099504 -0.796030
vn 0.282464 -0.433805 -0.855586
vn 0.085503 -0.974751 -0.206275
vn -0.175843 -0.781690 0.598365
vn -0.304776 -0.000000 0.952424
vn -0.204206 0.781690 0.589289
vn 0.050135 0.974751 -0.217593
vn 0.266723 0.433805 -0.860623
vn 0.952251 0.019045 0.304720
vn -0.952251 -0.019045 -0.304720
vn 0.000000 0.000000 1.000000
vn 0.000000 0.000000 -1.000000
vn 1.000000 0.000000 0.000000
vn -1.000000 0.000000 0.000000
vn 0.000000 -1.000000 0.000000
vn -0.000000 1.000000 0.000000
vn 0.365905 -0.431905 0.824361
vn 0.016330 -0.970482 0.240621
vn -0.345542 -0.778266 -0.524312
vn -0.447214 -0.000000 -0.894427
vn -0.212125 0.778266 -0.591020
vn 0.182699 0.970482 0.157437
vn 0.439946 0.431905 0.787341
vn -0.890348 0.095394 0.445174
vn 0.890348 -0.095394 -0.445174
vn 0.390535 -0.433663 0.812046
vn 0.071674 -0.974431 0.212949
vn -0.301160 -0.781433 -0.546503
vn -0.447214 -0.000000 -0.894427
vn -0.256506 0.781433 -0.568830
vn 0.127355 0.974431 0.185108
vn 0.415316 0.433663 0.799656
vn -0.893971 0.031928 0.446986
vn 0.893971 -0.031928 -0.446986
vn 0.629685 -0.433291 0.644792
vn 0.188758 -0.973595 0.128386
vn -0.394307 -0.780763 -0.484697
vn -0.680451 0.000000 -0.732793
vn -0.454201 0.780763 -0.429081
vn 0.114071 0.973595 0.197738
vn 0.596446 0.433291 0.675656
vn -0.731792 -0.052271 0.679521
vn 0.731792 0.052271 -0.679521
vn 0.000000 0.000000 1.000000
vn 0.000000 0.000000 -1.000000
vn 1.000000 0.000000 0.000000
vn -1.000000 0.000000 0.000000
vn 0.000000 -1.000000 0.000000
vn -0.000000 1.000000 0.000000
vn 0.598571 -0.433884 0.673393
vn 0.147835 -0.974928 0.166314
vn -0.414224 -0.781831 -0.466002
vn -0.664364 0.000000 -0.747409
vn -0.414224 0.781831 -0.466002
vn 0.147835 0.974928 0.166314
vn 0.598571 0.433884 0.673393
vn -0.747409 -0.000000 0.664364
vn 0.747409 0.000000 -0.664364
vn 0.646177 -0.433067 0.628417
vn 0.123640 -0.973094 0.194427
vn -0.492000 -0.780360 -0.385970
vn -0.737154 -0.000000 -0.675725
vn -0.427216 0.780360 -0.456644
vn 0.204425 0.973094 0.106298
vn 0.682129 0.433067 0.589196
vn -0.674453 0.061314 0.735767
vn 0.674453 -0.061314 -0.735767
vn 0.831544 -0.433676 0.347073
vn 0.195405 -0.974461 0.110644
vn -0.587878 -0.781457 -0.209103
vn -0.928477 -0.000000 -0.371391
vn -0.569913 0.781457 -0.254014
vn 0.217806 0.974461 0.054640
vn 0.841513 0.433676 0.322149
vn -0.371213 0.030934 0.928032
vn 0.371213 -0.030934 -0.928032
vn 0.000000 0.000000 1.000000
vn 0.000000 0.000000 -1.000000
vn 1.000000 0.000000 0.000000
vn -1.000000 0.000000 0.000000
vn 0.000000 -1.000000 0.000000
vn -0.000000 1.000000 0.000000
vn 0.000000 0.000000 1.000000
vn 0.000000 0.000000 -1.000000
vn 1.000000 0.000000 0.000000
vn -1.000000 0.000000 0.000000
vn 0.000000 -1.000000 0.000000
vn -0.000000 1.000000 0.000000
vn 0.000000 0.000000 1.000000
vn 0.000000 0.000000 -1.000000
vn 1.000000 0.000000 0.000000
vn -1.000000 0.000000 0.000000
vn 0.000000 -1.000000 0.000000
vn -0.000000 1.000000 0.000000
vn 0.000000 0.000000 1.000000
vn 0.000000 0.000000 -1.000000
vn 1.000000 0.000000 0.000000
vn -1.000000 0.000000 0.000000
vn 0.000000 -1.000000 0.000000
vn -0.000000 1.000000 0.000000
vn 0.000000 0.000000 1.000000
vn 0.000000 0.000000 -1.000000
vn 1.000000 0.000000 0.000000
vn -1.000000 0.000000 0.000000
vn 0.000000 -1.000000 0.000000
vn -0.000000 1.000000 0.000000
vn 0.000000 0.000000 1.000000
vn 0.000000 0.000000 -1.000000
vn 1.000000 0.000000 0.000000
vn -1.000000 0.000000 0.000000
vn 0.000000 -1.000000 0.000000
vn -0.000000 1.000000 0.000000
vn 0.000000 0.000000 1.000000
vn 0.000000 0.000000 -1.000000
vn 1.000000 0.000000 0.000000
vn -1.000000 0.000000 0.000000
vn 0.000000 -1.000000 0.000000
vn -0.000000 1.000000 0.000000
vn -0.923880 0.000000 -0.382683
vn -0.382683 0.000000 -0.923880
vn 0.382683 0.000000 -0.923880
vn 0.923880 0.000000 -0.382683
vn 0.923880 0.000000 0.382683
vn 0.382683 0.000000 0.923880
vn -0.382683 0.000000 0.923880
vn -0.923880 0.000000 0.382683
vn 0.000000 1.000000 0.000000
vn 0.000000 -1.000000 0.000000
vn -0.923880 0.000000 -0.382683
vn -0.382683 0.000000 -0.923880
vn 0.382683 0.000000 -0.923880
vn 0.923880 0.000000 -0.382683
vn 0.923880 0.000000 0.382683
vn 0.382683 0.000000 0.923880
vn -0.382683 0.000000 0.923880
vn -0.923880 0.000000 0.382683
vn 0.000000 1.000000 0.000000
vn 0.000000 -1.000000 0.000000
vn -0.923880 0.000000 -0.382683
vn -0.382683 0.000000 -0.923880
vn 0.382683 0.000000 -0.923880
vn 0.923880 0.000000 -0.382683
vn 0.923880 0.000000 0.382683
vn 0.382683 0.000000 0.923880
vn -0.382683 0.000000 0.923880
vn -0.923880 0.000000 0.382683
vn 0.000000 1.000000 0.000000
vn 0.000000 -1.000000 0.000000
vn -0.923880 0.000000 -0.382683
vn -0.382683 0.000000 -0.923880
vn 0.382683 0.000000 -0.923880
vn 0.923880 0.000000 -0.382683
vn 0.923880 0.000000 0.382683
vn 0.382683 0.000000 0.923880
vn -0.382683 0.000000 0.923880
vn -0.923880 0.000000 0.382683
vn 0.000000 1.000000 0.000000
vn 0.000000 -1.000000 0.000000
vn 0.000000 0.000000 1.000000
vn 0.000000 0.000000 -1.000000
vn 1.000000 0.000000 0.000000
vn -1.000000 0.000000 0.000000
vn 0.000000 -1.000000 0.000000
vn -0.000000 1.000000 0.000000
vn 0.000000 0.000000 1.000000
vn 0.000000 0.000000 -1.000000
vn 1.000000 0.000000 0.000000
vn -1.000000 0.000000 0.000000
vn 0.000000 -1.000000 0.000000
vn -0.000000 1.000000 0.000000
vn 0.000000 0.000000 1.000000
vn 0.000000 0.000000 -1.000000
vn 1.000000 0.000000 0.000000
vn -1.000000 0.000000 0.000000
vn 0.000000 -1.000000 0.000000
vn -0.000000 1.000000 0.000000
vn 0.000000 0.000000 1.000000
vn 0.000000 0.000000 -1.000000
vn 1.000000 0.000000 0.000000
vn -1.000000 0.000000 0.000000
vn 0.000000 -1.000000 0.000000
vn -0.000000 1.000000 0.000000
vn 0.000000 0.000000 1.000000
vn 0.000000 0.000000 -1.000000
vn 1.000000 0.000000 0.000000
vn -1.000000 0.000000 0.000000
vn 0.000000 -1.000000 0.000000
vn -0.000000 1.000000 0.000000
vn -0.980785 0.000000 -0.195090
vn -0.831470 0.000000 -0.555570
vn -0.555570 0.000000 -0.831470
vn -0.195090 0.000000 -0.980785
vn 0.195090 0.000000 -0.980785
vn 0.555570 0.000000 -0.831470
vn 0.831470 0.000000 -0.555570
vn 0.980785 0.000000 -0.195090
vn 0.980785 0.000000 0.195090
vn 0.831470 0.000000 0.555570
vn 0.555570 0.000000 0.831470
vn 0.195090 0.000000 0.980785
vn -0.195090 0.000000 0.980785
vn -0.555570 0.000000 0.831470
vn -0.831470 0.000000 0.555570
vn -0.980785 0.000000 0.195090
vn 0.000000 1.000000 0.000000
vn 0.000000 -1.000000 0.000000
vn 0.000000 0.000000 1.000000
vn 0.000000 0.000000 -1.000000
vn 1.000000 0.000000 0.000000
vn -1.000000 0.000000 0.000000
vn 0.000000 -1.000000 0.000000
vn -0.000000 1.000000 0.000000
vn 0.000000 0.000000 1.000000
vn 0.000000 0.000000 -1.000000
vn 1.000000 0.000000 0.000000
vn -1.000000 0.000000 0.000000
vn 0.000000 -1.000000 0.000000
vn -0.000000 1.000000 0.000000
vn 0.000000 0.000000 1.000000
vn 0.000000 0.000000 -1.000000
vn 1.000000 0.000000 0.000000
vn -1.000000 0.000000 0.000000
vn 0.000000 -1.000000 0.000000
vn -0.000000 1.000000 0.000000
vn 0.000000 0.000000 1.000000
vn 0.000000 0.000000 -1.000000
vn 1.000000 0.000000 0.000000
vn -1.000000 0.000000 0.000000
vn 0.000000 -1.000000 0.000000
vn -0.000000 1.000000 0.000000
vn 0.000000 0.000000 1.000000
vn 0.000000 0.000000 -1.000000
vn 1.000000 0.000000 0.000000
vn -1.000000 0.000000 0.000000
vn 0.000000 -1.000000 0.000000
vn -0.000000 1.000000 0.000000
vn 0.000000 0.000000 1.000000
vn 0.000000 0.000000 -1.000000
vn 1.000000 0.000000 0.000000
vn -1.000000 0.000000 0.000000
vn 0.000000 -1.000000 0.000000
vn -0.000000 1.000000 0.000000
vn 0.000000 0.000000 1.000000
vn 0.000000 0.000000 -1.000000
vn 1.000000 0.000000 0.000000
vn -1.000000 0.000000 0.000000
vn 0.000000 -1.000000 0.000000
vn -0.000000 1.000000 0.000000
vn 0.000000 0.000000 1.000000
vn 0.000000 0.000000 -1.000000
vn 1.000000 0.000000 0.000000
vn -1.000000 0.000000 0.000000
vn 0.000000 -1.000000 0.000000
vn -0.000000 1.000000 0.000000
vn 0.000000 0.000000 1.000000
vn 0.000000 0.000000 -1.000000
vn 1.000000 0.000000 0.000000
vn -1.000000 0.000000 0.000000
vn 0.000000 -1.000000 0.000000
vn -0.000000 1.000000 0.000000
vn 0.000000 0.000000 1.000000
vn 0.000000 0.000000 -1.000000
vn 1.000000 0.000000 0.000000
vn -1.000000 0.000000 0.000000
vn 0.000000 -1.000000 0.000000
vn -0.000000 1.000000 0.000000
vn 0.000000 0.000000 1.000000
vn 0.000000 0.000000 -1.000000
vn 1.000000 0.000000 0.000000
vn -1.000000 0.000000 0.000000
vn 0.000000 -1.000000 0.000000
vn -0.000000 1.000000 0.000000
vn 0.000000 0.000000 1.000000
vn 0.000000 0.000000 -1.000000
vn 1.000000 0.000000 0.000000
vn -1.000000 0.000000 0.000000
vn 0.000000 -1.000000 0.000000
vn -0.000000 1.000000 0.000000
vn 0.000000 0.000000 1.000000
vn 0.000000 0.000000 -1.000000
vn 1.000000 0.000000 0.000000
vn -1.000000 0.000000 0.000000
vn 0.000000 -1.000000 0.000000
vn -0.000000 1.000000 0.000000
vn 0.000000 0.000000 1.000000
vn 0.000000 0.000000 -1.000000
vn 1.000000 0.000000 0.000000
vn -1.000000 0.000000 0.000000
vn 0.000000 -1.000000 0.000000
vn -0.000000 1.000000 0.000000
vn 0.000000 0.000000 1.000000
vn 0.000000 0.000000 -1.000000
vn 1.000000 0.000000 0.000000
vn -1.000000 0.000000 0.000000
vn 0.000000 -1.000000 0.000000
vn -0.000000 1.000000 0.000000
vn 0.000000 0.000000 1.000000
vn 0.000000 0.000000 -1.000000
vn 1.000000 0.000000 0.000000
vn -1.000000 0.000000 0.000000
vn 0.000000 -1.000000 0.000000
vn -0.000000 1.000000 0.000000
vn 0.000000 0.000000 1.000000
vn 0.000000 0.000000 -1.000000
vn 1.000000 0.000000 0.000000
vn -1.000000 0.000000 0.000000
vn 0.000000 -1.000000 0.000000
vn -0.000000 1.000000 0.000000
vn 0.000000 0.000000 1.000000
vn 0.000000 0.000000 -1.000000
vn 1.000000 0.000000 0.000000
vn -1.000000 0.000000 0.000000
vn 0.000000 -1.000000 0.000000
vn -0.000000 1.000000 0.000000
vn 0.000000 0.000000 1.000000
vn 0.000000 0.000000 -1.000000
vn 1.000000 0.000000 0.000000
vn -1.000000 0.000000 0.000000
vn 0.000000 -1.000000 0.000000
vn -0.000000 1.000000 0.000000
vn 0.000000 0.000000 1.000000
vn 0.000000 0.000000 -1.000000
vn 1.000000 0.000000 0.000000
vn -1.000000 0.000000 0.000000
vn 0.000000 -1.000000 0.000000
vn -0.000000 1.000000 0.000000
vn 0.000000 0.000000 1.000000
vn 0.000000 0.000000 -1.000000
vn 1.000000 0.000000 0.000000
vn -1.000000 0.000000 0.000000
vn 0.000000 -1.000000 0.000000
vn -0.000000 1.000000 0.000000
usemtl signal_yellow
f 1/1/1 2/2/1 3/3/1 4/4/1
f 6/5/2 5/6/2 8/7/2 7/8/2
f 5/9/3 1/10/3 4/11/3 8/12/3
f 2/13/4 6/14/4 7/15/4 3/16/4
f 4/17/5 3/18/5 7/19/5 8/20/5
f 5/21/6 6/22/6 2/23/6 1/24/6
f 9/25/7 10/26/7 11/27/7 12/28/7
f 14/29/8 13/30/8 16/31/8 15/32/8
f 13/33/9 9/34/9 12/35/9 16/36/9
f 10/37/10 14/38/10 15/39/10 11/40/10
f 12/41/11 11/42/11 15/43/11 16/44/11
f 13/45/12 14/46/12 10/47/12 9/48/12
f 17/49/13 19/50/13 20/51/13 18/52/13
f 19/53/14 21/54/14 22/55/14 20/56/14
f 21/57/15 23/58/15 24/59/15 22/60/15
f 23/61/16 25/62/16 26/63/16 24/64/16
f 25/65/17 27/66/17 28/67/17 26/68/17
f 27/69/18 29/70/18 30/71/18 28/72/18
f 29/73/19 31/74/19 32/75/19 30/76/19
f 31/77/20 17/78/20 18/79/20 32/80/20
f 31/81/21 29/82/21 27/83/21 25/84/21 23/85/21 21/86/21 19/87/21 17/88/21
f 18/89/22 20/90/22 22/91/22 24/92/22 26/93/22 28/94/22 30/95/22 32/96/22
f 33/97/23 35/98/23 36/99/23 34/100/23
f 35/101/24 37/102/24 38/103/24 36/104/24
f 37/105/25 39/106/25 40/107/25 38/108/25
f 39/109/26 41/110/26 42/111/26 40/112/26
f 41/113/27 43/114/27 44/115/27 42/116/27
f 43/117/28 45/118/28 46/119/28 44/120/28
f 45/121/29 47/122/29 48/123/29 46/124/29
f 47/125/30 33/126/30 34/127/30 48/128/30
f 47/129/31 45/130/31 43/131/31 41/132/31 39/133/31 37/134/31 35/135/31 33/136/31
f 34/137/32 36/138/32 38/139/32 40/140/32 42/141/32 44/142/32 46/143/32 48/144/32
f 49/145/33 51/146/33 52/147/33 50/148/33
f 51/149/34 53/150/34 54/151/34 52/152/34
f 53/153/35 55/154/35 56/155/35 54/156/35
f 55/157/36 57/158/36 58/159/36 56/160/36
f 57/161/37 59/162/37 60/163/37 58/164/37
f 59/165/38 61/166/38 62/167/38 60/168/38
f 61/169/39 63/170/39 64/171/39 62/172/39
f 63/173/40 49/174/40 50/175/40 64/176/40
f 63/177/41 61/178/41 59/179/41 57/180/41 55/181/41 53/182/41 51/183/41 49/184/41
f 50/185/42 52/186/42 54/187/42 56/188/42 58/189/42 60/190/42 62/191/42 64/192/42
f 65/193/43 67/194/43 68/195/43 66/196/43
f 67/197/44 69/198/44 70/199/44 68/200/44
f 69/201/45 71/202/45 72/203/45 70/204/45
f 71/205/46 73/206/46 74/207/46 72/208/46
f 73/209/47 75/210/47 76/211/47 74/212/47
f 75/213/48 77/214/48 78/215/48 76/216/48
f 77/217/49 79/218/49 80/219/49 78/220/49
f 79/221/50 65/222/50 66/223/50 80/224/50
f 79/225/51 77/226/51 75/227/51 73/228/51 71/229/51 69/230/51 67/231/51 65/232/51
f 66/233/52 68/234/52 70/235/52 72/236/52 74/237/52 76/238/52 78/239/52 80/240/52
usemtl warning_red
f 81/241/53 82/242/53 83/243/53 84/244/53
f 86/245/54 85/246/54 88/247/54 87/248/54
f 85/249/55 81/250/55 84/251/55 88/252/55
f 82/253/56 86/254/56 87/255/56 83/256/56
f 84/257/57 83/258/57 87/259/57 88/260/57
f 85/261/58 86/262/58 82/263/58 81/264/58
usemtl rubber_dark
f 89/265/59 91/266/59 92/267/59 90/268/59
f 91/269/60 93/270/60 94/271/60 92/272/60
f 93/273/61 95/274/61 96/275/61 94/276/61
f 95/277/62 97/278/62 98/279/62 96/280/62
f 97/281/63 99/282/63 100/283/63 98/284/63
f 99/285/64 101/286/64 102/287/64 100/288/64
f 101/289/65 89/290/65 90/291/65 102/292/65
f 101/293/66 99/294/66 97/295/66 95/296/66 93/297/66 91/298/66 89/299/66
f 90/300/67 92/301/67 94/302/67 96/303/67 98/304/67 100/305/67 102/306/67
f 103/307/68 105/308/68 106/309/68 104/310/68
f 105/311/69 107/312/69 108/313/69 106/314/69
f 107/315/70 109/316/70 110/317/70 108/318/70
f 109/319/71 111/320/71 112/321/71 110/322/71
f 111/323/72 113/324/72 114/325/72 112/326/72
f 113/327/73 115/328/73 116/329/73 114/330/73
f 115/331/74 103/332/74 104/333/74 116/334/74
f 115/335/75 113/336/75 111/337/75 109/338/75 107/339/75 105/340/75 103/341/75
f 104/342/76 106/343/76 108/344/76 110/345/76 112/346/76 114/347/76 116/348/76
f 117/349/77 119/350/77 120/351/77 118/352/77
f 119/353/78 121/354/78 122/355/78 120/356/78
f 121/357/79 123/358/79 124/359/79 122/360/79
f 123/361/80 125/362/80 126/363/80 124/364/80
f 125/365/81 127/366/81 128/367/81 126/368/81
f 127/369/82 129/370/82 130/371/82 128/372/82
f 129/373/83 117/374/83 118/375/83 130/376/83
f 129/377/84 127/378/84 125/379/84 123/380/84 121/381/84 119/382/84 117/383/84
f 118/384/85 120/385/85 122/386/85 124/387/85 126/388/85 128/389/85 130/390/85
usemtl sterile_blue
f 131/391/86 132/392/86 133/393/86 134/394/86
f 136/395/87 135/396/87 138/397/87 137/398/87
f 135/399/88 131/400/88 134/401/88 138/402/88
f 132/403/89 136/404/89 137/405/89 133/406/89
f 134/407/90 133/408/90 137/409/90 138/410/90
f 135/411/91 136/412/91 132/413/91 131/414/91
usemtl rubber_dark
f 139/415/92 141/416/92 142/417/92 140/418/92
f 141/419/93 143/420/93 144/421/93 142/422/93
f 143/423/94 145/424/94 146/425/94 144/426/94
f 145/427/95 147/428/95 148/429/95 146/430/95
f 147/431/96 149/432/96 150/433/96 148/434/96
f 149/435/97 151/436/97 152/437/97 150/438/97
f 151/439/98 139/440/98 140/441/98 152/442/98
f 151/443/99 149/444/99 147/445/99 145/446/99 143/447/99 141/448/99 139/449/99
f 140/450/100 142/451/100 144/452/100 146/453/100 148/454/100 150/455/100 152/456/100
f 153/457/101 155/458/101 156/459/101 154/460/101
f 155/461/102 157/462/102 158/463/102 156/464/102
f 157/465/103 159/466/103 160/467/103 158/468/103
f 159/469/104 161/470/104 162/471/104 160/472/104
f 161/473/105 163/474/105 164/475/105 162/476/105
f 163/477/106 165/478/106 166/479/106 164/480/106
f 165/481/107 153/482/107 154/483/107 166/484/107
f 165/485/108 163/486/108 161/487/108 159/488/108 157/489/108 155/490/108 153/491/108
f 154/492/109 156/493/109 158/494/109 160/495/109 162/496/109 164/497/109 166/498/109
f 167/499/110 169/500/110 170/501/110 168/502/110
f 169/503/111 171/504/111 172/505/111 170/506/111
f 171/507/112 173/508/112 174/509/112 172/510/112
f 173/511/113 175/512/113 176/513/113 174/514/113
f 175/515/114 177/516/114 178/517/114 176/518/114
f 177/519/115 179/520/115 180/521/115 178/522/115
f 179/523/116 167/524/116 168/525/116 180/526/116
f 179/527/117 177/528/117 175/529/117 173/530/117 171/531/117 169/532/117 167/533/117
f 168/534/118 170/535/118 172/536/118 174/537/118 176/538/118 178/539/118 180/540/118
usemtl medical_green
f 181/541/119 182/542/119 183/543/119 184/544/119
f 186/545/120 185/546/120 188/547/120 187/548/120
f 185/549/121 181/550/121 184/551/121 188/552/121
f 182/553/122 186/554/122 187/555/122 183/556/122
f 184/557/123 183/558/123 187/559/123 188/560/123
f 185/561/124 186/562/124 182/563/124 181/564/124
usemtl rubber_dark
f 189/565/125 191/566/125 192/567/125 190/568/125
f 191/569/126 193/570/126 194/571/126 192/572/126
f 193/573/127 195/574/127 196/575/127 194/576/127
f 195/577/128 197/578/128 198/579/128 196/580/128
f 197/581/129 199/582/129 200/583/129 198/584/129
f 199/585/130 201/586/130 202/587/130 200/588/130
f 201/589/131 189/590/131 190/591/131 202/592/131
f 201/593/132 199/594/132 197/595/132 195/596/132 193/597/132 191/598/132 189/599/132
f 190/600/133 192/601/133 194/602/133 196/603/133 198/604/133 200/605/133 202/606/133
f 203/607/134 205/608/134 206/609/134 204/610/134
f 205/611/135 207/612/135 208/613/135 206/614/135
f 207/615/136 209/616/136 210/617/136 208/618/136
f 209/619/137 211/620/137 212/621/137 210/622/137
f 211/623/138 213/624/138 214/625/138 212/626/138
f 213/627/139 215/628/139 216/629/139 214/630/139
f 215/631/140 203/632/140 204/633/140 216/634/140
f 215/635/141 213/636/141 211/637/141 209/638/141 207/639/141 205/640/141 203/641/141
f 204/642/142 206/643/142 208/644/142 210/645/142 212/646/142 214/647/142 216/648/142
f 217/649/143 219/650/143 220/651/143 218/652/143
f 219/653/144 221/654/144 222/655/144 220/656/144
f 221/657/145 223/658/145 224/659/145 222/660/145
f 223/661/146 225/662/146 226/663/146 224/664/146
f 225/665/147 227/666/147 228/667/147 226/668/147
f 227/669/148 229/670/148 230/671/148 228/672/148
f 229/673/149 217/674/149 218/675/149 230/676/149
f 229/677/150 227/678/150 225/679/150 223/680/150 221/681/150 219/682/150 217/683/150
f 218/684/151 220/685/151 222/686/151 224/687/151 226/688/151 228/689/151 230/690/151
usemtl warning_red
f 231/691/152 232/692/152 233/693/152 234/694/152
f 236/695/153 235/696/153 238/697/153 237/698/153
f 235/699/154 231/700/154 234/701/154 238/702/154
f 232/703/155 236/704/155 237/705/155 233/706/155
f 234/707/156 233/708/156 237/709/156 238/710/156
f 235/711/157 236/712/157 232/713/157 231/714/157
usemtl fluid_blue
f 239/715/158 240/716/158 241/717/158 242/718/158
f 244/719/159 243/720/159 246/721/159 245/722/159
f 243/723/160 239/724/160 242/725/160 246/726/160
f 240/727/161 244/728/161 245/729/161 241/730/161
f 242/731/162 241/732/162 245/733/162 246/734/162
f 243/735/163 244/736/163 240/737/163 239/738/163
usemtl warm_indicator
f 247/739/164 248/740/164 249/741/164 250/742/164
f 252/743/165 251/744/165 254/745/165 253/746/165
f 251/747/166 247/748/166 250/749/166 254/750/166
f 248/751/167 252/752/167 253/753/167 249/754/167
f 250/755/168 249/756/168 253/757/168 254/758/168
f 251/759/169 252/760/169 248/761/169 247/762/169
usemtl paper
f 255/763/170 256/764/170 257/765/170 258/766/170
f 260/767/171 259/768/171 262/769/171 261/770/171
f 259/771/172 255/772/172 258/773/172 262/774/172
f 256/775/173 260/776/173 261/777/173 257/778/173
f 258/779/174 257/780/174 261/781/174 262/782/174
f 259/783/175 260/784/175 256/785/175 255/786/175
usemtl signal_yellow
f 263/787/176 264/788/176 265/789/176 266/790/176
f 268/791/177 267/792/177 270/793/177 269/794/177
f 267/795/178 263/796/178 266/797/178 270/798/178
f 264/799/179 268/800/179 269/801/179 265/802/179
f 266/803/180 265/804/180 269/805/180 270/806/180
f 267/807/181 268/808/181 264/809/181 263/810/181
usemtl paper
f 271/811/182 272/812/182 273/813/182 274/814/182
f 276/815/183 275/816/183 278/817/183 277/818/183
f 275/819/184 271/820/184 274/821/184 278/822/184
f 272/823/185 276/824/185 277/825/185 273/826/185
f 274/827/186 273/828/186 277/829/186 278/830/186
f 275/831/187 276/832/187 272/833/187 271/834/187
f 279/835/188 280/836/188 281/837/188 282/838/188
f 284/839/189 283/840/189 286/841/189 285/842/189
f 283/843/190 279/844/190 282/845/190 286/846/190
f 280/847/191 284/848/191 285/849/191 281/850/191
f 282/851/192 281/852/192 285/853/192 286/854/192
f 283/855/193 284/856/193 280/857/193 279/858/193
f 287/859/194 289/860/194 290/861/194 288/862/194
f 289/863/195 291/864/195 292/865/195 290/866/195
f 291/867/196 293/868/196 294/869/196 292/870/196
f 293/871/197 295/872/197 296/873/197 294/874/197
f 295/875/198 297/876/198 298/877/198 296/878/198
f 297/879/199 299/880/199 300/881/199 298/882/199
f 299/883/200 301/884/200 302/885/200 300/886/200
f 301/887/201 287/888/201 288/889/201 302/890/201
f 301/891/202 299/892/202 297/893/202 295/894/202 293/895/202 291/896/202 289/897/202 287/898/202
f 288/899/203 290/900/203 292/901/203 294/902/203 296/903/203 298/904/203 300/905/203 302/906/203
f 303/907/204 305/908/204 306/909/204 304/910/204
f 305/911/205 307/912/205 308/913/205 306/914/205
f 307/915/206 309/916/206 310/917/206 308/918/206
f 309/919/207 311/920/207 312/921/207 310/922/207
f 311/923/208 313/924/208 314/925/208 312/926/208
f 313/927/209 315/928/209 316/929/209 314/930/209
f 315/931/210 317/932/210 318/933/210 316/934/210
f 317/935/211 303/936/211 304/937/211 318/938/211
f 317/939/212 315/940/212 313/941/212 311/942/212 309/943/212 307/944/212 305/945/212 303/946/212
f 304/947/213 306/948/213 308/949/213 310/950/213 312/951/213 314/952/213 316/953/213 318/954/213
f 319/955/214 321/956/214 322/957/214 320/958/214
f 321/959/215 323/960/215 324/961/215 322/962/215
f 323/963/216 325/964/216 326/965/216 324/966/216
f 325/967/217 327/968/217 328/969/217 326/970/217
f 327/971/218 329/972/218 330/973/218 328/974/218
f 329/975/219 331/976/219 332/977/219 330/978/219
f 331/979/220 333/980/220 334/981/220 332/982/220
f 333/983/221 319/984/221 320/985/221 334/986/221
f 333/987/222 331/988/222 329/989/222 327/990/222 325/991/222 323/992/222 321/993/222 319/994/222
f 320/995/223 322/996/223 324/997/223 326/998/223 328/999/223 330/1000/223 332/1001/223 334/1002/223
f 335/1003/224 337/1004/224 338/1005/224 336/1006/224
f 337/1007/225 339/1008/225 340/1009/225 338/1010/225
f 339/1011/226 341/1012/226 342/1013/226 340/1014/226
f 341/1015/227 343/1016/227 344/1017/227 342/1018/227
f 343/1019/228 345/1020/228 346/1021/228 344/1022/228
f 345/1023/229 347/1024/229 348/1025/229 346/1026/229
f 347/1027/230 349/1028/230 350/1029/230 348/1030/230
f 349/1031/231 335/1032/231 336/1033/231 350/1034/231
f 349/1035/232 347/1036/232 345/1037/232 343/1038/232 341/1039/232 339/1040/232 337/1041/232 335/1042/232
f 336/1043/233 338/1044/233 340/1045/233 342/1046/233 344/1047/233 346/1048/233 348/1049/233 350/1050/233
usemtl metal
f 351/1051/234 352/1052/234 353/1053/234 354/1054/234
f 356/1055/235 355/1056/235 358/1057/235 357/1058/235
f 355/1059/236 351/1060/236 354/1061/236 358/1062/236
f 352/1063/237 356/1064/237 357/1065/237 353/1066/237
f 354/1067/238 353/1068/238 357/1069/238 358/1070/238
f 355/1071/239 356/1072/239 352/1073/239 351/1074/239
usemtl medical_green
f 359/1075/240 360/1076/240 361/1077/240 362/1078/240
f 364/1079/241 363/1080/241 366/1081/241 365/1082/241
f 363/1083/242 359/1084/242 362/1085/242 366/1086/242
f 360/1087/243 364/1088/243 365/1089/243 361/1090/243
f 362/1091/244 361/1092/244 365/1093/244 366/1094/244
f 363/1095/245 364/1096/245 360/1097/245 359/1098/245
usemtl wall_stain
f 367/1099/246 368/1100/246 369/1101/246 370/1102/246
f 372/1103/247 371/1104/247 374/1105/247 373/1106/247
f 371/1107/248 367/1108/248 370/1109/248 374/1110/248
f 368/1111/249 372/1112/249 373/1113/249 369/1114/249
f 370/1115/250 369/1116/250 373/1117/250 374/1118/250
f 371/1119/251 372/1120/251 368/1121/251 367/1122/251
usemtl warning_red
f 375/1123/252 376/1124/252 377/1125/252 378/1126/252
f 380/1127/253 379/1128/253 382/1129/253 381/1130/253
f 379/1131/254 375/1132/254 378/1133/254 382/1134/254
f 376/1135/255 380/1136/255 381/1137/255 377/1138/255
f 378/1139/256 377/1140/256 381/1141/256 382/1142/256
f 379/1143/257 380/1144/257 376/1145/257 375/1146/257
usemtl sterile_blue
f 383/1147/258 384/1148/258 385/1149/258 386/1150/258
f 388/1151/259 387/1152/259 390/1153/259 389/1154/259
f 387/1155/260 383/1156/260 386/1157/260 390/1158/260
f 384/1159/261 388/1160/261 389/1161/261 385/1162/261
f 386/1163/262 385/1164/262 389/1165/262 390/1166/262
f 387/1167/263 388/1168/263 384/1169/263 383/1170/263
usemtl metal
f 391/1171/264 393/1172/264 394/1173/264 392/1174/264
f 393/1175/265 395/1176/265 396/1177/265 394/1178/265
f 395/1179/266 397/1180/266 398/1181/266 396/1182/266
f 397/1183/267 399/1184/267 400/1185/267 398/1186/267
f 399/1187/268 401/1188/268 402/1189/268 400/1190/268
f 401/1191/269 403/1192/269 404/1193/269 402/1194/269
f 403/1195/270 405/1196/270 406/1197/270 404/1198/270
f 405/1199/271 407/1200/271 408/1201/271 406/1202/271
f 407/1203/272 409/1204/272 410/1205/272 408/1206/272
f 409/1207/273 411/1208/273 412/1209/273 410/1210/273
f 411/1211/274 413/1212/274 414/1213/274 412/1214/274
f 413/1215/275 415/1216/275 416/1217/275 414/1218/275
f 415/1219/276 417/1220/276 418/1221/276 416/1222/276
f 417/1223/277 419/1224/277 420/1225/277 418/1226/277
f 419/1227/278 421/1228/278 422/1229/278 420/1230/278
f 421/1231/279 391/1232/279 392/1233/279 422/1234/279
f 421/1235/280 419/1236/280 417/1237/280 415/1238/280 413/1239/280 411/1240/280 409/1241/280 407/1242/280 405/1243/280 403/1244/280 401/1245/280 399/1246/280 397/1247/280 395/1248/280 393/1249/280 391/1250/280
f 392/1251/281 394/1252/281 396/1253/281 398/1254/281 400/1255/281 402/1256/281 404/1257/281 406/1258/281 408/1259/281 410/1260/281 412/1261/281 414/1262/281 416/1263/281 418/1264/281 420/1265/281 422/1266/281
usemtl paper
f 423/1267/282 424/1268/282 425/1269/282 426/1270/282
f 428/1271/283 427/1272/283 430/1273/283 429/1274/283
f 427/1275/284 423/1276/284 426/1277/284 430/1278/284
f 424/1279/285 428/1280/285 429/1281/285 425/1282/285
f 426/1283/286 425/1284/286 429/1285/286 430/1286/286
f 427/1287/287 428/1288/287 424/1289/287 423/1290/287
usemtl rubber_dark
f 431/1291/288 432/1292/288 433/1293/288 434/1294/288
f 436/1295/289 435/1296/289 438/1297/289 437/1298/289
f 435/1299/290 431/1300/290 434/1301/290 438/1302/290
f 432/1303/291 436/1304/291 437/1305/291 433/1306/291
f 434/1307/292 433/1308/292 437/1309/292 438/1310/292
f 435/1311/293 436/1312/293 432/1313/293 431/1314/293
f 439/1315/294 440/1316/294 441/1317/294 442/1318/294
f 444/1319/295 443/1320/295 446/1321/295 445/1322/295
f 443/1323/296 439/1324/296 442/1325/296 446/1326/296
f 440/1327/297 444/1328/297 445/1329/297 441/1330/297
f 442/1331/298 441/1332/298 445/1333/298 446/1334/298
f 443/1335/299 444/1336/299 440/1337/299 439/1338/299
usemtl paper
f 447/1339/300 448/1340/300 449/1341/300 450/1342/300
f 452/1343/301 451/1344/301 454/1345/301 453/1346/301
f 451/1347/302 447/1348/302 450/1349/302 454/1350/302
f 448/1351/303 452/1352/303 453/1353/303 449/1354/303
f 450/1355/304 449/1356/304 453/1357/304 454/1358/304
f 451/1359/305 452/1360/305 448/1361/305 447/1362/305
usemtl warning_red
f 455/1363/306 456/1364/306 457/1365/306 458/1366/306
f 460/1367/307 459/1368/307 462/1369/307 461/1370/307
f 459/1371/308 455/1372/308 458/1373/308 462/1374/308
f 456/1375/309 460/1376/309 461/1377/309 457/1378/309
f 458/1379/310 457/1380/310 461/1381/310 462/1382/310
f 459/1383/311 460/1384/311 456/1385/311 455/1386/311
usemtl paper
f 463/1387/312 464/1388/312 465/1389/312 466/1390/312
f 468/1391/313 467/1392/313 470/1393/313 469/1394/313
f 467/1395/314 463/1396/314 466/1397/314 470/1398/314
f 464/1399/315 468/1400/315 469/1401/315 465/1402/315
f 466/1403/316 465/1404/316 469/1405/316 470/1406/316
f 467/1407/317 468/1408/317 464/1409/317 463/1410/317
usemtl medical_green
f 471/1411/318 472/1412/318 473/1413/318 474/1414/318
f 476/1415/319 475/1416/319 478/1417/319 477/1418/319
f 475/1419/320 471/1420/320 474/1421/320 478/1422/320
f 472/1423/321 476/1424/321 477/1425/321 473/1426/321
f 474/1427/322 473/1428/322 477/1429/322 478/1430/322
f 475/1431/323 476/1432/323 472/1433/323 471/1434/323
usemtl wall_stain
f 479/1435/324 480/1436/324 481/1437/324 482/1438/324
f 484/1439/325 483/1440/325 486/1441/325 485/1442/325
f 483/1443/326 479/1444/326 482/1445/326 486/1446/326
f 480/1447/327 484/1448/327 485/1449/327 481/1450/327
f 482/1451/328 481/1452/328 485/1453/328 486/1454/328
f 483/1455/329 484/1456/329 480/1457/329 479/1458/329
usemtl wall_trim
f 487/1459/330 488/1460/330 489/1461/330 490/1462/330
f 492/1463/331 491/1464/331 494/1465/331 493/1466/331
f 491/1467/332 487/1468/332 490/1469/332 494/1470/332
f 488/1471/333 492/1472/333 493/1473/333 489/1474/333
f 490/1475/334 489/1476/334 493/1477/334 494/1478/334
f 491/1479/335 492/1480/335 488/1481/335 487/1482/335
usemtl vinyl_scuff
f 495/1483/336 496/1484/336 497/1485/336 498/1486/336
f 500/1487/337 499/1488/337 502/1489/337 501/1490/337
f 499/1491/338 495/1492/338 498/1493/338 502/1494/338
f 496/1495/339 500/1496/339 501/1497/339 497/1498/339
f 498/1499/340 497/1500/340 501/1501/340 502/1502/340
f 499/1503/341 500/1504/341 496/1505/341 495/1506/341
f 503/1507/342 504/1508/342 505/1509/342 506/1510/342
f 508/1511/343 507/1512/343 510/1513/343 509/1514/343
f 507/1515/344 503/1516/344 506/1517/344 510/1518/344
f 504/1519/345 508/1520/345 509/1521/345 505/1522/345
f 506/1523/346 505/1524/346 509/1525/346 510/1526/346
f 507/1527/347 508/1528/347 504/1529/347 503/1530/347
usemtl metal
f 511/1531/348 512/1532/348 513/1533/348 514/1534/348
f 516/1535/349 515/1536/349 518/1537/349 517/1538/349
f 515/1539/350 511/1540/350 514/1541/350 518/1542/350
f 512/1543/351 516/1544/351 517/1545/351 513/1546/351
f 514/1547/352 513/1548/352 517/1549/352 518/1550/352
f 515/1551/353 516/1552/353 512/1553/353 511/1554/353
usemtl rail_bumper
f 519/1555/354 520/1556/354 521/1557/354 522/1558/354
f 524/1559/355 523/1560/355 526/1561/355 525/1562/355
f 523/1563/356 519/1564/356 522/1565/356 526/1566/356
f 520/1567/357 524/1568/357 525/1569/357 521/1570/357
f 522/1571/358 521/1572/358 525/1573/358 526/1574/358
f 523/1575/359 524/1576/359 520/1577/359 519/1578/359
usemtl metal
f 527/1579/360 528/1580/360 529/1581/360 530/1582/360
f 532/1583/361 531/1584/361 534/1585/361 533/1586/361
f 531/1587/362 527/1588/362 530/1589/362 534/1590/362
f 528/1591/363 532/1592/363 533/1593/363 529/1594/363
f 530/1595/364 529/1596/364 533/1597/364 534/1598/364
f 531/1599/365 532/1600/365 528/1601/365 527/1602/365
usemtl rail_bumper
f 535/1603/366 536/1604/366 537/1605/366 538/1606/366
f 540/1607/367 539/1608/367 542/1609/367 541/1610/367
f 539/1611/368 535/1612/368 538/1613/368 542/1614/368
f 536/1615/369 540/1616/369 541/1617/369 537/1618/369
f 538/1619/370 537/1620/370 541/1621/370 542/1622/370
f 539/1623/371 540/1624/371 536/1625/371 535/1626/371
usemtl metal
f 543/1627/372 544/1628/372 545/1629/372 546/1630/372
f 548/1631/373 547/1632/373 550/1633/373 549/1634/373
f 547/1635/374 543/1636/374 546/1637/374 550/1638/374
f 544/1639/375 548/1640/375 549/1641/375 545/1642/375
f 546/1643/376 545/1644/376 549/1645/376 550/1646/376
f 547/1647/377 548/1648/377 544/1649/377 543/1650/377
f 551/1651/378 552/1652/378 553/1653/378 554/1654/378
f 556/1655/379 555/1656/379 558/1657/379 557/1658/379
f 555/1659/380 551/1660/380 554/1661/380 558/1662/380
f 552/1663/381 556/1664/381 557/1665/381 553/1666/381
f 554/1667/382 553/1668/382 557/1669/382 558/1670/382
f 555/1671/383 556/1672/383 552/1673/383 551/1674/383
f 559/1675/384 560/1676/384 561/1677/384 562/1678/384
f 564/1679/385 563/1680/385 566/1681/385 565/1682/385
f 563/1683/386 559/1684/386 562/1685/386 566/1686/386
f 560/1687/387 564/1688/387 565/1689/387 561/1690/387
f 562/1691/388 561/1692/388 565/1693/388 566/1694/388
f 563/1695/389 564/1696/389 560/1697/389 559/1698/389
f 567/1699/390 568/1700/390 569/1701/390 570/1702/390
f 572/1703/391 571/1704/391 574/1705/391 573/1706/391
f 571/1707/392 567/1708/392 570/1709/392 574/1710/392
f 568/1711/393 572/1712/393 573/1713/393 569/1714/393
f 570/1715/394 569/1716/394 573/1717/394 574/1718/394
f 571/1719/395 572/1720/395 568/1721/395 567/1722/395
f 575/1723/396 576/1724/396 577/1725/396 578/1726/396
f 580/1727/397 579/1728/397 582/1729/397 581/1730/397
f 579/1731/398 575/1732/398 578/1733/398 582/1734/398
f 576/1735/399 580/1736/399 581/1737/399 577/1738/399
f 578/1739/400 577/1740/400 581/1741/400 582/1742/400
f 579/1743/401 580/1744/401 576/1745/401 575/1746/401
f 583/1747/402 584/1748/402 585/1749/402 586/1750/402
f 588/1751/403 587/1752/403 590/1753/403 589/1754/403
f 587/1755/404 583/1756/404 586/1757/404 590/1758/404
f 584/1759/405 588/1760/405 589/1761/405 585/1762/405
f 586/1763/406 585/1764/406 589/1765/406 590/1766/406
f 587/1767/407 588/1768/407 584/1769/407 583/1770/407
