# Generated by tools/generate_ambulance_proxy_meshes.py
mtllib ambulance_proxy_materials.mtl
o ambulance_medical_bag
v -0.625000 -0.510000 -0.420000
v 0.625000 -0.510000 -0.420000
v 0.625000 0.270000 -0.420000
v -0.625000 0.270000 -0.420000
v -0.625000 -0.510000 0.420000
v 0.625000 -0.510000 0.420000
v 0.625000 0.270000 0.420000
v -0.625000 0.270000 0.420000
v -0.775000 -0.510000 -0.270000
v 0.775000 -0.510000 -0.270000
v 0.775000 0.270000 -0.270000
v -0.775000 0.270000 -0.270000
v -0.775000 -0.510000 0.270000
v 0.775000 -0.510000 0.270000
v 0.775000 0.270000 0.270000
v -0.775000 0.270000 0.270000
v -0.475000 -0.510000 -0.270000
v -0.475000 0.270000 -0.270000
v -0.489855 -0.510000 -0.204917
v -0.489855 0.270000 -0.204917
v -0.531477 -0.510000 -0.152725
v -0.531477 0.270000 -0.152725
v -0.591622 -0.510000 -0.123761
v -0.591622 0.270000 -0.123761
v -0.658378 -0.510000 -0.123761
v -0.658378 0.270000 -0.123761
v -0.718523 -0.510000 -0.152725
v -0.718523 0.270000 -0.152725
v -0.760145 -0.510000 -0.204917
v -0.760145 0.270000 -0.204917
v -0.775000 -0.510000 -0.270000
v -0.775000 0.270000 -0.270000
v -0.760145 -0.510000 -0.335083
v -0.760145 0.270000 -0.335083
v -0.718523 -0.510000 -0.387275
v -0.718523 0.270000 -0.387275
v -0.658378 -0.510000 -0.416239
v -0.658378 0.270000 -0.416239
v -0.591622 -0.510000 -0.416239
v -0.591622 0.270000 -0.416239
v -0.531477 -0.510000 -0.387275
v -0.531477 0.270000 -0.387275
v -0.489855 -0.510000 -0.335083
v -0.489855 0.270000 -0.335083
v -0.475000 -0.510000 0.270000
v -0.475000 0.270000 0.270000
v -0.489855 -0.510000 0.335083
v -0.489855 0.270000 0.335083
v -0.531477 -0.510000 0.387275
v -0.531477 0.270000 0.387275
v -0.591622 -0.510000 0.416239
v -0.591622 0.270000 0.416239
v -0.658378 -0.510000 0.416239
v -0.658378 0.270000 0.416239
v -0.718523 -0.510000 0.387275
v -0.718523 0.270000 0.387275
v -0.760145 -0.510000 0.335083
v -0.760145 0.270000 0.335083
v -0.775000 -0.510000 0.270000
v -0.775000 0.270000 0.270000
v -0.760145 -0.510000 0.204917
v -0.760145 0.270000 0.204917
v -0.718523 -0.510000 0.152725
v -0.718523 0.270000 0.152725
v -0.658378 -0.510000 0.123761
v -0.658378 0.270000 0.123761
v -0.591622 -0.510000 0.123761
v -0.591622 0.270000 0.123761
v -0.531477 -0.510000 0.152725
v -0.531477 0.270000 0.152725
v -0.489855 -0.510000 0.204917
v -0.489855 0.270000 0.204917
v 0.775000 -0.510000 -0.270000
v 0.775000 0.270000 -0.270000
v 0.760145 -0.510000 -0.204917
v 0.760145 0.270000 -0.204917
v 0.718523 -0.510000 -0.152725
v 0.718523 0.270000 -0.152725
v 0.658378 -0.510000 -0.123761
v 0.658378 0.270000 -0.123761
v 0.591622 -0.510000 -0.123761
v 0.591622 0.270000 -0.123761
v 0.531477 -0.510000 -0.152725
v 0.531477 0.270000 -0.152725
v 0.489855 -0.510000 -0.204917
v 0.489855 0.270000 -0.204917
v 0.475000 -0.510000 -0.270000
v 0.475000 0.270000 -0.270000
v 0.489855 -0.510000 -0.335083
v 0.489855 0.270000 -0.335083
v 0.531477 -0.510000 -0.387275
v 0.531477 0.270000 -0.387275
v 0.591622 -0.510000 -0.416239
v 0.591622 0.270000 -0.416239
v 0.658378 -0.510000 -0.416239
v 0.658378 0.270000 -0.416239
v 0.718523 -0.510000 -0.387275
v 0.718523 0.270000 -0.387275
v 0.760145 -0.510000 -0.335083
v 0.760145 0.270000 -0.335083
v 0.775000 -0.510000 0.270000
v 0.775000 0.270000 0.270000
v 0.760145 -0.510000 0.335083
v 0.760145 0.270000 0.335083
v 0.718523 -0.510000 0.387275
v 0.718523 0.270000 0.387275
v 0.658378 -0.510000 0.416239
v 0.658378 0.270000 0.416239
v 0.591622 -0.510000 0.416239
v 0.591622 0.270000 0.416239
v 0.531477 -0.510000 0.387275
v 0.531477 0.270000 0.387275
v 0.489855 -0.510000 0.335083
v 0.489855 0.270000 0.335083
v 0.475000 -0.510000 0.270000
v 0.475000 0.270000 0.270000
v 0.489855 -0.510000 0.204917
v 0.489855 0.270000 0.204917
v 0.531477 -0.510000 0.152725
v 0.531477 0.270000 0.152725
v 0.591622 -0.510000 0.123761
v 0.591622 0.270000 0.123761
v 0.658378 -0.510000 0.123761
v 0.658378 0.270000 0.123761
v 0.718523 -0.510000 0.152725
v 0.718523 0.270000 0.152725
v 0.760145 -0.510000 0.204917
v 0.760145 0.270000 0.204917
v -0.630000 0.240000 -0.360000
v 0.630000 0.240000 -0.360000
v 0.630000 0.360000 -0.360000
v -0.630000 0.360000 -0.360000
v -0.630000 0.240000 0.360000
v 0.630000 0.240000 0.360000
v 0.630000 0.360000 0.360000
v -0.630000 0.360000 0.360000
v -0.700000 0.240000 -0.290000
v 0.700000 0.240000 -0.290000
v 0.700000 0.360000 -0.290000
v -0.700000 0.360000 -0.290000
v -0.700000 0.240000 0.290000
v 0.700000 0.240000 0.290000
v 0.700000 0.360000 0.290000
v -0.700000 0.360000 0.290000
v -0.560000 0.240000 -0.290000
v -0.560000 0.360000 -0.290000
v -0.569378 0.240000 -0.255000
v -0.569378 0.360000 -0.255000
v -0.595000 0.240000 -0.229378
v -0.595000 0.360000 -0.229378
v -0.630000 0.240000 -0.220000
v -0.630000 0.360000 -0.220000
v -0.665000 0.240000 -0.229378
v -0.665000 0.360000 -0.229378
v -0.690622 0.240000 -0.255000
v -0.690622 0.360000 -0.255000
v -0.700000 0.240000 -0.290000
v -0.700000 0.360000 -0.290000
v -0.690622 0.240000 -0.325000
v -0.690622 0.360000 -0.325000
v -0.665000 0.240000 -0.350622
v -0.665000 0.360000 -0.350622
v -0.630000 0.240000 -0.360000
v -0.630000 0.360000 -0.360000
v -0.595000 0.240000 -0.350622
v -0.595000 0.360000 -0.350622
v -0.569378 0.240000 -0.325000
v -0.569378 0.360000 -0.325000
v -0.560000 0.240000 0.290000
v -0.560000 0.360000 0.290000
v -0.569378 0.240000 0.325000
v -0.569378 0.360000 0.325000
v -0.595000 0.240000 0.350622
v -0.595000 0.360000 0.350622
v -0.630000 0.240000 0.360000
v -0.630000 0.360000 0.360000
v -0.665000 0.240000 0.350622
v -0.665000 0.360000 0.350622
v -0.690622 0.240000 0.325000
v -0.690622 0.360000 0.325000
v -0.700000 0.240000 0.290000
v -0.700000 0.360000 0.290000
v -0.690622 0.240000 0.255000
v -0.690622 0.360000 0.255000
v -0.665000 0.240000 0.229378
v -0.665000 0.360000 0.229378
v -0.630000 0.240000 0.220000
v -0.630000 0.360000 0.220000
v -0.595000 0.240000 0.229378
v -0.595000 0.360000 0.229378
v -0.569378 0.240000 0.255000
v -0.569378 0.360000 0.255000
v 0.700000 0.240000 -0.290000
v 0.700000 0.360000 -0.290000
v 0.690622 0.240000 -0.255000
v 0.690622 0.360000 -0.255000
v 0.665000 0.240000 -0.229378
v 0.665000 0.360000 -0.229378
v 0.630000 0.240000 -0.220000
v 0.630000 0.360000 -0.220000
v 0.595000 0.240000 -0.229378
v 0.595000 0.360000 -0.229378
v 0.569378 0.240000 -0.255000
v 0.569378 0.360000 -0.255000
v 0.560000 0.240000 -0.290000
v 0.560000 0.360000 -0.290000
v 0.569378 0.240000 -0.325000
v 0.569378 0.360000 -0.325000
v 0.595000 0.240000 -0.350622
v 0.595000 0.360000 -0.350622
v 0.630000 0.240000 -0.360000
v 0.630000 0.360000 -0.360000
v 0.665000 0.240000 -0.350622
v 0.665000 0.360000 -0.350622
v 0.690622 0.240000 -0.325000
v 0.690622 0.360000 -0.325000
v 0.700000 0.240000 0.290000
v 0.700000 0.360000 0.290000
v 0.690622 0.240000 0.325000
v 0.690622 0.360000 0.325000
v 0.665000 0.240000 0.350622
v 0.665000 0.360000 0.350622
v 0.630000 0.240000 0.360000
v 0.630000 0.360000 0.360000
v 0.595000 0.240000 0.350622
v 0.595000 0.360000 0.350622
v 0.569378 0.240000 0.325000
v 0.569378 0.360000 0.325000
v 0.560000 0.240000 0.290000
v 0.560000 0.360000 0.290000
v 0.569378 0.240000 0.255000
v 0.569378 0.360000 0.255000
v 0.595000 0.240000 0.229378
v 0.595000 0.360000 0.229378
v 0.630000 0.240000 0.220000
v 0.630000 0.360000 0.220000
v 0.665000 0.240000 0.229378
v 0.665000 0.360000 0.229378
v 0.690622 0.240000 0.255000
v 0.690622 0.360000 0.255000
v -0.400000 0.450000 0.040000
v 0.400000 0.450000 0.040000
v -0.400000 0.420000 0.031962
v 0.400000 0.420000 0.031962
v -0.400000 0.398038 0.010000
v 0.400000 0.398038 0.010000
v -0.400000 0.390000 -0.020000
v 0.400000 0.390000 -0.020000
v -0.400000 0.398038 -0.050000
v 0.400000 0.398038 -0.050000
v -0.400000 0.420000 -0.071962
v 0.400000 0.420000 -0.071962
v -0.400000 0.450000 -0.080000
v 0.400000 0.450000 -0.080000
v -0.400000 0.480000 -0.071962
v 0.400000 0.480000 -0.071962
v -0.400000 0.501962 -0.050000
v 0.400000 0.501962 -0.050000
v -0.400000 0.510000 -0.020000
v 0.400000 0.510000 -0.020000
v -0.400000 0.501962 0.010000
v 0.400000 0.501962 0.010000
v -0.400000 0.480000 0.031962
v 0.400000 0.480000 0.031962
v -0.840000 -0.100000 -0.420000
v 0.840000 -0.100000 -0.420000
v -0.840000 -0.120000 -0.425359
v 0.840000 -0.120000 -0.425359
v -0.840000 -0.134641 -0.440000
v 0.840000 -0.134641 -0.440000
v -0.840000 -0.140000 -0.460000
v 0.840000 -0.140000 -0.460000
v -0.840000 -0.134641 -0.480000
v 0.840000 -0.134641 -0.480000
v -0.840000 -0.120000 -0.494641
v 0.840000 -0.120000 -0.494641
v -0.840000 -0.100000 -0.500000
v 0.840000 -0.100000 -0.500000
v -0.840000 -0.080000 -0.494641
v 0.840000 -0.080000 -0.494641
v -0.840000 -0.065359 -0.480000
v 0.840000 -0.065359 -0.480000
v -0.840000 -0.060000 -0.460000
v 0.840000 -0.060000 -0.460000
v -0.840000 -0.065359 -0.440000
v 0.840000 -0.065359 -0.440000
v -0.840000 -0.080000 -0.425359
v 0.840000 -0.080000 -0.425359
v -0.430000 -0.530000 -0.540000
v -0.330000 -0.530000 -0.540000
v -0.330000 0.330000 -0.540000
v -0.430000 0.330000 -0.540000
v -0.430000 -0.530000 -0.460000
v -0.330000 -0.530000 -0.460000
v -0.330000 0.330000 -0.460000
v -0.430000 0.330000 -0.460000
v 0.330000 -0.530000 -0.540000
v 0.430000 -0.530000 -0.540000
v 0.430000 0.330000 -0.540000
v 0.330000 0.330000 -0.540000
v 0.330000 -0.530000 -0.460000
v 0.430000 -0.530000 -0.460000
v 0.430000 0.330000 -0.460000
v 0.330000 0.330000 -0.460000
v -0.220000 -0.170000 -0.927500
v 0.220000 -0.170000 -0.927500
v 0.220000 -0.070000 -0.927500
v -0.220000 -0.070000 -0.927500
v -0.220000 -0.170000 -0.892500
v 0.220000 -0.170000 -0.892500
v 0.220000 -0.070000 -0.892500
v -0.220000 -0.070000 -0.892500
v -0.050000 -0.300000 -0.947500
v 0.050000 -0.300000 -0.947500
v 0.050000 0.060000 -0.947500
v -0.050000 0.060000 -0.947500
v -0.050000 -0.300000 -0.912500
v 0.050000 -0.300000 -0.912500
v 0.050000 0.060000 -0.912500
v -0.050000 0.060000 -0.912500
v -0.560000 -0.070000 -0.917500
v -0.400000 -0.070000 -0.917500
v -0.400000 0.110000 -0.917500
v -0.560000 0.110000 -0.917500
v -0.560000 -0.070000 -0.882500
v -0.400000 -0.070000 -0.882500
v -0.400000 0.110000 -0.882500
v -0.560000 0.110000 -0.882500
v 0.420000 -0.040000 -0.917500
v 0.620000 -0.040000 -0.917500
v 0.620000 0.120000 -0.917500
v 0.420000 0.120000 -0.917500
v 0.420000 -0.040000 -0.882500
v 0.620000 -0.040000 -0.882500
v 0.620000 0.120000 -0.882500
v 0.420000 0.120000 -0.882500
v -0.590000 0.160000 -0.926000
v 0.590000 0.160000 -0.926000
v 0.590000 0.200000 -0.926000
v -0.590000 0.200000 -0.926000
v -0.590000 0.160000 -0.894000
v 0.590000 0.160000 -0.894000
v 0.590000 0.200000 -0.894000
v -0.590000 0.200000 -0.894000
v -0.770000 -0.455000 -0.917500
v -0.590000 -0.455000 -0.917500
v -0.590000 -0.345000 -0.917500
v -0.770000 -0.345000 -0.917500
v -0.770000 -0.455000 -0.882500
v -0.590000 -0.455000 -0.882500
v -0.590000 -0.345000 -0.882500
v -0.770000 -0.345000 -0.882500
vt 0.000000 0.000000
vt 1.000000 0.000000
vt 1.000000 1.000000
vt 0.000000 1.000000
vt 0.000000 0.000000
vt 1.000000 0.000000
vt 1.000000 1.000000
vt 0.000000 1.000000
vt 0.000000 0.000000
vt 1.000000 0.000000
vt 1.000000 1.000000
vt 0.000000 1.000000
vt 0.000000 0.000000
vt 1.000000 0.000000
vt 1.000000 1.000000
vt 0.000000 1.000000
vt 0.000000 0.000000
vt 1.000000 0.000000
vt 1.000000 1.000000
vt 0.000000 1.000000
vt 0.000000 0.000000
vt 1.000000 0.000000
vt 1.000000 1.000000
vt 0.000000 1.000000
vt 0.000000 0.000000
vt 1.000000 0.000000
vt 1.000000 1.000000
vt 0.000000 1.000000
vt 0.000000 0.000000
vt 1.000000 0.000000
vt 1.000000 1.000000
vt 0.000000 1.000000
vt 0.000000 0.000000
vt 1.000000 0.000000
vt 1.000000 1.000000
vt 0.000000 1.000000
vt 0.000000 0.000000
vt 1.000000 0.000000
vt 1.000000 1.000000
vt 0.000000 1.000000
vt 0.000000 0.000000
vt 1.000000 0.000000
vt 1.000000 1.000000
vt 0.000000 1.000000
vt 0.000000 0.000000
vt 1.000000 0.000000
vt 1.000000 1.000000
vt 0.000000 1.000000
vt 0.000000 0.000000
vt 1.000000 0.000000
vt 1.000000 1.000000
vt 0.000000 1.000000
vt 0.000000 0.000000
vt 1.000000 0.000000
vt 1.000000 1.000000
vt 0.000000 1.000000
vt 0.000000 0.000000
vt 1.000000 0.000000
vt 1.000000 1.000000
vt 0.000000 1.000000
vt 0.000000 0.000000
vt 1.000000 0.000000
vt 1.000000 1.000000
vt 0.000000 1.000000
vt 0.000000 0.000000
vt 1.000000 0.000000
vt 1.000000 1.000000
vt 0.000000 1.000000
vt 0.000000 0.000000
vt 1.000000 0.000000
vt 1.000000 1.000000
vt 0.000000 1.000000
vt 0.000000 0.000000
vt 1.000000 0.000000
vt 1.000000 1.000000
vt 0.000000 1.000000
vt 0.000000 0.000000
vt 1.000000 0.000000
vt 1.000000 1.000000
vt 0.000000 1.000000
vt 0.000000 0.000000
vt 1.000000 0.000000
vt 1.000000 1.000000
vt 0.000000 1.000000
vt 0.000000 0.000000
vt 1.000000 0.000000
vt 1.000000 1.000000
vt 0.000000 1.000000
vt 0.000000 0.000000
vt 1.000000 0.000000
vt 1.000000 1.000000
vt 0.000000 1.000000
vt 0.000000 0.000000
vt 1.000000 0.000000
vt 1.000000 1.000000
vt 0.000000 1.000000
vt 0.000000 0.000000
vt 1.000000 0.000000
vt 1.000000 1.000000
vt 0.000000 1.000000
vt 0.000000 0.000000
vt 1.000000 0.000000
vt 1.000000 1.000000
vt 0.000000 1.000000
vt 1.000000 0.500000
vt 0.950484 0.716942
vt 0.811745 0.890916
vt 0.611260 0.987464
vt 0.388740 0.987464
vt 0.188255 0.890916
vt 0.049516 0.716942
vt 0.000000 0.500000
vt 0.049516 0.283058
vt 0.188255 0.109084
vt 0.388740 0.012536
vt 0.611260 0.012536
vt 0.811745 0.109084
vt 0.950484 0.283058
vt 1.000000 0.500000
vt 0.950484 0.716942
vt 0.811745 0.890916
vt 0.611260 0.987464
vt 0.388740 0.987464
vt 0.188255 0.890916
vt 0.049516 0.716942
vt 0.000000 0.500000
vt 0.049516 0.283058
vt 0.188255 0.109084
vt 0.388740 0.012536
vt 0.611260 0.012536
vt 0.811745 0.109084
vt 0.950484 0.283058
vt 0.000000 0.000000
vt 1.000000 0.000000
vt 1.000000 1.000000
vt 0.000000 1.000000
vt 0.000000 0.000000
vt 1.000000 0.000000
vt 1.000000 1.000000
vt 0.000000 1.000000
vt 0.000000 0.000000
vt 1.000000 0.000000
vt 1.000000 1.000000
vt 0.000000 1.000000
vt 0.000000 0.000000
vt 1.000000 0.000000
vt 1.000000 1.000000
vt 0.000000 1.000000
vt 0.000000 0.000000
vt 1.000000 0.000000
vt 1.000000 1.000000
vt 0.000000 1.000000
vt 0.000000 0.000000
vt 1.000000 0.000000
vt 1.000000 1.000000
vt 0.000000 1.000000
vt 0.000000 0.000000
vt 1.000000 0.000000
vt 1.000000 1.000000
vt 0.000000 1.000000
vt 0.000000 0.000000
vt 1.000000 0.000000
vt 1.000000 1.000000
vt 0.000000 1.000000
vt 0.000000 0.000000
vt 1.000000 0.000000
vt 1.000000 1.000000
vt 0.000000 1.000000
vt 0.000000 0.000000
vt 1.000000 0.000000
vt 1.000000 1.000000
vt 0.000000 1.000000
vt 0.000000 0.000000
vt 1.000000 0.000000
vt 1.000000 1.000000
vt 0.000000 1.000000
vt 0.000000 0.000000
vt 1.000000 0.000000
vt 1.000000 1.000000
vt 0.000000 1.000000
vt 0.000000 0.000000
vt 1.000000 0.000000
vt 1.000000 1.000000
vt 0.000000 1.000000
vt 0.000000 0.000000
vt 1.000000 0.000000
vt 1.000000 1.000000
vt 0.000000 1.000000
vt 1.000000 0.500000
vt 0.950484 0.716942
vt 0.811745 0.890916
vt 0.611260 0.987464
vt 0.388740 0.987464
vt 0.188255 0.890916
vt 0.049516 0.716942
vt 0.000000 0.500000
vt 0.049516 0.283058
vt 0.188255 0.109084
vt 0.388740 0.012536
vt 0.611260 0.012536
vt 0.811745 0.109084
vt 0.950484 0.283058
vt 1.000000 0.500000
vt 0.950484 0.716942
vt 0.811745 0.890916
vt 0.611260 0.987464
vt 0.388740 0.987464
vt 0.188255 0.890916
vt 0.049516 0.716942
vt 0.000000 0.500000
vt 0.049516 0.283058
vt 0.188255 0.109084
vt 0.388740 0.012536
vt 0.611260 0.012536
vt 0.811745 0.109084
vt 0.950484 0.283058
vt 0.000000 0.000000
vt 1.000000 0.000000
vt 1.000000 1.000000
vt 0.000000 1.000000
vt 0.000000 0.000000
vt 1.000000 0.000000
vt 1.000000 1.000000
vt 0.000000 1.000000
vt 0.000000 0.000000
vt 1.000000 0.000000
vt 1.000000 1.000000
vt 0.000000 1.000000
vt 0.000000 0.000000
vt 1.000000 0.000000
vt 1.000000 1.000000
vt 0.000000 1.000000
vt 0.000000 0.000000
vt 1.000000 0.000000
vt 1.000000 1.000000
vt 0.000000 1.000000
vt 0.000000 0.000000
vt 1.000000 0.000000
vt 1.000000 1.000000
vt 0.000000 1.000000
vt 0.000000 0.000000
vt 1.000000 0.000000
vt 1.000000 1.000000
vt 0.000000 1.000000
vt 0.000000 0.000000
vt 1.000000 0.000000
vt 1.000000 1.000000
vt 0.000000 1.000000
vt 0.000000 0.000000
vt 1.000000 0.000000
vt 1.000000 1.000000
vt 0.000000 1.000000
vt 0.000000 0.000000
vt 1.000000 0.000000
vt 1.000000 1.000000
vt 0.000000 1.000000
vt 0.000000 0.000000
vt 1.000000 0.000000
vt 1.000000 1.000000
vt 0.000000 1.000000
vt 0.000000 0.000000
vt 1.000000 0.000000
vt 1.000000 1.000000
vt 0.000000 1.000000
vt 0.000000 0.000000
vt 1.000000 0.000000
vt 1.000000 1.000000
vt 0.000000 1.000000
vt 0.000000 0.000000
vt 1.000000 0.000000
vt 1.000000 1.000000
vt 0.000000 1.000000
vt 1.000000 0.500000
vt 0.950484 0.716942
vt 0.811745 0.890916
vt 0.611260 0.987464
vt 0.388740 0.987464
vt 0.188255 0.890916
vt 0.049516 0.716942
vt 0.000000 0.500000
vt 0.049516 0.283058
vt 0.188255 0.109084
vt 0.388740 0.012536
vt 0.611260 0.012536
vt 0.811745 0.109084
vt 0.950484 0.283058
vt 1.000000 0.500000
vt 0.950484 0.716942
vt 0.811745 0.890916
vt 0.611260 0.987464
vt 0.388740 0.987464
vt 0.188255 0.890916
vt 0.049516 0.716942
vt 0.000000 0.500000
vt 0.049516 0.283058
vt 0.188255 0.109084
vt 0.388740 0.012536
vt 0.611260 0.012536
vt 0.811745 0.109084
vt 0.950484 0.283058
vt 0.000000 0.000000
vt 1.000000 0.000000
vt 1.000000 1.000000
vt 0.000000 1.000000
vt 0.000000 0.000000
vt 1.000000 0.000000
vt 1.000000 1.000000
vt 0.000000 1.000000
vt 0.000000 0.000000
vt 1.000000 0.000000
vt 1.000000 1.000000
vt 0.000000 1.000000
vt 0.000000 0.000000
vt 1.000000 0.000000
vt 1.000000 1.000000
vt 0.000000 1.000000
vt 0.000000 0.000000
vt 1.000000 0.000000
vt 1.000000 1.000000
vt 0.000000 1.000000
vt 0.000000 0.000000
vt 1.000000 0.000000
vt 1.000000 1.000000
vt 0.000000 1.000000
vt 0.000000 0.000000
vt 1.000000 0.000000
vt 1.000000 1.000000
vt 0.000000 1.000000
vt 0.000000 0.000000
vt 1.000000 0.000000
vt 1.000000 1.000000
vt 0.000000 1.000000
vt 0.000000 0.000000
vt 1.000000 0.000000
vt 1.000000 1.000000
vt 0.000000 1.000000
vt 0.000000 0.000000
vt 1.000000 0.000000
vt 1.000000 1.000000
vt 0.000000 1.000000
vt 0.000000 0.000000
vt 1.000000 0.000000
vt 1.000000 1.000000
vt 0.000000 1.000000
vt 0.000000 0.000000
vt 1.000000 0.000000
vt 1.000000 1.000000
vt 0.000000 1.000000
vt 0.000000 0.000000
vt 1.000000 0.000000
vt 1.000000 1.000000
vt 0.000000 1.000000
vt 0.000000 0.000000
vt 1.000000 0.000000
vt 1.000000 1.000000
vt 0.000000 1.000000
vt 1.000000 0.500000
vt 0.950484 0.716942
vt 0.811745 0.890916
vt 0.611260 0.987464
vt 0.388740 0.987464
vt 0.188255 0.890916
vt 0.049516 0.716942
vt 0.000000 0.500000
vt 0.049516 0.283058
vt 0.188255 0.109084
vt 0.388740 0.012536
vt 0.611260 0.012536
vt 0.811745 0.109084
vt 0.950484 0.283058
vt 1.000000 0.500000
vt 0.950484 0.716942
vt 0.811745 0.890916
vt 0.611260 0.987464
vt 0.388740 0.987464
vt 0.188255 0.890916
vt 0.049516 0.716942
vt 0.000000 0.500000
vt 0.049516 0.283058
vt 0.188255 0.109084
vt 0.388740 0.012536
vt 0.611260 0.012536
vt 0.811745 0.109084
vt 0.950484 0.283058
vt 0.000000 0.000000
vt 1.000000 0.000000
vt 1.000000 1.000000
vt 0.000000 1.000000
vt 0.000000 0.000000
vt 1.000000 0.000000
vt 1.000000 1.000000
vt 0.000000 1.000000
vt 0.000000 0.000000
vt 1.000000 0.000000
vt 1.000000 1.000000
vt 0.000000 1.000000
vt 0.000000 0.000000
vt 1.000000 0.000000
vt 1.000000 1.000000
vt 0.000000 1.000000
vt 0.000000 0.000000
vt 1.000000 0.000000
vt 1.000000 1.000000
vt 0.000000 1.000000
vt 0.000000 0.000000
vt 1.000000 0.000000
vt 1.000000 1.000000
vt 0.000000 1.000000
vt 0.000000 0.000000
vt 1.000000 0.000000
vt 1.000000 1.000000
vt 0.000000 1.000000
vt 0.000000 0.000000
vt 1.000000 0.000000
vt 1.000000 1.000000
vt 0.000000 1.000000
vt 0.000000 0.000000
vt 1.000000 0.000000
vt 1.000000 1.000000
vt 0.000000 1.000000
vt 0.000000 0.000000
vt 1.000000 0.000000
vt 1.000000 1.000000
vt 0.000000 1.000000
vt 0.000000 0.000000
vt 1.000000 0.000000
vt 1.000000 1.000000
vt 0.000000 1.000000
vt 0.000000 0.000000
vt 1.000000 0.000000
vt 1.000000 1.000000
vt 0.000000 1.000000
vt 0.000000 0.000000
vt 1.000000 0.000000
vt 1.000000 1.000000
vt 0.000000 1.000000
vt 0.000000 0.000000
vt 1.000000 0.000000
vt 1.000000 1.000000
vt 0.000000 1.000000
vt 0.000000 0.000000
vt 1.000000 0.000000
vt 1.000000 1.000000
vt 0.000000 1.000000
vt 0.000000 0.000000
vt 1.000000 0.000000
vt 1.000000 1.000000
vt 0.000000 1.000000
vt 0.000000 0.000000
vt 1.000000 0.000000
vt 1.000000 1.000000
vt 0.000000 1.000000
vt 0.000000 0.000000
vt 1.000000 0.000000
vt 1.000000 1.000000
vt 0.000000 1.000000
vt 0.000000 0.000000
vt 1.000000 0.000000
vt 1.000000 1.000000
vt 0.000000 1.000000
vt 0.000000 0.000000
vt 1.000000 0.000000
vt 1.000000 1.000000
vt 0.000000 1.000000
vt 0.000000 0.000000
vt 1.000000 0.000000
vt 1.000000 1.000000
vt 0.000000 1.000000
vt 0.000000 0.000000
vt 1.000000 0.000000
vt 1.000000 1.000000
vt 0.000000 1.000000
vt 0.000000 0.000000
vt 1.000000 0.000000
vt 1.000000 1.000000
vt 0.000000 1.000000
vt 0.000000 0.000000
vt 1.000000 0.000000
vt 1.000000 1.000000
vt 0.000000 1.000000
vt 1.000000 0.500000
vt 0.933013 0.750000
vt 0.750000 0.933013
vt 0.500000 1.000000
vt 0.250000 0.933013
vt 0.066987 0.750000
vt 0.000000 0.500000
vt 0.066987 0.250000
vt 0.250000 0.066987
vt 0.500000 0.000000
vt 0.750000 0.066987
vt 0.933013 0.250000
vt 1.000000 0.500000
vt 0.933013 0.750000
vt 0.750000 0.933013
vt 0.500000 1.000000
vt 0.250000 0.933013
vt 0.066987 0.750000
vt 0.000000 0.500000
vt 0.066987 0.250000
vt 0.250000 0.066987
vt 0.500000 0.000000
vt 0.750000 0.066987
vt 0.933013 0.250000
vt 0.000000 0.000000
vt 1.000000 0.000000
vt 1.000000 1.000000
vt 0.000000 1.000000
vt 0.000000 0.000000
vt 1.000000 0.000000
vt 1.000000 1.000000
vt 0.000000 1.000000
vt 0.000000 0.000000
vt 1.000000 0.000000
vt 1.000000 1.000000
vt 0.000000 1.000000
vt 0.000000 0.000000
vt 1.000000 0.000000
vt 1.000000 1.000000
vt 0.000000 1.000000
vt 0.000000 0.000000
vt 1.000000 0.000000
vt 1.000000 1.000000
vt 0.000000 1.000000
vt 0.000000 0.000000
vt 1.000000 0.000000
vt 1.000000 1.000000
vt 0.000000 1.000000
vt 0.000000 0.000000
vt 1.000000 0.000000
vt 1.000000 1.000000
vt 0.000000 1.000000
vt 0.000000 0.000000
vt 1.000000 0.000000
vt 1.000000 1.000000
vt 0.000000 1.000000
vt 0.000000 0.000000
vt 1.000000 0.000000
vt 1.000000 1.000000
vt 0.000000 1.000000
vt 0.000000 0.000000
vt 1.000000 0.000000
vt 1.000000 1.000000
vt 0.000000 1.000000
vt 0.000000 0.000000
vt 1.000000 0.000000
vt 1.000000 1.000000
vt 0.000000 1.000000
vt 0.000000 0.000000
vt 1.000000 0.000000
vt 1.000000 1.000000
vt 0.000000 1.000000
vt 1.000000 0.500000
vt 0.933013 0.750000
vt 0.750000 0.933013
vt 0.500000 1.000000
vt 0.250000 0.933013
vt 0.066987 0.750000
vt 0.000000 0.500000
vt 0.066987 0.250000
vt 0.250000 0.066987
vt 0.500000 0.000000
vt 0.750000 0.066987
vt 0.933013 0.250000
vt 1.000000 0.500000
vt 0.933013 0.750000
vt 0.750000 0.933013
vt 0.500000 1.000000
vt 0.250000 0.933013
vt 0.066987 0.750000
vt 0.000000 0.500000
vt 0.066987 0.250000
vt 0.250000 0.066987
vt 0.500000 0.000000
vt 0.750000 0.066987
vt 0.933013 0.250000
vt 0.000000 0.000000
vt 1.000000 0.000000
vt 1.000000 1.000000
vt 0.000000 1.000000
vt 0.000000 0.000000
vt 1.000000 0.000000
vt 1.000000 1.000000
vt 0.000000 1.000000
vt 0.000000 0.000000
vt 1.000000 0.000000
vt 1.000000 1.000000
vt 0.000000 1.000000
vt 0.000000 0.000000
vt 1.000000 0.000000
vt 1.000000 1.000000
vt 0.000000 1.000000
vt 0.000000 0.000000
vt 1.000000 0.000000
vt 1.000000 1.000000
vt 0.000000 1.000000
vt 0.000000 0.000000
vt 1.000000 0.000000
vt 1.000000 1.000000
vt 0.000000 1.000000
vt 0.000000 0.000000
vt 1.000000 0.000000
vt 1.000000 1.000000
vt 0.000000 1.000000
vt 0.000000 0.000000
vt 1.000000 0.000000
vt 1.000000 1.000000
vt 0.000000 1.000000
vt 0.000000 0.000000
vt 1.000000 0.000000
vt 1.000000 1.000000
vt 0.000000 1.000000
vt 0.000000 0.000000
vt 1.000000 0.000000
vt 1.000000 1.000000
vt 0.000000 1.000000
vt 0.000000 0.000000
vt 1.000000 0.000000
vt 1.000000 1.000000
vt 0.000000 1.000000
vt 0.000000 0.000000
vt 1.000000 0.000000
vt 1.000000 1.000000
vt 0.000000 1.000000
vt 1.000000 0.500000
vt 0.933013 0.750000
vt 0.750000 0.933013
vt 0.500000 1.000000
vt 0.250000 0.933013
vt 0.066987 0.750000
vt 0.000000 0.500000
vt 0.066987 0.250000
vt 0.250000 0.066987
vt 0.500000 0.000000
vt 0.750000 0.066987
vt 0.933013 0.250000
vt 1.000000 0.500000
vt 0.933013 0.750000
vt 0.750000 0.933013
vt 0.500000 1.000000
vt 0.250000 0.933013
vt 0.066987 0.750000
vt 0.000000 0.500000
vt 0.066987 0.250000
vt 0.250000 0.066987
vt 0.500000 0.000000
vt 0.750000 0.066987
vt 0.933013 0.250000
vt 0.000000 0.000000
vt 1.000000 0.000000
vt 1.000000 1.000000
vt 0.000000 1.000000
vt 0.000000 0.000000
vt 1.000000 0.000000
vt 1.000000 1.000000
vt 0.000000 1.000000
vt 0.000000 0.000000
vt 1.000000 0.000000
vt 1.000000 1.000000
vt 0.000000 1.000000
vt 0.000000 0.000000
vt 1.000000 0.000000
vt 1.000000 1.000000
vt 0.000000 1.000000
vt 0.000000 0.000000
vt 1.000000 0.000000
vt 1.000000 1.000000
vt 0.000000 1.000000
vt 0.000000 0.000000
vt 1.000000 0.000000
vt 1.000000 1.000000
vt 0.000000 1.000000
vt 0.000000 0.000000
vt 1.000000 0.000000
vt 1.000000 1.000000
vt 0.000000 1.000000
vt 0.000000 0.000000
vt 1.000000 0.000000
vt 1.000000 1.000000
vt 0.000000 1.000000
vt 0.000000 0.000000
vt 1.000000 0.000000
vt 1.000000 1.000000
vt 0.000000 1.000000
vt 0.000000 0.000000
vt 1.000000 0.000000
vt 1.000000 1.000000
vt 0.000000 1.000000
vt 0.000000 0.000000
vt 1.000000 0.000000
vt 1.000000 1.000000
vt 0.000000 1.000000
vt 0.000000 0.000000
vt 1.000000 0.000000
vt 1.000000 1.000000
vt 0.000000 1.000000
vt 1.000000 0.500000
vt 0.933013 0.750000
vt 0.750000 0.933013
vt 0.500000 1.000000
vt 0.250000 0.933013
vt 0.066987 0.750000
vt 0.000000 0.500000
vt 0.066987 0.250000
vt 0.250000 0.066987
vt 0.500000 0.000000
vt 0.750000 0.066987
vt 0.933013 0.250000
vt 1.000000 0.500000
vt 0.933013 0.750000
vt 0.750000 0.933013
vt 0.500000 1.000000
vt 0.250000 0.933013
vt 0.066987 0.750000
vt 0.000000 0.500000
vt 0.066987 0.250000
vt 0.250000 0.066987
vt 0.500000 0.000000
vt 0.750000 0.066987
vt 0.933013 0.250000
vt 0.000000 0.000000
vt 1.000000 0.000000
vt 1.000000 1.000000
vt 0.000000 1.000000
vt 0.000000 0.000000
vt 1.000000 0.000000
vt 1.000000 1.000000
vt 0.000000 1.000000
vt 0.000000 0.000000
vt 1.000000 0.000000
vt 1.000000 1.000000
vt 0.000000 1.000000
vt 0.000000 0.000000
vt 1.000000 0.000000
vt 1.000000 1.000000
vt 0.000000 1.000000
vt 0.000000 0.000000
vt 1.000000 0.000000
vt 1.000000 1.000000
vt 0.000000 1.000000
vt 0.000000 0.000000
vt 1.000000 0.000000
vt 1.000000 1.000000
vt 0.000000 1.000000
vt 0.000000 0.000000
vt 1.000000 0.000000
vt 1.000000 1.000000
vt 0.000000 1.000000
vt 0.000000 0.000000
vt 1.000000 0.000000
vt 1.000000 1.000000
vt 0.000000 1.000000
vt 0.000000 0.000000
vt 1.000000 0.000000
vt 1.000000 1.000000
vt 0.000000 1.000000
vt 0.000000 0.000000
vt 1.000000 0.000000
vt 1.000000 1.000000
vt 0.000000 1.000000
vt 0.000000 0.000000
vt 1.000000 0.000000
vt 1.000000 1.000000
vt 0.000000 1.000000
vt 0.000000 0.000000
vt 1.000000 0.000000
vt 1.000000 1.000000
vt 0.000000 1.000000
vt 1.000000 0.500000
vt 0.933013 0.750000
vt 0.750000 0.933013
vt 0.500000 1.000000
vt 0.250000 0.933013
vt 0.066987 0.750000
vt 0.000000 0.500000
vt 0.066987 0.250000
vt 0.250000 0.066987
vt 0.500000 0.000000
vt 0.750000 0.066987
vt 0.933013 0.250000
vt 1.000000 0.500000
vt 0.933013 0.750000
vt 0.750000 0.933013
vt 0.500000 1.000000
vt 0.250000 0.933013
vt 0.066987 0.750000
vt 0.000000 0.500000
vt 0.066987 0.250000
vt 0.250000 0.066987
vt 0.500000 0.000000
vt 0.750000 0.066987
vt 0.933013 0.250000
vt 0.000000 0.000000
vt 1.000000 0.000000
vt 1.000000 1.000000
vt 0.000000 1.000000
vt 0.000000 0.000000
vt 1.000000 0.000000
vt 1.000000 1.000000
vt 0.000000 1.000000
vt 0.000000 0.000000
vt 1.000000 0.000000
vt 1.000000 1.000000
vt 0.000000 1.000000
vt 0.000000 0.000000
vt 1.000000 0.000000
vt 1.000000 1.000000
vt 0.000000 1.000000
vt 0.000000 0.000000
vt 1.000000 0.000000
vt 1.000000 1.000000
vt 0.000000 1.000000
vt 0.000000 0.000000
vt 1.000000 0.000000
vt 1.000000 1.000000
vt 0.000000 1.000000
vt 0.000000 0.000000
vt 1.000000 0.000000
vt 1.000000 1.000000
vt 0.000000 1.000000
vt 0.000000 0.000000
vt 1.000000 0.000000
vt 1.000000 1.000000
vt 0.000000 1.000000
vt 0.000000 0.000000
vt 1.000000 0.000000
vt 1.000000 1.000000
vt 0.000000 1.000000
vt 0.000000 0.000000
vt 1.000000 0.000000
vt 1.000000 1.000000
vt 0.000000 1.000000
vt 0.000000 0.000000
vt 1.000000 0.000000
vt 1.000000 1.000000
vt 0.000000 1.000000
vt 0.000000 0.000000
vt 1.000000 0.000000
vt 1.000000 1.000000
vt 0.000000 1.000000
vt 1.000000 0.500000
vt 0.933013 0.750000
vt 0.750000 0.933013
vt 0.500000 1.000000
vt 0.250000 0.933013
vt 0.066987 0.750000
vt 0.000000 0.500000
vt 0.066987 0.250000
vt 0.250000 0.066987
vt 0.500000 0.000000
vt 0.750000 0.066987
vt 0.933013 0.250000
vt 1.000000 0.500000
vt 0.933013 0.750000
vt 0.750000 0.933013
vt 0.500000 1.000000
vt 0.250000 0.933013
vt 0.066987 0.750000
vt 0.000000 0.500000
vt 0.066987 0.250000
vt 0.250000 0.066987
vt 0.500000 0.000000
vt 0.750000 0.066987
vt 0.933013 0.250000
vt 0.000000 0.000000
vt 1.000000 0.000000
vt 1.000000 1.000000
vt 0.000000 1.000000
vt 0.000000 0.000000
vt 1.000000 0.000000
vt 1.000000 1.000000
vt 0.000000 1.000000
vt 0.000000 0.000000
vt 1.000000 0.000000
vt 1.000000 1.000000
vt 0.000000 1.000000
vt 0.000000 0.000000
vt 1.000000 0.000000
vt 1.000000 1.000000
vt 0.000000 1.000000
vt 0.000000 0.000000
vt 1.000000 0.000000
vt 1.000000 1.000000
vt 0.000000 1.000000
vt 0.000000 0.000000
vt 1.000000 0.000000
vt 1.000000 1.000000
vt 0.000000 1.000000
vt 0.000000 0.000000
vt 1.000000 0.000000
vt 1.000000 1.000000
vt 0.000000 1.000000
vt 0.000000 0.000000
vt 1.000000 0.000000
vt 1.000000 1.000000
vt 0.000000 1.000000
vt 0.000000 0.000000
vt 1.000000 0.000000
vt 1.000000 1.000000
vt 0.000000 1.000000
vt 0.000000 0.000000
vt 1.000000 0.000000
vt 1.000000 1.000000
vt 0.000000 1.000000
vt 0.000000 0.000000
vt 1.000000 0.000000
vt 1.000000 1.000000
vt 0.000000 1.000000
vt 0.000000 0.000000
vt 1.000000 0.000000
vt 1.000000 1.000000
vt 0.000000 1.000000
vt 0.000000 0.000000
vt 1.000000 0.000000
vt 1.000000 1.000000
vt 0.000000 1.000000
vt 0.000000 0.000000
vt 1.000000 0.000000
vt 1.000000 1.000000
vt 0.000000 1.000000
vt 0.000000 0.000000
vt 1.000000 0.000000
vt 1.000000 1.000000
vt 0.000000 1.000000
vt 0.000000 0.000000
vt 1.000000 0.000000
vt 1.000000 1.000000
vt 0.000000 1.000000
vt 0.000000 0.000000
vt 1.000000 0.000000
vt 1.000000 1.000000
vt 0.000000 1.000000
vt 0.000000 0.000000
vt 1.000000 0.000000
vt 1.000000 1.000000
vt 0.000000 1.000000
vt 0.000000 0.000000
vt 1.000000 0.000000
vt 1.000000 1.000000
vt 0.000000 1.000000
vt 0.000000 0.000000
vt 1.000000 0.000000
vt 1.000000 1.000000
vt 0.000000 1.000000
vt 0.000000 0.000000
vt 1.000000 0.000000
vt 1.000000 1.000000
vt 0.000000 1.000000
vt 0.000000 0.000000
vt 1.000000 0.000000
vt 1.000000 1.000000
vt 0.000000 1.000000
vt 0.000000 0.000000
vt 1.000000 0.000000
vt 1.000000 1.000000
vt 0.000000 1.000000
vt 0.000000 0.000000
vt 1.000000 0.000000
vt 1.000000 1.000000
vt 0.000000 1.000000
vt 0.000000 0.000000
vt 1.000000 0.000000
vt 1.000000 1.000000
vt 0.000000 1.000000
vt 0.000000 0.000000
vt 1.000000 0.000000
vt 1.000000 1.000000
vt 0.000000 1.000000
vt 0.000000 0.000000
vt 1.000000 0.000000
vt 1.000000 1.000000
vt 0.000000 1.000000
vt 0.000000 0.000000
vt 1.000000 0.000000
vt 1.000000 1.000000
vt 0.000000 1.000000
vt 0.000000 0.000000
vt 1.000000 0.000000
vt 1.000000 1.000000
vt 0.000000 1.000000
vt 0.000000 0.000000
vt 1.000000 0.000000
vt 1.000000 1.000000
vt 0.000000 1.000000
vt 0.000000 0.000000
vt 1.000000 0.000000
vt 1.000000 1.000000
vt 0.000000 1.000000
vt 0.000000 0.000000
vt 1.000000 0.000000
vt 1.000000 1.000000
vt 0.000000 1.000000
vt 0.000000 0.000000
vt 1.000000 0.000000
vt 1.000000 1.000000
vt 0.000000 1.000000
vt 0.000000 0.000000
vt 1.000000 0.000000
vt 1.000000 1.000000
vt 0.000000 1.000000
vt 0.000000 0.000000
vt 1.000000 0.000000
vt 1.000000 1.000000
vt 0.000000 1.000000
vt 0.000000 0.000000
vt 1.000000 0.000000
vt 1.000000 1.000000
vt 0.000000 1.000000
vt 0.000000 0.000000
vt 1.000000 0.000000
vt 1.000000 1.000000
vt 0.000000 1.000000
vt 0.000000 0.000000
vt 1.000000 0.000000
vt 1.000000 1.000000
vt 0.000000 1.000000
vt 0.000000 0.000000
vt 1.000000 0.000000
vt 1.000000 1.000000
vt 0.000000 1.000000
vt 0.000000 0.000000
vt 1.000000 0.000000
vt 1.000000 1.000000
vt 0.000000 1.000000
vt 0.000000 0.000000
vt 1.000000 0.000000
vt 1.000000 1.000000
vt 0.000000 1.000000
vt 0.000000 0.000000
vt 1.000000 0.000000
vt 1.000000 1.000000
vt 0.000000 1.000000
vt 0.000000 0.000000
vt 1.000000 0.000000
vt 1.000000 1.000000
vt 0.000000 1.000000
vt 0.000000 0.000000
vt 1.000000 0.000000
vt 1.000000 1.000000
vt 0.000000 1.000000
vt 0.000000 0.000000
vt 1.000000 0.000000
vt 1.000000 1.000000
vt 0.000000 1.000000
vt 0.000000 0.000000
vt 1.000000 0.000000
vt 1.000000 1.000000
vt 0.000000 1.000000
vt 0.000000 0.000000
vt 1.000000 0.000000
vt 1.000000 1.000000
vt 0.000000 1.000000
vt 0.000000 0.000000
vt 1.000000 0.000000
vt 1.000000 1.000000
vt 0.000000 1.000000
vn 0.000000 0.000000 1.000000
vn 0.000000 0.000000 -1.000000
vn 1.000000 0.000000 0.000000
vn -1.000000 0.000000 0.000000
vn 0.000000 -1.000000 0.000000
vn -0.000000 1.000000 0.000000
vn 0.000000 0.000000 1.000000
vn 0.000000 0.000000 -1.000000
vn 1.000000 0.000000 0.000000
vn -1.000000 0.000000 0.000000
vn 0.000000 -1.000000 0.000000
vn -0.000000 1.000000 0.000000
vn -0.974928 0.000000 -0.222521
vn -0.781831 0.000000 -0.623490
vn -0.433884 0.000000 -0.900969
vn 0.000000 0.000000 -1.000000
vn 0.433884 0.000000 -0.900969
vn 0.781831 0.000000 -0.623490
vn 0.974928 0.000000 -0.222521
vn 0.974928 0.000000 0.222521
vn 0.781831 0.000000 0.623490
vn 0.433884 0.000000 0.900969
vn 0.000000 0.000000 1.000000
vn -0.433884 0.000000 0.900969
vn -0.781831 0.000000 0.623490
vn -0.974928 0.000000 0.222521
vn 0.000000 1.000000 0.000000
vn 0.000000 -1.000000 0.000000
vn -0.974928 0.000000 -0.222521
vn -0.781831 0.000000 -0.623490
vn -0.433884 0.000000 -0.900969
vn 0.000000 0.000000 -1.000000
vn 0.433884 0.000000 -0.900969
vn 0.781831 0.000000 -0.623490
vn 0.974928 0.000000 -0.222521
vn 0.974928 0.000000 0.222521
vn 0.781831 0.000000 0.623490
vn 0.433884 0.000000 0.900969
vn 0.000000 0.000000 1.000000
vn -0.433884 0.000000 0.900969
vn -0.781831 0.000000 0.623490
vn -0.974928 0.000000 0.222521
vn 0.000000 1.000000 0.000000
vn 0.000000 -1.000000 0.000000
vn -0.974928 0.000000 -0.222521
vn -0.781831 0.000000 -0.623490
vn -0.433884 0.000000 -0.900969
vn 0.000000 0.000000 -1.000000
vn 0.433884 0.000000 -0.900969
vn 0.781831 0.000000 -0.623490
vn 0.974928 0.000000 -0.222521
vn 0.974928 0.000000 0.222521
vn 0.781831 0.000000 0.623490
vn 0.433884 0.000000 0.900969
vn 0.000000 0.000000 1.000000
vn -0.433884 0.000000 0.900969
vn -0.781831 0.000000 0.623490
vn -0.974928 0.000000 0.222521
vn 0.000000 1.000000 0.000000
vn 0.000000 -1.000000 0.000000
vn -0.974928 0.000000 -0.222521
vn -0.781831 0.000000 -0.623490
vn -0.433884 0.000000 -0.900969
vn 0.000000 0.000000 -1.000000
vn 0.433884 0.000000 -0.900969
vn 0.781831 0.000000 -0.623490
vn 0.974928 0.000000 -0.222521
vn 0.974928 0.000000 0.222521
vn 0.781831 0.000000 0.623490
vn 0.433884 0.000000 0.900969
vn 0.000000 0.000000 1.000000
vn -0.433884 0.000000 0.900969
vn -0.781831 0.000000 0.623490
vn -0.974928 0.000000 0.222521
vn 0.000000 1.000000 0.000000
vn 0.000000 -1.000000 0.000000
vn 0.000000 0.000000 1.000000
vn 0.000000 0.000000 -1.000000
vn 1.000000 0.000000 0.000000
vn -1.000000 0.000000 0.000000
vn 0.000000 -1.000000 0.000000
vn -0.000000 1.000000 0.000000
vn 0.000000 0.000000 1.000000
vn 0.000000 0.000000 -1.000000
vn 1.000000 0.000000 0.000000
vn -1.000000 0.000000 0.000000
vn 0.000000 -1.000000 0.000000
vn -0.000000 1.000000 0.000000
vn -0.965926 0.000000 -0.258819
vn -0.707107 0.000000 -0.707107
vn -0.258819 0.000000 -0.965926
vn 0.258819 0.000000 -0.965926
vn 0.707107 0.000000 -0.707107
vn 0.965926 0.000000 -0.258819
vn 0.965926 0.000000 0.258819
vn 0.707107 0.000000 0.707107
vn 0.258819 0.000000 0.965926
vn -0.258819 0.000000 0.965926
vn -0.707107 0.000000 0.707107
vn -0.965926 0.000000 0.258819
vn 0.000000 1.000000 0.000000
vn 0.000000 -1.000000 0.000000
vn -0.965926 0.000000 -0.258819
vn -0.707107 0.000000 -0.707107
vn -0.258819 0.000000 -0.965926
vn 0.258819 0.000000 -0.965926
vn 0.707107 0.000000 -0.707107
vn 0.965926 0.000000 -0.258819
vn 0.965926 0.000000 0.258819
vn 0.707107 0.000000 0.707107
vn 0.258819 0.000000 0.965926
vn -0.258819 0.000000 0.965926
vn -0.707107 0.000000 0.707107
vn -0.965926 0.000000 0.258819
vn 0.000000 1.000000 0.000000
vn 0.000000 -1.000000 0.000000
vn -0.965926 0.000000 -0.258819
vn -0.707107 0.000000 -0.707107
vn -0.258819 0.000000 -0.965926
vn 0.258819 0.000000 -0.965926
vn 0.707107 0.000000 -0.707107
vn 0.965926 0.000000 -0.258819
vn 0.965926 0.000000 0.258819
vn 0.707107 0.000000 0.707107
vn 0.258819 0.000000 0.965926
vn -0.258819 0.000000 0.965926
vn -0.707107 0.000000 0.707107
vn -0.965926 0.000000 0.258819
vn 0.000000 1.000000 0.000000
vn 0.000000 -1.000000 0.000000
vn -0.965926 0.000000 -0.258819
vn -0.707107 0.000000 -0.707107
vn -0.258819 0.000000 -0.965926
vn 0.258819 0.000000 -0.965926
vn 0.707107 0.000000 -0.707107
vn 0.965926 0.000000 -0.258819
vn 0.965926 0.000000 0.258819
vn 0.707107 0.000000 0.707107
vn 0.258819 0.000000 0.965926
vn -0.258819 0.000000 0.965926
vn -0.707107 0.000000 0.707107
vn -0.965926 0.000000 0.258819
vn 0.000000 1.000000 0.000000
vn 0.000000 -1.000000 0.000000
vn 0.000000 -0.258819 0.965926
vn 0.000000 -0.707107 0.707107
vn 0.000000 -0.965926 0.258819
vn 0.000000 -0.965926 -0.258819
vn 0.000000 -0.707107 -0.707107
vn 0.000000 -0.258819 -0.965926
vn 0.000000 0.258819 -0.965926
vn 0.000000 0.707107 -0.707107
vn 0.000000 0.965926 -0.258819
vn 0.000000 0.965926 0.258819
vn 0.000000 0.707107 0.707107
vn 0.000000 0.258819 0.965926
vn -1.000000 0.000000 0.000000
vn 1.000000 0.000000 0.000000
vn 0.000000 -0.258819 0.965926
vn 0.000000 -0.707107 0.707107
vn 0.000000 -0.965926 0.258819
vn 0.000000 -0.965926 -0.258819
vn 0.000000 -0.707107 -0.707107
vn 0.000000 -0.258819 -0.965926
vn 0.000000 0.258819 -0.965926
vn 0.000000 0.707107 -0.707107
vn 0.000000 0.965926 -0.258819
vn 0.000000 0.965926 0.258819
vn 0.000000 0.707107 0.707107
vn 0.000000 0.258819 0.965926
vn -1.000000 0.000000 0.000000
vn 1.000000 0.000000 0.000000
vn 0.000000 0.000000 1.000000
vn 0.000000 0.000000 -1.000000
vn 1.000000 0.000000 0.000000
vn -1.000000 0.000000 0.000000
vn 0.000000 -1.000000 0.000000
vn -0.000000 1.000000 0.000000
vn 0.000000 0.000000 1.000000
vn 0.000000 0.000000 -1.000000
vn 1.000000 0.000000 0.000000
vn -1.000000 0.000000 0.000000
vn 0.000000 -1.000000 0.000000
vn -0.000000 1.000000 0.000000
vn 0.000000 0.000000 1.000000
vn 0.000000 0.000000 -1.000000
vn 1.000000 0.000000 0.000000
vn -1.000000 0.000000 0.000000
vn 0.000000 -1.000000 0.000000
vn -0.000000 1.000000 0.000000
vn 0.000000 0.000000 1.000000
vn 0.000000 0.000000 -1.000000
vn 1.000000 0.000000 0.000000
vn -1.000000 0.000000 0.000000
vn 0.000000 -1.000000 0.000000
vn -0.000000 1.000000 0.000000
vn 0.000000 0.000000 1.000000
vn 0.000000 0.000000 -1.000000
vn 1.000000 0.000000 0.000000
vn -1.000000 0.000000 0.000000
vn 0.000000 -1.000000 0.000000
vn -0.000000 1.000000 0.000000
vn 0.000000 0.000000 1.000000
vn 0.000000 0.000000 -1.000000
vn 1.000000 0.000000 0.000000
vn -1.000000 0.000000 0.000000
vn 0.000000 -1.000000 0.000000
vn -0.000000 1.000000 0.000000
vn 0.000000 0.000000 1.000000
vn 0.000000 0.000000 -1.000000
vn 1.000000 0.000000 0.000000
vn -1.000000 0.000000 0.000000
vn 0.000000 -1.000000 0.000000
vn -0.000000 1.000000 0.000000
vn 0.000000 0.000000 1.000000
vn 0.000000 0.000000 -1.000000
vn 1.000000 0.000000 0.000000
vn -1.000000 0.000000 0.000000
vn 0.000000 -1.000000 0.000000
vn -0.000000 1.000000 0.000000
usemtl strap_red
f 1/1/1 2/2/1 3/3/1 4/4/1
f 6/5/2 5/6/2 8/7/2 7/8/2
f 5/9/3 1/10/3 4/11/3 8/12/3
f 2/13/4 6/14/4 7/15/4 3/16/4
f 4/17/5 3/18/5 7/19/5 8/20/5
f 5/21/6 6/22/6 2/23/6 1/24/6
f 9/25/7 10/26/7 11/27/7 12/28/7
f 14/29/8 13/30/8 16/31/8 15/32/8
f 13/33/9 9/34/9 12/35/9 16/36/9
f 10/37/10 14/38/10 15/39/10 11/40/10
f 12/41/11 11/42/11 15/43/11 16/44/11
f 13/45/12 14/46/12 10/47/12 9/48/12
f 17/49/13 19/50/13 20/51/13 18/52/13
f 19/53/14 21/54/14 22/55/14 20/56/14
f 21/57/15 23/58/15 24/59/15 22/60/15
f 23/61/16 25/62/16 26/63/16 24/64/16
f 25/65/17 27/66/17 28/67/17 26/68/17
f 27/69/18 29/70/18 30/71/18 28/72/18
f 29/73/19 31/74/19 32/75/19 30/76/19
f 31/77/20 33/78/20 34/79/20 32/80/20
f 33/81/21 35/82/21 36/83/21 34/84/21
f 35/85/22 37/86/22 38/87/22 36/88/22
f 37/89/23 39/90/23 40/91/23 38/92/23
f 39/93/24 41/94/24 42/95/24 40/96/24
f 41/97/25 43/98/25 44/99/25 42/100/25
f 43/101/26 17/102/26 18/103/26 44/104/26
f 43/105/27 41/106/27 39/107/27 37/108/27 35/109/27 33/110/27 31/111/27 29/112/27 27/113/27 25/114/27 23/115/27 21/116/27 19/117/27 17/118/27
f 18/119/28 20/120/28 22/121/28 24/122/28 26/123/28 28/124/28 30/125/28 32/126/28 34/127/28 36/128/28 38/129/28 40/130/28 42/131/28 44/132/28
f 45/133/29 47/134/29 48/135/29 46/136/29
f 47/137/30 49/138/30 50/139/30 48/140/30
f 49/141/31 51/142/31 52/143/31 50/144/31
f 51/145/32 53/146/32 54/147/32 52/148/32
f 53/149/33 55/150/33 56/151/33 54/152/33
f 55/153/34 57/154/34 58/155/34 56/156/34
f 57/157/35 59/158/35 60/159/35 58/160/35
f 59/161/36 61/162/36 62/163/36 60/164/36
f 61/165/37 63/166/37 64/167/37 62/168/37
f 63/169/38 65/170/38 66/171/38 64/172/38
f 65/173/39 67/174/39 68/175/39 66/176/39
f 67/177/40 69/178/40 70/179/40 68/180/40
f 69/181/41 71/182/41 72/183/41 70/184/41
f 71/185/42 45/186/42 46/187/42 72/188/42
f 71/189/43 69/190/43 67/191/43 65/192/43 63/193/43 61/194/43 59/195/43 57/196/43 55/197/43 53/198/43 51/199/43 49/200/43 47/201/43 45/202/43
f 46/203/44 48/204/44 50/205/44 52/206/44 54/207/44 56/208/44 58/209/44 60/210/44 62/211/44 64/212/44 66/213/44 68/214/44 70/215/44 72/216/44
f 73/217/45 75/218/45 76/219/45 74/220/45
f 75/221/46 77/222/46 78/223/46 76/224/46
f 77/225/47 79/226/47 80/227/47 78/228/47
f 79/229/48 81/230/48 82/231/48 80/232/48
f 81/233/49 83/234/49 84/235/49 82/236/49
f 83/237/50 85/238/50 86/239/50 84/240/50
f 85/241/51 87/242/51 88/243/51 86/244/51
f 87/245/52 89/246/52 90/247/52 88/248/52
f 89/249/53 91/250/53 92/251/53 90/252/53
f 91/253/54 93/254/54 94/255/54 92/256/54
f 93/257/55 95/258/55 96/259/55 94/260/55
f 95/261/56 97/262/56 98/263/56 96/264/56
f 97/265/57 99/266/57 100/267/57 98/268/57
f 99/269/58 73/270/58 74/271/58 100/272/58
f 99/273/59 97/274/59 95/275/59 93/276/59 91/277/59 89/278/59 87/279/59 85/280/59 83/281/59 81/282/59 79/283/59 77/284/59 75/285/59 73/286/59
f 74/287/60 76/288/60 78/289/60 80/290/60 82/291/60 84/292/60 86/293/60 88/294/60 90/295/60 92/296/60 94/297/60 96/298/60 98/299/60 100/300/60
f 101/301/61 103/302/61 104/303/61 102/304/61
f 103/305/62 105/306/62 106/307/62 104/308/62
f 105/309/63 107/310/63 108/311/63 106/312/63
f 107/313/64 109/314/64 110/315/64 108/316/64
f 109/317/65 111/318/65 112/319/65 110/320/65
f 111/321/66 113/322/66 114/323/66 112/324/66
f 113/325/67 115/326/67 116/327/67 114/328/67
f 115/329/68 117/330/68 118/331/68 116/332/68
f 117/333/69 119/334/69 120/335/69 118/336/69
f 119/337/70 121/338/70 122/339/70 120/340/70
f 121/341/71 123/342/71 124/343/71 122/344/71
f 123/345/72 125/346/72 126/347/72 124/348/72
f 125/349/73 127/350/73 128/351/73 126/352/73
f 127/353/74 101/354/74 102/355/74 128/356/74
f 127/357/75 125/358/75 123/359/75 121/360/75 119/361/75 117/362/75 115/363/75 113/364/75 111/365/75 109/366/75 107/367/75 105/368/75 103/369/75 101/370/75
f 102/371/76 104/372/76 106/373/76 108/374/76 110/375/76 112/376/76 114/377/76 116/378/76 118/379/76 120/380/76 122/381/76 124/382/76 126/383/76 128/384/76
f 129/385/77 130/386/77 131/387/77 132/388/77
f 134/389/78 133/390/78 136/391/78 135/392/78
f 133/393/79 129/394/79 132/395/79 136/396/79
f 130/397/80 134/398/80 135/399/80 131/400/80
f 132/401/81 131/402/81 135/403/81 136/404/81
f 133/405/82 134/406/82 130/407/82 129/408/82
f 137/409/83 138/410/83 139/411/83 140/412/83
f 142/413/84 141/414/84 144/415/84 143/416/84
f 141/417/85 137/418/85 140/419/85 144/420/85
f 138/421/86 142/422/86 143/423/86 139/424/86
f 140/425/87 139/426/87 143/427/87 144/428/87
f 141/429/88 142/430/88 138/431/88 137/432/88
f 145/433/89 147/434/89 148/435/89 146/436/89
f 147/437/90 149/438/90 150/439/90 148/440/90
f 149/441/91 151/442/91 152/443/91 150/444/91
f 151/445/92 153/446/92 154/447/92 152/448/92
f 153/449/93 155/450/93 156/451/93 154/452/93
f 155/453/94 157/454/94 158/455/94 156/456/94
f 157/457/95 159/458/95 160/459/95 158/460/95
f 159/461/96 161/462/96 162/463/96 160/464/96
f 161/465/97 163/466/97 164/467/97 162/468/97
f 163/469/98 165/470/98 166/471/98 164/472/98
f 165/473/99 167/474/99 168/475/99 166/476/99
f 167/477/100 145/478/100 146/479/100 168/480/100
f 167/481/101 165/482/101 163/483/101 161/484/101 159/485/101 157/486/101 155/487/101 153/488/101 151/489/101 149/490/101 147/491/101 145/492/101
f 146/493/102 148/494/102 150/495/102 152/496/102 154/497/102 156/498/102 158/499/102 160/500/102 162/501/102 164/502/102 166/503/102 168/504/102
f 169/505/103 171/506/103 172/507/103 170/508/103
f 171/509/104 173/510/104 174/511/104 172/512/104
f 173/513/105 175/514/105 176/515/105 174/516/105
f 175/517/106 177/518/106 178/519/106 176/520/106
f 177/521/107 179/522/107 180/523/107 178/524/107
f 179/525/108 181/526/108 182/527/108 180/528/108
f 181/529/109 183/530/109 184/531/109 182/532/109
f 183/533/110 185/534/110 186/535/110 184/536/110
f 185/537/111 187/538/111 188/539/111 186/540/111
f 187/541/112 189/542/112 190/543/112 188/544/112
f 189/545/113 191/546/113 192/547/113 190/548/113
f 191/549/114 169/550/114 170/551/114 192/552/114
f 191/553/115 189/554/115 187/555/115 185/556/115 183/557/115 181/558/115 179/559/115 177/560/115 175/561/115 173/562/115 171/563/115 169/564/115
f 170/565/116 172/566/116 174/567/116 176/568/116 178/569/116 180/570/116 182/571/116 184/572/116 186/573/116 188/574/116 190/575/116 192/576/116
f 193/577/117 195/578/117 196/579/117 194/580/117
f 195/581/118 197/582/118 198/583/118 196/584/118
f 197/585/119 199/586/119 200/587/119 198/588/119
f 199/589/120 201/590/120 202/591/120 200/592/120
f 201/593/121 203/594/121 204/595/121 202/596/121
f 203/597/122 205/598/122 206/599/122 204/600/122
f 205/601/123 207/602/123 208/603/123 206/604/123
f 207/605/124 209/606/124 210/607/124 208/608/124
f 209/609/125 211/610/125 212/611/125 210/612/125
f 211/613/126 213/614/126 214/615/126 212/616/126
f 213/617/127 215/618/127 216/619/127 214/620/127
f 215/621/128 193/622/128 194/623/128 216/624/128
f 215/625/129 213/626/129 211/627/129 209/628/129 207/629/129 205/630/129 203/631/129 201/632/129 199/633/129 197/634/129 195/635/129 193/636/129
f 194/637/130 196/638/130 198/639/130 200/640/130 202/641/130 204/642/130 206/643/130 208/644/130 210/645/130 212/646/130 214/647/130 216/648/130
f 217/649/131 219/650/131 220/651/131 218/652/131
f 219/653/132 221/654/132 222/655/132 220/656/132
f 221/657/133 223/658/133 224/659/133 222/660/133
f 223/661/134 225/662/134 226/663/134 224/664/134
f 225/665/135 227/666/135 228/667/135 226/668/135
f 227/669/136 229/670/136 230/671/136 228/672/136
f 229/673/137 231/674/137 232/675/137 230/676/137
f 231/677/138 233/678/138 234/679/138 232/680/138
f 233/681/139 235/682/139 236/683/139 234/684/139
f 235/685/140 237/686/140 238/687/140 236/688/140
f 237/689/141 239/690/141 240/691/141 238/692/141
f 239/693/142 217/694/142 218/695/142 240/696/142
f 239/697/143 237/698/143 235/699/143 233/700/143 231/701/143 229/702/143 227/703/143 225/704/143 223/705/143 221/706/143 219/707/143 217/708/143
f 218/709/144 220/710/144 222/711/144 224/712/144 226/713/144 228/714/144 230/715/144 232/716/144 234/717/144 236/718/144 238/719/144 240/720/144
usemtl dark_rubber
f 241/721/145 243/722/145 244/723/145 242/724/145
f 243/725/146 245/726/146 246/727/146 244/728/146
f 245/729/147 247/730/147 248/731/147 246/732/147
f 247/733/148 249/734/148 250/735/148 248/736/148
f 249/737/149 251/738/149 252/739/149 250/740/149
f 251/741/150 253/742/150 254/743/150 252/744/150
f 253/745/151 255/746/151 256/747/151 254/748/151
f 255/749/152 257/750/152 258/751/152 256/752/152
f 257/753/153 259/754/153 260/755/153 258/756/153
f 259/757/154 261/758/154 262/759/154 260/760/154
f 261/761/155 263/762/155 264/763/155 262/764/155
f 263/765/156 241/766/156 242/767/156 264/768/156
f 263/769/157 261/770/157 259/771/157 257/772/157 255/773/157 253/774/157 251/775/157 249/776/157 247/777/157 245/778/157 243/779/157 241/780/157
f 242/781/158 244/782/158 246/783/158 248/784/158 250/785/158 252/786/158 254/787/158 256/788/158 258/789/158 260/790/158 262/791/158 264/792/158
f 265/793/159 267/794/159 268/795/159 266/796/159
f 267/797/160 269/798/160 270/799/160 268/800/160
f 269/801/161 271/802/161 272/803/161 270/804/161
f 271/805/162 273/806/162 274/807/162 272/808/162
f 273/809/163 275/810/163 276/811/163 274/812/163
f 275/813/164 277/814/164 278/815/164 276/816/164
f 277/817/165 279/818/165 280/819/165 278/820/165
f 279/821/166 281/822/166 282/823/166 280/824/166
f 281/825/167 283/826/167 284/827/167 282/828/167
f 283/829/168 285/830/168 286/831/168 284/832/168
f 285/833/169 287/834/169 288/835/169 286/836/169
f 287/837/170 265/838/170 266/839/170 288/840/170
f 287/841/171 285/842/171 283/843/171 281/844/171 279/845/171 277/846/171 275/847/171 273/848/171 271/849/171 269/850/171 267/851/171 265/852/171
f 266/853/172 268/854/172 270/855/172 272/856/172 274/857/172 276/858/172 278/859/172 280/860/172 282/861/172 284/862/172 286/863/172 288/864/172
f 289/865/173 290/866/173 291/867/173 292/868/173
f 294/869/174 293/870/174 296/871/174 295/872/174
f 293/873/175 289/874/175 292/875/175 296/876/175
f 290/877/176 294/878/176 295/879/176 291/880/176
f 292/881/177 291/882/177 295/883/177 296/884/177
f 293/885/178 294/886/178 290/887/178 289/888/178
f 297/889/179 298/890/179 299/891/179 300/892/179
f 302/893/180 301/894/180 304/895/180 303/896/180
f 301/897/181 297/898/181 300/899/181 304/900/181
f 298/901/182 302/902/182 303/903/182 299/904/182
f 300/905/183 299/906/183 303/907/183 304/908/183
f 301/909/184 302/910/184 298/911/184 297/912/184
usemtl soft_white
f 305/913/185 306/914/185 307/915/185 308/916/185
f 310/917/186 309/918/186 312/919/186 311/920/186
f 309/921/187 305/922/187 308/923/187 312/924/187
f 306/925/188 310/926/188 311/927/188 307/928/188
f 308/929/189 307/930/189 311/931/189 312/932/189
f 309/933/190 310/934/190 306/935/190 305/936/190
f 313/937/191 314/938/191 315/939/191 316/940/191
f 318/941/192 317/942/192 320/943/192 319/944/192
f 317/945/193 313/946/193 316/947/193 320/948/193
f 314/949/194 318/950/194 319/951/194 315/952/194
f 316/953/195 315/954/195 319/955/195 320/956/195
f 317/957/196 318/958/196 314/959/196 313/960/196
usemtl paper_label
f 321/961/197 322/962/197 323/963/197 324/964/197
f 326/965/198 325/966/198 328/967/198 327/968/198
f 325/969/199 321/970/199 324/971/199 328/972/199
f 322/973/200 326/974/200 327/975/200 323/976/200
f 324/977/201 323/978/201 327/979/201 328/980/201
f 325/981/202 326/982/202 322/983/202 321/984/202
usemtl label_yellow
f 329/985/203 330/986/203 331/987/203 332/988/203
f 334/989/204 333/990/204 336/991/204 335/992/204
f 333/993/205 329/994/205 332/995/205 336/996/205
f 330/997/206 334/998/206 335/999/206 331/1000/206
f 332/1001/207 331/1002/207 335/1003/207 336/1004/207
f 333/1005/208 334/1006/208 330/1007/208 329/1008/208
usemtl dried_wear
f 337/1009/209 338/1010/209 339/1011/209 340/1012/209
f 342/1013/210 341/1014/210 344/1015/210 343/1016/210
f 341/1017/211 337/1018/211 340/1019/211 344/1020/211
f 338/1021/212 342/1022/212 343/1023/212 339/1024/212
f 340/1025/213 339/1026/213 343/1027/213 344/1028/213
f 341/1029/214 342/1030/214 338/1031/214 337/1032/214
usemtl tape_white
f 345/1033/215 346/1034/215 347/1035/215 348/1036/215
f 350/1037/216 349/1038/216 352/1039/216 351/1040/216
f 349/1041/217 345/1042/217 348/1043/217 352/1044/217
f 346/1045/218 350/1046/218 351/1047/218 347/1048/218
f 348/1049/219 347/1050/219 351/1051/219 352/1052/219
f 349/1053/220 350/1054/220 346/1055/220 345/1056/220
