# Generated by tools/generate_ambulance_proxy_meshes.py
mtllib ambulance_proxy_materials.mtl
o ambulance_medical_cabinet
v -0.850000 -0.810000 -0.260000
v 0.850000 -0.810000 -0.260000
v 0.850000 0.810000 -0.260000
v -0.850000 0.810000 -0.260000
v -0.850000 -0.810000 0.260000
v 0.850000 -0.810000 0.260000
v 0.850000 0.810000 0.260000
v -0.850000 0.810000 0.260000
v -0.810000 -0.720000 -0.322500
v -0.050000 -0.720000 -0.322500
v -0.050000 0.760000 -0.322500
v -0.810000 0.760000 -0.322500
v -0.810000 -0.720000 -0.277500
v -0.050000 -0.720000 -0.277500
v -0.050000 0.760000 -0.277500
v -0.810000 0.760000 -0.277500
v -0.197500 -0.440000 -0.365000
v -0.162500 -0.440000 -0.365000
v -0.162500 0.480000 -0.365000
v -0.197500 0.480000 -0.365000
v -0.197500 -0.440000 -0.315000
v -0.162500 -0.440000 -0.315000
v -0.162500 0.480000 -0.315000
v -0.197500 0.480000 -0.315000
v -0.720000 0.380000 -0.367500
v -0.500000 0.380000 -0.367500
v -0.500000 0.500000 -0.367500
v -0.720000 0.500000 -0.367500
v -0.720000 0.380000 -0.332500
v -0.500000 0.380000 -0.332500
v -0.500000 0.500000 -0.332500
v -0.720000 0.500000 -0.332500
v 0.050000 -0.720000 -0.322500
v 0.810000 -0.720000 -0.322500
v 0.810000 0.760000 -0.322500
v 0.050000 0.760000 -0.322500
v 0.050000 -0.720000 -0.277500
v 0.810000 -0.720000 -0.277500
v 0.810000 0.760000 -0.277500
v 0.050000 0.760000 -0.277500
v 0.662500 -0.440000 -0.365000
v 0.697500 -0.440000 -0.365000
v 0.697500 0.480000 -0.365000
v 0.662500 0.480000 -0.365000
v 0.662500 -0.440000 -0.315000
v 0.697500 -0.440000 -0.315000
v 0.697500 0.480000 -0.315000
v 0.662500 0.480000 -0.315000
v 0.140000 0.380000 -0.367500
v 0.360000 0.380000 -0.367500
v 0.360000 0.500000 -0.367500
v 0.140000 0.500000 -0.367500
v 0.140000 0.380000 -0.332500
v 0.360000 0.380000 -0.332500
v 0.360000 0.500000 -0.332500
v 0.140000 0.500000 -0.332500
v -0.780000 -0.477500 -0.390000
v 0.780000 -0.477500 -0.390000
v 0.780000 -0.442500 -0.390000
v -0.780000 -0.442500 -0.390000
v -0.780000 -0.477500 -0.310000
v 0.780000 -0.477500 -0.310000
v 0.780000 -0.442500 -0.310000
v -0.780000 -0.442500 -0.310000
v -0.780000 -0.017500 -0.390000
v 0.780000 -0.017500 -0.390000
v 0.780000 0.017500 -0.390000
v -0.780000 0.017500 -0.390000
v -0.780000 -0.017500 -0.310000
v 0.780000 -0.017500 -0.310000
v 0.780000 0.017500 -0.310000
v -0.780000 0.017500 -0.310000
v -0.780000 0.442500 -0.390000
v 0.780000 0.442500 -0.390000
v 0.780000 0.477500 -0.390000
v -0.780000 0.477500 -0.390000
v -0.780000 0.442500 -0.310000
v 0.780000 0.442500 -0.310000
v 0.780000 0.477500 -0.310000
v -0.780000 0.477500 -0.310000
v -0.910000 -0.900000 -0.290000
v 0.910000 -0.900000 -0.290000
v 0.910000 -0.780000 -0.290000
v -0.910000 -0.780000 -0.290000
v -0.910000 -0.900000 0.330000
v 0.910000 -0.900000 0.330000
v 0.910000 -0.780000 0.330000
v -0.910000 -0.780000 0.330000
v -0.760000 0.600000 -0.367500
v -0.480000 0.600000 -0.367500
v -0.480000 0.680000 -0.367500
v -0.760000 0.680000 -0.367500
v -0.760000 0.600000 -0.332500
v -0.480000 0.600000 -0.332500
v -0.480000 0.680000 -0.332500
v -0.760000 0.680000 -0.332500
v -0.710000 0.510000 -0.367500
v -0.530000 0.510000 -0.367500
v -0.530000 0.570000 -0.367500
v -0.710000 0.570000 -0.367500
v -0.710000 0.510000 -0.332500
v -0.530000 0.510000 -0.332500
v -0.530000 0.570000 -0.332500
v -0.710000 0.570000 -0.332500
v -0.750000 0.692500 -0.370000
v -0.570000 0.692500 -0.370000
v -0.570000 0.747500 -0.370000
v -0.750000 0.747500 -0.370000
v -0.750000 0.692500 -0.340000
v -0.570000 0.692500 -0.340000
v -0.570000 0.747500 -0.340000
v -0.750000 0.747500 -0.340000
v -0.740000 -0.722500 -0.370000
v -0.580000 -0.722500 -0.370000
v -0.580000 -0.677500 -0.370000
v -0.740000 -0.677500 -0.370000
v -0.740000 -0.722500 -0.340000
v -0.580000 -0.722500 -0.340000
v -0.580000 -0.677500 -0.340000
v -0.740000 -0.677500 -0.340000
v -0.330000 0.692500 -0.370000
v -0.150000 0.692500 -0.370000
v -0.150000 0.747500 -0.370000
v -0.330000 0.747500 -0.370000
v -0.330000 0.692500 -0.340000
v -0.150000 0.692500 -0.340000
v -0.150000 0.747500 -0.340000
v -0.330000 0.747500 -0.340000
v -0.320000 -0.722500 -0.370000
v -0.160000 -0.722500 -0.370000
v -0.160000 -0.677500 -0.370000
v -0.320000 -0.677500 -0.370000
v -0.320000 -0.722500 -0.340000
v -0.160000 -0.722500 -0.340000
v -0.160000 -0.677500 -0.340000
v -0.320000 -0.677500 -0.340000
v 0.150000 0.692500 -0.370000
v 0.330000 0.692500 -0.370000
v 0.330000 0.747500 -0.370000
v 0.150000 0.747500 -0.370000
v 0.150000 0.692500 -0.340000
v 0.330000 0.692500 -0.340000
v 0.330000 0.747500 -0.340000
v 0.150000 0.747500 -0.340000
v 0.160000 -0.722500 -0.370000
v 0.320000 -0.722500 -0.370000
v 0.320000 -0.677500 -0.370000
v 0.160000 -0.677500 -0.370000
v 0.160000 -0.722500 -0.340000
v 0.320000 -0.722500 -0.340000
v 0.320000 -0.677500 -0.340000
v 0.160000 -0.677500 -0.340000
v 0.570000 0.692500 -0.370000
v 0.750000 0.692500 -0.370000
v 0.750000 0.747500 -0.370000
v 0.570000 0.747500 -0.370000
v 0.570000 0.692500 -0.340000
v 0.750000 0.692500 -0.340000
v 0.750000 0.747500 -0.340000
v 0.570000 0.747500 -0.340000
v 0.580000 -0.722500 -0.370000
v 0.740000 -0.722500 -0.370000
v 0.740000 -0.677500 -0.370000
v 0.580000 -0.677500 -0.370000
v 0.580000 -0.722500 -0.340000
v 0.740000 -0.722500 -0.340000
v 0.740000 -0.677500 -0.340000
v 0.580000 -0.677500 -0.340000
v 0.470000 0.565000 -0.370000
v 0.690000 0.565000 -0.370000
v 0.690000 0.595000 -0.370000
v 0.470000 0.595000 -0.370000
v 0.470000 0.565000 -0.342000
v 0.690000 0.565000 -0.342000
v 0.690000 0.595000 -0.342000
v 0.470000 0.595000 -0.342000
vt 0.000000 0.000000
vt 1.000000 0.000000
vt 1.000000 1.000000
vt 0.000000 1.000000
vt 0.000000 0.000000
vt 1.000000 0.000000
vt 1.000000 1.000000
vt 0.000000 1.000000
vt 0.000000 0.000000
vt 1.000000 0.000000
vt 1.000000 1.000000
vt 0.000000 1.000000
vt 0.000000 0.000000
vt 1.000000 0.000000
vt 1.000000 1.000000
vt 0.000000 1.000000
vt 0.000000 0.000000
vt 1.000000 0.000000
vt 1.000000 1.000000
vt 0.000000 1.000000
vt 0.000000 0.000000
vt 1.000000 0.000000
vt 1.000000 1.000000
vt 0.000000 1.000000
vt 0.000000 0.000000
vt 1.000000 0.000000
vt 1.000000 1.000000
vt 0.000000 1.000000
vt 0.000000 0.000000
vt 1.000000 0.000000
vt 1.000000 1.000000
vt 0.000000 1.000000
vt 0.000000 0.000000
vt 1.000000 0.000000
vt 1.000000 1.000000
vt 0.000000 1.000000
vt 0.000000 0.000000
vt 1.000000 0.000000
vt 1.000000 1.000000
vt 0.000000 1.000000
vt 0.000000 0.000000
vt 1.000000 0.000000
vt 1.000000 1.000000
vt 0.000000 1.000000
vt 0.000000 0.000000
vt 1.000000 0.000000
vt 1.000000 1.000000
vt 0.000000 1.000000
vt 0.000000 0.000000
vt 1.000000 0.000000
vt 1.000000 1.000000
vt 0.000000 1.000000
vt 0.000000 0.000000
vt 1.000000 0.000000
vt 1.000000 1.000000
vt 0.000000 1.000000
vt 0.000000 0.000000
vt 1.000000 0.000000
vt 1.000000 1.000000
vt 0.000000 1.000000
vt 0.000000 0.000000
vt 1.000000 0.000000
vt 1.000000 1.000000
vt 0.000000 1.000000
vt 0.000000 0.000000
vt 1.000000 0.000000
vt 1.000000 1.000000
vt 0.000000 1.000000
vt 0.000000 0.000000
vt 1.000000 0.000000
vt 1.000000 1.000000
vt 0.000000 1.000000
vt 0.000000 0.000000
vt 1.000000 0.000000
vt 1.000000 1.000000
vt 0.000000 1.000000
vt 0.000000 0.000000
vt 1.000000 0.000000
vt 1.000000 1.000000
vt 0.000000 1.000000
vt 0.000000 0.000000
vt 1.000000 0.000000
vt 1.000000 1.000000
vt 0.000000 1.000000
vt 0.000000 0.000000
vt 1.000000 0.000000
vt 1.000000 1.000000
vt 0.000000 1.000000
vt 0.000000 0.000000
vt 1.000000 0.000000
vt 1.000000 1.000000
vt 0.000000 1.000000
vt 0.000000 0.000000
vt 1.000000 0.000000
vt 1.000000 1.000000
vt 0.000000 1.000000
vt 0.000000 0.000000
vt 1.000000 0.000000
vt 1.000000 1.000000
vt 0.000000 1.000000
vt 0.000000 0.000000
vt 1.000000 0.000000
vt 1.000000 1.000000
vt 0.000000 1.000000
vt 0.000000 0.000000
vt 1.000000 0.000000
vt 1.000000 1.000000
vt 0.000000 1.000000
vt 0.000000 0.000000
vt 1.000000 0.000000
vt 1.000000 1.000000
vt 0.000000 1.000000
vt 0.000000 0.000000
vt 1.000000 0.000000
vt 1.000000 1.000000
vt 0.000000 1.000000
vt 0.000000 0.000000
vt 1.000000 0.000000
vt 1.000000 1.000000
vt 0.000000 1.000000
vt 0.000000 0.000000
vt 1.000000 0.000000
vt 1.000000 1.000000
vt 0.000000 1.000000
vt 0.000000 0.000000
vt 1.000000 0.000000
vt 1.000000 1.000000
vt 0.000000 1.000000
vt 0.000000 0.000000
vt 1.000000 0.000000
vt 1.000000 1.000000
vt 0.000000 1.000000
vt 0.000000 0.000000
vt 1.000000 0.000000
vt 1.000000 1.000000
vt 0.000000 1.000000
vt 0.000000 0.000000
vt 1.000000 0.000000
vt 1.000000 1.000000
vt 0.000000 1.000000
vt 0.000000 0.000000
vt 1.000000 0.000000
vt 1.000000 1.000000
vt 0.000000 1.000000
vt 0.000000 0.000000
vt 1.000000 0.000000
vt 1.000000 1.000000
vt 0.000000 1.000000
vt 0.000000 0.000000
vt 1.000000 0.000000
vt 1.000000 1.000000
vt 0.000000 1.000000
vt 0.000000 0.000000
vt 1.000000 0.000000
vt 1.000000 1.000000
vt 0.000000 1.000000
vt 0.000000 0.000000
vt 1.000000 0.000000
vt 1.000000 1.000000
vt 0.000000 1.000000
vt 0.000000 0.000000
vt 1.000000 0.000000
vt 1.000000 1.000000
vt 0.000000 1.000000
vt 0.000000 0.000000
vt 1.000000 0.000000
vt 1.000000 1.000000
vt 0.000000 1.000000
vt 0.000000 0.000000
vt 1.000000 0.000000
vt 1.000000 1.000000
vt 0.000000 1.000000
vt 0.000000 0.000000
vt 1.000000 0.000000
vt 1.000000 1.000000
vt 0.000000 1.000000
vt 0.000000 0.000000
vt 1.000000 0.000000
vt 1.000000 1.000000
vt 0.000000 1.000000
vt 0.000000 0.000000
vt 1.000000 0.000000
vt 1.000000 1.000000
vt 0.000000 1.000000
vt 0.000000 0.000000
vt 1.000000 0.000000
vt 1.000000 1.000000
vt 0.000000 1.000000
vt 0.000000 0.000000
vt 1.000000 0.000000
vt 1.000000 1.000000
vt 0.000000 1.000000
vt 0.000000 0.000000
vt 1.000000 0.000000
vt 1.000000 1.000000
vt 0.000000 1.000000
vt 0.000000 0.000000
vt 1.000000 0.000000
vt 1.000000 1.000000
vt 0.000000 1.000000
vt 0.000000 0.000000
vt 1.000000 0.000000
vt 1.000000 1.000000
vt 0.000000 1.000000
vt 0.000000 0.000000
vt 1.000000 0.000000
vt 1.000000 1.000000
vt 0.000000 1.000000
vt 0.000000 0.000000
vt 1.000000 0.000000
vt 1.000000 1.000000
vt 0.000000 1.000000
vt 0.000000 0.000000
vt 1.000000 0.000000
vt 1.000000 1.000000
vt 0.000000 1.000000
vt 0.000000 0.000000
vt 1.000000 0.000000
vt 1.000000 1.000000
vt 0.000000 1.000000
vt 0.000000 0.000000
vt 1.000000 0.000000
vt 1.000000 1.000000
vt 0.000000 1.000000
vt 0.000000 0.000000
vt 1.000000 0.000000
vt 1.000000 1.000000
vt 0.000000 1.000000
vt 0.000000 0.000000
vt 1.000000 0.000000
vt 1.000000 1.000000
vt 0.000000 1.000000
vt 0.000000 0.000000
vt 1.000000 0.000000
vt 1.000000 1.000000
vt 0.000000 1.000000
vt 0.000000 0.000000
vt 1.000000 0.000000
vt 1.000000 1.000000
vt 0.000000 1.000000
vt 0.000000 0.000000
vt 1.000000 0.000000
vt 1.000000 1.000000
vt 0.000000 1.000000
vt 0.000000 0.000000
vt 1.000000 0.000000
vt 1.000000 1.000000
vt 0.000000 1.000000
vt 0.000000 0.000000
vt 1.000000 0.000000
vt 1.000000 1.000000
vt 0.000000 1.000000
vt 0.000000 0.000000
vt 1.000000 0.000000
vt 1.000000 1.000000
vt 0.000000 1.000000
vt 0.000000 0.000000
vt 1.000000 0.000000
vt 1.000000 1.000000
vt 0.000000 1.000000
vt 0.000000 0.000000
vt 1.000000 0.000000
vt 1.000000 1.000000
vt 0.000000 1.000000
vt 0.000000 0.000000
vt 1.000000 0.000000
vt 1.000000 1.000000
vt 0.000000 1.000000
vt 0.000000 0.000000
vt 1.000000 0.000000
vt 1.000000 1.000000
vt 0.000000 1.000000
vt 0.000000 0.000000
vt 1.000000 0.000000
vt 1.000000 1.000000
vt 0.000000 1.000000
vt 0.000000 0.000000
vt 1.000000 0.000000
vt 1.000000 1.000000
vt 0.000000 1.000000
vt 0.000000 0.000000
vt 1.000000 0.000000
vt 1.000000 1.000000
vt 0.000000 1.000000
vt 0.000000 0.000000
vt 1.000000 0.000000
vt 1.000000 1.000000
vt 0.000000 1.000000
vt 0.000000 0.000000
vt 1.000000 0.000000
vt 1.000000 1.000000
vt 0.000000 1.000000
vt 0.000000 0.000000
vt 1.000000 0.000000
vt 1.000000 1.000000
vt 0.000000 1.000000
vt 0.000000 0.000000
vt 1.000000 0.000000
vt 1.000000 1.000000
vt 0.000000 1.000000
vt 0.000000 0.000000
vt 1.000000 0.000000
vt 1.000000 1.000000
vt 0.000000 1.000000
vt 0.000000 0.000000
vt 1.000000 0.000000
vt 1.000000 1.000000
vt 0.000000 1.000000
vt 0.000000 0.000000
vt 1.000000 0.000000
vt 1.000000 1.000000
vt 0.000000 1.000000
vt 0.000000 0.000000
vt 1.000000 0.000000
vt 1.000000 1.000000
vt 0.000000 1.000000
vt 0.000000 0.000000
vt 1.000000 0.000000
vt 1.000000 1.000000
vt 0.000000 1.000000
vt 0.000000 0.000000
vt 1.000000 0.000000
vt 1.000000 1.000000
vt 0.000000 1.000000
vt 0.000000 0.000000
vt 1.000000 0.000000
vt 1.000000 1.000000
vt 0.000000 1.000000
vt 0.000000 0.000000
vt 1.000000 0.000000
vt 1.000000 1.000000
vt 0.000000 1.000000
vt 0.000000 0.000000
vt 1.000000 0.000000
vt 1.000000 1.000000
vt 0.000000 1.000000
vt 0.000000 0.000000
vt 1.000000 0.000000
vt 1.000000 1.000000
vt 0.000000 1.000000
vt 0.000000 0.000000
vt 1.000000 0.000000
vt 1.000000 1.000000
vt 0.000000 1.000000
vt 0.000000 0.000000
vt 1.000000 0.000000
vt 1.000000 1.000000
vt 0.000000 1.000000
vt 0.000000 0.000000
vt 1.000000 0.000000
vt 1.000000 1.000000
vt 0.000000 1.000000
vt 0.000000 0.000000
vt 1.000000 0.000000
vt 1.000000 1.000000
vt 0.000000 1.000000
vt 0.000000 0.000000
vt 1.000000 0.000000
vt 1.000000 1.000000
vt 0.000000 1.000000
vt 0.000000 0.000000
vt 1.000000 0.000000
vt 1.000000 1.000000
vt 0.000000 1.000000
vt 0.000000 0.000000
vt 1.000000 0.000000
vt 1.000000 1.000000
vt 0.000000 1.000000
vt 0.000000 0.000000
vt 1.000000 0.000000
vt 1.000000 1.000000
vt 0.000000 1.000000
vt 0.000000 0.000000
vt 1.000000 0.000000
vt 1.000000 1.000000
vt 0.000000 1.000000
vt 0.000000 0.000000
vt 1.000000 0.000000
vt 1.000000 1.000000
vt 0.000000 1.000000
vt 0.000000 0.000000
vt 1.000000 0.000000
vt 1.000000 1.000000
vt 0.000000 1.000000
vt 0.000000 0.000000
vt 1.000000 0.000000
vt 1.000000 1.000000
vt 0.000000 1.000000
vt 0.000000 0.000000
vt 1.000000 0.000000
vt 1.000000 1.000000
vt 0.000000 1.000000
vt 0.000000 0.000000
vt 1.000000 0.000000
vt 1.000000 1.000000
vt 0.000000 1.000000
vt 0.000000 0.000000
vt 1.000000 0.000000
vt 1.000000 1.000000
vt 0.000000 1.000000
vt 0.000000 0.000000
vt 1.000000 0.000000
vt 1.000000 1.000000
vt 0.000000 1.000000
vt 0.000000 0.000000
vt 1.000000 0.000000
vt 1.000000 1.000000
vt 0.000000 1.000000
vt 0.000000 0.000000
vt 1.000000 0.000000
vt 1.000000 1.000000
vt 0.000000 1.000000
vt 0.000000 0.000000
vt 1.000000 0.000000
vt 1.000000 1.000000
vt 0.000000 1.000000
vt 0.000000 0.000000
vt 1.000000 0.000000
vt 1.000000 1.000000
vt 0.000000 1.000000
vt 0.000000 0.000000
vt 1.000000 0.000000
vt 1.000000 1.000000
vt 0.000000 1.000000
vt 0.000000 0.000000
vt 1.000000 0.000000
vt 1.000000 1.000000
vt 0.000000 1.000000
vt 0.000000 0.000000
vt 1.000000 0.000000
vt 1.000000 1.000000
vt 0.000000 1.000000
vt 0.000000 0.000000
vt 1.000000 0.000000
vt 1.000000 1.000000
vt 0.000000 1.000000
vt 0.000000 0.000000
vt 1.000000 0.000000
vt 1.000000 1.000000
vt 0.000000 1.000000
vt 0.000000 0.000000
vt 1.000000 0.000000
vt 1.000000 1.000000
vt 0.000000 1.000000
vt 0.000000 0.000000
vt 1.000000 0.000000
vt 1.000000 1.000000
vt 0.000000 1.000000
vt 0.000000 0.000000
vt 1.000000 0.000000
vt 1.000000 1.000000
vt 0.000000 1.000000
vt 0.000000 0.000000
vt 1.000000 0.000000
vt 1.000000 1.000000
vt 0.000000 1.000000
vt 0.000000 0.000000
vt 1.000000 0.000000
vt 1.000000 1.000000
vt 0.000000 1.000000
vt 0.000000 0.000000
vt 1.000000 0.000000
vt 1.000000 1.000000
vt 0.000000 1.000000
vt 0.000000 0.000000
vt 1.000000 0.000000
vt 1.000000 1.000000
vt 0.000000 1.000000
vt 0.000000 0.000000
vt 1.000000 0.000000
vt 1.000000 1.000000
vt 0.000000 1.000000
vt 0.000000 0.000000
vt 1.000000 0.000000
vt 1.000000 1.000000
vt 0.000000 1.000000
vt 0.000000 0.000000
vt 1.000000 0.000000
vt 1.000000 1.000000
vt 0.000000 1.000000
vt 0.000000 0.000000
vt 1.000000 0.000000
vt 1.000000 1.000000
vt 0.000000 1.000000
vt 0.000000 0.000000
vt 1.000000 0.000000
vt 1.000000 1.000000
vt 0.000000 1.000000
vt 0.000000 0.000000
vt 1.000000 0.000000
vt 1.000000 1.000000
vt 0.000000 1.000000
vt 0.000000 0.000000
vt 1.000000 0.000000
vt 1.000000 1.000000
vt 0.000000 1.000000
vt 0.000000 0.000000
vt 1.000000 0.000000
vt 1.000000 1.000000
vt 0.000000 1.000000
vt 0.000000 0.000000
vt 1.000000 0.000000
vt 1.000000 1.000000
vt 0.000000 1.000000
vt 0.000000 0.000000
vt 1.000000 0.000000
vt 1.000000 1.000000
vt 0.000000 1.000000
vt 0.000000 0.000000
vt 1.000000 0.000000
vt 1.000000 1.000000
vt 0.000000 1.000000
vt 0.000000 0.000000
vt 1.000000 0.000000
vt 1.000000 1.000000
vt 0.000000 1.000000
vt 0.000000 0.000000
vt 1.000000 0.000000
vt 1.000000 1.000000
vt 0.000000 1.000000
vt 0.000000 0.000000
vt 1.000000 0.000000
vt 1.000000 1.000000
vt 0.000000 1.000000
vt 0.000000 0.000000
vt 1.000000 0.000000
vt 1.000000 1.000000
vt 0.000000 1.000000
vn 0.000000 0.000000 1.000000
vn 0.000000 0.000000 -1.000000
vn 1.000000 0.000000 0.000000
vn -1.000000 0.000000 0.000000
vn 0.000000 -1.000000 0.000000
vn -0.000000 1.000000 0.000000
vn 0.000000 0.000000 1.000000
vn 0.000000 0.000000 -1.000000
vn 1.000000 0.000000 0.000000
vn -1.000000 0.000000 0.000000
vn 0.000000 -1.000000 0.000000
vn -0.000000 1.000000 0.000000
vn 0.000000 0.000000 1.000000
vn 0.000000 0.000000 -1.000000
vn 1.000000 0.000000 0.000000
vn -1.000000 0.000000 0.000000
vn 0.000000 -1.000000 0.000000
vn -0.000000 1.000000 0.000000
vn 0.000000 0.000000 1.000000
vn 0.000000 0.000000 -1.000000
vn 1.000000 0.000000 0.000000
vn -1.000000 0.000000 0.000000
vn 0.000000 -1.000000 0.000000
vn -0.000000 1.000000 0.000000
vn 0.000000 0.000000 1.000000
vn 0.000000 0.000000 -1.000000
vn 1.000000 0.000000 0.000000
vn -1.000000 0.000000 0.000000
vn 0.000000 -1.000000 0.000000
vn -0.000000 1.000000 0.000000
vn 0.000000 0.000000 1.000000
vn 0.000000 0.000000 -1.000000
vn 1.000000 0.000000 0.000000
vn -1.000000 0.000000 0.000000
vn 0.000000 -1.000000 0.000000
vn -0.000000 1.000000 0.000000
vn 0.000000 0.000000 1.000000
vn 0.000000 0.000000 -1.000000
vn 1.000000 0.000000 0.000000
vn -1.000000 0.000000 0.000000
vn 0.000000 -1.000000 0.000000
vn -0.000000 1.000000 0.000000
vn 0.000000 0.000000 1.000000
vn 0.000000 0.000000 -1.000000
vn 1.000000 0.000000 0.000000
vn -1.000000 0.000000 0.000000
vn 0.000000 -1.000000 0.000000
vn -0.000000 1.000000 0.000000
vn 0.000000 0.000000 1.000000
vn 0.000000 0.000000 -1.000000
vn 1.000000 0.000000 0.000000
vn -1.000000 0.000000 0.000000
vn 0.000000 -1.000000 0.000000
vn -0.000000 1.000000 0.000000
vn 0.000000 0.000000 1.000000
vn 0.000000 0.000000 -1.000000
vn 1.000000 0.000000 0.000000
vn -1.000000 0.000000 0.000000
vn 0.000000 -1.000000 0.000000
vn -0.000000 1.000000 0.000000
vn 0.000000 0.000000 1.000000
vn 0.000000 0.000000 -1.000000
vn 1.000000 0.000000 0.000000
vn -1.000000 0.000000 0.000000
vn 0.000000 -1.000000 0.000000
vn -0.000000 1.000000 0.000000
vn 0.000000 0.000000 1.000000
vn 0.000000 0.000000 -1.000000
vn 1.000000 0.000000 0.000000
vn -1.000000 0.000000 0.000000
vn 0.000000 -1.000000 0.000000
vn -0.000000 1.000000 0.000000
vn 0.000000 0.000000 1.000000
vn 0.000000 0.000000 -1.000000
vn 1.000000 0.000000 0.000000
vn -1.000000 0.000000 0.000000
vn 0.000000 -1.000000 0.000000
vn -0.000000 1.000000 0.000000
vn 0.000000 0.000000 1.000000
vn 0.000000 0.000000 -1.000000
vn 1.000000 0.000000 0.000000
vn -1.000000 0.000000 0.000000
vn 0.000000 -1.000000 0.000000
vn -0.000000 1.000000 0.000000
vn 0.000000 0.000000 1.000000
vn 0.000000 0.000000 -1.000000
vn 1.000000 0.000000 0.000000
vn -1.000000 0.000000 0.000000
vn 0.000000 -1.000000 0.000000
vn -0.000000 1.000000 0.000000
vn 0.000000 0.000000 1.000000
vn 0.000000 0.000000 -1.000000
vn 1.000000 0.000000 0.000000
vn -1.000000 0.000000 0.000000
vn 0.000000 -1.000000 0.000000
vn -0.000000 1.000000 0.000000
vn 0.000000 0.000000 1.000000
vn 0.000000 0.000000 -1.000000
vn 1.000000 0.000000 0.000000
vn -1.000000 0.000000 0.000000
vn 0.000000 -1.000000 0.000000
vn -0.000000 1.000000 0.000000
vn 0.000000 0.000000 1.000000
vn 0.000000 0.000000 -1.000000
vn 1.000000 0.000000 0.000000
vn -1.000000 0.000000 0.000000
vn 0.000000 -1.000000 0.000000
vn -0.000000 1.000000 0.000000
vn 0.000000 0.000000 1.000000
vn 0.000000 0.000000 -1.000000
vn 1.000000 0.000000 0.000000
vn -1.000000 0.000000 0.000000
vn 0.000000 -1.000000 0.000000
vn -0.000000 1.000000 0.000000
vn 0.000000 0.000000 1.000000
vn 0.000000 0.000000 -1.000000
vn 1.000000 0.000000 0.000000
vn -1.000000 0.000000 0.000000
vn 0.000000 -1.000000 0.000000
vn -0.000000 1.000000 0.000000
vn 0.000000 0.000000 1.000000
vn 0.000000 0.000000 -1.000000
vn 1.000000 0.000000 0.000000
vn -1.000000 0.000000 0.000000
vn 0.000000 -1.000000 0.000000
vn -0.000000 1.000000 0.000000
vn 0.000000 0.000000 1.000000
vn 0.000000 0.000000 -1.000000
vn 1.000000 0.000000 0.000000
vn -1.000000 0.000000 0.000000
vn 0.000000 -1.000000 0.000000
vn -0.000000 1.000000 0.000000
usemtl cabinet_off_white
f 1/1/1 2/2/1 3/3/1 4/4/1
f 6/5/2 5/6/2 8/7/2 7/8/2
f 5/9/3 1/10/3 4/11/3 8/12/3
f 2/13/4 6/14/4 7/15/4 3/16/4
f 4/17/5 3/18/5 7/19/5 8/20/5
f 5/21/6 6/22/6 2/23/6 1/24/6
usemtl soft_white
f 9/25/7 10/26/7 11/27/7 12/28/7
f 14/29/8 13/30/8 16/31/8 15/32/8
f 13/33/9 9/34/9 12/35/9 16/36/9
f 10/37/10 14/38/10 15/39/10 11/40/10
f 12/41/11 11/42/11 15/43/11 16/44/11
f 13/45/12 14/46/12 10/47/12 9/48/12
usemtl stainless
f 17/49/13 18/50/13 19/51/13 20/52/13
f 22/53/14 21/54/14 24/55/14 23/56/14
f 21/57/15 17/58/15 20/59/15 24/60/15
f 18/61/16 22/62/16 23/63/16 19/64/16
f 20/65/17 19/66/17 23/67/17 24/68/17
f 21/69/18 22/70/18 18/71/18 17/72/18
usemtl paper_label
f 25/73/19 26/74/19 27/75/19 28/76/19
f 30/77/20 29/78/20 32/79/20 31/80/20
f 29/81/21 25/82/21 28/83/21 32/84/21
f 26/85/22 30/86/22 31/87/22 27/88/22
f 28/89/23 27/90/23 31/91/23 32/92/23
f 29/93/24 30/94/24 26/95/24 25/96/24
usemtl soft_white
f 33/97/25 34/98/25 35/99/25 36/100/25
f 38/101/26 37/102/26 40/103/26 39/104/26
f 37/105/27 33/106/27 36/107/27 40/108/27
f 34/109/28 38/110/28 39/111/28 35/112/28
f 36/113/29 35/114/29 39/115/29 40/116/29
f 37/117/30 38/118/30 34/119/30 33/120/30
usemtl stainless
f 41/121/31 42/122/31 43/123/31 44/124/31
f 46/125/32 45/126/32 48/127/32 47/128/32
f 45/129/33 41/130/33 44/131/33 48/132/33
f 42/133/34 46/134/34 47/135/34 43/136/34
f 44/137/35 43/138/35 47/139/35 48/140/35
f 45/141/36 46/142/36 42/143/36 41/144/36
usemtl paper_label
f 49/145/37 50/146/37 51/147/37 52/148/37
f 54/149/38 53/150/38 56/151/38 55/152/38
f 53/153/39 49/154/39 52/155/39 56/156/39
f 50/157/40 54/158/40 55/159/40 51/160/40
f 52/161/41 51/162/41 55/163/41 56/164/41
f 53/165/42 54/166/42 50/167/42 49/168/42
usemtl stainless
f 57/169/43 58/170/43 59/171/43 60/172/43
f 62/173/44 61/174/44 64/175/44 63/176/44
f 61/177/45 57/178/45 60/179/45 64/180/45
f 58/181/46 62/182/46 63/183/46 59/184/46
f 60/185/47 59/186/47 63/187/47 64/188/47
f 61/189/48 62/190/48 58/191/48 57/192/48
f 65/193/49 66/194/49 67/195/49 68/196/49
f 70/197/50 69/198/50 72/199/50 71/200/50
f 69/201/51 65/202/51 68/203/51 72/204/51
f 66/205/52 70/206/52 71/207/52 67/208/52
f 68/209/53 67/210/53 71/211/53 72/212/53
f 69/213/54 70/214/54 66/215/54 65/216/54
f 73/217/55 74/218/55 75/219/55 76/220/55
f 78/221/56 77/222/56 80/223/56 79/224/56
f 77/225/57 73/226/57 76/227/57 80/228/57
f 74/229/58 78/230/58 79/231/58 75/232/58
f 76/233/59 75/234/59 79/235/59 80/236/59
f 77/237/60 78/238/60 74/239/60 73/240/60
usemtl dark_rubber
f 81/241/61 82/242/61 83/243/61 84/244/61
f 86/245/62 85/246/62 88/247/62 87/248/62
f 85/249/63 81/250/63 84/251/63 88/252/63
f 82/253/64 86/254/64 87/255/64 83/256/64
f 84/257/65 83/258/65 87/259/65 88/260/65
f 85/261/66 86/262/66 82/263/66 81/264/66
usemtl strap_red
f 89/265/67 90/266/67 91/267/67 92/268/67
f 94/269/68 93/270/68 96/271/68 95/272/68
f 93/273/69 89/274/69 92/275/69 96/276/69
f 90/277/70 94/278/70 95/279/70 91/280/70
f 92/281/71 91/282/71 95/283/71 96/284/71
f 93/285/72 94/286/72 90/287/72 89/288/72
usemtl screen_glass
f 97/289/73 98/290/73 99/291/73 100/292/73
f 102/293/74 101/294/74 104/295/74 103/296/74
f 101/297/75 97/298/75 100/299/75 104/300/75
f 98/301/76 102/302/76 103/303/76 99/304/76
f 100/305/77 99/306/77 103/307/77 104/308/77
f 101/309/78 102/310/78 98/311/78 97/312/78
usemtl tape_white
f 105/313/79 106/314/79 107/315/79 108/316/79
f 110/317/80 109/318/80 112/319/80 111/320/80
f 109/321/81 105/322/81 108/323/81 112/324/81
f 106/325/82 110/326/82 111/327/82 107/328/82
f 108/329/83 107/330/83 111/331/83 112/332/83
f 109/333/84 110/334/84 106/335/84 105/336/84
usemtl label_yellow
f 113/337/85 114/338/85 115/339/85 116/340/85
f 118/341/86 117/342/86 120/343/86 119/344/86
f 117/345/87 113/346/87 116/347/87 120/348/87
f 114/349/88 118/350/88 119/351/88 115/352/88
f 116/353/89 115/354/89 119/355/89 120/356/89
f 117/357/90 118/358/90 114/359/90 113/360/90
usemtl tape_white
f 121/361/91 122/362/91 123/363/91 124/364/91
f 126/365/92 125/366/92 128/367/92 127/368/92
f 125/369/93 121/370/93 124/371/93 128/372/93
f 122/373/94 126/374/94 127/375/94 123/376/94
f 124/377/95 123/378/95 127/379/95 128/380/95
f 125/381/96 126/382/96 122/383/96 121/384/96
usemtl label_yellow
f 129/385/97 130/386/97 131/387/97 132/388/97
f 134/389/98 133/390/98 136/391/98 135/392/98
f 133/393/99 129/394/99 132/395/99 136/396/99
f 130/397/100 134/398/100 135/399/100 131/400/100
f 132/401/101 131/402/101 135/403/101 136/404/101
f 133/405/102 134/406/102 130/407/102 129/408/102
usemtl tape_white
f 137/409/103 138/410/103 139/411/103 140/412/103
f 142/413/104 141/414/104 144/415/104 143/416/104
f 141/417/105 137/418/105 140/419/105 144/420/105
f 138/421/106 142/422/106 143/423/106 139/424/106
f 140/425/107 139/426/107 143/427/107 144/428/107
f 141/429/108 142/430/108 138/431/108 137/432/108
usemtl label_yellow
f 145/433/109 146/434/109 147/435/109 148/436/109
f 150/437/110 149/438/110 152/439/110 151/440/110
f 149/441/111 145/442/111 148/443/111 152/444/111
f 146/445/112 150/446/112 151/447/112 147/448/112
f 148/449/113 147/450/113 151/451/113 152/452/113
f 149/453/114 150/454/114 146/455/114 145/456/114
usemtl tape_white
f 153/457/115 154/458/115 155/459/115 156/460/115
f 158/461/116 157/462/116 160/463/116 159/464/116
f 157/465/117 153/466/117 156/467/117 160/468/117
f 154/469/118 158/470/118 159/471/118 155/472/118
f 156/473/119 155/474/119 159/475/119 160/476/119
f 157/477/120 158/478/120 154/479/120 153/480/120
usemtl label_yellow
f 161/481/121 162/482/121 163/483/121 164/484/121
f 166/485/122 165/486/122 168/487/122 167/488/122
f 165/489/123 161/490/123 164/491/123 168/492/123
f 162/493/124 166/494/124 167/495/124 163/496/124
f 164/497/125 163/498/125 167/499/125 168/500/125
f 165/501/126 166/502/126 162/503/126 161/504/126
usemtl warning_orange
f 169/505/127 170/506/127 171/507/127 172/508/127
f 174/509/128 173/510/128 176/511/128 175/512/128
f 173/513/129 169/514/129 172/515/129 176/516/129
f 170/517/130 174/518/130 175/519/130 171/520/130
f 172/521/131 171/522/131 175/523/131 176/524/131
f 173/525/132 174/526/132 170/527/132 169/528/132
