mtllib ambulance_clean_interior.mtl
v -1.2200 -0.0400 -3.4500
v 1.2200 -0.0400 -3.4500
v 1.2200 0.0000 -3.4500
v -1.2200 0.0000 -3.4500
v -1.2200 -0.0400 2.7200
v 1.2200 -0.0400 2.7200
v 1.2200 0.0000 2.7200
v -1.2200 0.0000 2.7200
v -1.1600 2.0000 -3.4000
v 1.1600 2.0000 -3.4000
v 1.1600 2.0800 -3.4000
v -1.1600 2.0800 -3.4000
v -1.1600 2.0000 2.6600
v 1.1600 2.0000 2.6600
v 1.1600 2.0800 2.6600
v -1.1600 2.0800 2.6600
v -1.2600 0.0000 -3.4500
v -1.1800 0.0000 -3.4500
v -1.1800 2.0400 -3.4500
v -1.2600 2.0400 -3.4500
v -1.2600 0.0000 2.7200
v -1.1800 0.0000 2.7200
v -1.1800 2.0400 2.7200
v -1.2600 2.0400 2.7200
v 1.1800 0.0000 -3.4500
v 1.2600 0.0000 -3.4500
v 1.2600 2.0400 -3.4500
v 1.1800 2.0400 -3.4500
v 1.1800 0.0000 2.7200
v 1.2600 0.0000 2.7200
v 1.2600 2.0400 2.7200
v 1.1800 2.0400 2.7200
v -1.1200 0.0000 -3.4500
v 1.1200 0.0000 -3.4500
v 1.1200 1.8200 -3.4500
v -1.1200 1.8200 -3.4500
v -1.1200 0.0000 -3.3400
v 1.1200 0.0000 -3.3400
v 1.1200 1.8200 -3.3400
v -1.1200 1.8200 -3.3400
v -1.0800 0.0000 2.5800
v 1.0800 0.0000 2.5800
v 1.0800 1.8400 2.5800
v -1.0800 1.8400 2.5800
v -1.0800 0.0000 2.7000
v 1.0800 0.0000 2.7000
v 1.0800 1.8400 2.7000
v -1.0800 1.8400 2.7000
v -0.8800 1.0500 -3.4800
v -0.1800 1.0500 -3.4800
v -0.1800 1.5200 -3.4800
v -0.8800 1.5200 -3.4800
v -0.8800 1.0500 -3.4300
v -0.1800 1.0500 -3.4300
v -0.1800 1.5200 -3.4300
v -0.8800 1.5200 -3.4300
v 0.1800 1.0500 -3.4800
v 0.8800 1.0500 -3.4800
v 0.8800 1.5200 -3.4800
v 0.1800 1.5200 -3.4800
v 0.1800 1.0500 -3.4300
v 0.8800 1.0500 -3.4300
v 0.8800 1.5200 -3.4300
v 0.1800 1.5200 -3.4300
v -0.6200 1.0200 2.5400
v 0.6200 1.0200 2.5400
v 0.6200 1.5200 2.5400
v -0.6200 1.5200 2.5400
v -0.6200 1.0200 2.6000
v 0.6200 1.0200 2.6000
v 0.6200 1.5200 2.6000
v -0.6200 1.5200 2.6000
v -0.3200 1.9600 -1.7000
v 0.3200 1.9600 -1.7000
v 0.3200 2.0100 -1.7000
v -0.3200 2.0100 -1.7000
v -0.3200 1.9600 -0.4800
v 0.3200 1.9600 -0.4800
v 0.3200 2.0100 -0.4800
v -0.3200 2.0100 -0.4800
v -0.3200 1.9600 0.4200
v 0.3200 1.9600 0.4200
v 0.3200 2.0100 0.4200
v -0.3200 2.0100 0.4200
v -0.3200 1.9600 1.4600
v 0.3200 1.9600 1.4600
v 0.3200 2.0100 1.4600
v -0.3200 2.0100 1.4600
v -0.5200 0.4200 -1.2800
v 0.5200 0.4200 -1.2800
v 0.5200 0.5000 -1.2800
v -0.5200 0.5000 -1.2800
v -0.5200 0.4200 1.3500
v 0.5200 0.4200 1.3500
v 0.5200 0.5000 1.3500
v -0.5200 0.5000 1.3500
v -0.4400 0.5000 -1.1800
v 0.4400 0.5000 -1.1800
v 0.4400 0.6600 -1.1800
v -0.4400 0.6600 -1.1800
v -0.4400 0.5000 1.2200
v 0.4400 0.5000 1.2200
v 0.4400 0.6600 1.2200
v -0.4400 0.6600 1.2200
v -0.3400 0.6600 0.9000
v 0.3400 0.6600 0.9000
v 0.3400 0.7800 0.9000
v -0.3400 0.7800 0.9000
v -0.3400 0.6600 1.2000
v 0.3400 0.6600 1.2000
v 0.3400 0.7800 1.2000
v -0.3400 0.7800 1.2000
v -0.3800 0.6600 -0.9200
v 0.3800 0.6600 -0.9200
v 0.3800 0.7300 -0.9200
v -0.3800 0.7300 -0.9200
v -0.3800 0.6600 0.4800
v 0.3800 0.6600 0.4800
v 0.3800 0.7300 0.4800
v -0.3800 0.7300 0.4800
v -0.6200 0.7000 -1.0800
v -0.5500 0.7000 -1.0800
v -0.5500 0.8000 -1.0800
v -0.6200 0.8000 -1.0800
v -0.6200 0.7000 1.0600
v -0.5500 0.7000 1.0600
v -0.5500 0.8000 1.0600
v -0.6200 0.8000 1.0600
v 0.5500 0.7000 -1.0800
v 0.6200 0.7000 -1.0800
v 0.6200 0.8000 -1.0800
v 0.5500 0.8000 -1.0800
v 0.5500 0.7000 1.0600
v 0.6200 0.7000 1.0600
v 0.6200 0.8000 1.0600
v 0.5500 0.8000 1.0600
v -0.3800 0.0000 -1.0000
v -0.3000 0.0000 -1.0000
v -0.3000 0.4200 -1.0000
v -0.3800 0.4200 -1.0000
v -0.3800 0.0000 -0.9200
v -0.3000 0.0000 -0.9200
v -0.3000 0.4200 -0.9200
v -0.3800 0.4200 -0.9200
v 0.3000 0.0000 0.9200
v 0.3800 0.0000 0.9200
v 0.3800 0.4200 0.9200
v 0.3000 0.4200 0.9200
v 0.3000 0.0000 1.0000
v 0.3800 0.0000 1.0000
v 0.3800 0.4200 1.0000
v 0.3000 0.4200 1.0000
v -1.1600 0.3200 -2.6200
v -0.7800 0.3200 -2.6200
v -0.7800 0.8200 -2.6200
v -1.1600 0.8200 -2.6200
v -1.1600 0.3200 -1.6200
v -0.7800 0.3200 -1.6200
v -0.7800 0.8200 -1.6200
v -1.1600 0.8200 -1.6200
v -1.1600 0.9200 -2.4500
v -0.8000 0.9200 -2.4500
v -0.8000 1.5500 -2.4500
v -1.1600 1.5500 -2.4500
v -1.1600 0.9200 -1.1800
v -0.8000 0.9200 -1.1800
v -0.8000 1.5500 -1.1800
v -1.1600 1.5500 -1.1800
v -1.1600 0.9200 -0.9200
v -0.8000 0.9200 -0.9200
v -0.8000 1.5500 -0.9200
v -1.1600 1.5500 -0.9200
v -1.1600 0.9200 0.1800
v -0.8000 0.9200 0.1800
v -0.8000 1.5500 0.1800
v -1.1600 1.5500 0.1800
v -1.1600 0.8800 0.7800
v -0.8400 0.8800 0.7800
v -0.8400 1.4800 0.7800
v -1.1600 1.4800 0.7800
v -1.1600 0.8800 1.5200
v -0.8400 0.8800 1.5200
v -0.8400 1.4800 1.5200
v -1.1600 1.4800 1.5200
v -1.1400 1.0400 0.3000
v -0.9200 1.0400 0.3000
v -0.9200 1.4400 0.3000
v -1.1400 1.4400 0.3000
v -1.1400 1.0400 0.8800
v -0.9200 1.0400 0.8800
v -0.9200 1.4400 0.8800
v -1.1400 1.4400 0.8800
v -1.1700 1.1400 0.4200
v -1.1300 1.1400 0.4200
v -1.1300 1.3400 0.4200
v -1.1700 1.3400 0.4200
v -1.1700 1.1400 0.7600
v -1.1300 1.1400 0.7600
v -1.1300 1.3400 0.7600
v -1.1700 1.3400 0.7600
v -1.1200 0.7200 0.0000
v -0.8200 0.7200 0.0000
v -0.8200 0.8800 0.0000
v -1.1200 0.8800 0.0000
v -1.1200 0.7200 0.3600
v -0.8200 0.7200 0.3600
v -0.8200 0.8800 0.3600
v -1.1200 0.8800 0.3600
v -1.1500 0.7600 0.0600
v -1.1100 0.7600 0.0600
v -1.1100 0.8400 0.0600
v -1.1500 0.8400 0.0600
v -1.1500 0.7600 0.2800
v -1.1100 0.7600 0.2800
v -1.1100 0.8400 0.2800
v -1.1500 0.8400 0.2800
v 0.7600 0.3400 -2.5200
v 1.1600 0.3400 -2.5200
v 1.1600 0.7000 -2.5200
v 0.7600 0.7000 -2.5200
v 0.7600 0.3400 1.1200
v 1.1600 0.3400 1.1200
v 1.1600 0.7000 1.1200
v 0.7600 0.7000 1.1200
v 0.8400 0.7800 0.5200
v 1.1600 0.7800 0.5200
v 1.1600 1.3400 0.5200
v 0.8400 1.3400 0.5200
v 0.8400 0.7800 1.6200
v 1.1600 0.7800 1.6200
v 1.1600 1.3400 1.6200
v 0.8400 1.3400 1.6200
v 0.9200 0.2000 -1.7500
v 1.0800 0.2000 -1.7500
v 1.0800 1.0400 -1.7500
v 0.9200 1.0400 -1.7500
v 0.9200 0.2000 -1.4200
v 1.0800 0.2000 -1.4200
v 1.0800 1.0400 -1.4200
v 0.9200 1.0400 -1.4200
v 0.9200 0.2000 -1.3400
v 1.0800 0.2000 -1.3400
v 1.0800 1.0400 -1.3400
v 0.9200 1.0400 -1.3400
v 0.9200 0.2000 -1.0200
v 1.0800 0.2000 -1.0200
v 1.0800 1.0400 -1.0200
v 0.9200 1.0400 -1.0200
v 0.9000 0.5800 -1.7800
v 1.1000 0.5800 -1.7800
v 1.1000 0.6600 -1.7800
v 0.9000 0.6600 -1.7800
v 0.9000 0.5800 -0.9800
v 1.1000 0.5800 -0.9800
v 1.1000 0.6600 -0.9800
v 0.9000 0.6600 -0.9800
v 0.7600 0.1800 -0.3000
v 1.1000 0.1800 -0.3000
v 1.1000 0.4400 -0.3000
v 0.7600 0.4400 -0.3000
v 0.7600 0.1800 0.1800
v 1.1000 0.1800 0.1800
v 1.1000 0.4400 0.1800
v 0.7600 0.4400 0.1800
v 0.8600 0.4400 -0.1200
v 1.0000 0.4400 -0.1200
v 1.0000 0.5200 -0.1200
v 0.8600 0.5200 -0.1200
v 0.8600 0.4400 0.0200
v 1.0000 0.4400 0.0200
v 1.0000 0.5200 0.0200
v 0.8600 0.5200 0.0200
v 0.5900 0.3400 1.1000
v 0.6400 0.3400 1.1000
v 0.6400 1.5600 1.1000
v 0.5900 1.5600 1.1000
v 0.5900 0.3400 1.1500
v 0.6400 0.3400 1.1500
v 0.6400 1.5600 1.1500
v 0.5900 1.5600 1.1500
v 0.4200 1.4600 1.1000
v 0.8000 1.4600 1.1000
v 0.8000 1.5200 1.1000
v 0.4200 1.5200 1.1000
v 0.4200 1.4600 1.1600
v 0.8000 1.4600 1.1600
v 0.8000 1.5200 1.1600
v 0.4200 1.5200 1.1600
v 0.7000 1.1000 1.0600
v 0.8600 1.1000 1.0600
v 0.8600 1.4200 1.0600
v 0.7000 1.4200 1.0600
v 0.7000 1.1000 1.1800
v 0.8600 1.1000 1.1800
v 0.8600 1.4200 1.1800
v 0.7000 1.4200 1.1800
o floor_blue_rubber
usemtl ambulance_floor
f 1 4 3 2
f 5 6 7 8
f 1 5 8 4
f 2 3 7 6
f 1 2 6 5
f 4 8 7 3
o ceiling_soft_panel
usemtl ambulance_ceiling
f 9 12 11 10
f 13 14 15 16
f 9 13 16 12
f 10 11 15 14
f 9 10 14 13
f 12 16 15 11
o left_wall_clean
usemtl ambulance_wall
f 17 20 19 18
f 21 22 23 24
f 17 21 24 20
f 18 19 23 22
f 17 18 22 21
f 20 24 23 19
o right_wall_clean
usemtl ambulance_wall
f 25 28 27 26
f 29 30 31 32
f 25 29 32 28
f 26 27 31 30
f 25 26 30 29
f 28 32 31 27
o rear_double_doors
usemtl ambulance_wall
f 33 36 35 34
f 37 38 39 40
f 33 37 40 36
f 34 35 39 38
f 33 34 38 37
f 36 40 39 35
o front_partition
usemtl ambulance_wall
f 41 44 43 42
f 45 46 47 48
f 41 45 48 44
f 42 43 47 46
f 41 42 46 45
f 44 48 47 43
o rear_left_window
usemtl ambulance_dark
f 49 52 51 50
f 53 54 55 56
f 49 53 56 52
f 50 51 55 54
f 49 50 54 53
f 52 56 55 51
o rear_right_window
usemtl ambulance_dark
f 57 60 59 58
f 61 62 63 64
f 57 61 64 60
f 58 59 63 62
f 57 58 62 61
f 60 64 63 59
o partition_window
usemtl ambulance_dark
f 65 68 67 66
f 69 70 71 72
f 65 69 72 68
f 66 67 71 70
f 65 66 70 69
f 68 72 71 67
o ceiling_light_front
usemtl ambulance_light
f 73 76 75 74
f 77 78 79 80
f 73 77 80 76
f 74 75 79 78
f 73 74 78 77
f 76 80 79 75
o ceiling_light_head
usemtl ambulance_light
f 81 84 83 82
f 85 86 87 88
f 81 85 88 84
f 82 83 87 86
f 81 82 86 85
f 84 88 87 83
o stretcher_metal_frame
usemtl ambulance_metal
f 89 92 91 90
f 93 94 95 96
f 89 93 96 92
f 90 91 95 94
f 89 90 94 93
f 92 96 95 91
o stretcher_mattress
usemtl ambulance_mattress
f 97 100 99 98
f 101 102 103 104
f 97 101 104 100
f 98 99 103 102
f 97 98 102 101
f 100 104 103 99
o stretcher_pillow
usemtl ambulance_mattress
f 105 108 107 106
f 109 110 111 112
f 105 109 112 108
f 106 107 111 110
f 105 106 110 109
f 108 112 111 107
o patient_blanket
usemtl ambulance_blanket
f 113 116 115 114
f 117 118 119 120
f 113 117 120 116
f 114 115 119 118
f 113 114 118 117
f 116 120 119 115
o left_stretcher_rail
usemtl ambulance_metal
f 121 124 123 122
f 125 126 127 128
f 121 125 128 124
f 122 123 127 126
f 121 122 126 125
f 124 128 127 123
o right_stretcher_rail
usemtl ambulance_metal
f 129 132 131 130
f 133 134 135 136
f 129 133 136 132
f 130 131 135 134
f 129 130 134 133
f 132 136 135 131
o stretcher_front_legs
usemtl ambulance_metal
f 137 140 139 138
f 141 142 143 144
f 137 141 144 140
f 138 139 143 142
f 137 138 142 141
f 140 144 143 139
o stretcher_rear_legs
usemtl ambulance_metal
f 145 148 147 146
f 149 150 151 152
f 145 149 152 148
f 146 147 151 150
f 145 146 150 149
f 148 152 151 147
o left_low_equipment_bank
usemtl ambulance_cabinet
f 153 156 155 154
f 157 158 159 160
f 153 157 160 156
f 154 155 159 158
f 153 154 158 157
f 156 160 159 155
o left_upper_cabinet_foot
usemtl ambulance_cabinet
f 161 164 163 162
f 165 166 167 168
f 161 165 168 164
f 162 163 167 166
f 161 162 166 165
f 164 168 167 163
o left_upper_cabinet_mid
usemtl ambulance_cabinet
f 169 172 171 170
f 173 174 175 176
f 169 173 176 172
f 170 171 175 174
f 169 170 174 173
f 172 176 175 171
o left_head_storage
usemtl ambulance_cabinet
f 177 180 179 178
f 181 182 183 184
f 177 181 184 180
f 178 179 183 182
f 177 178 182 181
f 180 184 183 179
o patient_monitor_body
usemtl ambulance_metal
f 185 188 187 186
f 189 190 191 192
f 185 189 192 188
f 186 187 191 190
f 185 186 190 189
f 188 192 191 187
o patient_monitor_screen
usemtl ambulance_green
f 193 196 195 194
f 197 198 199 200
f 193 197 200 196
f 194 195 199 198
f 193 194 198 197
f 196 200 199 195
o defibrillator_box
usemtl ambulance_metal
f 201 204 203 202
f 205 206 207 208
f 201 205 208 204
f 202 203 207 206
f 201 202 206 205
f 204 208 207 203
o defibrillator_dark_face
usemtl ambulance_dark
f 209 212 211 210
f 213 214 215 216
f 209 213 216 212
f 210 211 215 214
f 209 210 214 213
f 212 216 215 211
o right_side_bench
usemtl ambulance_bench
f 217 220 219 218
f 221 222 223 224
f 217 221 224 220
f 218 219 223 222
f 217 218 222 221
f 220 224 223 219
o right_head_cabinet
usemtl ambulance_cabinet
f 225 228 227 226
f 229 230 231 232
f 225 229 232 228
f 226 227 231 230
f 225 226 230 229
f 228 232 231 227
o oxygen_bottle_a
usemtl ambulance_green
f 233 236 235 234
f 237 238 239 240
f 233 237 240 236
f 234 235 239 238
f 233 234 238 237
f 236 240 239 235
o oxygen_bottle_b
usemtl ambulance_green
f 241 244 243 242
f 245 246 247 248
f 241 245 248 244
f 242 243 247 246
f 241 242 246 245
f 244 248 247 243
o oxygen_strap
usemtl ambulance_dark
f 249 252 251 250
f 253 254 255 256
f 249 253 256 252
f 250 251 255 254
f 249 250 254 253
f 252 256 255 251
o red_medical_bag
usemtl ambulance_red
f 257 260 259 258
f 261 262 263 264
f 257 261 264 260
f 258 259 263 262
f 257 258 262 261
f 260 264 263 259
o bag_handle
usemtl ambulance_dark
f 265 268 267 266
f 269 270 271 272
f 265 269 272 268
f 266 267 271 270
f 265 266 270 269
f 268 272 271 267
o iv_pole
usemtl ambulance_metal
f 273 276 275 274
f 277 278 279 280
f 273 277 280 276
f 274 275 279 278
f 273 274 278 277
f 276 280 279 275
o iv_crossbar
usemtl ambulance_metal
f 281 284 283 282
f 285 286 287 288
f 281 285 288 284
f 282 283 287 286
f 281 282 286 285
f 284 288 287 283
o iv_fluid_bag
usemtl ambulance_light
f 289 292 291 290
f 293 294 295 296
f 289 293 296 292
f 290 291 295 294
f 289 290 294 293
f 292 296 295 291
