# Generated by tools/generate_ambulance_proxy_meshes.py
mtllib ambulance_proxy_materials.mtl
o ambulance_oxygen_cylinders
v -0.110000 -0.790000 0.000000
v -0.110000 0.790000 0.000000
v -0.116474 -0.790000 0.049176
v -0.116474 0.790000 0.049176
v -0.135455 -0.790000 0.095000
v -0.135455 0.790000 0.095000
v -0.165650 -0.790000 0.134350
v -0.165650 0.790000 0.134350
v -0.205000 -0.790000 0.164545
v -0.205000 0.790000 0.164545
v -0.250824 -0.790000 0.183526
v -0.250824 0.790000 0.183526
v -0.300000 -0.790000 0.190000
v -0.300000 0.790000 0.190000
v -0.349176 -0.790000 0.183526
v -0.349176 0.790000 0.183526
v -0.395000 -0.790000 0.164545
v -0.395000 0.790000 0.164545
v -0.434350 -0.790000 0.134350
v -0.434350 0.790000 0.134350
v -0.464545 -0.790000 0.095000
v -0.464545 0.790000 0.095000
v -0.483526 -0.790000 0.049176
v -0.483526 0.790000 0.049176
v -0.490000 -0.790000 0.000000
v -0.490000 0.790000 0.000000
v -0.483526 -0.790000 -0.049176
v -0.483526 0.790000 -0.049176
v -0.464545 -0.790000 -0.095000
v -0.464545 0.790000 -0.095000
v -0.434350 -0.790000 -0.134350
v -0.434350 0.790000 -0.134350
v -0.395000 -0.790000 -0.164545
v -0.395000 0.790000 -0.164545
v -0.349176 -0.790000 -0.183526
v -0.349176 0.790000 -0.183526
v -0.300000 -0.790000 -0.190000
v -0.300000 0.790000 -0.190000
v -0.250824 -0.790000 -0.183526
v -0.250824 0.790000 -0.183526
v -0.205000 -0.790000 -0.164545
v -0.205000 0.790000 -0.164545
v -0.165650 -0.790000 -0.134350
v -0.165650 0.790000 -0.134350
v -0.135455 -0.790000 -0.095000
v -0.135455 0.790000 -0.095000
v -0.116474 -0.790000 -0.049176
v -0.116474 0.790000 -0.049176
v -0.410000 0.790000 -0.110000
v -0.190000 0.790000 -0.110000
v -0.190000 0.890000 -0.110000
v -0.410000 0.890000 -0.110000
v -0.410000 0.790000 0.110000
v -0.190000 0.790000 0.110000
v -0.190000 0.890000 0.110000
v -0.410000 0.890000 0.110000
v -0.365000 0.890000 -0.065000
v -0.235000 0.890000 -0.065000
v -0.235000 0.970000 -0.065000
v -0.365000 0.970000 -0.065000
v -0.365000 0.890000 0.065000
v -0.235000 0.890000 0.065000
v -0.235000 0.970000 0.065000
v -0.365000 0.970000 0.065000
v 0.490000 -0.790000 0.000000
v 0.490000 0.790000 0.000000
v 0.483526 -0.790000 0.049176
v 0.483526 0.790000 0.049176
v 0.464545 -0.790000 0.095000
v 0.464545 0.790000 0.095000
v 0.434350 -0.790000 0.134350
v 0.434350 0.790000 0.134350
v 0.395000 -0.790000 0.164545
v 0.395000 0.790000 0.164545
v 0.349176 -0.790000 0.183526
v 0.349176 0.790000 0.183526
v 0.300000 -0.790000 0.190000
v 0.300000 0.790000 0.190000
v 0.250824 -0.790000 0.183526
v 0.250824 0.790000 0.183526
v 0.205000 -0.790000 0.164545
v 0.205000 0.790000 0.164545
v 0.165650 -0.790000 0.134350
v 0.165650 0.790000 0.134350
v 0.135455 -0.790000 0.095000
v 0.135455 0.790000 0.095000
v 0.116474 -0.790000 0.049176
v 0.116474 0.790000 0.049176
v 0.110000 -0.790000 0.000000
v 0.110000 0.790000 0.000000
v 0.116474 -0.790000 -0.049176
v 0.116474 0.790000 -0.049176
v 0.135455 -0.790000 -0.095000
v 0.135455 0.790000 -0.095000
v 0.165650 -0.790000 -0.134350
v 0.165650 0.790000 -0.134350
v 0.205000 -0.790000 -0.164545
v 0.205000 0.790000 -0.164545
v 0.250824 -0.790000 -0.183526
v 0.250824 0.790000 -0.183526
v 0.300000 -0.790000 -0.190000
v 0.300000 0.790000 -0.190000
v 0.349176 -0.790000 -0.183526
v 0.349176 0.790000 -0.183526
v 0.395000 -0.790000 -0.164545
v 0.395000 0.790000 -0.164545
v 0.434350 -0.790000 -0.134350
v 0.434350 0.790000 -0.134350
v 0.464545 -0.790000 -0.095000
v 0.464545 0.790000 -0.095000
v 0.483526 -0.790000 -0.049176
v 0.483526 0.790000 -0.049176
v 0.190000 0.790000 -0.110000
v 0.410000 0.790000 -0.110000
v 0.410000 0.890000 -0.110000
v 0.190000 0.890000 -0.110000
v 0.190000 0.790000 0.110000
v 0.410000 0.790000 0.110000
v 0.410000 0.890000 0.110000
v 0.190000 0.890000 0.110000
v 0.235000 0.890000 -0.065000
v 0.365000 0.890000 -0.065000
v 0.365000 0.970000 -0.065000
v 0.235000 0.970000 -0.065000
v 0.235000 0.890000 0.065000
v 0.365000 0.890000 0.065000
v 0.365000 0.970000 0.065000
v 0.235000 0.970000 0.065000
v -0.480000 -0.055000 -0.250000
v 0.480000 -0.055000 -0.250000
v 0.480000 0.015000 -0.250000
v -0.480000 0.015000 -0.250000
v -0.480000 -0.055000 -0.190000
v 0.480000 -0.055000 -0.190000
v 0.480000 0.015000 -0.190000
v -0.480000 0.015000 -0.190000
v -0.440000 -0.045000 -0.315000
v 0.440000 -0.045000 -0.315000
v 0.440000 0.005000 -0.315000
v -0.440000 0.005000 -0.315000
v -0.440000 -0.045000 -0.265000
v 0.440000 -0.045000 -0.265000
v 0.440000 0.005000 -0.265000
v -0.440000 0.005000 -0.265000
v -0.480000 0.385000 -0.250000
v 0.480000 0.385000 -0.250000
v 0.480000 0.455000 -0.250000
v -0.480000 0.455000 -0.250000
v -0.480000 0.385000 -0.190000
v 0.480000 0.385000 -0.190000
v 0.480000 0.455000 -0.190000
v -0.480000 0.455000 -0.190000
v -0.440000 0.395000 -0.315000
v 0.440000 0.395000 -0.315000
v 0.440000 0.445000 -0.315000
v -0.440000 0.445000 -0.315000
v -0.440000 0.395000 -0.265000
v 0.440000 0.395000 -0.265000
v 0.440000 0.445000 -0.265000
v -0.440000 0.445000 -0.265000
v -0.420000 -0.355000 -0.217500
v -0.180000 -0.355000 -0.217500
v -0.180000 -0.285000 -0.217500
v -0.420000 -0.285000 -0.217500
v -0.420000 -0.355000 -0.192500
v -0.180000 -0.355000 -0.192500
v -0.180000 -0.285000 -0.192500
v -0.420000 -0.285000 -0.192500
v -0.410000 0.452500 -0.217500
v -0.190000 0.452500 -0.217500
v -0.190000 0.507500 -0.217500
v -0.410000 0.507500 -0.217500
v -0.410000 0.452500 -0.192500
v -0.190000 0.452500 -0.192500
v -0.190000 0.507500 -0.192500
v -0.410000 0.507500 -0.192500
v 0.180000 -0.355000 -0.217500
v 0.420000 -0.355000 -0.217500
v 0.420000 -0.285000 -0.217500
v 0.180000 -0.285000 -0.217500
v 0.180000 -0.355000 -0.192500
v 0.420000 -0.355000 -0.192500
v 0.420000 -0.285000 -0.192500
v 0.180000 -0.285000 -0.192500
v 0.190000 0.452500 -0.217500
v 0.410000 0.452500 -0.217500
v 0.410000 0.507500 -0.217500
v 0.190000 0.507500 -0.217500
v 0.190000 0.452500 -0.192500
v 0.410000 0.452500 -0.192500
v 0.410000 0.507500 -0.192500
v 0.190000 0.507500 -0.192500
v -0.410000 0.030000 -0.217500
v -0.190000 0.030000 -0.217500
v -0.190000 0.210000 -0.217500
v -0.410000 0.210000 -0.217500
v -0.410000 0.030000 -0.192500
v -0.190000 0.030000 -0.192500
v -0.190000 0.210000 -0.192500
v -0.410000 0.210000 -0.192500
v 0.190000 0.030000 -0.217500
v 0.410000 0.030000 -0.217500
v 0.410000 0.210000 -0.217500
v 0.190000 0.210000 -0.217500
v 0.190000 0.030000 -0.192500
v 0.410000 0.030000 -0.192500
v 0.410000 0.210000 -0.192500
v 0.190000 0.210000 -0.192500
v -0.430000 -0.850000 0.210000
v 0.430000 -0.850000 0.210000
v 0.430000 0.850000 0.210000
v -0.430000 0.850000 0.210000
v -0.430000 -0.850000 0.290000
v 0.430000 -0.850000 0.290000
v 0.430000 0.850000 0.290000
v -0.430000 0.850000 0.290000
v -0.450000 -0.910000 -0.260000
v 0.450000 -0.910000 -0.260000
v 0.450000 -0.810000 -0.260000
v -0.450000 -0.810000 -0.260000
v -0.450000 -0.910000 0.260000
v 0.450000 -0.910000 0.260000
v 0.450000 -0.810000 0.260000
v -0.450000 -0.810000 0.260000
vt 0.000000 0.000000
vt 1.000000 0.000000
vt 1.000000 1.000000
vt 0.000000 1.000000
vt 0.000000 0.000000
vt 1.000000 0.000000
vt 1.000000 1.000000
vt 0.000000 1.000000
vt 0.000000 0.000000
vt 1.000000 0.000000
vt 1.000000 1.000000
vt 0.000000 1.000000
vt 0.000000 0.000000
vt 1.000000 0.000000
vt 1.000000 1.000000
vt 0.000000 1.000000
vt 0.000000 0.000000
vt 1.000000 0.000000
vt 1.000000 1.000000
vt 0.000000 1.000000
vt 0.000000 0.000000
vt 1.000000 0.000000
vt 1.000000 1.000000
vt 0.000000 1.000000
vt 0.000000 0.000000
vt 1.000000 0.000000
vt 1.000000 1.000000
vt 0.000000 1.000000
vt 0.000000 0.000000
vt 1.000000 0.000000
vt 1.000000 1.000000
vt 0.000000 1.000000
vt 0.000000 0.000000
vt 1.000000 0.000000
vt 1.000000 1.000000
vt 0.000000 1.000000
vt 0.000000 0.000000
vt 1.000000 0.000000
vt 1.000000 1.000000
vt 0.000000 1.000000
vt 0.000000 0.000000
vt 1.000000 0.000000
vt 1.000000 1.000000
vt 0.000000 1.000000
vt 0.000000 0.000000
vt 1.000000 0.000000
vt 1.000000 1.000000
vt 0.000000 1.000000
vt 0.000000 0.000000
vt 1.000000 0.000000
vt 1.000000 1.000000
vt 0.000000 1.000000
vt 0.000000 0.000000
vt 1.000000 0.000000
vt 1.000000 1.000000
vt 0.000000 1.000000
vt 0.000000 0.000000
vt 1.000000 0.000000
vt 1.000000 1.000000
vt 0.000000 1.000000
vt 0.000000 0.000000
vt 1.000000 0.000000
vt 1.000000 1.000000
vt 0.000000 1.000000
vt 0.000000 0.000000
vt 1.000000 0.000000
vt 1.000000 1.000000
vt 0.000000 1.000000
vt 0.000000 0.000000
vt 1.000000 0.000000
vt 1.000000 1.000000
vt 0.000000 1.000000
vt 0.000000 0.000000
vt 1.000000 0.000000
vt 1.000000 1.000000
vt 0.000000 1.000000
vt 0.000000 0.000000
vt 1.000000 0.000000
vt 1.000000 1.000000
vt 0.000000 1.000000
vt 0.000000 0.000000
vt 1.000000 0.000000
vt 1.000000 1.000000
vt 0.000000 1.000000
vt 0.000000 0.000000
vt 1.000000 0.000000
vt 1.000000 1.000000
vt 0.000000 1.000000
vt 0.000000 0.000000
vt 1.000000 0.000000
vt 1.000000 1.000000
vt 0.000000 1.000000
vt 0.000000 0.000000
vt 1.000000 0.000000
vt 1.000000 1.000000
vt 0.000000 1.000000
vt 1.000000 0.500000
vt 0.982963 0.629410
vt 0.933013 0.750000
vt 0.853553 0.853553
vt 0.750000 0.933013
vt 0.629410 0.982963
vt 0.500000 1.000000
vt 0.370590 0.982963
vt 0.250000 0.933013
vt 0.146447 0.853553
vt 0.066987 0.750000
vt 0.017037 0.629410
vt 0.000000 0.500000
vt 0.017037 0.370590
vt 0.066987 0.250000
vt 0.146447 0.146447
vt 0.250000 0.066987
vt 0.370590 0.017037
vt 0.500000 0.000000
vt 0.629410 0.017037
vt 0.750000 0.066987
vt 0.853553 0.146447
vt 0.933013 0.250000
vt 0.982963 0.370590
vt 1.000000 0.500000
vt 0.982963 0.629410
vt 0.933013 0.750000
vt 0.853553 0.853553
vt 0.750000 0.933013
vt 0.629410 0.982963
vt 0.500000 1.000000
vt 0.370590 0.982963
vt 0.250000 0.933013
vt 0.146447 0.853553
vt 0.066987 0.750000
vt 0.017037 0.629410
vt 0.000000 0.500000
vt 0.017037 0.370590
vt 0.066987 0.250000
vt 0.146447 0.146447
vt 0.250000 0.066987
vt 0.370590 0.017037
vt 0.500000 0.000000
vt 0.629410 0.017037
vt 0.750000 0.066987
vt 0.853553 0.146447
vt 0.933013 0.250000
vt 0.982963 0.370590
vt 0.000000 0.000000
vt 1.000000 0.000000
vt 1.000000 1.000000
vt 0.000000 1.000000
vt 0.000000 0.000000
vt 1.000000 0.000000
vt 1.000000 1.000000
vt 0.000000 1.000000
vt 0.000000 0.000000
vt 1.000000 0.000000
vt 1.000000 1.000000
vt 0.000000 1.000000
vt 0.000000 0.000000
vt 1.000000 0.000000
vt 1.000000 1.000000
vt 0.000000 1.000000
vt 0.000000 0.000000
vt 1.000000 0.000000
vt 1.000000 1.000000
vt 0.000000 1.000000
vt 0.000000 0.000000
vt 1.000000 0.000000
vt 1.000000 1.000000
vt 0.000000 1.000000
vt 0.000000 0.000000
vt 1.000000 0.000000
vt 1.000000 1.000000
vt 0.000000 1.000000
vt 0.000000 0.000000
vt 1.000000 0.000000
vt 1.000000 1.000000
vt 0.000000 1.000000
vt 0.000000 0.000000
vt 1.000000 0.000000
vt 1.000000 1.000000
vt 0.000000 1.000000
vt 0.000000 0.000000
vt 1.000000 0.000000
vt 1.000000 1.000000
vt 0.000000 1.000000
vt 0.000000 0.000000
vt 1.000000 0.000000
vt 1.000000 1.000000
vt 0.000000 1.000000
vt 0.000000 0.000000
vt 1.000000 0.000000
vt 1.000000 1.000000
vt 0.000000 1.000000
vt 0.000000 0.000000
vt 1.000000 0.000000
vt 1.000000 1.000000
vt 0.000000 1.000000
vt 0.000000 0.000000
vt 1.000000 0.000000
vt 1.000000 1.000000
vt 0.000000 1.000000
vt 0.000000 0.000000
vt 1.000000 0.000000
vt 1.000000 1.000000
vt 0.000000 1.000000
vt 0.000000 0.000000
vt 1.000000 0.000000
vt 1.000000 1.000000
vt 0.000000 1.000000
vt 0.000000 0.000000
vt 1.000000 0.000000
vt 1.000000 1.000000
vt 0.000000 1.000000
vt 0.000000 0.000000
vt 1.000000 0.000000
vt 1.000000 1.000000
vt 0.000000 1.000000
vt 0.000000 0.000000
vt 1.000000 0.000000
vt 1.000000 1.000000
vt 0.000000 1.000000
vt 0.000000 0.000000
vt 1.000000 0.000000
vt 1.000000 1.000000
vt 0.000000 1.000000
vt 0.000000 0.000000
vt 1.000000 0.000000
vt 1.000000 1.000000
vt 0.000000 1.000000
vt 0.000000 0.000000
vt 1.000000 0.000000
vt 1.000000 1.000000
vt 0.000000 1.000000
vt 0.000000 0.000000
vt 1.000000 0.000000
vt 1.000000 1.000000
vt 0.000000 1.000000
vt 0.000000 0.000000
vt 1.000000 0.000000
vt 1.000000 1.000000
vt 0.000000 1.000000
vt 0.000000 0.000000
vt 1.000000 0.000000
vt 1.000000 1.000000
vt 0.000000 1.000000
vt 0.000000 0.000000
vt 1.000000 0.000000
vt 1.000000 1.000000
vt 0.000000 1.000000
vt 0.000000 0.000000
vt 1.000000 0.000000
vt 1.000000 1.000000
vt 0.000000 1.000000
vt 0.000000 0.000000
vt 1.000000 0.000000
vt 1.000000 1.000000
vt 0.000000 1.000000
vt 0.000000 0.000000
vt 1.000000 0.000000
vt 1.000000 1.000000
vt 0.000000 1.000000
vt 0.000000 0.000000
vt 1.000000 0.000000
vt 1.000000 1.000000
vt 0.000000 1.000000
vt 0.000000 0.000000
vt 1.000000 0.000000
vt 1.000000 1.000000
vt 0.000000 1.000000
vt 0.000000 0.000000
vt 1.000000 0.000000
vt 1.000000 1.000000
vt 0.000000 1.000000
vt 0.000000 0.000000
vt 1.000000 0.000000
vt 1.000000 1.000000
vt 0.000000 1.000000
vt 0.000000 0.000000
vt 1.000000 0.000000
vt 1.000000 1.000000
vt 0.000000 1.000000
vt 0.000000 0.000000
vt 1.000000 0.000000
vt 1.000000 1.000000
vt 0.000000 1.000000
vt 0.000000 0.000000
vt 1.000000 0.000000
vt 1.000000 1.000000
vt 0.000000 1.000000
vt 1.000000 0.500000
vt 0.982963 0.629410
vt 0.933013 0.750000
vt 0.853553 0.853553
vt 0.750000 0.933013
vt 0.629410 0.982963
vt 0.500000 1.000000
vt 0.370590 0.982963
vt 0.250000 0.933013
vt 0.146447 0.853553
vt 0.066987 0.750000
vt 0.017037 0.629410
vt 0.000000 0.500000
vt 0.017037 0.370590
vt 0.066987 0.250000
vt 0.146447 0.146447
vt 0.250000 0.066987
vt 0.370590 0.017037
vt 0.500000 0.000000
vt 0.629410 0.017037
vt 0.750000 0.066987
vt 0.853553 0.146447
vt 0.933013 0.250000
vt 0.982963 0.370590
vt 1.000000 0.500000
vt 0.982963 0.629410
vt 0.933013 0.750000
vt 0.853553 0.853553
vt 0.750000 0.933013
vt 0.629410 0.982963
vt 0.500000 1.000000
vt 0.370590 0.982963
vt 0.250000 0.933013
vt 0.146447 0.853553
vt 0.066987 0.750000
vt 0.017037 0.629410
vt 0.000000 0.500000
vt 0.017037 0.370590
vt 0.066987 0.250000
vt 0.146447 0.146447
vt 0.250000 0.066987
vt 0.370590 0.017037
vt 0.500000 0.000000
vt 0.629410 0.017037
vt 0.750000 0.066987
vt 0.853553 0.146447
vt 0.933013 0.250000
vt 0.982963 0.370590
vt 0.000000 0.000000
vt 1.000000 0.000000
vt 1.000000 1.000000
vt 0.000000 1.000000
vt 0.000000 0.000000
vt 1.000000 0.000000
vt 1.000000 1.000000
vt 0.000000 1.000000
vt 0.000000 0.000000
vt 1.000000 0.000000
vt 1.000000 1.000000
vt 0.000000 1.000000
vt 0.000000 0.000000
vt 1.000000 0.000000
vt 1.000000 1.000000
vt 0.000000 1.000000
vt 0.000000 0.000000
vt 1.000000 0.000000
vt 1.000000 1.000000
vt 0.000000 1.000000
vt 0.000000 0.000000
vt 1.000000 0.000000
vt 1.000000 1.000000
vt 0.000000 1.000000
vt 0.000000 0.000000
vt 1.000000 0.000000
vt 1.000000 1.000000
vt 0.000000 1.000000
vt 0.000000 0.000000
vt 1.000000 0.000000
vt 1.000000 1.000000
vt 0.000000 1.000000
vt 0.000000 0.000000
vt 1.000000 0.000000
vt 1.000000 1.000000
vt 0.000000 1.000000
vt 0.000000 0.000000
vt 1.000000 0.000000
vt 1.000000 1.000000
vt 0.000000 1.000000
vt 0.000000 0.000000
vt 1.000000 0.000000
vt 1.000000 1.000000
vt 0.000000 1.000000
vt 0.000000 0.000000
vt 1.000000 0.000000
vt 1.000000 1.000000
vt 0.000000 1.000000
vt 0.000000 0.000000
vt 1.000000 0.000000
vt 1.000000 1.000000
vt 0.000000 1.000000
vt 0.000000 0.000000
vt 1.000000 0.000000
vt 1.000000 1.000000
vt 0.000000 1.000000
vt 0.000000 0.000000
vt 1.000000 0.000000
vt 1.000000 1.000000
vt 0.000000 1.000000
vt 0.000000 0.000000
vt 1.000000 0.000000
vt 1.000000 1.000000
vt 0.000000 1.000000
vt 0.000000 0.000000
vt 1.000000 0.000000
vt 1.000000 1.000000
vt 0.000000 1.000000
vt 0.000000 0.000000
vt 1.000000 0.000000
vt 1.000000 1.000000
vt 0.000000 1.000000
vt 0.000000 0.000000
vt 1.000000 0.000000
vt 1.000000 1.000000
vt 0.000000 1.000000
vt 0.000000 0.000000
vt 1.000000 0.000000
vt 1.000000 1.000000
vt 0.000000 1.000000
vt 0.000000 0.000000
vt 1.000000 0.000000
vt 1.000000 1.000000
vt 0.000000 1.000000
vt 0.000000 0.000000
vt 1.000000 0.000000
vt 1.000000 1.000000
vt 0.000000 1.000000
vt 0.000000 0.000000
vt 1.000000 0.000000
vt 1.000000 1.000000
vt 0.000000 1.000000
vt 0.000000 0.000000
vt 1.000000 0.000000
vt 1.000000 1.000000
vt 0.000000 1.000000
vt 0.000000 0.000000
vt 1.000000 0.000000
vt 1.000000 1.000000
vt 0.000000 1.000000
vt 0.000000 0.000000
vt 1.000000 0.000000
vt 1.000000 1.000000
vt 0.000000 1.000000
vt 0.000000 0.000000
vt 1.000000 0.000000
vt 1.000000 1.000000
vt 0.000000 1.000000
vt 0.000000 0.000000
vt 1.000000 0.000000
vt 1.000000 1.000000
vt 0.000000 1.000000
vt 0.000000 0.000000
vt 1.000000 0.000000
vt 1.000000 1.000000
vt 0.000000 1.000000
vt 0.000000 0.000000
vt 1.000000 0.000000
vt 1.000000 1.000000
vt 0.000000 1.000000
vt 0.000000 0.000000
vt 1.000000 0.000000
vt 1.000000 1.000000
vt 0.000000 1.000000
vt 0.000000 0.000000
vt 1.000000 0.000000
vt 1.000000 1.000000
vt 0.000000 1.000000
vt 0.000000 0.000000
vt 1.000000 0.000000
vt 1.000000 1.000000
vt 0.000000 1.000000
vt 0.000000 0.000000
vt 1.000000 0.000000
vt 1.000000 1.000000
vt 0.000000 1.000000
vt 0.000000 0.000000
vt 1.000000 0.000000
vt 1.000000 1.000000
vt 0.000000 1.000000
vt 0.000000 0.000000
vt 1.000000 0.000000
vt 1.000000 1.000000
vt 0.000000 1.000000
vt 0.000000 0.000000
vt 1.000000 0.000000
vt 1.000000 1.000000
vt 0.000000 1.000000
vt 0.000000 0.000000
vt 1.000000 0.000000
vt 1.000000 1.000000
vt 0.000000 1.000000
vt 0.000000 0.000000
vt 1.000000 0.000000
vt 1.000000 1.000000
vt 0.000000 1.000000
vt 0.000000 0.000000
vt 1.000000 0.000000
vt 1.000000 1.000000
vt 0.000000 1.000000
vt 0.000000 0.000000
vt 1.000000 0.000000
vt 1.000000 1.000000
vt 0.000000 1.000000
vt 0.000000 0.000000
vt 1.000000 0.000000
vt 1.000000 1.000000
vt 0.000000 1.000000
vt 0.000000 0.000000
vt 1.000000 0.000000
vt 1.000000 1.000000
vt 0.000000 1.000000
vt 0.000000 0.000000
vt 1.000000 0.000000
vt 1.000000 1.000000
vt 0.000000 1.000000
vt 0.000000 0.000000
vt 1.000000 0.000000
vt 1.000000 1.000000
vt 0.000000 1.000000
vt 0.000000 0.000000
vt 1.000000 0.000000
vt 1.000000 1.000000
vt 0.000000 1.000000
vt 0.000000 0.000000
vt 1.000000 0.000000
vt 1.000000 1.000000
vt 0.000000 1.000000
vt 0.000000 0.000000
vt 1.000000 0.000000
vt 1.000000 1.000000
vt 0.000000 1.000000
vt 0.000000 0.000000
vt 1.000000 0.000000
vt 1.000000 1.000000
vt 0.000000 1.000000
vt 0.000000 0.000000
vt 1.000000 0.000000
vt 1.000000 1.000000
vt 0.000000 1.000000
vt 0.000000 0.000000
vt 1.000000 0.000000
vt 1.000000 1.000000
vt 0.000000 1.000000
vt 0.000000 0.000000
vt 1.000000 0.000000
vt 1.000000 1.000000
vt 0.000000 1.000000
vt 0.000000 0.000000
vt 1.000000 0.000000
vt 1.000000 1.000000
vt 0.000000 1.000000
vt 0.000000 0.000000
vt 1.000000 0.000000
vt 1.000000 1.000000
vt 0.000000 1.000000
vt 0.000000 0.000000
vt 1.000000 0.000000
vt 1.000000 1.000000
vt 0.000000 1.000000
vt 0.000000 0.000000
vt 1.000000 0.000000
vt 1.000000 1.000000
vt 0.000000 1.000000
vt 0.000000 0.000000
vt 1.000000 0.000000
vt 1.000000 1.000000
vt 0.000000 1.000000
vt 0.000000 0.000000
vt 1.000000 0.000000
vt 1.000000 1.000000
vt 0.000000 1.000000
vt 0.000000 0.000000
vt 1.000000 0.000000
vt 1.000000 1.000000
vt 0.000000 1.000000
vt 0.000000 0.000000
vt 1.000000 0.000000
vt 1.000000 1.000000
vt 0.000000 1.000000
vt 0.000000 0.000000
vt 1.000000 0.000000
vt 1.000000 1.000000
vt 0.000000 1.000000
vt 0.000000 0.000000
vt 1.000000 0.000000
vt 1.000000 1.000000
vt 0.000000 1.000000
vt 0.000000 0.000000
vt 1.000000 0.000000
vt 1.000000 1.000000
vt 0.000000 1.000000
vt 0.000000 0.000000
vt 1.000000 0.000000
vt 1.000000 1.000000
vt 0.000000 1.000000
vt 0.000000 0.000000
vt 1.000000 0.000000
vt 1.000000 1.000000
vt 0.000000 1.000000
vt 0.000000 0.000000
vt 1.000000 0.000000
vt 1.000000 1.000000
vt 0.000000 1.000000
vt 0.000000 0.000000
vt 1.000000 0.000000
vt 1.000000 1.000000
vt 0.000000 1.000000
vt 0.000000 0.000000
vt 1.000000 0.000000
vt 1.000000 1.000000
vt 0.000000 1.000000
vt 0.000000 0.000000
vt 1.000000 0.000000
vt 1.000000 1.000000
vt 0.000000 1.000000
vt 0.000000 0.000000
vt 1.000000 0.000000
vt 1.000000 1.000000
vt 0.000000 1.000000
vt 0.000000 0.000000
vt 1.000000 0.000000
vt 1.000000 1.000000
vt 0.000000 1.000000
vt 0.000000 0.000000
vt 1.000000 0.000000
vt 1.000000 1.000000
vt 0.000000 1.000000
vt 0.000000 0.000000
vt 1.000000 0.000000
vt 1.000000 1.000000
vt 0.000000 1.000000
vt 0.000000 0.000000
vt 1.000000 0.000000
vt 1.000000 1.000000
vt 0.000000 1.000000
vt 0.000000 0.000000
vt 1.000000 0.000000
vt 1.000000 1.000000
vt 0.000000 1.000000
vt 0.000000 0.000000
vt 1.000000 0.000000
vt 1.000000 1.000000
vt 0.000000 1.000000
vt 0.000000 0.000000
vt 1.000000 0.000000
vt 1.000000 1.000000
vt 0.000000 1.000000
vt 0.000000 0.000000
vt 1.000000 0.000000
vt 1.000000 1.000000
vt 0.000000 1.000000
vt 0.000000 0.000000
vt 1.000000 0.000000
vt 1.000000 1.000000
vt 0.000000 1.000000
vt 0.000000 0.000000
vt 1.000000 0.000000
vt 1.000000 1.000000
vt 0.000000 1.000000
vt 0.000000 0.000000
vt 1.000000 0.000000
vt 1.000000 1.000000
vt 0.000000 1.000000
vt 0.000000 0.000000
vt 1.000000 0.000000
vt 1.000000 1.000000
vt 0.000000 1.000000
vt 0.000000 0.000000
vt 1.000000 0.000000
vt 1.000000 1.000000
vt 0.000000 1.000000
vt 0.000000 0.000000
vt 1.000000 0.000000
vt 1.000000 1.000000
vt 0.000000 1.000000
vn -0.991445 0.000000 -0.130526
vn -0.923880 0.000000 -0.382683
vn -0.793353 0.000000 -0.608761
vn -0.608761 0.000000 -0.793353
vn -0.382683 0.000000 -0.923880
vn -0.130526 0.000000 -0.991445
vn 0.130526 0.000000 -0.991445
vn 0.382683 0.000000 -0.923880
vn 0.608761 0.000000 -0.793353
vn 0.793353 0.000000 -0.608761
vn 0.923880 0.000000 -0.382683
vn 0.991445 0.000000 -0.130526
vn 0.991445 0.000000 0.130526
vn 0.923880 0.000000 0.382683
vn 0.793353 0.000000 0.608761
vn 0.608761 0.000000 0.793353
vn 0.382683 0.000000 0.923880
vn 0.130526 0.000000 0.991445
vn -0.130526 0.000000 0.991445
vn -0.382683 0.000000 0.923880
vn -0.608761 0.000000 0.793353
vn -0.793353 0.000000 0.608761
vn -0.923880 0.000000 0.382683
vn -0.991445 0.000000 0.130526
vn 0.000000 1.000000 0.000000
vn 0.000000 -1.000000 0.000000
vn 0.000000 0.000000 1.000000
vn 0.000000 0.000000 -1.000000
vn 1.000000 0.000000 0.000000
vn -1.000000 0.000000 0.000000
vn 0.000000 -1.000000 0.000000
vn -0.000000 1.000000 0.000000
vn 0.000000 0.000000 1.000000
vn 0.000000 0.000000 -1.000000
vn 1.000000 0.000000 0.000000
vn -1.000000 0.000000 0.000000
vn 0.000000 -1.000000 0.000000
vn -0.000000 1.000000 0.000000
vn -0.991445 0.000000 -0.130526
vn -0.923880 0.000000 -0.382683
vn -0.793353 0.000000 -0.608761
vn -0.608761 0.000000 -0.793353
vn -0.382683 0.000000 -0.923880
vn -0.130526 0.000000 -0.991445
vn 0.130526 0.000000 -0.991445
vn 0.382683 0.000000 -0.923880
vn 0.608761 0.000000 -0.793353
vn 0.793353 0.000000 -0.608761
vn 0.923880 0.000000 -0.382683
vn 0.991445 0.000000 -0.130526
vn 0.991445 0.000000 0.130526
vn 0.923880 0.000000 0.382683
vn 0.793353 0.000000 0.608761
vn 0.608761 0.000000 0.793353
vn 0.382683 0.000000 0.923880
vn 0.130526 0.000000 0.991445
vn -0.130526 0.000000 0.991445
vn -0.382683 0.000000 0.923880
vn -0.608761 0.000000 0.793353
vn -0.793353 0.000000 0.608761
vn -0.923880 0.000000 0.382683
vn -0.991445 0.000000 0.130526
vn 0.000000 1.000000 0.000000
vn 0.000000 -1.000000 0.000000
vn 0.000000 0.000000 1.000000
vn 0.000000 0.000000 -1.000000
vn 1.000000 0.000000 0.000000
vn -1.000000 0.000000 0.000000
vn 0.000000 -1.000000 0.000000
vn -0.000000 1.000000 0.000000
vn 0.000000 0.000000 1.000000
vn 0.000000 0.000000 -1.000000
vn 1.000000 0.000000 0.000000
vn -1.000000 0.000000 0.000000
vn 0.000000 -1.000000 0.000000
vn -0.000000 1.000000 0.000000
vn 0.000000 0.000000 1.000000
vn 0.000000 0.000000 -1.000000
vn 1.000000 0.000000 0.000000
vn -1.000000 0.000000 0.000000
vn 0.000000 -1.000000 0.000000
vn -0.000000 1.000000 0.000000
vn 0.000000 0.000000 1.000000
vn 0.000000 0.000000 -1.000000
vn 1.000000 0.000000 0.000000
vn -1.000000 0.000000 0.000000
vn 0.000000 -1.000000 0.000000
vn -0.000000 1.000000 0.000000
vn 0.000000 0.000000 1.000000
vn 0.000000 0.000000 -1.000000
vn 1.000000 0.000000 0.000000
vn -1.000000 0.000000 0.000000
vn 0.000000 -1.000000 0.000000
vn -0.000000 1.000000 0.000000
vn 0.000000 0.000000 1.000000
vn 0.000000 0.000000 -1.000000
vn 1.000000 0.000000 0.000000
vn -1.000000 0.000000 0.000000
vn 0.000000 -1.000000 0.000000
vn -0.000000 1.000000 0.000000
vn 0.000000 0.000000 1.000000
vn 0.000000 0.000000 -1.000000
vn 1.000000 0.000000 0.000000
vn -1.000000 0.000000 0.000000
vn 0.000000 -1.000000 0.000000
vn -0.000000 1.000000 0.000000
vn 0.000000 0.000000 1.000000
vn 0.000000 0.000000 -1.000000
vn 1.000000 0.000000 0.000000
vn -1.000000 0.000000 0.000000
vn 0.000000 -1.000000 0.000000
vn -0.000000 1.000000 0.000000
vn 0.000000 0.000000 1.000000
vn 0.000000 0.000000 -1.000000
vn 1.000000 0.000000 0.000000
vn -1.000000 0.000000 0.000000
vn 0.000000 -1.000000 0.000000
vn -0.000000 1.000000 0.000000
vn 0.000000 0.000000 1.000000
vn 0.000000 0.000000 -1.000000
vn 1.000000 0.000000 0.000000
vn -1.000000 0.000000 0.000000
vn 0.000000 -1.000000 0.000000
vn -0.000000 1.000000 0.000000
vn 0.000000 0.000000 1.000000
vn 0.000000 0.000000 -1.000000
vn 1.000000 0.000000 0.000000
vn -1.000000 0.000000 0.000000
vn 0.000000 -1.000000 0.000000
vn -0.000000 1.000000 0.000000
vn 0.000000 0.000000 1.000000
vn 0.000000 0.000000 -1.000000
vn 1.000000 0.000000 0.000000
vn -1.000000 0.000000 0.000000
vn 0.000000 -1.000000 0.000000
vn -0.000000 1.000000 0.000000
vn 0.000000 0.000000 1.000000
vn 0.000000 0.000000 -1.000000
vn 1.000000 0.000000 0.000000
vn -1.000000 0.000000 0.000000
vn 0.000000 -1.000000 0.000000
vn -0.000000 1.000000 0.000000
vn 0.000000 0.000000 1.000000
vn 0.000000 0.000000 -1.000000
vn 1.000000 0.000000 0.000000
vn -1.000000 0.000000 0.000000
vn 0.000000 -1.000000 0.000000
vn -0.000000 1.000000 0.000000
usemtl oxygen_green
f 1/1/1 3/2/1 4/3/1 2/4/1
f 3/5/2 5/6/2 6/7/2 4/8/2
f 5/9/3 7/10/3 8/11/3 6/12/3
f 7/13/4 9/14/4 10/15/4 8/16/4
f 9/17/5 11/18/5 12/19/5 10/20/5
f 11/21/6 13/22/6 14/23/6 12/24/6
f 13/25/7 15/26/7 16/27/7 14/28/7
f 15/29/8 17/30/8 18/31/8 16/32/8
f 17/33/9 19/34/9 20/35/9 18/36/9
f 19/37/10 21/38/10 22/39/10 20/40/10
f 21/41/11 23/42/11 24/43/11 22/44/11
f 23/45/12 25/46/12 26/47/12 24/48/12
f 25/49/13 27/50/13 28/51/13 26/52/13
f 27/53/14 29/54/14 30/55/14 28/56/14
f 29/57/15 31/58/15 32/59/15 30/60/15
f 31/61/16 33/62/16 34/63/16 32/64/16
f 33/65/17 35/66/17 36/67/17 34/68/17
f 35/69/18 37/70/18 38/71/18 36/72/18
f 37/73/19 39/74/19 40/75/19 38/76/19
f 39/77/20 41/78/20 42/79/20 40/80/20
f 41/81/21 43/82/21 44/83/21 42/84/21
f 43/85/22 45/86/22 46/87/22 44/88/22
f 45/89/23 47/90/23 48/91/23 46/92/23
f 47/93/24 1/94/24 2/95/24 48/96/24
f 47/97/25 45/98/25 43/99/25 41/100/25 39/101/25 37/102/25 35/103/25 33/104/25 31/105/25 29/106/25 27/107/25 25/108/25 23/109/25 21/110/25 19/111/25 17/112/25 15/113/25 13/114/25 11/115/25 9/116/25 7/117/25 5/118/25 3/119/25 1/120/25
f 2/121/26 4/122/26 6/123/26 8/124/26 10/125/26 12/126/26 14/127/26 16/128/26 18/129/26 20/130/26 22/131/26 24/132/26 26/133/26 28/134/26 30/135/26 32/136/26 34/137/26 36/138/26 38/139/26 40/140/26 42/141/26 44/142/26 46/143/26 48/144/26
usemtl painted_metal
f 49/145/27 50/146/27 51/147/27 52/148/27
f 54/149/28 53/150/28 56/151/28 55/152/28
f 53/153/29 49/154/29 52/155/29 56/156/29
f 50/157/30 54/158/30 55/159/30 51/160/30
f 52/161/31 51/162/31 55/163/31 56/164/31
f 53/165/32 54/166/32 50/167/32 49/168/32
f 57/169/33 58/170/33 59/171/33 60/172/33
f 62/173/34 61/174/34 64/175/34 63/176/34
f 61/177/35 57/178/35 60/179/35 64/180/35
f 58/181/36 62/182/36 63/183/36 59/184/36
f 60/185/37 59/186/37 63/187/37 64/188/37
f 61/189/38 62/190/38 58/191/38 57/192/38
usemtl oxygen_green
f 65/193/39 67/194/39 68/195/39 66/196/39
f 67/197/40 69/198/40 70/199/40 68/200/40
f 69/201/41 71/202/41 72/203/41 70/204/41
f 71/205/42 73/206/42 74/207/42 72/208/42
f 73/209/43 75/210/43 76/211/43 74/212/43
f 75/213/44 77/214/44 78/215/44 76/216/44
f 77/217/45 79/218/45 80/219/45 78/220/45
f 79/221/46 81/222/46 82/223/46 80/224/46
f 81/225/47 83/226/47 84/227/47 82/228/47
f 83/229/48 85/230/48 86/231/48 84/232/48
f 85/233/49 87/234/49 88/235/49 86/236/49
f 87/237/50 89/238/50 90/239/50 88/240/50
f 89/241/51 91/242/51 92/243/51 90/244/51
f 91/245/52 93/246/52 94/247/52 92/248/52
f 93/249/53 95/250/53 96/251/53 94/252/53
f 95/253/54 97/254/54 98/255/54 96/256/54
f 97/257/55 99/258/55 100/259/55 98/260/55
f 99/261/56 101/262/56 102/263/56 100/264/56
f 101/265/57 103/266/57 104/267/57 102/268/57
f 103/269/58 105/270/58 106/271/58 104/272/58
f 105/273/59 107/274/59 108/275/59 106/276/59
f 107/277/60 109/278/60 110/279/60 108/280/60
f 109/281/61 111/282/61 112/283/61 110/284/61
f 111/285/62 65/286/62 66/287/62 112/288/62
f 111/289/63 109/290/63 107/291/63 105/292/63 103/293/63 101/294/63 99/295/63 97/296/63 95/297/63 93/298/63 91/299/63 89/300/63 87/301/63 85/302/63 83/303/63 81/304/63 79/305/63 77/306/63 75/307/63 73/308/63 71/309/63 69/310/63 67/311/63 65/312/63
f 66/313/64 68/314/64 70/315/64 72/316/64 74/317/64 76/318/64 78/319/64 80/320/64 82/321/64 84/322/64 86/323/64 88/324/64 90/325/64 92/326/64 94/327/64 96/328/64 98/329/64 100/330/64 102/331/64 104/332/64 106/333/64 108/334/64 110/335/64 112/336/64
usemtl painted_metal
f 113/337/65 114/338/65 115/339/65 116/340/65
f 118/341/66 117/342/66 120/343/66 119/344/66
f 117/345/67 113/346/67 116/347/67 120/348/67
f 114/349/68 118/350/68 119/351/68 115/352/68
f 116/353/69 115/354/69 119/355/69 120/356/69
f 117/357/70 118/358/70 114/359/70 113/360/70
f 121/361/71 122/362/71 123/363/71 124/364/71
f 126/365/72 125/366/72 128/367/72 127/368/72
f 125/369/73 121/370/73 124/371/73 128/372/73
f 122/373/74 126/374/74 127/375/74 123/376/74
f 124/377/75 123/378/75 127/379/75 128/380/75
f 125/381/76 126/382/76 122/383/76 121/384/76
f 129/385/77 130/386/77 131/387/77 132/388/77
f 134/389/78 133/390/78 136/391/78 135/392/78
f 133/393/79 129/394/79 132/395/79 136/396/79
f 130/397/80 134/398/80 135/399/80 131/400/80
f 132/401/81 131/402/81 135/403/81 136/404/81
f 133/405/82 134/406/82 130/407/82 129/408/82
usemtl dark_rubber
f 137/409/83 138/410/83 139/411/83 140/412/83
f 142/413/84 141/414/84 144/415/84 143/416/84
f 141/417/85 137/418/85 140/419/85 144/420/85
f 138/421/86 142/422/86 143/423/86 139/424/86
f 140/425/87 139/426/87 143/427/87 144/428/87
f 141/429/88 142/430/88 138/431/88 137/432/88
usemtl painted_metal
f 145/433/89 146/434/89 147/435/89 148/436/89
f 150/437/90 149/438/90 152/439/90 151/440/90
f 149/441/91 145/442/91 148/443/91 152/444/91
f 146/445/92 150/446/92 151/447/92 147/448/92
f 148/449/93 147/450/93 151/451/93 152/452/93
f 149/453/94 150/454/94 146/455/94 145/456/94
usemtl dark_rubber
f 153/457/95 154/458/95 155/459/95 156/460/95
f 158/461/96 157/462/96 160/463/96 159/464/96
f 157/465/97 153/466/97 156/467/97 160/468/97
f 154/469/98 158/470/98 159/471/98 155/472/98
f 156/473/99 155/474/99 159/475/99 160/476/99
f 157/477/100 158/478/100 154/479/100 153/480/100
usemtl tape_white
f 161/481/101 162/482/101 163/483/101 164/484/101
f 166/485/102 165/486/102 168/487/102 167/488/102
f 165/489/103 161/490/103 164/491/103 168/492/103
f 162/493/104 166/494/104 167/495/104 163/496/104
f 164/497/105 163/498/105 167/499/105 168/500/105
f 165/501/106 166/502/106 162/503/106 161/504/106
usemtl label_blue
f 169/505/107 170/506/107 171/507/107 172/508/107
f 174/509/108 173/510/108 176/511/108 175/512/108
f 173/513/109 169/514/109 172/515/109 176/516/109
f 170/517/110 174/518/110 175/519/110 171/520/110
f 172/521/111 171/522/111 175/523/111 176/524/111
f 173/525/112 174/526/112 170/527/112 169/528/112
usemtl tape_white
f 177/529/113 178/530/113 179/531/113 180/532/113
f 182/533/114 181/534/114 184/535/114 183/536/114
f 181/537/115 177/538/115 180/539/115 184/540/115
f 178/541/116 182/542/116 183/543/116 179/544/116
f 180/545/117 179/546/117 183/547/117 184/548/117
f 181/549/118 182/550/118 178/551/118 177/552/118
usemtl label_blue
f 185/553/119 186/554/119 187/555/119 188/556/119
f 190/557/120 189/558/120 192/559/120 191/560/120
f 189/561/121 185/562/121 188/563/121 192/564/121
f 186/565/122 190/566/122 191/567/122 187/568/122
f 188/569/123 187/570/123 191/571/123 192/572/123
f 189/573/124 190/574/124 186/575/124 185/576/124
usemtl paper_label
f 193/577/125 194/578/125 195/579/125 196/580/125
f 198/581/126 197/582/126 200/583/126 199/584/126
f 197/585/127 193/586/127 196/587/127 200/588/127
f 194/589/128 198/590/128 199/591/128 195/592/128
f 196/593/129 195/594/129 199/595/129 200/596/129
f 197/597/130 198/598/130 194/599/130 193/600/130
f 201/601/131 202/602/131 203/603/131 204/604/131
f 206/605/132 205/606/132 208/607/132 207/608/132
f 205/609/133 201/610/133 204/611/133 208/612/133
f 202/613/134 206/614/134 207/615/134 203/616/134
f 204/617/135 203/618/135 207/619/135 208/620/135
f 205/621/136 206/622/136 202/623/136 201/624/136
usemtl painted_metal
f 209/625/137 210/626/137 211/627/137 212/628/137
f 214/629/138 213/630/138 216/631/138 215/632/138
f 213/633/139 209/634/139 212/635/139 216/636/139
f 210/637/140 214/638/140 215/639/140 211/640/140
f 212/641/141 211/642/141 215/643/141 216/644/141
f 213/645/142 214/646/142 210/647/142 209/648/142
usemtl dark_rubber
f 217/649/143 218/650/143 219/651/143 220/652/143
f 222/653/144 221/654/144 224/655/144 223/656/144
f 221/657/145 217/658/145 220/659/145 224/660/145
f 218/661/146 222/662/146 223/663/146 219/664/146
f 220/665/147 219/666/147 223/667/147 224/668/147
f 221/669/148 222/670/148 218/671/148 217/672/148
