# Generated by tools/generate_ambulance_proxy_meshes.py
mtllib ambulance_proxy_materials.mtl
o ambulance_iv_stand
v 0.025000 -0.870000 0.000000
v 0.025000 0.870000 0.000000
v 0.023097 -0.870000 0.009567
v 0.023097 0.870000 0.009567
v 0.017678 -0.870000 0.017678
v 0.017678 0.870000 0.017678
v 0.009567 -0.870000 0.023097
v 0.009567 0.870000 0.023097
v 0.000000 -0.870000 0.025000
v 0.000000 0.870000 0.025000
v -0.009567 -0.870000 0.023097
v -0.009567 0.870000 0.023097
v -0.017678 -0.870000 0.017678
v -0.017678 0.870000 0.017678
v -0.023097 -0.870000 0.009567
v -0.023097 0.870000 0.009567
v -0.025000 -0.870000 0.000000
v -0.025000 0.870000 0.000000
v -0.023097 -0.870000 -0.009567
v -0.023097 0.870000 -0.009567
v -0.017678 -0.870000 -0.017678
v -0.017678 0.870000 -0.017678
v -0.009567 -0.870000 -0.023097
v -0.009567 0.870000 -0.023097
v -0.000000 -0.870000 -0.025000
v -0.000000 0.870000 -0.025000
v 0.009567 -0.870000 -0.023097
v 0.009567 0.870000 -0.023097
v 0.017678 -0.870000 -0.017678
v 0.017678 0.870000 -0.017678
v 0.023097 -0.870000 -0.009567
v 0.023097 0.870000 -0.009567
v -0.275000 0.882500 -0.017500
v 0.275000 0.882500 -0.017500
v 0.275000 0.917500 -0.017500
v -0.275000 0.917500 -0.017500
v -0.275000 0.882500 0.017500
v 0.275000 0.882500 0.017500
v 0.275000 0.917500 0.017500
v -0.275000 0.917500 0.017500
v -0.277500 0.730000 -0.017500
v -0.242500 0.730000 -0.017500
v -0.242500 0.910000 -0.017500
v -0.277500 0.910000 -0.017500
v -0.277500 0.730000 0.017500
v -0.242500 0.730000 0.017500
v -0.242500 0.910000 0.017500
v -0.277500 0.910000 0.017500
v 0.242500 0.730000 -0.017500
v 0.277500 0.730000 -0.017500
v 0.277500 0.910000 -0.017500
v 0.242500 0.910000 -0.017500
v 0.242500 0.730000 0.017500
v 0.277500 0.730000 0.017500
v 0.277500 0.910000 0.017500
v 0.242500 0.910000 0.017500
v -0.330000 0.360000 -0.017500
v -0.150000 0.360000 -0.017500
v -0.150000 0.720000 -0.017500
v -0.330000 0.720000 -0.017500
v -0.330000 0.360000 0.017500
v -0.150000 0.360000 0.017500
v -0.150000 0.720000 0.017500
v -0.330000 0.720000 0.017500
v -0.257500 0.240000 -0.012500
v -0.222500 0.240000 -0.012500
v -0.222500 0.440000 -0.012500
v -0.257500 0.440000 -0.012500
v -0.257500 0.240000 0.012500
v -0.222500 0.240000 0.012500
v -0.222500 0.440000 0.012500
v -0.257500 0.440000 0.012500
v -0.249000 -0.040000 -0.009000
v -0.231000 -0.040000 -0.009000
v -0.231000 0.360000 -0.009000
v -0.249000 0.360000 -0.009000
v -0.249000 -0.040000 0.009000
v -0.231000 -0.040000 0.009000
v -0.231000 0.360000 0.009000
v -0.249000 0.360000 0.009000
v -0.250000 -0.038000 -0.009000
v 0.050000 -0.038000 -0.009000
v 0.050000 -0.022000 -0.009000
v -0.250000 -0.022000 -0.009000
v -0.250000 -0.038000 0.009000
v 0.050000 -0.038000 0.009000
v 0.050000 -0.022000 0.009000
v -0.250000 -0.022000 0.009000
v -0.025000 -0.902500 -0.025000
v 0.255000 -0.902500 -0.025000
v 0.255000 -0.857500 -0.025000
v -0.025000 -0.857500 -0.025000
v -0.025000 -0.902500 0.025000
v 0.255000 -0.902500 0.025000
v 0.255000 -0.857500 0.025000
v -0.025000 -0.857500 0.025000
v -0.140000 -0.902500 -0.025000
v 0.025000 -0.902500 -0.025000
v 0.025000 -0.857500 -0.025000
v -0.140000 -0.857500 -0.025000
v -0.140000 -0.902500 0.224186
v 0.025000 -0.902500 0.224186
v 0.025000 -0.857500 0.224186
v -0.140000 -0.857500 0.224186
v -0.140000 -0.902500 -0.224186
v 0.025000 -0.902500 -0.224186
v 0.025000 -0.857500 -0.224186
v -0.140000 -0.857500 -0.224186
v -0.140000 -0.902500 0.025000
v 0.025000 -0.902500 0.025000
v 0.025000 -0.857500 0.025000
v -0.140000 -0.857500 0.025000
v 0.285000 -0.935000 0.000000
v 0.285000 -0.885000 0.000000
v 0.277631 -0.935000 0.027500
v 0.277631 -0.885000 0.027500
v 0.257500 -0.935000 0.047631
v 0.257500 -0.885000 0.047631
v 0.230000 -0.935000 0.055000
v 0.230000 -0.885000 0.055000
v 0.202500 -0.935000 0.047631
v 0.202500 -0.885000 0.047631
v 0.182369 -0.935000 0.027500
v 0.182369 -0.885000 0.027500
v 0.175000 -0.935000 0.000000
v 0.175000 -0.885000 0.000000
v 0.182369 -0.935000 -0.027500
v 0.182369 -0.885000 -0.027500
v 0.202500 -0.935000 -0.047631
v 0.202500 -0.885000 -0.047631
v 0.230000 -0.935000 -0.055000
v 0.230000 -0.885000 -0.055000
v 0.257500 -0.935000 -0.047631
v 0.257500 -0.885000 -0.047631
v 0.277631 -0.935000 -0.027500
v 0.277631 -0.885000 -0.027500
v -0.060000 -0.935000 0.199186
v -0.060000 -0.885000 0.199186
v -0.067369 -0.935000 0.226686
v -0.067369 -0.885000 0.226686
v -0.087500 -0.935000 0.246817
v -0.087500 -0.885000 0.246817
v -0.115000 -0.935000 0.254186
v -0.115000 -0.885000 0.254186
v -0.142500 -0.935000 0.246817
v -0.142500 -0.885000 0.246817
v -0.162631 -0.935000 0.226686
v -0.162631 -0.885000 0.226686
v -0.170000 -0.935000 0.199186
v -0.170000 -0.885000 0.199186
v -0.162631 -0.935000 0.171686
v -0.162631 -0.885000 0.171686
v -0.142500 -0.935000 0.151554
v -0.142500 -0.885000 0.151554
v -0.115000 -0.935000 0.144186
v -0.115000 -0.885000 0.144186
v -0.087500 -0.935000 0.151554
v -0.087500 -0.885000 0.151554
v -0.067369 -0.935000 0.171686
v -0.067369 -0.885000 0.171686
v -0.060000 -0.935000 -0.199186
v -0.060000 -0.885000 -0.199186
v -0.067369 -0.935000 -0.171686
v -0.067369 -0.885000 -0.171686
v -0.087500 -0.935000 -0.151554
v -0.087500 -0.885000 -0.151554
v -0.115000 -0.935000 -0.144186
v -0.115000 -0.885000 -0.144186
v -0.142500 -0.935000 -0.151554
v -0.142500 -0.885000 -0.151554
v -0.162631 -0.935000 -0.171686
v -0.162631 -0.885000 -0.171686
v -0.170000 -0.935000 -0.199186
v -0.170000 -0.885000 -0.199186
v -0.162631 -0.935000 -0.226686
v -0.162631 -0.885000 -0.226686
v -0.142500 -0.935000 -0.246817
v -0.142500 -0.885000 -0.246817
v -0.115000 -0.935000 -0.254186
v -0.115000 -0.885000 -0.254186
v -0.087500 -0.935000 -0.246817
v -0.087500 -0.885000 -0.246817
v -0.067369 -0.935000 -0.226686
v -0.067369 -0.885000 -0.226686
vt 0.000000 0.000000
vt 1.000000 0.000000
vt 1.000000 1.000000
vt 0.000000 1.000000
vt 0.000000 0.000000
vt 1.000000 0.000000
vt 1.000000 1.000000
vt 0.000000 1.000000
vt 0.000000 0.000000
vt 1.000000 0.000000
vt 1.000000 1.000000
vt 0.000000 1.000000
vt 0.000000 0.000000
vt 1.000000 0.000000
vt 1.000000 1.000000
vt 0.000000 1.000000
vt 0.000000 0.000000
vt 1.000000 0.000000
vt 1.000000 1.000000
vt 0.000000 1.000000
vt 0.000000 0.000000
vt 1.000000 0.000000
vt 1.000000 1.000000
vt 0.000000 1.000000
vt 0.000000 0.000000
vt 1.000000 0.000000
vt 1.000000 1.000000
vt 0.000000 1.000000
vt 0.000000 0.000000
vt 1.000000 0.000000
vt 1.000000 1.000000
vt 0.000000 1.000000
vt 0.000000 0.000000
vt 1.000000 0.000000
vt 1.000000 1.000000
vt 0.000000 1.000000
vt 0.000000 0.000000
vt 1.000000 0.000000
vt 1.000000 1.000000
vt 0.000000 1.000000
vt 0.000000 0.000000
vt 1.000000 0.000000
vt 1.000000 1.000000
vt 0.000000 1.000000
vt 0.000000 0.000000
vt 1.000000 0.000000
vt 1.000000 1.000000
vt 0.000000 1.000000
vt 0.000000 0.000000
vt 1.000000 0.000000
vt 1.000000 1.000000
vt 0.000000 1.000000
vt 0.000000 0.000000
vt 1.000000 0.000000
vt 1.000000 1.000000
vt 0.000000 1.000000
vt 0.000000 0.000000
vt 1.000000 0.000000
vt 1.000000 1.000000
vt 0.000000 1.000000
vt 0.000000 0.000000
vt 1.000000 0.000000
vt 1.000000 1.000000
vt 0.000000 1.000000
vt 1.000000 0.500000
vt 0.961940 0.691342
vt 0.853553 0.853553
vt 0.691342 0.961940
vt 0.500000 1.000000
vt 0.308658 0.961940
vt 0.146447 0.853553
vt 0.038060 0.691342
vt 0.000000 0.500000
vt 0.038060 0.308658
vt 0.146447 0.146447
vt 0.308658 0.038060
vt 0.500000 0.000000
vt 0.691342 0.038060
vt 0.853553 0.146447
vt 0.961940 0.308658
vt 1.000000 0.500000
vt 0.961940 0.691342
vt 0.853553 0.853553
vt 0.691342 0.961940
vt 0.500000 1.000000
vt 0.308658 0.961940
vt 0.146447 0.853553
vt 0.038060 0.691342
vt 0.000000 0.500000
vt 0.038060 0.308658
vt 0.146447 0.146447
vt 0.308658 0.038060
vt 0.500000 0.000000
vt 0.691342 0.038060
vt 0.853553 0.146447
vt 0.961940 0.308658
vt 0.000000 0.000000
vt 1.000000 0.000000
vt 1.000000 1.000000
vt 0.000000 1.000000
vt 0.000000 0.000000
vt 1.000000 0.000000
vt 1.000000 1.000000
vt 0.000000 1.000000
vt 0.000000 0.000000
vt 1.000000 0.000000
vt 1.000000 1.000000
vt 0.000000 1.000000
vt 0.000000 0.000000
vt 1.000000 0.000000
vt 1.000000 1.000000
vt 0.000000 1.000000
vt 0.000000 0.000000
vt 1.000000 0.000000
vt 1.000000 1.000000
vt 0.000000 1.000000
vt 0.000000 0.000000
vt 1.000000 0.000000
vt 1.000000 1.000000
vt 0.000000 1.000000
vt 0.000000 0.000000
vt 1.000000 0.000000
vt 1.000000 1.000000
vt 0.000000 1.000000
vt 0.000000 0.000000
vt 1.000000 0.000000
vt 1.000000 1.000000
vt 0.000000 1.000000
vt 0.000000 0.000000
vt 1.000000 0.000000
vt 1.000000 1.000000
vt 0.000000 1.000000
vt 0.000000 0.000000
vt 1.000000 0.000000
vt 1.000000 1.000000
vt 0.000000 1.000000
vt 0.000000 0.000000
vt 1.000000 0.000000
vt 1.000000 1.000000
vt 0.000000 1.000000
vt 0.000000 0.000000
vt 1.000000 0.000000
vt 1.000000 1.000000
vt 0.000000 1.000000
vt 0.000000 0.000000
vt 1.000000 0.000000
vt 1.000000 1.000000
vt 0.000000 1.000000
vt 0.000000 0.000000
vt 1.000000 0.000000
vt 1.000000 1.000000
vt 0.000000 1.000000
vt 0.000000 0.000000
vt 1.000000 0.000000
vt 1.000000 1.000000
vt 0.000000 1.000000
vt 0.000000 0.000000
vt 1.000000 0.000000
vt 1.000000 1.000000
vt 0.000000 1.000000
vt 0.000000 0.000000
vt 1.000000 0.000000
vt 1.000000 1.000000
vt 0.000000 1.000000
vt 0.000000 0.000000
vt 1.000000 0.000000
vt 1.000000 1.000000
vt 0.000000 1.000000
vt 0.000000 0.000000
vt 1.000000 0.000000
vt 1.000000 1.000000
vt 0.000000 1.000000
vt 0.000000 0.000000
vt 1.000000 0.000000
vt 1.000000 1.000000
vt 0.000000 1.000000
vt 0.000000 0.000000
vt 1.000000 0.000000
vt 1.000000 1.000000
vt 0.000000 1.000000
vt 0.000000 0.000000
vt 1.000000 0.000000
vt 1.000000 1.000000
vt 0.000000 1.000000
vt 0.000000 0.000000
vt 1.000000 0.000000
vt 1.000000 1.000000
vt 0.000000 1.000000
vt 0.000000 0.000000
vt 1.000000 0.000000
vt 1.000000 1.000000
vt 0.000000 1.000000
vt 0.000000 0.000000
vt 1.000000 0.000000
vt 1.000000 1.000000
vt 0.000000 1.000000
vt 0.000000 0.000000
vt 1.000000 0.000000
vt 1.000000 1.000000
vt 0.000000 1.000000
vt 0.000000 0.000000
vt 1.000000 0.000000
vt 1.000000 1.000000
vt 0.000000 1.000000
vt 0.000000 0.000000
vt 1.000000 0.000000
vt 1.000000 1.000000
vt 0.000000 1.000000
vt 0.000000 0.000000
vt 1.000000 0.000000
vt 1.000000 1.000000
vt 0.000000 1.000000
vt 0.000000 0.000000
vt 1.000000 0.000000
vt 1.000000 1.000000
vt 0.000000 1.000000
vt 0.000000 0.000000
vt 1.000000 0.000000
vt 1.000000 1.000000
vt 0.000000 1.000000
vt 0.000000 0.000000
vt 1.000000 0.000000
vt 1.000000 1.000000
vt 0.000000 1.000000
vt 0.000000 0.000000
vt 1.000000 0.000000
vt 1.000000 1.000000
vt 0.000000 1.000000
vt 0.000000 0.000000
vt 1.000000 0.000000
vt 1.000000 1.000000
vt 0.000000 1.000000
vt 0.000000 0.000000
vt 1.000000 0.000000
vt 1.000000 1.000000
vt 0.000000 1.000000
vt 0.000000 0.000000
vt 1.000000 0.000000
vt 1.000000 1.000000
vt 0.000000 1.000000
vt 0.000000 0.000000
vt 1.000000 0.000000
vt 1.000000 1.000000
vt 0.000000 1.000000
vt 0.000000 0.000000
vt 1.000000 0.000000
vt 1.000000 1.000000
vt 0.000000 1.000000
vt 0.000000 0.000000
vt 1.000000 0.000000
vt 1.000000 1.000000
vt 0.000000 1.000000
vt 0.000000 0.000000
vt 1.000000 0.000000
vt 1.000000 1.000000
vt 0.000000 1.000000
vt 0.000000 0.000000
vt 1.000000 0.000000
vt 1.000000 1.000000
vt 0.000000 1.000000
vt 0.000000 0.000000
vt 1.000000 0.000000
vt 1.000000 1.000000
vt 0.000000 1.000000
vt 0.000000 0.000000
vt 1.000000 0.000000
vt 1.000000 1.000000
vt 0.000000 1.000000
vt 0.000000 0.000000
vt 1.000000 0.000000
vt 1.000000 1.000000
vt 0.000000 1.000000
vt 0.000000 0.000000
vt 1.000000 0.000000
vt 1.000000 1.000000
vt 0.000000 1.000000
vt 0.000000 0.000000
vt 1.000000 0.000000
vt 1.000000 1.000000
vt 0.000000 1.000000
vt 0.000000 0.000000
vt 1.000000 0.000000
vt 1.000000 1.000000
vt 0.000000 1.000000
vt 0.000000 0.000000
vt 1.000000 0.000000
vt 1.000000 1.000000
vt 0.000000 1.000000
vt 0.000000 0.000000
vt 1.000000 0.000000
vt 1.000000 1.000000
vt 0.000000 1.000000
vt 0.000000 0.000000
vt 1.000000 0.000000
vt 1.000000 1.000000
vt 0.000000 1.000000
vt 0.000000 0.000000
vt 1.000000 0.000000
vt 1.000000 1.000000
vt 0.000000 1.000000
vt 0.000000 0.000000
vt 1.000000 0.000000
vt 1.000000 1.000000
vt 0.000000 1.000000
vt 0.000000 0.000000
vt 1.000000 0.000000
vt 1.000000 1.000000
vt 0.000000 1.000000
vt 0.000000 0.000000
vt 1.000000 0.000000
vt 1.000000 1.000000
vt 0.000000 1.000000
vt 0.000000 0.000000
vt 1.000000 0.000000
vt 1.000000 1.000000
vt 0.000000 1.000000
vt 0.000000 0.000000
vt 1.000000 0.000000
vt 1.000000 1.000000
vt 0.000000 1.000000
vt 0.000000 0.000000
vt 1.000000 0.000000
vt 1.000000 1.000000
vt 0.000000 1.000000
vt 0.000000 0.000000
vt 1.000000 0.000000
vt 1.000000 1.000000
vt 0.000000 1.000000
vt 0.000000 0.000000
vt 1.000000 0.000000
vt 1.000000 1.000000
vt 0.000000 1.000000
vt 0.000000 0.000000
vt 1.000000 0.000000
vt 1.000000 1.000000
vt 0.000000 1.000000
vt 0.000000 0.000000
vt 1.000000 0.000000
vt 1.000000 1.000000
vt 0.000000 1.000000
vt 0.000000 0.000000
vt 1.000000 0.000000
vt 1.000000 1.000000
vt 0.000000 1.000000
vt 0.000000 0.000000
vt 1.000000 0.000000
vt 1.000000 1.000000
vt 0.000000 1.000000
vt 0.000000 0.000000
vt 1.000000 0.000000
vt 1.000000 1.000000
vt 0.000000 1.000000
vt 0.000000 0.000000
vt 1.000000 0.000000
vt 1.000000 1.000000
vt 0.000000 1.000000
vt 0.000000 0.000000
vt 1.000000 0.000000
vt 1.000000 1.000000
vt 0.000000 1.000000
vt 0.000000 0.000000
vt 1.000000 0.000000
vt 1.000000 1.000000
vt 0.000000 1.000000
vt 0.000000 0.000000
vt 1.000000 0.000000
vt 1.000000 1.000000
vt 0.000000 1.000000
vt 0.000000 0.000000
vt 1.000000 0.000000
vt 1.000000 1.000000
vt 0.000000 1.000000
vt 0.000000 0.000000
vt 1.000000 0.000000
vt 1.000000 1.000000
vt 0.000000 1.000000
vt 0.000000 0.000000
vt 1.000000 0.000000
vt 1.000000 1.000000
vt 0.000000 1.000000
vt 0.000000 0.000000
vt 1.000000 0.000000
vt 1.000000 1.000000
vt 0.000000 1.000000
vt 1.000000 0.500000
vt 0.933013 0.750000
vt 0.750000 0.933013
vt 0.500000 1.000000
vt 0.250000 0.933013
vt 0.066987 0.750000
vt 0.000000 0.500000
vt 0.066987 0.250000
vt 0.250000 0.066987
vt 0.500000 0.000000
vt 0.750000 0.066987
vt 0.933013 0.250000
vt 1.000000 0.500000
vt 0.933013 0.750000
vt 0.750000 0.933013
vt 0.500000 1.000000
vt 0.250000 0.933013
vt 0.066987 0.750000
vt 0.000000 0.500000
vt 0.066987 0.250000
vt 0.250000 0.066987
vt 0.500000 0.000000
vt 0.750000 0.066987
vt 0.933013 0.250000
vt 0.000000 0.000000
vt 1.000000 0.000000
vt 1.000000 1.000000
vt 0.000000 1.000000
vt 0.000000 0.000000
vt 1.000000 0.000000
vt 1.000000 1.000000
vt 0.000000 1.000000
vt 0.000000 0.000000
vt 1.000000 0.000000
vt 1.000000 1.000000
vt 0.000000 1.000000
vt 0.000000 0.000000
vt 1.000000 0.000000
vt 1.000000 1.000000
vt 0.000000 1.000000
vt 0.000000 0.000000
vt 1.000000 0.000000
vt 1.000000 1.000000
vt 0.000000 1.000000
vt 0.000000 0.000000
vt 1.000000 0.000000
vt 1.000000 1.000000
vt 0.000000 1.000000
vt 0.000000 0.000000
vt 1.000000 0.000000
vt 1.000000 1.000000
vt 0.000000 1.000000
vt 0.000000 0.000000
vt 1.000000 0.000000
vt 1.000000 1.000000
vt 0.000000 1.000000
vt 0.000000 0.000000
vt 1.000000 0.000000
vt 1.000000 1.000000
vt 0.000000 1.000000
vt 0.000000 0.000000
vt 1.000000 0.000000
vt 1.000000 1.000000
vt 0.000000 1.000000
vt 0.000000 0.000000
vt 1.000000 0.000000
vt 1.000000 1.000000
vt 0.000000 1.000000
vt 0.000000 0.000000
vt 1.000000 0.000000
vt 1.000000 1.000000
vt 0.000000 1.000000
vt 1.000000 0.500000
vt 0.933013 0.750000
vt 0.750000 0.933013
vt 0.500000 1.000000
vt 0.250000 0.933013
vt 0.066987 0.750000
vt 0.000000 0.500000
vt 0.066987 0.250000
vt 0.250000 0.066987
vt 0.500000 0.000000
vt 0.750000 0.066987
vt 0.933013 0.250000
vt 1.000000 0.500000
vt 0.933013 0.750000
vt 0.750000 0.933013
vt 0.500000 1.000000
vt 0.250000 0.933013
vt 0.066987 0.750000
vt 0.000000 0.500000
vt 0.066987 0.250000
vt 0.250000 0.066987
vt 0.500000 0.000000
vt 0.750000 0.066987
vt 0.933013 0.250000
vt 0.000000 0.000000
vt 1.000000 0.000000
vt 1.000000 1.000000
vt 0.000000 1.000000
vt 0.000000 0.000000
vt 1.000000 0.000000
vt 1.000000 1.000000
vt 0.000000 1.000000
vt 0.000000 0.000000
vt 1.000000 0.000000
vt 1.000000 1.000000
vt 0.000000 1.000000
vt 0.000000 0.000000
vt 1.000000 0.000000
vt 1.000000 1.000000
vt 0.000000 1.000000
vt 0.000000 0.000000
vt 1.000000 0.000000
vt 1.000000 1.000000
vt 0.000000 1.000000
vt 0.000000 0.000000
vt 1.000000 0.000000
vt 1.000000 1.000000
vt 0.000000 1.000000
vt 0.000000 0.000000
vt 1.000000 0.000000
vt 1.000000 1.000000
vt 0.000000 1.000000
vt 0.000000 0.000000
vt 1.000000 0.000000
vt 1.000000 1.000000
vt 0.000000 1.000000
vt 0.000000 0.000000
vt 1.000000 0.000000
vt 1.000000 1.000000
vt 0.000000 1.000000
vt 0.000000 0.000000
vt 1.000000 0.000000
vt 1.000000 1.000000
vt 0.000000 1.000000
vt 0.000000 0.000000
vt 1.000000 0.000000
vt 1.000000 1.000000
vt 0.000000 1.000000
vt 0.000000 0.000000
vt 1.000000 0.000000
vt 1.000000 1.000000
vt 0.000000 1.000000
vt 1.000000 0.500000
vt 0.933013 0.750000
vt 0.750000 0.933013
vt 0.500000 1.000000
vt 0.250000 0.933013
vt 0.066987 0.750000
vt 0.000000 0.500000
vt 0.066987 0.250000
vt 0.250000 0.066987
vt 0.500000 0.000000
vt 0.750000 0.066987
vt 0.933013 0.250000
vt 1.000000 0.500000
vt 0.933013 0.750000
vt 0.750000 0.933013
vt 0.500000 1.000000
vt 0.250000 0.933013
vt 0.066987 0.750000
vt 0.000000 0.500000
vt 0.066987 0.250000
vt 0.250000 0.066987
vt 0.500000 0.000000
vt 0.750000 0.066987
vt 0.933013 0.250000
vn -0.980785 0.000000 -0.195090
vn -0.831470 0.000000 -0.555570
vn -0.555570 0.000000 -0.831470
vn -0.195090 0.000000 -0.980785
vn 0.195090 0.000000 -0.980785
vn 0.555570 0.000000 -0.831470
vn 0.831470 0.000000 -0.555570
vn 0.980785 0.000000 -0.195090
vn 0.980785 0.000000 0.195090
vn 0.831470 0.000000 0.555570
vn 0.555570 0.000000 0.831470
vn 0.195090 0.000000 0.980785
vn -0.195090 0.000000 0.980785
vn -0.555570 0.000000 0.831470
vn -0.831470 0.000000 0.555570
vn -0.980785 0.000000 0.195090
vn 0.000000 1.000000 0.000000
vn 0.000000 -1.000000 0.000000
vn 0.000000 0.000000 1.000000
vn 0.000000 0.000000 -1.000000
vn 1.000000 0.000000 0.000000
vn -1.000000 0.000000 0.000000
vn 0.000000 -1.000000 0.000000
vn -0.000000 1.000000 0.000000
vn 0.000000 0.000000 1.000000
vn 0.000000 0.000000 -1.000000
vn 1.000000 0.000000 0.000000
vn -1.000000 0.000000 0.000000
vn 0.000000 -1.000000 0.000000
vn -0.000000 1.000000 0.000000
vn 0.000000 0.000000 1.000000
vn 0.000000 0.000000 -1.000000
vn 1.000000 0.000000 0.000000
vn -1.000000 0.000000 0.000000
vn 0.000000 -1.000000 0.000000
vn -0.000000 1.000000 0.000000
vn 0.000000 0.000000 1.000000
vn 0.000000 0.000000 -1.000000
vn 1.000000 0.000000 0.000000
vn -1.000000 0.000000 0.000000
vn 0.000000 -1.000000 0.000000
vn -0.000000 1.000000 0.000000
vn 0.000000 0.000000 1.000000
vn 0.000000 0.000000 -1.000000
vn 1.000000 0.000000 0.000000
vn -1.000000 0.000000 0.000000
vn 0.000000 -1.000000 0.000000
vn -0.000000 1.000000 0.000000
vn 0.000000 0.000000 1.000000
vn 0.000000 0.000000 -1.000000
vn 1.000000 0.000000 0.000000
vn -1.000000 0.000000 0.000000
vn 0.000000 -1.000000 0.000000
vn -0.000000 1.000000 0.000000
vn 0.000000 0.000000 1.000000
vn 0.000000 0.000000 -1.000000
vn 1.000000 0.000000 0.000000
vn -1.000000 0.000000 0.000000
vn 0.000000 -1.000000 0.000000
vn -0.000000 1.000000 0.000000
vn 0.000000 0.000000 1.000000
vn 0.000000 0.000000 -1.000000
vn 1.000000 0.000000 0.000000
vn -1.000000 0.000000 0.000000
vn 0.000000 -1.000000 0.000000
vn -0.000000 1.000000 0.000000
vn 0.000000 0.000000 1.000000
vn 0.000000 0.000000 -1.000000
vn 1.000000 0.000000 0.000000
vn -1.000000 0.000000 0.000000
vn 0.000000 -1.000000 0.000000
vn -0.000000 1.000000 0.000000
vn 0.000000 0.000000 1.000000
vn 0.000000 0.000000 -1.000000
vn 1.000000 0.000000 0.000000
vn -1.000000 0.000000 0.000000
vn 0.000000 -1.000000 0.000000
vn -0.000000 1.000000 0.000000
vn -0.965926 0.000000 -0.258819
vn -0.707107 0.000000 -0.707107
vn -0.258819 0.000000 -0.965926
vn 0.258819 0.000000 -0.965926
vn 0.707107 0.000000 -0.707107
vn 0.965926 0.000000 -0.258819
vn 0.965926 0.000000 0.258819
vn 0.707107 0.000000 0.707107
vn 0.258819 0.000000 0.965926
vn -0.258819 0.000000 0.965926
vn -0.707107 0.000000 0.707107
vn -0.965926 0.000000 0.258819
vn 0.000000 1.000000 0.000000
vn 0.000000 -1.000000 0.000000
vn -0.965926 0.000000 -0.258819
vn -0.707107 0.000000 -0.707107
vn -0.258819 0.000000 -0.965926
vn 0.258819 0.000000 -0.965926
vn 0.707107 0.000000 -0.707107
vn 0.965926 0.000000 -0.258819
vn 0.965926 0.000000 0.258819
vn 0.707107 0.000000 0.707107
vn 0.258819 0.000000 0.965926
vn -0.258819 0.000000 0.965926
vn -0.707107 0.000000 0.707107
vn -0.965926 0.000000 0.258819
vn 0.000000 1.000000 0.000000
vn 0.000000 -1.000000 0.000000
vn -0.965926 0.000000 -0.258819
vn -0.707107 0.000000 -0.707107
vn -0.258819 0.000000 -0.965926
vn 0.258819 0.000000 -0.965926
vn 0.707107 0.000000 -0.707107
vn 0.965926 0.000000 -0.258819
vn 0.965926 0.000000 0.258819
vn 0.707107 0.000000 0.707107
vn 0.258819 0.000000 0.965926
vn -0.258819 0.000000 0.965926
vn -0.707107 0.000000 0.707107
vn -0.965926 0.000000 0.258819
vn 0.000000 1.000000 0.000000
vn 0.000000 -1.000000 0.000000
usemtl painted_metal
f 1/1/1 3/2/1 4/3/1 2/4/1
f 3/5/2 5/6/2 6/7/2 4/8/2
f 5/9/3 7/10/3 8/11/3 6/12/3
f 7/13/4 9/14/4 10/15/4 8/16/4
f 9/17/5 11/18/5 12/19/5 10/20/5
f 11/21/6 13/22/6 14/23/6 12/24/6
f 13/25/7 15/26/7 16/27/7 14/28/7
f 15/29/8 17/30/8 18/31/8 16/32/8
f 17/33/9 19/34/9 20/35/9 18/36/9
f 19/37/10 21/38/10 22/39/10 20/40/10
f 21/41/11 23/42/11 24/43/11 22/44/11
f 23/45/12 25/46/12 26/47/12 24/48/12
f 25/49/13 27/50/13 28/51/13 26/52/13
f 27/53/14 29/54/14 30/55/14 28/56/14
f 29/57/15 31/58/15 32/59/15 30/60/15
f 31/61/16 1/62/16 2/63/16 32/64/16
f 31/65/17 29/66/17 27/67/17 25/68/17 23/69/17 21/70/17 19/71/17 17/72/17 15/73/17 13/74/17 11/75/17 9/76/17 7/77/17 5/78/17 3/79/17 1/80/17
f 2/81/18 4/82/18 6/83/18 8/84/18 10/85/18 12/86/18 14/87/18 16/88/18 18/89/18 20/90/18 22/91/18 24/92/18 26/93/18 28/94/18 30/95/18 32/96/18
f 33/97/19 34/98/19 35/99/19 36/100/19
f 38/101/20 37/102/20 40/103/20 39/104/20
f 37/105/21 33/106/21 36/107/21 40/108/21
f 34/109/22 38/110/22 39/111/22 35/112/22
f 36/113/23 35/114/23 39/115/23 40/116/23
f 37/117/24 38/118/24 34/119/24 33/120/24
f 41/121/25 42/122/25 43/123/25 44/124/25
f 46/125/26 45/126/26 48/127/26 47/128/26
f 45/129/27 41/130/27 44/131/27 48/132/27
f 42/133/28 46/134/28 47/135/28 43/136/28
f 44/137/29 43/138/29 47/139/29 48/140/29
f 45/141/30 46/142/30 42/143/30 41/144/30
f 49/145/31 50/146/31 51/147/31 52/148/31
f 54/149/32 53/150/32 56/151/32 55/152/32
f 53/153/33 49/154/33 52/155/33 56/156/33
f 50/157/34 54/158/34 55/159/34 51/160/34
f 52/161/35 51/162/35 55/163/35 56/164/35
f 53/165/36 54/166/36 50/167/36 49/168/36
usemtl soft_white
f 57/169/37 58/170/37 59/171/37 60/172/37
f 62/173/38 61/174/38 64/175/38 63/176/38
f 61/177/39 57/178/39 60/179/39 64/180/39
f 58/181/40 62/182/40 63/183/40 59/184/40
f 60/185/41 59/186/41 63/187/41 64/188/41
f 61/189/42 62/190/42 58/191/42 57/192/42
usemtl painted_metal
f 65/193/43 66/194/43 67/195/43 68/196/43
f 70/197/44 69/198/44 72/199/44 71/200/44
f 69/201/45 65/202/45 68/203/45 72/204/45
f 66/205/46 70/206/46 71/207/46 67/208/46
f 68/209/47 67/210/47 71/211/47 72/212/47
f 69/213/48 70/214/48 66/215/48 65/216/48
usemtl cable_black
f 73/217/49 74/218/49 75/219/49 76/220/49
f 78/221/50 77/222/50 80/223/50 79/224/50
f 77/225/51 73/226/51 76/227/51 80/228/51
f 74/229/52 78/230/52 79/231/52 75/232/52
f 76/233/53 75/234/53 79/235/53 80/236/53
f 77/237/54 78/238/54 74/239/54 73/240/54
f 81/241/55 82/242/55 83/243/55 84/244/55
f 86/245/56 85/246/56 88/247/56 87/248/56
f 85/249/57 81/250/57 84/251/57 88/252/57
f 82/253/58 86/254/58 87/255/58 83/256/58
f 84/257/59 83/258/59 87/259/59 88/260/59
f 85/261/60 86/262/60 82/263/60 81/264/60
usemtl painted_metal
f 89/265/61 90/266/61 91/267/61 92/268/61
f 94/269/62 93/270/62 96/271/62 95/272/62
f 93/273/63 89/274/63 92/275/63 96/276/63
f 90/277/64 94/278/64 95/279/64 91/280/64
f 92/281/65 91/282/65 95/283/65 96/284/65
f 93/285/66 94/286/66 90/287/66 89/288/66
f 97/289/67 98/290/67 99/291/67 100/292/67
f 102/293/68 101/294/68 104/295/68 103/296/68
f 101/297/69 97/298/69 100/299/69 104/300/69
f 98/301/70 102/302/70 103/303/70 99/304/70
f 100/305/71 99/306/71 103/307/71 104/308/71
f 101/309/72 102/310/72 98/311/72 97/312/72
f 105/313/73 106/314/73 107/315/73 108/316/73
f 110/317/74 109/318/74 112/319/74 111/320/74
f 109/321/75 105/322/75 108/323/75 112/324/75
f 106/325/76 110/326/76 111/327/76 107/328/76
f 108/329/77 107/330/77 111/331/77 112/332/77
f 109/333/78 110/334/78 106/335/78 105/336/78
usemtl dark_rubber
f 113/337/79 115/338/79 116/339/79 114/340/79
f 115/341/80 117/342/80 118/343/80 116/344/80
f 117/345/81 119/346/81 120/347/81 118/348/81
f 119/349/82 121/350/82 122/351/82 120/352/82
f 121/353/83 123/354/83 124/355/83 122/356/83
f 123/357/84 125/358/84 126/359/84 124/360/84
f 125/361/85 127/362/85 128/363/85 126/364/85
f 127/365/86 129/366/86 130/367/86 128/368/86
f 129/369/87 131/370/87 132/371/87 130/372/87
f 131/373/88 133/374/88 134/375/88 132/376/88
f 133/377/89 135/378/89 136/379/89 134/380/89
f 135/381/90 113/382/90 114/383/90 136/384/90
f 135/385/91 133/386/91 131/387/91 129/388/91 127/389/91 125/390/91 123/391/91 121/392/91 119/393/91 117/394/91 115/395/91 113/396/91
f 114/397/92 116/398/92 118/399/92 120/400/92 122/401/92 124/402/92 126/403/92 128/404/92 130/405/92 132/406/92 134/407/92 136/408/92
f 137/409/93 139/410/93 140/411/93 138/412/93
f 139/413/94 141/414/94 142/415/94 140/416/94
f 141/417/95 143/418/95 144/419/95 142/420/95
f 143/421/96 145/422/96 146/423/96 144/424/96
f 145/425/97 147/426/97 148/427/97 146/428/97
f 147/429/98 149/430/98 150/431/98 148/432/98
f 149/433/99 151/434/99 152/435/99 150/436/99
f 151/437/100 153/438/100 154/439/100 152/440/100
f 153/441/101 155/442/101 156/443/101 154/444/101
f 155/445/102 157/446/102 158/447/102 156/448/102
f 157/449/103 159/450/103 160/451/103 158/452/103
f 159/453/104 137/454/104 138/455/104 160/456/104
f 159/457/105 157/458/105 155/459/105 153/460/105 151/461/105 149/462/105 147/463/105 145/464/105 143/465/105 141/466/105 139/467/105 137/468/105
f 138/469/106 140/470/106 142/471/106 144/472/106 146/473/106 148/474/106 150/475/106 152/476/106 154/477/106 156/478/106 158/479/106 160/480/106
f 161/481/107 163/482/107 164/483/107 162/484/107
f 163/485/108 165/486/108 166/487/108 164/488/108
f 165/489/109 167/490/109 168/491/109 166/492/109
f 167/493/110 169/494/110 170/495/110 168/496/110
f 169/497/111 171/498/111 172/499/111 170/500/111
f 171/501/112 173/502/112 174/503/112 172/504/112
f 173/505/113 175/506/113 176/507/113 174/508/113
f 175/509/114 177/510/114 178/511/114 176/512/114
f 177/513/115 179/514/115 180/515/115 178/516/115
f 179/517/116 181/518/116 182/519/116 180/520/116
f 181/521/117 183/522/117 184/523/117 182/524/117
f 183/525/118 161/526/118 162/527/118 184/528/118
f 183/529/119 181/530/119 179/531/119 177/532/119 175/533/119 173/534/119 171/535/119 169/536/119 167/537/119 165/538/119 163/539/119 161/540/119
f 162/541/120 164/542/120 166/543/120 168/544/120 170/545/120 172/546/120 174/547/120 176/548/120 178/549/120 180/550/120 182/551/120 184/552/120
