mtllib office_clean.mtl
o office_clean_blockout
vn 0.0 1.0 0.0
vn 0.0 -1.0 0.0
vn 0.0 0.0 1.0
vn 0.0 0.0 -1.0
vn 1.0 0.0 0.0
vn -1.0 0.0 0.0

o room_shell
v -3.0 0.0 -2.5
v 3.0 0.0 -2.5
v 3.0 0.0 2.5
v -3.0 0.0 2.5
v -3.0 2.7 -2.5
v 3.0 2.7 -2.5
v 3.0 2.7 2.5
v -3.0 2.7 2.5
usemtl office_floor
f 1//1 4//1 3//1 2//1
usemtl office_ceiling
f 5//2 6//2 7//2 8//2
usemtl office_wall
f 1//3 2//3 6//3 5//3
f 4//4 8//4 7//4 3//4
f 1//5 5//5 8//5 4//5
f 2//6 3//6 7//6 6//6

o anton_workstation
v -2.45 0.0 -1.75
v -0.95 0.0 -1.75
v -0.95 0.0 -0.95
v -2.45 0.0 -0.95
v -2.45 0.76 -1.75
v -0.95 0.76 -1.75
v -0.95 0.76 -0.95
v -2.45 0.76 -0.95
usemtl office_furniture
f 13//1 16//1 15//1 14//1
f 9//2 10//2 11//2 12//2
f 9//3 10//3 14//3 13//3
f 12//4 16//4 15//4 11//4
f 9//5 13//5 16//5 12//5
f 10//6 11//6 15//6 14//6

o second_workstation
v 0.75 0.0 -1.75
v 2.25 0.0 -1.75
v 2.25 0.0 -0.95
v 0.75 0.0 -0.95
v 0.75 0.76 -1.75
v 2.25 0.76 -1.75
v 2.25 0.76 -0.95
v 0.75 0.76 -0.95
usemtl office_furniture
f 21//1 24//1 23//1 22//1
f 17//2 18//2 19//2 20//2
f 17//3 18//3 22//3 21//3
f 20//4 24//4 23//4 19//4
f 17//5 21//5 24//5 20//5
f 18//6 19//6 23//6 22//6

o monitor_shapes
v -1.92 0.76 -1.80
v -1.48 0.76 -1.80
v -1.48 0.76 -1.72
v -1.92 0.76 -1.72
v -1.92 1.16 -1.80
v -1.48 1.16 -1.80
v -1.48 1.16 -1.72
v -1.92 1.16 -1.72
usemtl office_dark
f 29//1 32//1 31//1 30//1
f 25//2 26//2 27//2 28//2
f 25//3 26//3 30//3 29//3
f 28//4 32//4 31//4 27//4
f 25//5 29//5 32//5 28//5
f 26//6 27//6 31//6 30//6

o service_locker
v 2.42 0.0 0.70
v 2.86 0.0 0.70
v 2.86 0.0 1.85
v 2.42 0.0 1.85
v 2.42 1.82 0.70
v 2.86 1.82 0.70
v 2.86 1.82 1.85
v 2.42 1.82 1.85
usemtl office_dark
f 37//1 40//1 39//1 38//1
f 33//2 34//2 35//2 36//2
f 33//3 34//3 38//3 37//3
f 36//4 40//4 39//4 35//4
f 33//5 37//5 40//5 36//5
f 34//6 35//6 39//6 38//6

o glass_meeting_wall
v 2.72 0.0 -0.80
v 2.86 0.0 -0.80
v 2.86 0.0 0.35
v 2.72 0.0 0.35
v 2.72 2.25 -0.80
v 2.86 2.25 -0.80
v 2.86 2.25 0.35
v 2.72 2.25 0.35
usemtl office_glass
f 45//1 48//1 47//1 46//1
f 41//2 42//2 43//2 44//2
f 41//3 42//3 46//3 45//3
f 44//4 48//4 47//4 43//4
f 41//5 45//5 48//5 44//5
f 42//6 43//6 47//6 46//6
